<svg class="main-svg" xmlns="http://www.w3.org/2000/svg" xmlns:xlink="http://www.w3.org/1999/xlink" style="" viewBox="0 0 700 500"><rect x="0" y="0" width="700" height="500" style="fill: rgb(17, 17, 17); fill-opacity: 1;"/><defs id="defs-fa5a35"><g class="clips"><clipPath id="clipfa5a35xyplot" class="plotclip"><rect width="548" height="328"/></clipPath><clipPath class="axesclip" id="clipfa5a35x"><rect x="23" y="0" width="548" height="500"/></clipPath><clipPath class="axesclip" id="clipfa5a35y"><rect x="0" y="150" width="700" height="328"/></clipPath><clipPath class="axesclip" id="clipfa5a35xy"><rect x="23" y="150" width="548" height="328"/></clipPath></g><g class="gradients"/><g class="patterns"/></defs><g class="bglayer"/><g class="layer-below"><g class="imagelayer"/><g class="shapelayer"/></g><g class="cartesianlayer"><g class="subplot xy"><g class="layer-subplot"><g class="shapelayer"/><g class="imagelayer"/></g><g class="minor-gridlayer"><g class="x"/><g class="y"/></g><g class="gridlayer"><g class="x"><path class="xgrid crisp" transform="translate(120.21,0)" d="M0,150v328" style="stroke: rgb(40, 52, 66); stroke-opacity: 1; stroke-width: 1px;"/><path class="xgrid crisp" transform="translate(217.62,0)" d="M0,150v328" style="stroke: rgb(40, 52, 66); stroke-opacity: 1; stroke-width: 1px;"/><path class="xgrid crisp" transform="translate(315.02,0)" d="M0,150v328" style="stroke: rgb(40, 52, 66); stroke-opacity: 1; stroke-width: 1px;"/><path class="xgrid crisp" transform="translate(412.42,0)" d="M0,150v328" style="stroke: rgb(40, 52, 66); stroke-opacity: 1; stroke-width: 1px;"/><path class="xgrid crisp" transform="translate(509.83,0)" d="M0,150v328" style="stroke: rgb(40, 52, 66); stroke-opacity: 1; stroke-width: 1px;"/></g><g class="y"><path class="ygrid crisp" transform="translate(0,398.5)" d="M23,0h548" style="stroke: rgb(40, 52, 66); stroke-opacity: 1; stroke-width: 1px;"/><path class="ygrid crisp" transform="translate(0,335.15999999999997)" d="M23,0h548" style="stroke: rgb(40, 52, 66); stroke-opacity: 1; stroke-width: 1px;"/><path class="ygrid crisp" transform="translate(0,271.81)" d="M23,0h548" style="stroke: rgb(40, 52, 66); stroke-opacity: 1; stroke-width: 1px;"/><path class="ygrid crisp" transform="translate(0,208.46)" d="M23,0h548" style="stroke: rgb(40, 52, 66); stroke-opacity: 1; stroke-width: 1px;"/></g></g><g class="zerolinelayer"><path class="yzl zl crisp" transform="translate(0,461.85)" d="M23,0h548" style="stroke: rgb(40, 52, 66); stroke-opacity: 1; stroke-width: 2px;"/></g><g class="layer-between"><g class="shapelayer"/><g class="imagelayer"/></g><path class="xlines-below"/><path class="ylines-below"/><g class="overlines-below"/><g class="xaxislayer-below"/><g class="yaxislayer-below"/><g class="overaxes-below"/><g class="overplot"><g class="xy" transform="translate(23,150)" clip-path="url(#clipfa5a35xyplot)"><g class="scatterlayer mlayer"><g class="trace scatter trace7f86f7" style="stroke-miterlimit: 2; opacity: 1;"><g class="fills"/><g class="errorbars"/><g class="lines"><path class="js-line" d="M0,33.87L0.19,27.62L0.39,42.47L0.58,55.96L2.14,148.53L2.34,130.4L2.53,120.97L2.73,133.84L2.92,132.4L3.12,134.63L3.31,176.72L3.9,169.71L4.09,167.88L4.87,224.63L5.07,214.18L5.26,194.92L6.23,240.55L6.82,237.02L7.01,210.7L7.6,229.04L7.79,226.52L7.99,217.29L8.38,247.13L8.77,240.61L8.96,221.49L9.35,252.03L9.94,250.87L10.13,242.22L10.52,229.55L10.71,257.73L11.1,230.48L11.3,246L11.49,266.43L11.69,263.68L11.88,241.72L12.27,237.14L12.47,251.18L12.66,247.78L12.86,257.67L13.05,254.25L13.44,259.91L13.64,273.55L14.22,223.26L14.42,242.69L14.61,264.23L15.39,208.51L15.58,270.7L15.78,247.72L16.17,268.21L16.36,277.19L16.56,249.83L17.14,257.18L17.34,267.02L17.73,256.37L17.92,268.73L18.12,274.96L18.31,257.38L18.9,266.64L19.09,280.27L19.48,244.09L19.87,258.46L20.07,265.9L20.26,273.53L20.46,251.59L20.65,242.04L21.04,185.8L21.23,258.77L22.01,238.6L22.21,264.65L22.4,265.96L22.6,257.15L22.79,271.8L22.99,252.81L23.38,265.93L23.57,234.2L24.55,281.93L24.74,230.16L25.71,280.76L25.91,274.01L26.69,211.28L26.88,241.91L27.27,286.73L27.66,276.1L27.86,255.12L28.05,261.12L28.25,254.08L28.44,241.08L29.22,291.43L29.42,238.61L29.61,288.96L30.2,249.47L30.39,273.47L30.59,274.52L30.78,259.9L31.17,287.78L31.36,281.8L31.56,271.48L31.75,294.1L32.14,277.27L32.34,263.65L32.92,285.39L33.31,281.67L33.51,276L33.7,287.5L33.9,259.07L34.29,280.9L34.48,279.37L34.68,277.07L34.87,233.22L35.65,272.22L36.04,264.43L36.23,267.08L36.62,284.46L36.82,259.28L37.21,273.24L37.6,267.25L37.79,262.45L38.18,202.15L38.38,230.51L38.57,256.86L38.96,278.51L39.16,250.13L39.35,240.61L39.94,273.02L40.13,281.18L40.72,282.72L40.91,266.72L41.1,292.58L41.3,248.03L41.88,256.1L42.08,254.37L42.27,237.18L42.47,253.64L42.66,270.62L42.86,268.26L43.05,249.15L43.44,243.65L43.64,269.6L43.83,270.94L44.03,262.24L44.81,235.52L45,268.71L45.2,286.45L45.59,283.71L45.78,249.72L46.36,282.52L46.75,281.23L46.95,273.88L47.14,272.84L47.34,287.45L48.31,238.11L48.51,235.98L48.9,288.83L49.48,287.02L49.68,283.54L50.46,262.37L50.65,263.6L50.85,259.56L51.82,274.01L52.01,270.65L52.21,257.46L52.4,285.45L52.6,277.88L52.79,288.4L53.18,235.58L53.57,254.94L53.77,270.47L53.96,250.91L54.35,281.12L54.55,287.66L54.74,272.58L55.13,292.91L55.33,289.4L56.3,267.64L56.49,276.29L56.69,256.59L56.88,291.48L57.08,274.44L57.27,288.75L57.47,291.35L57.66,270.93L57.86,268.91L58.05,282.71L58.25,270.89L58.83,275.09L59.03,276.51L59.22,264.07L59.42,286.66L59.61,298.07L59.81,301.62L60,266.77L60.2,285.19L60.39,265.34L60.78,270.37L60.98,285.21L61.17,244.16L61.56,282.42L61.75,288.43L62.14,293.87L62.34,262.72L62.53,278.4L62.73,262.4L63.12,275.26L63.31,256.84L63.51,238.18L63.7,267.18L63.9,274.5L64.29,284.33L64.68,279.31L64.87,275.21L65.07,296.41L65.46,260.91L65.65,283.43L65.85,288.49L66.04,305.39L66.43,282.01L66.62,281.63L66.82,292.58L67.01,263.28L67.21,259.05L67.79,298.44L67.99,286.91L68.18,249.9L68.38,219.75L68.77,273.85L68.96,273.55L69.16,268.35L69.35,280.84L69.55,294.93L69.94,267.19L70.33,275.01L70.52,297.03L71.88,254.21L72.08,288.83L72.66,265.38L72.86,279.85L73.05,288.99L73.25,288.91L73.44,279.51L73.64,259.54L73.83,292.59L74.03,287.2L74.22,279.75L74.61,263.01L75.2,264.29L75.39,286.62L75.59,276.05L75.78,281.39L75.98,295.76L76.76,267.73L76.95,299.61L77.14,298.78L77.34,274.36L77.73,285.42L78.12,281.54L78.31,268.22L78.51,289.7L79.09,289.23L79.29,289.77L79.68,271.64L79.87,281.6L80.07,252.02L80.26,270.28L80.85,259.71L81.04,237.24L82.01,296.43L82.21,288.06L82.4,231.84L82.79,287.48L83.18,280.98L83.38,271.55L83.57,284.32L84.16,281.05L84.35,269.22L85.13,297.54L85.33,279.42L85.91,299.22L86.11,243.17L86.3,289.36L86.69,279.12L86.89,233.11L87.66,299.48L87.86,282.52L88.05,293.19L88.25,268.62L88.44,264.13L88.64,265.01L88.83,274.96L89.03,274.71L89.22,269.46L89.42,288.31L90,281.08L90.2,261.68L90.39,293.8L90.78,256.41L90.98,258.49L91.95,289.08L92.15,295.94L92.92,267.69L93.12,283.96L93.7,265.99L93.9,285.15L94.68,261.43L94.87,274.48L95.07,242.37L95.46,261.79L95.65,296.1L96.24,249.32L96.43,268.23L96.63,283.23L96.82,287.08L97.02,273.07L97.4,281.07L97.6,271.12L97.79,278.03L97.99,270.08L98.18,269.67L98.38,261.76L98.96,304.33L99.16,264.19L99.35,288.85L99.55,262.86L99.94,284.94L100.13,292.56L100.33,285.97L100.52,290.25L100.72,298.52L101.3,269.56L101.5,282.57L101.69,280.51L102.28,297.3L102.47,269.88L102.86,301.2L103.25,294.66L103.44,286.04L103.64,299.28L104.22,292.77L104.42,268.57L104.61,270.81L104.81,258.07L105,284.62L105.59,283.98L105.78,257.49L106.56,297.71L106.76,281.98L106.95,277.3L107.34,295.03L107.54,290.38L107.73,255.89L107.92,299.44L108.51,298.27L108.7,296.24L109.68,279.02L109.87,284.05L110.26,301.26L110.46,287.4L110.65,280.93L111.24,299.61L111.43,294.66L111.63,285.51L111.82,285.16L112.02,271.28L112.21,289.41L112.79,276.68L112.99,291.76L113.38,259.45L113.77,270.5L113.96,270.11L114.16,293.76L114.55,263.24L114.74,281.97L114.94,282L115.72,298.87L115.91,295.74L116.11,282.61L116.3,284.33L116.5,275.39L116.69,286.55L117.08,281.21L117.28,267.76L118.05,301.22L118.25,295.2L118.44,286.13L118.64,302.01L119.03,283.66L119.22,289.11L119.42,237.57L120,293.26L120.39,278.72L120.59,288.06L120.98,291.7L121.37,265.71L121.56,287.81L121.76,276.52L122.15,289.66L122.34,281.37L122.54,289.98L122.73,291.73L122.92,275.62L123.9,293.68L124.09,295.55L124.29,295.83L124.48,276.4L124.87,289.47L125.26,284.43L125.46,265.57L125.65,285.07L125.85,255.21L126.04,276.13L126.24,266.04L126.63,298.14L127.02,289.8L127.21,293.73L127.6,267.82L127.8,288.88L128.18,283.47L128.38,301.68L128.57,256.27L129.16,262.54L129.35,298.31L130.33,268.45L130.52,277.85L131.11,290.61L131.3,270.66L131.5,303.6L132.08,303.47L132.28,277.19L132.86,304.48L133.06,290.33L133.25,278.95L133.44,271.94L133.64,284.61L133.83,294.85L134.22,295.88L134.61,277.43L134.81,287.94L135,271.58L135.39,297.37L135.59,298.22L135.98,295.17L136.17,274.34L136.56,284.75L136.76,280.33L136.95,275.83L137.15,274.1L137.34,280.4L137.73,302.23L137.93,278.93L138.12,262.07L138.9,290.77L139.09,264.77L139.29,281.11L139.87,275.64L140.07,271.84L140.26,292.75L140.46,270.33L140.65,250.46L141.24,298.95L141.63,295.81L141.82,297.8L142.02,270.64L142.21,301.4L142.41,296.4L142.6,295.02L142.99,303.57L143.57,264.24L143.77,280.1L144.16,283.48L144.35,303.58L144.55,254.09L145.13,285.48L145.33,292.8L145.52,273.62L145.91,295.28L146.11,281.97L146.3,302.03L146.5,304.88L146.69,288.02L146.89,261.99L147.28,296.94L147.47,289.06L148.25,301.63L148.45,298.12L148.64,254.96L148.83,247.09L149.03,270.89L150,303.68L150.2,285.18L150.39,243.13L150.78,268.98L150.98,285.69L151.17,296.76L151.37,282.84L151.56,251.84L152.34,293.42L152.54,255.64L152.73,284.92L152.93,272.87L153.12,212.75L153.32,293.46L153.9,287.45L154.09,278.34L154.87,302.36L155.07,294.24L155.26,296.97L155.46,288.48L155.85,277.02L156.04,295.65L156.24,294.24L156.63,285.45L156.82,298.31L157.21,278.74L157.41,307.19L158.38,261.26L158.58,285.68L158.77,285.83L158.96,289.69L159.16,285.1L159.35,290.86L159.55,302.87L160.72,266.72L160.91,227.86L161.89,297.7L162.08,307.7L162.86,279.91L163.06,282.91L163.25,291.25L163.45,296.62L163.64,277.99L163.84,283.56L164.03,261.3L164.81,298.81L165,294.14L165.39,294.49L165.78,283.7L165.98,299.7L166.17,303.72L166.56,296.41L166.76,267.66L166.95,259.07L167.15,295.68L167.73,275.75L167.93,288L168.12,271.62L168.32,305.89L168.71,283.43L168.9,286.88L169.09,302.87L169.29,276.55L169.68,290.23L169.87,284.36L170.07,304.93L170.65,293.38L170.85,282.43L171.24,297.64L171.43,292.9L171.63,265.93L171.82,304.53L172.41,300.56L172.6,297.67L172.8,287.89L172.99,298.06L173.38,288.94L173.58,305.77L174.16,288.49L174.35,298.62L174.55,303.87L175.13,277.83L175.52,283.11L175.72,298.36L176.3,302.56L176.5,285.79L176.89,306.34L177.28,300.81L177.47,294.75L177.86,302L178.06,299.66L178.25,295L178.45,305.13L178.64,294.62L178.84,282.08L179.61,309.8L179.81,307.8L180,304.83L180.2,269.62L180.39,256.13L180.59,283.9L180.78,308.07L181.17,305.87L181.37,281.33L181.56,231.65L181.95,311.19L182.15,259.92L182.34,304.43L182.73,269.54L182.93,286.59L183.12,294.84L183.32,303.37L183.51,291.61L183.71,275.4L183.9,299.61L184.48,290.13L184.68,282.96L185.07,286.39L185.65,258.79L185.85,305.05L186.43,256.25L186.63,296.81L186.82,293.45L187.02,283.91L187.41,300.92L187.6,299.96L187.8,286.48L187.99,301.81L188.38,296.69L188.58,288.5L189.36,304.59L189.55,285.13L189.94,304.98L190.13,299.16L190.33,273.16L190.91,301.24L191.3,296.37L191.5,286.93L191.89,307.89L192.08,286.18L192.47,301.04L192.67,299.03L193.06,297.15L193.25,303.77L193.45,274.01L193.84,296.63L194.03,306.27L194.23,304.64L194.42,295.87L194.81,284.48L195,299.02L195.2,289.8L195.39,298.35L195.59,291.33L195.98,292.2L196.17,306.25L196.37,279.97L196.95,296.8L197.15,300.63L197.34,269.69L197.93,273.56L198.12,291.26L198.32,292.44L198.51,287.01L198.9,303.05L199.29,295.77L199.49,291.58L199.68,286.21L199.87,295.28L200.26,287.8L200.46,300.37L200.65,304L200.85,281.94L201.04,304.43L201.63,300.65L201.82,291.94L202.02,283.15L202.21,301.88L202.41,296.58L202.6,291.64L202.8,303.16L202.99,285.99L203.19,260.34L203.77,289.05L204.16,289.04L204.36,272.86L204.75,299.02L205.13,289.18L205.33,286.25L205.72,295.98L205.91,295.52L206.11,280.58L206.5,296.42L206.69,288.36L206.89,282.67L207.28,256.7L207.67,303.21L207.86,294.24L208.25,304.46L208.84,243.87L209.03,271.62L209.23,268.75L209.42,283.55L209.81,296.22L210,282.18L210.2,294.74L210.39,291.67L210.98,282.2L211.17,291.75L211.37,283.95L211.56,300.74L211.76,306.17L211.95,278.25L212.54,290.92L212.73,284.96L212.93,299.79L213.12,295.73L213.32,242.81L214.29,305.38L214.49,301.45L214.88,281.12L215.07,294.1L215.26,297.16L215.46,300.75L215.65,292.08L215.85,292.08L216.43,291.03L216.63,305.47L216.82,305.05L217.02,298.46L217.8,270.87L217.99,293.1L218.19,301.56L218.38,286.57L218.58,285.5L219.16,304.37L219.55,298.47L219.75,298.14L219.94,291.33L220.14,298.17L220.33,294.01L220.52,255.59L220.72,238.88L220.91,268.28L221.11,285.34L221.5,298.29L221.69,283.99L221.89,283.54L222.08,281.99L222.28,287.73L223.25,301.4L223.45,293.24L223.64,307.35L224.03,281.02L224.23,297.3L224.42,290.78L224.62,291.99L224.81,276.39L225.2,297.64L225.78,288.81L225.98,276.78L226.37,300.96L226.76,287.95L226.95,290.63L227.15,271.2L227.54,297.98L227.73,298.27L228.12,297.57L228.32,273.38L229.29,298.13L229.49,291.35L229.88,303.37L230.07,287.75L230.27,285.34L230.46,288.96L230.65,296.48L230.85,272.18L231.24,296.02L231.43,301.8L231.82,293.79L232.02,302.54L232.6,285.63L232.99,289.42L233.19,290.21L233.58,290.86L233.97,284.9L234.16,292.7L234.36,296.14L234.55,295.62L234.75,283.8L235.33,304.14L235.53,288.22L235.72,271.17L235.91,301.38L236.5,292.61L236.69,285.98L237.67,306.9L237.86,299.99L238.06,291.23L238.45,293.24L238.64,302.19L239.23,280.77L239.42,305.45L240.4,281.41L240.59,297.09L240.78,280.4L240.98,300.47L241.37,292.79L241.56,293.26L241.76,291.01L241.95,301.45L242.34,308.01L242.54,276.87L243.51,301.89L243.71,271.05L244.49,306.19L244.68,301.67L245.27,273.7L245.46,277.17L245.66,298.04L245.85,277.85L246.43,286.86L246.63,293.33L246.82,294.56L247.02,302.43L247.99,275.57L248.19,301.09L248.38,300.08L248.58,309.34L248.77,308.1L248.97,293.2L249.16,288.6L249.36,303.68L249.75,276.95L250.14,284.33L250.33,308.38L250.92,255.65L251.11,282.97L252.08,308.09L252.28,301.51L252.47,293.62L252.67,296.97L252.86,284.8L253.06,305.31L253.64,295.47L253.84,302.61L254.23,289.37L254.42,275.54L254.62,301.72L255.2,280.05L255.4,297.89L255.59,304.48L255.98,293.12L256.17,282.5L256.37,306.63L256.95,287.59L257.15,283.75L257.54,292.31L257.73,279.16L258.51,307.71L258.71,297.97L258.9,290.48L259.1,300.79L259.29,291.64L259.49,307.77L259.68,306.24L259.88,283.53L260.07,285.03L260.27,297.31L260.85,275.2L261.05,302.13L261.43,303.21L261.82,296.92L262.02,300.35L262.6,271.04L262.8,293.49L263.58,264.45L263.77,286.53L263.97,291.91L264.16,280.6L264.36,306.22L264.55,305.34L264.75,299.19L264.94,253.14L265.33,302.17L265.53,301.42L265.92,285.73L266.11,292.16L266.31,298.25L266.69,298.87L266.89,288.12L267.08,293.33L267.28,302.92L267.47,301.33L267.67,305.05L267.86,296.99L268.45,303.85L268.64,265.41L268.84,298.44L269.42,275.62L269.62,293.74L270.2,307.1L270.4,295.83L270.59,298.16L270.79,292.73L270.98,290.31L271.18,287.26L271.56,292.77L271.76,288.33L271.95,298.21L272.15,297.42L272.34,299.32L272.54,298.52L272.73,280.63L272.93,304.15L273.51,290.47L273.71,283.71L274.68,305.47L274.88,298.81L275.27,299.77L275.46,287.8L275.66,297.7L276.05,301.9L276.44,291.67L276.63,304.16L277.6,269.24L277.8,286.37L277.99,287.72L278.19,304.27L278.77,273.16L278.97,290.33L279.16,285.9L279.36,302.77L279.94,296.21L280.14,281.71L280.53,296.02L280.72,290.02L280.92,277.85L281.5,308.41L281.69,277.71L282.67,302.76L282.86,293.92L283.25,307.43L283.45,297.92L283.64,287.66L283.84,285.98L284.03,298.54L284.23,290.2L284.62,303.89L284.81,301.11L285.01,277.8L285.2,306.48L285.4,306.38L285.59,306.55L285.98,293.24L286.18,306.15L286.37,301.84L286.57,306.29L286.76,303.13L286.95,268.94L287.54,298.58L287.73,288.46L287.93,282.74L288.32,276.51L288.71,301.25L288.9,292.75L289.1,306.25L289.49,290.64L289.68,300.33L289.88,300.77L290.07,297L290.27,265.13L290.46,305.34L291.05,304.44L291.24,304.08L292.21,282.1L292.41,289.92L292.6,296.63L292.8,307.74L293.19,291.16L293.38,301.74L293.58,302.8L293.77,305.14L293.97,298.28L294.16,300.16L294.36,291.87L294.55,287.1L294.75,298.5L295.14,287.28L295.33,291.21L295.53,305.47L295.72,290.18L295.92,270.22L296.7,305.46L296.89,299.84L297.08,278.65L298.06,300.65L298.25,306.5L298.45,306.12L298.64,300.64L299.42,289.67L299.62,294.84L299.81,284.99L300.2,289.69L300.4,306.68L300.59,308.07L300.79,301.02L300.98,298.08L301.18,308.06L301.96,270.48L302.15,278.35L302.34,286.21L302.54,303.84L303.12,303.65L303.32,291.87L303.9,288.91L304.1,299.09L304.29,292.74L304.88,291.47L305.27,304.61L305.46,295.08L305.66,294.58L305.85,298.36L306.05,298.87L306.24,287.97L306.83,303.4L307.02,285.29L307.41,293.32L307.8,291.06L307.99,277.35L308.38,268.87L308.97,301.89L309.16,301.64L309.75,296.25L309.94,299.53L310.14,284.67L310.33,302.2L310.72,295.53L310.92,307.27L311.5,275.74L311.7,278.03L311.89,301.46L312.67,281.78L312.86,286.54L313.06,288.01L313.25,283.54L313.45,294.99L313.64,297.87L313.84,287.73L314.03,307.98L314.23,306.18L314.62,308.39L315.2,287.76L315.4,309.84L315.79,289.37L316.18,289.43L316.37,301.26L316.76,302.63L317.15,292.36L317.35,294.58L317.54,282.59L317.93,303.53L318.12,302.62L318.32,300.69L318.51,302.92L318.71,284.56L319.29,297.8L319.49,294.39L319.68,286.71L320.27,305.6L320.46,287.76L320.85,292.49L321.05,282.69L321.24,299.67L321.44,302.7L321.63,278.39L322.02,294.72L322.41,290.91L322.61,288.26L322.8,303.26L322.99,282.21L323.19,268.51L324.16,306.42L324.36,300.82L324.55,277.19L324.75,304.35L324.94,301.96L325.14,303.36L325.53,306.33L326.11,280.4L326.31,290.28L326.5,292.1L326.7,288.38L326.89,303.02L327.09,272.52L327.67,295.92L327.86,299.49L328.06,281.23L328.64,287.35L328.84,307.97L329.03,308.16L329.23,295.69L329.42,279.4L329.62,304.35L329.81,301.59L330.01,298.44L330.2,299.07L330.4,296.37L330.79,308.58L330.98,304.51L331.18,271.78L331.37,259.88L331.57,279.02L331.76,300.73L331.96,294.06L332.35,296.82L332.54,307.18L332.93,262.67L333.12,279.14L333.32,288.52L333.51,290.24L333.71,300.47L333.9,298.08L334.1,256.71L334.88,302.06L335.07,271.09L335.27,295.62L335.46,285.33L335.66,236.82L335.85,300.14L336.44,298.81L336.63,296.55L336.83,305.97L337.41,305.2L337.61,301.01L337.8,302.77L338,301.53L338.19,285.69L338.38,285.19L338.58,302.01L338.77,303.88L338.97,293.94L339.16,290.83L339.36,303.46L339.75,288.68L339.94,309.03L340.14,301.35L340.33,303.47L340.92,280.14L341.11,294.52L341.31,298.08L341.5,298.39L341.7,302.17L341.89,296.22L342.09,305.17L342.28,303.97L342.48,303.03L343.45,251.46L343.64,298.45L343.84,298.48L344.03,283.37L344.62,309.88L344.81,305.69L345.01,293L345.4,287.35L345.59,289.42L345.79,298.72L345.98,301.23L346.18,289.92L346.57,285.71L347.35,306.6L347.54,297.85L347.93,303.48L348.32,293.63L348.51,305.65L348.71,307L348.9,304.59L349.1,303.09L349.49,278.93L349.68,304.57L349.88,300.49L350.07,302.26L350.27,283.63L350.66,282.79L350.85,308.27L351.05,299.11L351.24,291.39L351.63,306.29L351.83,285.04L352.61,306.97L352.8,296.42L353,304.06L353.19,298.96L353.38,288.16L353.77,302.52L353.97,302.21L354.16,282.51L354.36,308.18L354.94,301.98L355.14,303.08L355.72,293.81L355.92,297.63L356.11,308.64L356.7,295.03L356.89,305.01L357.09,306.02L357.28,294.79L357.48,306.08L357.67,288.67L357.87,292.6L358.06,288.81L358.84,307.49L359.03,292.46L359.42,307.41L359.81,307.35L360.01,301.25L360.4,308.1L360.59,307.06L360.79,301.7L360.98,309.54L361.18,303.84L361.37,289.79L362.15,311.1L362.35,310.96L362.74,292.23L362.93,280.27L363.32,310.79L363.71,308.12L363.9,284.8L364.1,238.87L364.49,311.47L364.68,264.77L364.88,309.02L365.27,275.75L365.46,297.33L365.66,304.54L365.85,308.32L366.05,296.79L366.24,281.52L366.44,304.39L366.63,295.16L366.83,300.52L367.8,282.67L368,269.83L368.39,306.74L368.77,300.22L368.97,269.82L369.94,307.52L370.14,301.15L370.53,306.35L371.11,295.2L371.31,307.7L371.89,309.47L372.09,294.05L372.28,304.48L372.48,308.63L372.67,302.02L372.87,281.36L373.45,306.07L373.84,303.04L374.03,292.52L374.42,309.89L375.01,307.88L375.2,303.89L375.4,303.06L375.59,305.95L375.79,306.11L375.98,284.47L376.57,308.81L376.96,301.49L377.15,297.02L377.35,291.89L377.54,305.47L377.74,297.49L377.93,301.36L378.13,296.62L378.52,300.82L378.71,308.66L378.91,289.55L379.49,305.11L379.68,305.46L379.88,273.82L380.46,287.03L380.66,299L380.85,299.92L381.05,291.72L381.44,306.43L381.83,302.64L382.02,295.95L382.22,288.43L382.41,300.52L382.61,302.3L383,308.2L383.39,289.63L383.58,305L384.55,290.94L384.75,307.15L384.94,305.73L385.14,297.83L385.33,307.76L385.53,293.51L385.72,263.4L386.7,303.91L386.89,282.08L387.28,305.51L387.67,297.58L387.87,293.3L388.45,302.65L388.65,291.74L389.62,306.36L389.81,266.28L390.79,308.71L390.98,302.67L391.37,265.12L391.76,276.36L391.96,296.05L392.35,302.34L392.54,291.2L392.74,299.25L393.32,293.23L393.52,293.54L394.3,309.61L394.49,293.4L394.88,307.71L395.07,300.86L395.27,292.94L395.46,303.25L395.66,301.57L395.85,240.74L396.83,308.65L397.02,306.76L397.22,303.75L397.41,289.52L397.8,303.95L398.19,295.28L398.39,295.15L399.17,307.95L399.36,308.2L399.94,287.65L400.14,299.08L400.33,286.98L400.72,305.84L400.92,294.36L401.11,288.42L401.7,306.91L402.09,304.08L402.28,303.87L402.48,300.31L402.67,304.17L402.87,304.14L403.06,274.17L403.26,243.67L403.65,297.52L403.84,299.53L404.04,300.79L404.23,293.76L404.43,294.23L404.62,293.61L404.81,297.16L405.4,306.18L405.59,295.24L406.18,309.75L406.37,291.1L406.57,288.22L406.76,304.09L407.35,286.83L407.54,295.61L407.74,304.6L407.93,305.83L408.13,291.15L408.71,307.07L408.91,305.65L409.1,287.9L409.69,283.23L410.07,302.89L410.27,300.45L410.46,302.65L410.66,300.75L410.85,285.84L411.83,302.12L412.02,298.13L412.22,297.57L412.41,307.19L412.8,291.49L413,294.54L413.39,282.86L413.97,304.92L414.17,302.05L414.56,305.67L415.14,290.93L415.33,306.94L415.92,294.2L416.11,295.68L416.31,296.63L416.5,292.21L416.7,299.54L416.89,296.86L417.09,298.1L417.28,290.84L417.48,306.7L417.67,301.74L417.87,306.31L418.26,278.84L418.45,305.37L418.65,283.96L419.23,297.99L419.43,302.66L419.62,298.5L420.01,302.46L420.2,309.4L420.59,295.22L420.98,299.49L421.18,304.7L421.76,294.75L421.96,308.04L422.93,280.48L423.13,303.3L423.32,288.48L423.52,304.22L423.91,298.37L424.1,298.08L424.3,299.33L424.49,305.51L424.88,309.58L425.08,283.92L426.05,304.71L426.24,281.72L427.02,308.99L427.22,304.83L427.8,279.72L428,283.81L428.19,301.76L428.39,289.91L428.97,293.54L429.17,299.88L429.56,305.28L429.75,298.03L430.33,303.05L430.53,277.55L431.11,310.48L431.31,310.06L431.5,297.54L431.89,303.07L432.28,280.66L432.48,301.65L432.87,309.78L433.26,279.55L433.45,280.36L433.65,293.73L433.84,292.23L434.04,301L434.43,296.52L434.62,310.45L435.4,291.89L435.59,308.75L435.79,307.24L435.98,296.35L436.37,306.26L436.57,299.87L436.76,293.55L436.96,286.82L437.15,306.73L437.74,289.4L437.93,303.16L438.13,308.09L438.32,307.41L438.52,298.46L438.71,288.87L438.91,309.25L439.1,307.48L439.69,290.27L439.88,296.53L440.08,303.12L440.27,284.75L440.46,304.95L440.66,300.91L440.85,305.29L441.05,309.73L441.24,302.63L441.44,291.79L442.22,308.94L442.41,290.67L442.61,287.57L442.8,301.72L443.39,281.19L443.58,305.2L443.97,308.01L444.36,299.92L444.56,303.74L444.95,297.99L445.14,279.08L445.34,297.29L445.92,293.28L446.11,278.29L446.89,308.19L447.09,307.73L447.28,302.84L447.48,267.06L447.87,306.97L448.06,305.59L448.26,303.96L448.45,289.82L449.23,304.38L449.43,295.49L449.62,294.29L449.82,306.14L450.01,305.5L450.21,307.48L450.4,302.02L450.98,306.13L451.18,273.32L451.37,302.92L451.96,281.63L452.15,300.98L452.35,302.26L452.54,300.11L452.74,309.5L453.71,294.66L453.91,297.48L454.3,296.35L454.69,304.18L454.88,303.39L455.08,302.67L455.27,289.59L455.47,306.38L455.85,297.54L456.05,300.79L456.24,288.44L456.44,302.43L456.63,296.01L456.83,302.74L457.22,307.85L457.41,304.99L457.61,295.3L457.8,306.35L458.39,299.13L458.58,305.62L459.17,308.52L459.75,281.12L459.95,296.69L460.14,281.96L460.53,296.21L460.73,305.45L461.31,279.5L461.5,296.72L461.7,289.07L461.89,306.06L462.48,299.37L462.67,289L463.06,303.58L463.26,297.18L463.45,284.82L464.04,309.14L464.43,300.59L464.62,284.74L465.79,308.86L465.99,301.48L466.18,292.56L466.57,303.42L466.76,297.11L466.96,306.29L467.15,306.16L467.35,303.15L467.54,284.49L467.74,309.55L467.93,308.31L468.13,308.12L468.52,298.69L468.71,306.71L468.91,306.33L469.1,308.56L469.3,304.94L469.49,270.95L470.08,303.21L470.27,295.02L470.47,286.61L471.24,306.54L471.44,298.36L471.63,308.49L472.02,295.88L472.22,302.34L472.41,303.04L472.61,300.58L472.8,270.73L473.58,307.52L473.78,307.78L474.75,285.94L474.95,293.05L475.34,309.17L475.53,301.23L475.73,295.55L476.31,307.9L476.7,304.54L476.89,298.85L477.09,297.8L477.28,301.76L477.48,293.26L477.87,294.94L478.06,308.9L478.45,278.38L478.84,285.94L479.04,292.32L479.23,307.48L479.62,288.99L479.82,294.91L480.01,292.63L480.79,308.48L480.99,308.43L481.18,305.19L481.96,294.06L482.15,299.66L482.35,291.63L482.74,296.04L482.93,309.11L483.13,309.77L483.32,303.82L483.71,309.1L484.49,285.35L484.69,278.56L485.08,307.12L485.66,306.47L485.86,298.52L486.05,298.3L486.25,299.75L486.44,298.52L486.63,301.09L486.83,302.01L487.22,305.79L487.41,294.75L487.8,307.72L488.19,301.22L488.39,301.49L488.58,302.12L488.78,291.54L489.36,306.12L489.56,291.06L490.14,297.65L490.34,294.17L490.53,281.32L490.92,278.03L491.51,305L491.7,302.94L491.89,304.22L492.09,302.77L492.28,296.93L492.67,290.79L492.87,304.01L493.06,300.57L493.26,299.31L493.45,308.56L493.65,286.09L493.84,302.71L494.04,286.98L494.23,285.79L494.43,302.67L494.82,305.12L495.21,287.16L495.4,290.93L495.6,292.63L495.79,287.48L495.99,299.68L496.18,302.83L496.38,293.97L496.57,310.38L496.77,308.35L496.96,301.9L497.15,309.7L497.35,294.31L497.54,305.35L497.74,290.47L497.93,310.47L498.52,298.42L498.71,293.87L499.3,305.8L499.49,303.01L499.69,297.38L499.88,296.71L500.08,288.31L501.05,306.77L501.25,289.52L502.02,303.85L502.22,290.16L502.8,306.46L503,293.96L503.19,291.33L503.58,287.17L503.97,307.64L504.17,281.97L504.75,301.42L504.95,296.77L505.14,294.63L505.34,306.53L505.53,286.19L505.73,283.04L506.31,308.32L506.7,308.21L506.9,302.97L507.09,282.7L507.28,305.55L507.48,304.67L507.67,306.39L507.87,287.89L508.06,308.25L508.45,301.32L508.65,286.04L509.43,303.99L509.62,284.97L509.82,305.64L510.4,302.65L510.6,284.18L511.57,309.49L511.77,300.04L511.96,285.24L512.15,308.12L512.35,305.06L512.54,301.19L512.74,302.06L512.93,301.04L513.13,301.82L513.32,310L513.52,306.92L513.71,283.93L513.91,268.56L514.1,285.05L514.3,303.57L514.49,297.77L514.88,298.74L515.08,308.34L515.47,276.71L515.66,285.51L515.86,294.61L516.44,304.65L516.64,258.82L517.41,305.97L517.61,278.4L518.19,258.82L518.39,301.77L518.58,287.89L519.56,308.21L519.75,302.89L520.14,306.76L520.53,305.42L520.73,293.43L520.92,291.45L521.12,305.61L521.31,304.41L521.51,291.96L521.7,293.72L521.9,304.42L522.29,297.4L522.48,309.32L522.67,305.67L522.87,304.7L523.06,294.35L523.26,295.58L523.45,287.57L524.62,307.29L524.82,306.26L525.01,305.45L525.21,288.42L525.4,302.67L525.79,287.98L525.99,268.6L526.18,304.52L526.77,298.08L526.96,309.04L527.16,310.56L527.35,306.99L527.54,296.78L528.13,291.35L528.32,303.05L528.52,304.27L528.71,297.91L528.91,298.89L529.1,294.24L529.88,308.31L530.08,299.26L530.27,299.34L530.47,306.68L530.66,296.43L531.05,306.67L531.25,307.7L531.64,306.31L531.83,291.31L532.03,289.03L532.22,307.54L533.19,287.96L533.39,308.57L533.78,293.96L533.97,304.04L534.17,307.55L534.95,290.61L535.14,307.86L535.92,293.49L536.12,300.24L536.51,306.02L536.7,289.55L536.9,309.06L537.48,302.74L537.68,305.47L538.26,298.06L538.45,300.93L538.65,309.67L539.04,302.42L539.23,298.02L539.82,295.8L540.01,306.57L540.21,292.73L540.6,291.21L540.99,306.02L541.18,305.94L541.38,308.62L541.57,294.73L541.96,308.6L542.16,308.26L542.35,308.91L542.55,303.87L543.52,310.73L543.71,305.96L543.91,290.93L544.3,311.15L544.49,310.82L544.88,311.44L545.08,309.7L545.47,292.09L545.66,303.68L545.86,311.3L546.25,309.43L546.44,288.77L546.64,247.61L547.03,311.6L547.22,267.72L547.42,309.88" style="vector-effect: none; fill: none; stroke: rgb(99, 110, 250); stroke-opacity: 1; stroke-width: 2px; opacity: 1;"/></g><g class="points"/><g class="text"/></g><g class="trace scatter trace9bb7ed" style="stroke-miterlimit: 2; opacity: 1;"><g class="fills"/><g class="errorbars"/><g class="lines"><path class="js-line" d="M0.19,16.4L1.17,70.91L1.36,68.99L2.73,146.58L2.92,139.11L3.12,136.36L3.31,149.59L3.51,141.88L3.7,159.39L3.9,186.44L4.29,169.01L4.48,199.06L4.68,199.29L4.87,203.44L5.07,180.18L5.45,175.96L5.84,211.1L6.04,203.39L6.23,194.7L7.01,232.91L7.21,205.9L7.79,197.34L8.18,244.98L8.38,223.7L8.57,237.45L8.96,235.45L9.16,224.75L9.55,193.46L9.94,218.17L10.13,238.29L10.32,233.35L10.52,255.73L10.71,235.64L11.3,247.75L11.49,266.42L12.27,232.26L12.47,267.15L12.66,219.89L13.05,235.36L13.25,266.55L14.22,217L14.42,229.61L15,263.46L15.2,253.74L15.39,255.68L15.58,248.06L15.78,263.57L15.97,252.23L16.17,261.79L16.36,232.56L16.56,273.39L16.75,246.9L16.95,260.33L17.14,240.92L17.34,243.39L17.53,279.15L18.12,236.33L18.31,269.33L18.51,270.29L18.9,242.45L19.09,254.3L19.29,273.77L19.68,251.64L20.07,266.29L20.26,257.45L21.04,245.14L21.23,256.58L21.62,264.12L21.82,254.08L22.01,261.32L22.21,251.95L22.79,274.35L22.99,270.47L23.18,227.12L23.38,280.77L23.96,274.38L24.16,267.05L24.35,201.85L24.55,269.42L24.94,250.34L25.13,265.3L25.33,268.04L25.52,240.74L26.1,271.94L26.3,226.4L26.49,277.89L27.08,270.22L27.27,241.24L28.05,282.19L28.25,260.76L28.64,245.85L28.83,252.38L29.03,280.84L29.22,281.11L29.42,265.46L29.81,258.6L30,271.1L30.2,271.08L30.39,265.37L30.59,264.09L30.78,244.52L30.97,238.58L31.17,276.85L31.36,275.12L31.56,276.08L31.75,247.39L31.95,248.49L32.14,255.39L32.53,278.42L32.73,256.55L32.92,245.75L33.51,280.72L33.7,260.32L33.9,269.46L34.09,244.5L34.29,281.46L34.68,254.11L34.87,243.04L35.46,274.03L35.65,271.98L35.85,254.65L36.43,290.1L36.62,245.49L36.82,248.17L37.01,283.39L37.79,235.28L37.99,253.57L38.38,247.28L38.77,283.22L38.96,279.65L39.16,258.84L39.74,282.76L39.94,280.67L40.13,268.29L40.33,272.82L40.52,263.52L40.72,259.61L41.1,251.08L41.69,277.18L41.88,274.86L42.27,278.97L42.66,249.84L42.86,283.43L43.25,256.67L43.83,259.12L44.03,261.41L44.22,274.27L44.42,245.82L44.61,260.78L44.81,263.06L45,286.69L45.2,261.2L45.39,278.08L45.59,255.1L45.98,289.69L46.17,245.8L46.36,269.73L46.56,274.23L46.75,248.93L47.14,280.3L47.34,271.52L47.73,256.95L48.12,260.15L48.31,273.61L48.51,252.48L48.9,272.1L49.09,286.32L49.87,262.3L50.07,270.13L50.26,263.69L50.46,289.7L51.43,248.42L51.62,252.54L51.82,288.99L52.01,259.34L52.6,280.75L52.79,282.07L53.18,282.55L53.38,274.05L53.77,289.68L54.16,282.31L54.35,268.34L55.13,288.19L55.33,287.49L55.52,273.18L55.91,262.18L56.11,274.01L56.3,276.79L57.47,249.31L57.66,274.48L58.25,281.76L58.44,260.63L58.64,274.55L58.83,272.33L59.03,291.4L59.22,269.88L59.81,287.11L60,274.9L60.2,290.62L60.39,264.94L60.78,278.39L60.98,242.57L61.75,292.07L61.95,266.63L62.34,294.52L62.73,291.92L62.92,277.22L63.12,277.62L63.31,272.19L63.7,287.07L64.29,285.26L64.48,286.66L64.68,283.94L64.87,290.41L65.07,288.54L65.26,267.41L65.85,287.44L66.04,285.32L66.24,279.23L66.62,278.04L66.82,276.87L67.01,282.39L67.4,273.91L67.6,233.75L67.99,286.14L68.38,284.94L68.57,250.94L68.96,291.29L69.16,280.68L69.35,267.6L69.55,267.85L69.74,289.46L69.94,294.39L70.13,283.58L70.33,280.95L70.52,290.32L70.72,257.88L71.5,285.15L71.69,272.22L71.88,292.12L72.27,269.14L72.47,263.09L72.66,261.27L72.86,285.66L73.25,253.75L73.64,268.55L73.83,272.54L74.03,276.35L74.22,295.09L74.42,237.36L75,281.47L75.2,283.38L75.98,268.43L76.17,277.18L76.56,288.16L76.76,238.23L77.92,290.77L78.12,271.68L78.31,271.9L78.51,287.7L78.7,248.87L79.09,295.53L79.29,292.91L80.07,260.01L80.46,265.01L80.65,272.07L80.85,273.38L81.04,290.17L81.82,264.22L82.01,287.68L82.21,265.66L82.6,280.88L82.79,286.81L83.18,290.57L83.38,269.46L83.57,276.63L83.77,282.34L84.16,288.3L84.35,285.97L84.55,283.85L84.74,274.82L84.94,277.54L85.13,229.78L85.52,292.28L85.91,262.8L86.11,294.87L86.69,255.77L86.89,280.55L87.08,298.13L87.47,259.45L88.05,272.24L88.25,290.9L88.64,267.06L88.83,282.73L89.03,290.45L89.22,258.91L89.61,266.93L89.81,287.15L90.2,292.66L90.39,270.22L90.59,274.68L90.78,254.99L91.37,287.76L91.56,282.39L91.76,283.47L91.95,287.2L92.15,286.61L92.34,248.51L92.92,295.34L93.12,290.11L93.31,276.08L93.9,290.67L94.09,266.06L94.29,261.4L94.48,287.28L95.46,270.17L95.65,288.65L95.85,243.36L96.24,295.77L96.43,285.76L97.4,262.04L97.6,273.81L98.18,271.31L98.57,287.13L98.77,280.24L98.96,259.36L99.35,293.28L99.55,269.89L99.74,282.59L100.33,281.49L100.52,294.48L100.72,271.33L101.11,287.1L101.3,282.8L101.5,271.5L102.28,300.14L102.47,252.8L102.66,297.35L103.05,281.2L103.25,257.53L103.83,240.79L104.03,293.41L104.22,290.23L104.42,283.08L104.61,282.89L104.81,288.93L105.2,277.65L105.39,281.98L105.59,290.44L105.98,283.1L106.17,293.52L106.56,276.9L106.95,286.98L107.15,290.54L107.34,295.96L107.54,272.72L108.12,296.15L108.31,255.53L109.48,294.58L109.68,291.11L109.87,295.29L110.07,286.11L110.26,270.8L110.85,287.21L111.04,260.87L111.63,257.55L111.82,296.88L112.02,287.46L112.21,250.55L112.6,296.73L112.99,276.58L113.18,279.09L113.57,265.89L113.77,273.64L113.96,284.44L114.16,278.79L114.35,296.19L115.33,251.44L115.52,283.19L115.72,294.04L115.91,271.5L116.3,286.11L116.5,261.78L117.28,297.27L117.47,261.47L118.44,303.33L118.64,264.32L118.83,258.95L119.03,277.09L119.22,291.86L119.61,269.89L119.81,255.18L120,305.26L120.59,290.79L120.78,286.55L120.98,291.3L121.37,285.72L121.56,277.05L121.76,253.61L122.15,287.89L122.34,296.67L122.54,289.57L122.73,290.72L122.92,302.75L123.12,250.25L123.7,290.74L123.9,257.74L124.87,297.72L125.07,283.67L125.26,292.28L125.65,289.25L125.85,279.4L126.04,294.23L126.63,289.17L126.82,280.77L127.02,300.24L127.21,274.81L127.41,292.52L127.6,281.41L127.99,276.49L128.18,296.36L128.38,259.24L128.77,297.62L129.16,282.33L129.35,293.5L130.13,269.25L130.33,275.13L130.52,285.07L130.72,285.37L130.91,283.23L131.5,257.68L131.69,285.23L131.89,259.06L132.28,296.07L132.47,286.96L133.06,287.59L133.25,273.71L133.44,296.65L134.42,272.44L134.61,278.1L134.81,281.43L135.2,287.26L135.39,278.41L135.98,288.92L136.17,268.95L136.56,300.25L136.95,289.74L137.15,273.76L137.34,259.71L137.93,260.22L138.12,277.71L138.31,282.68L138.51,276.25L138.7,302.64L138.9,300.54L139.09,305.46L139.29,291.23L139.68,288.41L140.07,294.93L140.26,282.35L140.46,281.97L140.65,278.96L140.85,273.01L141.04,305.14L142.02,270.44L142.21,279.98L142.6,258.77L142.8,293.71L142.99,283.78L143.19,270.89L144.55,296.64L144.74,289.51L144.94,294.46L145.13,277.59L145.91,302.01L146.11,278.02L146.5,300.91L146.89,298.5L147.08,284.68L147.28,265.31L147.67,277.55L147.86,296.45L148.25,302.11L148.45,284.94L148.83,295.16L149.03,289.97L149.22,277.86L149.42,282.91L149.61,258.93L150.98,304L151.17,278.34L151.56,297.76L151.76,275.92L151.95,291.96L152.15,286.81L152.54,269.59L152.73,274.64L152.93,288.29L153.12,288.55L153.32,291.7L153.51,302.77L153.7,277.74L153.9,295.31L154.09,288.82L154.68,262.35L154.87,277.58L155.07,279.03L155.26,277.28L155.46,296.62L156.04,297.63L156.24,271.7L156.43,300.3L157.02,280.94L157.21,298.29L157.41,279.64L157.99,292.22L158.19,294.6L158.38,302.67L158.58,292.41L158.96,295.68L159.16,294.9L159.74,296.5L159.94,278.31L160.13,286.96L160.72,281.19L160.91,299.37L161.11,265.51L161.69,284.23L161.89,283.69L162.28,283.28L162.67,292.67L162.86,277.92L163.25,293.35L163.64,290.71L163.84,273.4L164.03,266.11L164.22,293.84L164.42,298.93L164.61,285.98L164.81,288.05L165,273.11L165.2,291.22L165.59,282.9L165.78,286.59L165.98,284.93L166.17,296.19L166.76,287.46L166.95,270.79L167.93,298.76L168.12,292.15L168.32,290.12L168.51,270.57L169.48,294.36L169.68,278.97L170.07,277.48L170.46,297.22L170.65,285.99L171.04,301.26L171.24,289.6L171.43,287.87L171.63,293.69L171.82,293.81L172.02,288.51L172.41,259.82L172.8,271.68L172.99,277.18L173.77,301.23L173.97,281.9L174.16,277.1L174.35,302.02L174.55,274.56L175.13,293.81L175.33,278.62L175.72,289.36L175.91,281.76L176.11,273.31L176.3,275.79L176.5,296.09L177.08,296.57L177.28,268.47L177.47,293.06L177.86,282.55L178.06,295.77L178.25,292.45L178.45,293.79L178.64,288.94L178.84,298.02L179.03,285.91L179.23,279.96L179.42,278.05L179.61,298.03L179.81,272.43L180.39,293.65L180.59,288.1L180.98,290.45L181.17,274.54L181.37,290.06L181.56,297.35L181.76,280.51L181.95,289.38L182.15,271.91L182.34,297.59L182.73,292.56L182.93,251.6L183.32,291.47L183.71,286.07L183.9,294.38L184.1,273.36L184.48,288.35L184.68,299.79L184.87,281.42L185.26,303.36L185.46,302L186.04,305.39L186.24,265.76L186.43,290.05L186.63,294.89L186.82,285.36L187.02,290.63L187.21,284.68L187.41,273.7L187.6,288.98L187.8,305.91L188.19,264.61L188.58,286.5L188.77,287.03L189.16,292.44L189.55,271.76L189.74,286.39L189.94,277.26L190.13,297.68L190.33,299.21L190.91,280.09L191.11,297.33L191.3,301.8L191.5,287.92L191.89,285.35L192.08,290.8L192.28,298.11L192.67,298.08L192.86,291.52L193.25,285.64L193.64,298.68L193.84,270.91L194.03,273.97L194.23,272.55L194.42,289.6L194.62,299.3L195,285.66L195.2,290.51L195.59,299.04L195.78,295.42L195.98,284.93L196.17,277.01L196.37,295.56L196.56,285.81L196.76,292.06L196.95,291.36L197.15,297.5L197.54,290.61L197.73,295.22L197.93,277.98L198.12,304.26L198.71,294.9L198.9,281.96L199.1,276.21L199.29,303.37L200.26,277.73L200.46,297.63L200.65,272.07L201.04,295.3L201.24,296L202.21,277.72L202.41,284.64L202.6,290.05L202.99,302.94L203.38,297.12L203.58,290.18L203.77,290.8L203.97,302.39L204.16,276.27L204.75,286.6L204.94,288.65L205.13,285.77L205.33,285.98L205.52,261.06L206.3,301.78L206.5,293.4L206.69,300.06L207.08,283.38L207.47,296.84L207.67,298.87L208.06,289.36L208.25,306.5L209.03,286.81L209.23,301.32L209.42,280.81L209.81,301.97L210,284.65L210.2,289.89L210.39,267.45L210.78,305.87L210.98,271.84L211.17,292.6L211.37,285.5L211.76,297.71L211.95,290.64L212.15,297.22L212.54,300.14L213.12,279.45L213.32,291.33L213.51,290.39L213.71,302.65L214.49,269.41L214.68,286.81L215.65,300.75L215.85,295.64L216.04,288.86L216.24,286.49L216.43,299.13L216.82,302.44L217.02,276.6L217.21,301.54L217.6,303.03L218.19,285.95L218.38,275.04L218.77,305.37L219.16,289.93L219.36,291.11L219.75,279.56L219.94,302.36L220.52,284.94L220.72,294.79L220.91,297.98L221.11,292.63L221.3,292.83L221.5,282.08L221.69,298.21L222.28,294.23L222.47,293.57L222.67,293.66L222.86,281.69L223.06,293.17L223.25,291.82L223.45,251.86L224.03,306.43L224.42,300.93L224.62,298.33L224.81,294.47L225.01,300.15L225.2,279.89L225.98,302.45L226.17,291.36L226.37,303.64L226.56,282.12L226.76,276.74L227.34,285.96L227.54,283.48L227.73,299.84L227.93,276.15L228.51,286.04L228.71,286.07L228.9,299.85L229.1,267.95L229.49,296.99L229.68,290.01L229.88,304.1L230.07,270.64L230.46,297.91L230.65,291.98L231.24,279.09L231.63,284.55L231.82,288L232.21,306.11L232.41,283.53L232.6,296.42L232.8,297.42L233.77,286.35L233.97,286.4L234.75,294.29L234.94,293.93L235.14,265.41L235.33,301.84L235.53,295.54L235.72,304L236.5,284.74L236.69,299.44L236.89,299.71L237.08,295.96L237.67,305.65L237.86,276.93L238.06,270.34L238.25,297.62L238.45,301.8L238.64,282.74L238.84,254.48L239.03,297.97L239.23,282.64L239.42,299.33L239.81,290.03L240.01,306.92L240.78,295.2L240.98,305.1L241.76,270.19L241.95,296.21L242.15,302.98L242.34,278.28L242.73,302.41L243.12,301.29L243.32,253.58L243.51,297.32L244.1,289.07L244.29,256.63L244.68,302.95L245.07,296.21L245.27,285.96L246.04,304.45L246.24,295.56L246.43,278.71L246.63,297.15L246.82,284.81L247.02,297L247.21,305.11L247.41,275.39L247.6,262.71L247.8,297.03L247.99,293.67L248.38,285.6L248.58,300.74L248.77,293.98L248.97,301.02L249.16,300.95L249.36,302.21L249.94,292.75L250.14,296.39L250.33,295.92L250.72,284.19L250.92,284.65L251.11,295.17L251.3,304.04L251.69,299.12L251.89,291.22L252.28,295.5L252.47,283.84L252.67,294.03L252.86,295.52L253.06,295.22L253.25,284.78L253.64,301.5L253.84,267.55L254.81,302.34L255.01,294.06L255.2,299.52L255.4,290.29L255.79,295.02L255.98,287.77L256.37,305.17L256.56,273.19L257.15,271.32L257.54,305.96L257.73,277.27L257.93,279.36L258.12,265.11L258.71,305.87L258.9,292.51L259.1,296.69L259.49,278.22L259.68,305.18L260.27,292.78L260.46,302.44L260.66,298.97L261.05,266.62L261.43,294.6L261.63,300.83L262.02,300.56L262.21,302.17L262.41,300.84L262.6,262.42L262.99,301.07L263.19,300.49L263.58,284.13L263.77,288.48L263.97,291.1L264.16,280.23L264.36,307.52L264.55,281.3L264.75,296.46L264.94,299.86L265.14,294.34L265.33,299.61L265.53,282.88L265.72,274L265.92,297.71L266.11,292.12L266.31,308.86L266.69,287.63L266.89,303.97L267.08,287.31L267.47,283.89L267.67,300.92L267.86,299.12L268.06,292.05L268.25,306.95L268.64,286.13L268.84,298.16L269.03,297.58L269.23,299.35L269.42,291.54L270.01,304.56L270.2,282.73L270.4,296.19L270.59,286L270.79,261.41L271.18,304.57L271.56,283.33L271.76,284.16L271.95,308.38L272.54,294.65L272.73,295.74L273.9,303.66L274.1,302.17L274.29,280.03L274.88,291.18L275.07,295.08L275.27,299.78L275.46,291.94L275.66,279.98L275.85,308.84L276.44,295.34L276.63,295.3L276.82,304.54L277.41,299.86L277.6,295.69L278.38,298.72L278.58,287.09L278.77,282.85L278.97,296.7L279.16,264.05L279.36,297.68L279.55,295.04L279.75,293L280.14,298.14L280.33,287.6L280.92,285.32L281.11,303.72L281.31,277.86L281.69,276.93L281.89,297.08L282.08,295.28L282.28,289.5L282.67,300.28L282.86,266.32L283.06,269.06L283.25,289.34L283.45,291.33L283.64,307.88L284.03,274.75L284.42,299.28L284.62,294.47L284.81,284.15L285.2,286.49L285.4,303.55L285.79,291.11L286.18,296.19L286.37,293.76L286.57,295.74L286.76,286.27L287.54,299.37L287.73,293.73L288.12,295.46L288.32,289.47L288.51,291.34L288.71,304.2L289.1,281.36L289.68,288.44L289.88,309.23L290.07,279.15L290.66,301.72L290.85,304.22L291.05,306.75L291.24,294.54L291.44,305.64L291.63,290.72L291.83,297.63L292.02,295.32L292.21,295.81L292.41,294.03L292.6,291.91L292.8,297.58L292.99,296.27L293.38,304.6L293.58,288.36L293.77,279.41L294.16,293.98L294.36,290.26L294.55,288.38L294.75,289.33L294.94,298.61L295.14,273.17L295.53,294.2L295.72,306L296.11,291.31L296.31,296.5L296.5,297.54L296.89,295.36L297.28,301.95L297.47,301.67L297.67,293.45L297.86,296.08L298.06,282.54L298.64,306.79L298.84,304.73L299.03,291.73L299.42,298.35L299.62,291.62L300.01,289.56L300.2,296.96L300.4,304.11L301.18,275.75L301.37,303.8L301.57,302.49L301.76,294L301.96,283.1L302.15,299.07L302.34,293.8L302.54,302.26L302.73,303.06L302.93,283.64L303.51,301.76L303.71,298.18L303.9,300.19L304.29,285.61L304.68,297.56L304.88,301.74L305.27,290.62L305.46,306.45L305.66,295.87L305.85,296.94L306.05,295.2L306.24,304.43L306.63,279.19L306.83,300.67L307.02,302.9L308.19,284.3L308.38,303.5L308.58,263.57L308.97,289.33L309.16,298.47L309.36,298.32L309.55,286.26L309.94,283.72L310.14,305.91L310.33,301.7L310.53,294.96L311.11,300.9L311.31,282.35L311.5,296.33L311.7,306.53L312.09,295.02L312.28,285.15L312.67,302.76L313.06,302.18L313.25,289.25L313.45,299.98L313.84,295.07L314.03,289.41L315.01,307.31L315.2,302.08L315.4,299.49L315.98,291.94L316.18,296.68L316.37,302.98L316.57,307.87L316.76,292.6L317.15,308.79L317.35,283.49L318.12,307.74L318.32,301.3L318.51,280.32L318.71,301.67L319.1,287.66L319.29,297.47L319.49,297.35L319.68,291.65L320.07,304.47L320.27,287.05L320.46,293.5L320.66,288.31L320.85,284.69L321.05,293.85L321.24,265.88L322.02,306.66L322.22,300.87L322.61,305.09L323.19,286.69L323.38,298.08L323.77,306.54L324.16,280.52L324.36,289.74L324.75,288.45L324.94,306.65L325.14,292.29L325.33,282.3L326.5,303.07L326.7,306.75L327.67,289.57L327.86,303.23L328.06,281.63L328.45,304.58L328.64,305.04L329.03,284.07L329.23,303.39L329.42,298.09L330.01,301.45L330.2,306.15L331.18,279.42L331.37,281.15L331.57,281.8L331.76,283.37L331.96,292.2L332.35,292.11L332.54,306.33L332.74,296.52L332.93,278.06L333.71,302.54L333.9,280.25L334.49,299.21L334.68,279.46L334.88,275.06L335.07,304.56L335.27,283.26L335.85,294.39L336.05,291.45L336.44,305.56L336.83,294.2L337.02,284.37L338,306.71L338.19,305.98L338.38,307.17L338.58,300.56L338.77,298.59L338.97,307.28L339.16,307.45L339.36,297.27L339.75,294.92L339.94,305.55L340.14,298.61L340.33,279.66L340.72,306.37L341.11,298.45L341.31,299.63L341.5,303.06L341.7,291.81L341.89,272.36L342.28,298.6L342.48,302.83L342.87,279.3L343.25,293.48L343.45,295.66L343.64,275.22L344.03,298.61L344.23,296.25L344.42,237L344.62,303.29L344.81,302.97L345.01,287.94L345.2,276.64L345.4,306.28L345.59,300.57L345.98,289.36L346.18,302.83L347.15,283.69L347.35,298.47L347.54,300.93L347.74,300.71L347.93,287.96L348.13,296.69L348.71,291.24L348.9,283.78L349.1,303.42L349.68,292.27L349.88,297.26L350.07,284.73L350.46,304.23L350.66,294.8L350.85,307.19L351.05,304.56L351.24,307.45L351.44,281.3L351.63,304.62L352.22,301.17L352.41,307.28L353.19,285.3L353.38,299.34L353.97,302.61L354.16,283.88L354.36,293.18L354.75,303.02L354.94,289.49L355.33,306.23L355.72,291.55L355.92,296.99L356.11,307.81L356.31,296.72L356.5,272.36L357.28,300.32L357.48,297.37L358.06,297.04L358.26,308.49L358.45,288.95L358.64,288.62L358.84,298.71L359.03,294.28L359.42,301.49L359.62,304.27L359.81,298.03L360.4,300.8L360.59,306.87L361.18,283.6L361.37,294.47L361.57,296.01L361.76,291.52L361.96,302.57L362.15,297.35L362.35,306.66L362.54,286.38L362.93,309.88L363.13,302.42L363.32,290.17L363.52,281.05L363.9,294.63L364.1,291.39L364.29,305.25L364.88,293.99L365.07,295.32L365.46,301.18L365.85,300.28L366.05,298.09L366.24,282.52L366.44,302.3L366.63,300.24L366.83,305.39L367.22,306.8L367.41,281.38L367.61,303.33L367.8,307.35L368,293.53L368.39,309.05L368.58,297.46L368.77,298.47L368.97,282.88L369.36,300.37L369.55,285.68L369.75,304.11L369.94,303.86L370.14,304.84L370.33,305.04L370.53,293.42L371.11,286L371.31,307.85L371.5,270.85L371.7,302.19L372.28,284.67L372.48,303.32L372.67,287.34L372.87,304.16L373.06,302.82L373.26,301.79L373.45,292.28L373.65,299.21L373.84,310.35L374.23,291.55L374.62,307.63L374.81,303.77L375.01,290.76L375.59,298.81L375.79,293.13L376.57,306.34L376.76,295.68L377.15,302.72L377.35,279.47L377.93,304.88L378.13,294.22L378.32,302.04L378.52,300.46L378.71,288.01L379.49,308.98L379.68,288.3L380.07,307.02L380.27,304.82L380.46,287.18L380.66,308.07L381.24,300.58L381.44,299.97L381.63,298.76L381.83,308.38L382.41,276.81L382.61,297.86L382.8,298.45L383.19,307.86L383.39,304.14L383.58,302.11L383.78,306.23L383.97,291.46L384.16,299.29L384.36,284.54L384.75,298.29L384.94,296.3L385.33,275.74L385.53,294.85L385.72,294.57L385.92,295.87L386.11,287.05L387.09,306.52L387.28,294.23L387.67,272.29L387.87,298.09L388.06,299.75L388.26,298.85L388.45,300.02L388.65,280.15L389.62,307.45L389.81,306.42L390.01,279.66L390.2,307.52L390.59,298L390.79,307.46L390.98,283.65L391.57,302.49L391.76,304.32L392.35,306.57L392.54,292.49L392.74,301.84L393.52,282.7L393.71,300.56L394.1,297.88L394.49,307.53L394.68,274.78L394.88,304.34L395.46,293.6L395.66,292.26L396.05,279.34L396.24,300.18L396.44,292.47L396.63,303.4L396.83,289L397.22,301.79L397.41,289.59L398,306.38L398.19,289.07L398.39,308.74L398.97,306.17L399.17,281.18L399.94,307.07L400.14,296.69L400.33,276.28L400.72,300.24L400.92,300.03L401.11,290.29L401.31,301.09L401.5,297.99L401.7,310.35L402.09,292.93L402.48,299.34L402.67,298.05L402.87,304.75L403.06,279.52L403.26,304.68L403.65,296.85L403.84,282.7L404.43,306.3L404.62,298.29L404.81,298.1L405.4,295.56L405.79,309.54L405.98,293.38L406.18,277.05L406.37,304.99L406.57,284.06L406.76,297.35L406.96,300.7L407.15,287.99L407.93,296.5L408.13,295.38L408.52,302.09L408.71,295.18L408.91,288.22L409.1,290.12L409.3,300.64L410.07,308.27L410.27,295.01L410.66,308.57L411.05,302.92L411.24,292.27L411.63,305.97L412.22,304.64L412.41,284.57L412.61,285.6L412.8,297.45L413,296.51L413.19,289.75L413.97,310.72L414.17,305.32L414.36,291.85L415.14,304.98L415.33,287.28L416.31,306.73L416.5,296.73L416.7,302.2L416.89,279.37L417.67,307.23L418.06,306.54L418.26,297.96L418.45,297.5L418.65,301.62L419.04,299.57L419.43,306.46L419.62,293.87L420.01,290.32L420.59,306.01L420.79,297.09L421.18,296.7L421.37,302.79L421.57,301L421.76,302.29L421.96,310.32L422.74,280.28L422.93,301.4L423.32,307.63L423.91,285.98L424.1,304.17L424.3,283.2L424.69,299.93L424.88,306.87L425.66,297.65L425.85,307.32L426.05,309.99L426.24,300.29L426.44,308.47L426.63,293.15L426.83,281.14L427.22,303.37L427.61,295.3L427.8,298.37L428.19,304.96L428.39,273.97L428.58,307.2L428.78,309.21L429.17,306.99L429.36,299.22L429.56,301.78L429.75,274.45L429.95,305.88L430.53,298.17L430.72,287.17L430.92,303.71L431.31,286.52L431.5,294.66L431.7,262.06L432.48,305.16L432.67,302.32L432.87,304.07L433.06,302.45L433.26,293.03L433.45,275.88L433.84,294.23L434.04,306.38L434.23,296.35L434.82,300.53L435.01,300.09L435.21,291.7L435.59,294.18L435.79,300.69L435.98,299.73L436.18,306.76L436.57,308.89L436.76,278.84L436.96,299.67L437.15,301.14L437.54,286.09L437.93,292.73L438.13,306.12L438.32,297.7L438.91,298.28L439.1,306.61L439.3,301.5L439.49,306.82L439.69,303.48L439.88,308.35L440.08,305.23L440.27,286.46L440.46,283.47L440.66,287.99L440.85,301.56L441.05,284.06L441.44,299.56L441.63,299.25L441.83,286.71L442.22,303.36L442.41,288.13L442.61,293.88L443.19,305.39L443.39,299.99L443.58,300.96L444.36,292.21L444.56,296.97L444.75,306.84L445.14,291.69L445.34,304.76L445.53,303.43L446.11,294.85L446.31,303.32L446.5,304.96L446.7,294.5L447.28,308.93L447.67,308.69L447.87,305.48L448.45,283.87L448.65,304.07L449.04,296.26L449.43,299.57L449.62,305.25L450.4,295.63L450.6,296.54L450.79,304.78L450.98,290.37L451.57,294.09L451.76,303.05L451.96,302.55L452.15,297.21L452.54,298.07L452.74,269.98L452.93,301.64L453.52,288.77L453.71,308.4L454.1,289.95L454.3,299.95L454.49,307.94L454.88,284.49L455.27,299.45L455.47,307.13L455.85,285.31L456.05,294.07L456.24,305.51L456.44,307.95L456.63,303.31L457.02,306.93L457.22,307.32L458.19,280.23L458.39,305.71L458.78,291.51L458.97,304.18L459.17,306.51L459.36,297.48L459.56,307.12L459.95,294.77L460.14,285.5L460.73,285.13L461.11,304.94L461.31,302.12L461.5,307.48L461.7,282.47L462.67,303.18L462.87,295.77L463.06,292.88L463.26,299.31L463.45,297.27L463.65,299.78L463.84,288.63L464.04,302.64L464.23,301.66L464.43,300.97L464.82,301.1L465.21,291.88L465.4,292.25L465.6,284.75L465.79,293.89L465.99,302.62L466.37,309.48L466.57,290.84L466.96,290.7L467.15,306.23L467.35,300.04L467.54,304.79L467.74,305.02L467.93,304.75L468.13,303.43L468.32,305.46L468.52,298.92L468.71,297.59L468.91,305.46L469.1,306.88L469.3,300.47L469.49,307.14L469.88,298.05L470.08,298.05L470.86,308.32L471.05,301.3L471.44,307.1L471.63,302L471.83,301.99L472.02,280.1L472.41,304.05L472.8,298.11L473,298.13L473.39,305.03L473.58,291.59L473.78,278.57L474.17,294.03L474.36,298.94L474.75,307.05L475.14,289.75L475.34,298.81L475.73,295.68L476.31,307.47L476.5,282.64L477.28,306.05L477.48,285.9L477.87,309.04L478.45,306.32L478.65,307.92L478.84,296.39L479.43,302.3L479.62,298.31L479.82,303.37L480.01,303.23L480.21,289.12L480.4,285.99L480.6,301.96L480.79,304.08L480.99,300.27L481.18,303.19L481.38,300.84L481.76,299L481.96,308.16L482.15,301.52L482.35,300.94L482.54,300.03L482.74,305.01L482.93,292.37L483.13,308.64L483.32,305.88L483.52,307.94L483.91,292.3L484.1,303.56L484.3,290.23L484.69,309.86L484.88,298.74L485.08,290.48L485.47,309.28L485.86,305.29L486.05,277.03L486.63,310.44L487.02,305.64L487.22,299.93L488,306.28L488.19,302.53L488.39,282.93L488.78,296.04L488.97,305.77L489.17,287.78L489.75,290.48L489.95,300.87L490.14,297.11L490.53,304.13L490.73,281.59L490.92,275.9L491.12,298.46L491.31,304.77L491.7,298.72L491.89,293.78L492.67,274.71L492.87,304.7L493.06,292.68L493.45,302.9L493.65,307.11L494.04,303.18L494.23,297.74L495.01,308.07L495.21,307.17L495.4,309.41L495.6,296.38L496.18,301.33L496.38,294.76L496.77,287.59L497.35,309.55L497.54,305.95L497.74,299.66L498.13,293.8L498.32,300.56L498.52,296.82L498.71,303.72L498.91,305.04L499.88,285.1L500.08,300.63L500.27,303.91L500.47,286.83L500.86,308.31L501.25,299.31L501.44,279.16L501.64,307.93L502.22,305.21L502.41,298.14L503,307.03L503.19,302.31L503.39,293.78L504.17,305.88L504.36,300.5L504.75,294.19L504.95,300.94L505.14,303.95L505.34,280.82L505.92,303.48L506.12,298.57L506.31,285.77L506.51,283.9L506.7,290.74L507.28,305.49L507.48,297.5L507.67,298.73L507.87,291.45L508.06,302.64L508.45,292.6L508.65,304.84L509.04,289.89L509.43,301.52L509.62,302.13L510.01,299.16L510.21,301.23L510.4,302.34L510.6,290.65L510.99,296.48L511.18,301.48L511.57,309.2L511.77,300.55L511.96,300.84L512.15,299.88L512.35,307.88L512.74,282.93L512.93,304.52L513.13,307.76L513.32,296.76L513.91,304.24L514.1,296.46L514.3,295.29L514.49,305.49L514.69,296.46L515.08,306.64L515.27,308.92L515.86,296.59L516.05,308.51L516.44,286.7L516.64,306.42L516.83,304.79L517.03,300.45L517.22,306.67L517.41,302.38L517.61,308.43L518.19,286.2L518.39,295.9L518.58,303.47L518.97,284.8L519.17,306.31L519.36,309.52L519.56,279.01L520.14,297.4L520.34,296.62L520.53,297.23L520.73,302.86L520.92,259.1L521.12,303.38L521.51,281.67L521.7,301.18L522.09,307.48L522.67,284.53L522.87,307.71L523.45,273.17L523.84,287.87L524.04,297.43L524.23,293.05L524.43,307.8L524.62,296.32L525.21,305.57L525.4,306.59L525.99,307.36L526.18,276.34L526.38,298.95L526.57,309.57L526.96,294.33L527.16,296.62L527.54,284.63L527.74,306.73L527.93,301.72L528.13,298.93L528.32,303.27L528.52,298.24L528.71,291.39L528.91,306.66L529.3,286.98L529.49,302.82L529.69,297.05L529.88,301.06L530.08,297.96L530.27,285.23L530.86,308.76L531.05,300.79L531.25,295.87L532.42,306.69L532.61,302.2L532.8,306.04L533.19,305.27L533.39,282.49L533.58,306.33L534.17,292.6L534.36,294.03L534.56,283.95L534.75,297.48L534.95,302.54L535.14,295.17L535.34,304.99L535.53,297.71L535.73,308.91L535.92,292.5L536.31,308.11L536.51,308.07L536.7,294.13L536.9,308.43L537.29,303.61L537.48,306.61L537.68,307.12L537.87,303.56L538.06,291.69L538.45,300L538.65,306.55L539.04,291.42L539.23,304.84L539.43,304.73L539.82,308.08L540.21,295.5L540.4,306.44L540.79,307.28L541.38,293.8L541.57,304.61L541.77,307.13L541.96,293.44L542.55,303.32L542.74,300.62L542.93,298.56L543.13,291.45L543.52,295.49L543.71,306.4L544.1,292.62L544.49,304.14L544.69,303.22L544.88,289.96L545.08,308.54L545.27,305.41L545.47,306.67L545.66,272.4L546.25,292.93L546.44,301.39L546.83,295.88L547.03,301.33L547.42,307.2L547.61,305.42L547.81,298.32L548,309.28" style="vector-effect: none; fill: none; stroke: rgb(239, 85, 59); stroke-opacity: 1; stroke-width: 2px; opacity: 1;"/></g><g class="points"/><g class="text"/></g></g></g></g><path class="xlines-above crisp" d="M0,0" style="fill: none;"/><path class="ylines-above crisp" d="M0,0" style="fill: none;"/><g class="overlines-above"/><g class="xaxislayer-above"><g class="xtick"><text text-anchor="middle" x="0" y="491" transform="translate(120.21,0)" style="font-family: 'Open Sans', verdana, arial, sans-serif; font-size: 12px; fill: rgb(242, 245, 250); fill-opacity: 1; white-space: pre; opacity: 1;">500</text></g><g class="xtick"><text text-anchor="middle" x="0" y="491" style="font-family: 'Open Sans', verdana, arial, sans-serif; font-size: 12px; fill: rgb(242, 245, 250); fill-opacity: 1; white-space: pre; opacity: 1;" transform="translate(217.62,0)">1000</text></g><g class="xtick"><text text-anchor="middle" x="0" y="491" style="font-family: 'Open Sans', verdana, arial, sans-serif; font-size: 12px; fill: rgb(242, 245, 250); fill-opacity: 1; white-space: pre; opacity: 1;" transform="translate(315.02,0)">1500</text></g><g class="xtick"><text text-anchor="middle" x="0" y="491" style="font-family: 'Open Sans', verdana, arial, sans-serif; font-size: 12px; fill: rgb(242, 245, 250); fill-opacity: 1; white-space: pre; opacity: 1;" transform="translate(412.42,0)">2000</text></g><g class="xtick"><text text-anchor="middle" x="0" y="491" style="font-family: 'Open Sans', verdana, arial, sans-serif; font-size: 12px; fill: rgb(242, 245, 250); fill-opacity: 1; white-space: pre; opacity: 1;" transform="translate(509.83,0)">2500</text></g></g><g class="yaxislayer-above"><g class="ytick"><text text-anchor="end" x="22" y="4.199999999999999" transform="translate(0,461.85)" style="font-family: 'Open Sans', verdana, arial, sans-serif; font-size: 12px; fill: rgb(242, 245, 250); fill-opacity: 1; white-space: pre; opacity: 1;">0</text></g><g class="ytick"><text text-anchor="end" x="22" y="4.199999999999999" style="font-family: 'Open Sans', verdana, arial, sans-serif; font-size: 12px; fill: rgb(242, 245, 250); fill-opacity: 1; white-space: pre; opacity: 1;" transform="translate(0,398.5)">0.5</text></g><g class="ytick"><text text-anchor="end" x="22" y="4.199999999999999" style="font-family: 'Open Sans', verdana, arial, sans-serif; font-size: 12px; fill: rgb(242, 245, 250); fill-opacity: 1; white-space: pre; opacity: 1;" transform="translate(0,335.15999999999997)">1</text></g><g class="ytick"><text text-anchor="end" x="22" y="4.199999999999999" style="font-family: 'Open Sans', verdana, arial, sans-serif; font-size: 12px; fill: rgb(242, 245, 250); fill-opacity: 1; white-space: pre; opacity: 1;" transform="translate(0,271.81)">1.5</text></g><g class="ytick"><text text-anchor="end" x="22" y="4.199999999999999" style="font-family: 'Open Sans', verdana, arial, sans-serif; font-size: 12px; fill: rgb(242, 245, 250); fill-opacity: 1; white-space: pre; opacity: 1;" transform="translate(0,208.46)">2</text></g></g><g class="overaxes-above"/></g></g><g class="polarlayer"/><g class="smithlayer"/><g class="ternarylayer"/><g class="geolayer"/><g class="funnelarealayer"/><g class="pielayer"/><g class="iciclelayer"/><g class="treemaplayer"/><g class="sunburstlayer"/><g class="glimages"/><defs id="topdefs-fa5a35"><g class="clips"/><clipPath id="legendfa5a35"><rect width="113" height="48" x="0" y="0"/></clipPath></defs><g class="layer-above"><g class="imagelayer"/><g class="shapelayer"/></g><g class="infolayer"><g class="legend" pointer-events="all" transform="translate(581.96,150)"><rect class="bg" shape-rendering="crispEdges" style="stroke: rgb(68, 68, 68); stroke-opacity: 1; fill: rgb(17, 17, 17); fill-opacity: 1; stroke-width: 0px;" width="113" height="48" x="0" y="0"/><g class="scrollbox" transform="" clip-path="url(#legendfa5a35)"><g class="groups"><g class="traces" transform="translate(0,14.5)" style="opacity: 1;"><text class="legendtext" text-anchor="start" x="40" y="4.680000000000001" style="font-family: 'Open Sans', verdana, arial, sans-serif; font-size: 12px; fill: rgb(242, 245, 250); fill-opacity: 1; white-space: pre;">zigrad loss</text><g class="layers" style="opacity: 1;"><g class="legendfill"/><g class="legendlines"><path class="js-line" d="M5,0h30" style="fill: none; stroke: rgb(99, 110, 250); stroke-opacity: 1; stroke-width: 2px;"/></g><g class="legendsymbols"><g class="legendpoints"/></g></g><rect class="legendtoggle" x="0" y="-9.5" width="107.71875" height="19" style="fill: rgb(0, 0, 0); fill-opacity: 0;"/></g><g class="traces" transform="translate(0,33.5)" style="opacity: 1;"><text class="legendtext" text-anchor="start" x="40" y="4.680000000000001" style="font-family: 'Open Sans', verdana, arial, sans-serif; font-size: 12px; fill: rgb(242, 245, 250); fill-opacity: 1; white-space: pre;">pytorch loss</text><g class="layers" style="opacity: 1;"><g class="legendfill"/><g class="legendlines"><path class="js-line" d="M5,0h30" style="fill: none; stroke: rgb(239, 85, 59); stroke-opacity: 1; stroke-width: 2px;"/></g><g class="legendsymbols"><g class="legendpoints"/></g></g><rect class="legendtoggle" x="0" y="-9.5" width="107.71875" height="19" style="fill: rgb(0, 0, 0); fill-opacity: 0;"/></g></g></g><rect class="scrollbar" rx="20" ry="3" width="0" height="0" style="fill: rgb(128, 139, 164); fill-opacity: 1;" x="0" y="0"/></g><g class="g-gtitle"><text class="gtitle" x="35" y="75" text-anchor="start" dy="0em" style="opacity: 1; font-family: 'Open Sans', verdana, arial, sans-serif; font-size: 17px; fill: rgb(242, 245, 250); fill-opacity: 1; white-space: pre;">Loss per Batch</text></g><g class="g-xtitle"/><g class="g-ytitle"/></g></svg>