<svg class="main-svg" xmlns="http://www.w3.org/2000/svg" xmlns:xlink="http://www.w3.org/1999/xlink" style="" viewBox="0 0 700 500"><rect x="0" y="0" width="700" height="500" style="fill: rgb(255, 255, 255); fill-opacity: 1;"/><defs id="defs-edaeff"><g class="clips"><clipPath id="clipedaeffxyplot" class="plotclip"><rect width="495" height="328"/></clipPath><clipPath class="axesclip" id="clipedaeffx"><rect x="37" y="0" width="495" height="500"/></clipPath><clipPath class="axesclip" id="clipedaeffy"><rect x="0" y="150" width="700" height="328"/></clipPath><clipPath class="axesclip" id="clipedaeffxy"><rect x="37" y="150" width="495" height="328"/></clipPath></g><g class="gradients"/><g class="patterns"/></defs><g class="bglayer"><rect class="bg" x="37" y="150" width="495" height="328" style="fill: rgb(229, 236, 246); fill-opacity: 1; stroke-width: 0;"/></g><g class="layer-below"><g class="imagelayer"/><g class="shapelayer"/></g><g class="cartesianlayer"><g class="subplot xy"><g class="layer-subplot"><g class="shapelayer"/><g class="imagelayer"/></g><g class="minor-gridlayer"><g class="x"/><g class="y"/></g><g class="gridlayer"><g class="x"><path class="xgrid crisp" transform="translate(124.81,0)" d="M0,150v328" style="stroke: rgb(255, 255, 255); stroke-opacity: 1; stroke-width: 1px;"/><path class="xgrid crisp" transform="translate(212.79,0)" d="M0,150v328" style="stroke: rgb(255, 255, 255); stroke-opacity: 1; stroke-width: 1px;"/><path class="xgrid crisp" transform="translate(300.78,0)" d="M0,150v328" style="stroke: rgb(255, 255, 255); stroke-opacity: 1; stroke-width: 1px;"/><path class="xgrid crisp" transform="translate(388.76,0)" d="M0,150v328" style="stroke: rgb(255, 255, 255); stroke-opacity: 1; stroke-width: 1px;"/><path class="xgrid crisp" transform="translate(476.75,0)" d="M0,150v328" style="stroke: rgb(255, 255, 255); stroke-opacity: 1; stroke-width: 1px;"/></g><g class="y"><path class="ygrid crisp" transform="translate(0,443.81)" d="M37,0h495" style="stroke: rgb(255, 255, 255); stroke-opacity: 1; stroke-width: 1px;"/><path class="ygrid crisp" transform="translate(0,405.81)" d="M37,0h495" style="stroke: rgb(255, 255, 255); stroke-opacity: 1; stroke-width: 1px;"/><path class="ygrid crisp" transform="translate(0,367.81)" d="M37,0h495" style="stroke: rgb(255, 255, 255); stroke-opacity: 1; stroke-width: 1px;"/><path class="ygrid crisp" transform="translate(0,329.81)" d="M37,0h495" style="stroke: rgb(255, 255, 255); stroke-opacity: 1; stroke-width: 1px;"/><path class="ygrid crisp" transform="translate(0,291.81)" d="M37,0h495" style="stroke: rgb(255, 255, 255); stroke-opacity: 1; stroke-width: 1px;"/><path class="ygrid crisp" transform="translate(0,253.8)" d="M37,0h495" style="stroke: rgb(255, 255, 255); stroke-opacity: 1; stroke-width: 1px;"/><path class="ygrid crisp" transform="translate(0,215.8)" d="M37,0h495" style="stroke: rgb(255, 255, 255); stroke-opacity: 1; stroke-width: 1px;"/><path class="ygrid crisp" transform="translate(0,177.8)" d="M37,0h495" style="stroke: rgb(255, 255, 255); stroke-opacity: 1; stroke-width: 1px;"/></g></g><g class="zerolinelayer"/><g class="layer-between"><g class="shapelayer"/><g class="imagelayer"/></g><path class="xlines-below"/><path class="ylines-below"/><g class="overlines-below"/><g class="xaxislayer-below"/><g class="yaxislayer-below"/><g class="overaxes-below"/><g class="overplot"><g class="xy" transform="translate(37,150)" clip-path="url(#clipedaeffxyplot)"><g class="scatterlayer mlayer"><g class="trace scatter traced87c52" style="stroke-miterlimit: 2; opacity: 1;"><g class="fills"/><g class="errorbars"/><g class="lines"><path class="js-line" d="M0,254.15L0.35,289.56L1.06,287.87L1.23,269.27L1.58,266.32L1.76,286.74L2.29,283.4L2.46,282.73L2.64,289.28L2.82,283.69L2.99,272.04L3.17,264.91L3.34,270.68L3.52,284.88L4.05,270.04L4.4,272.83L4.58,286.17L4.75,280.23L5.28,284.58L5.46,284.21L5.81,267.96L6.16,284.98L6.33,286.61L6.86,260.34L7.21,273.8L7.39,287.08L8.09,270.75L8.27,276.89L8.45,287.13L9.15,283.74L9.33,286.69L9.85,268.06L10.21,276.37L10.38,286.22L10.73,212.19L10.91,285.1L11.61,271.84L11.79,285.42L11.97,285.65L12.14,268.33L13.02,274.49L13.2,270.36L13.37,266.94L13.73,268.77L13.9,272.49L14.08,268.38L14.43,271.82L14.61,284.21L14.78,282.5L15.13,285.62L15.31,269.02L15.49,269.74L15.66,266.72L16.01,288.76L16.54,280.75L16.72,284.88L16.89,283.59L17.07,288L17.6,233.27L17.77,274.81L17.95,284.29L18.12,287.48L18.3,280.95L18.48,270.06L18.83,288.99L19.18,278.6L19.36,268.82L19.53,269.39L19.71,280.3L19.88,286.41L20.59,285.37L20.76,283.22L21.12,267.83L21.29,269.89L21.47,281.69L22.17,285.5L22.35,280.57L22.52,285.57L22.7,280.28L22.88,270.09L23.05,270.98L23.23,268.55L23.4,268.28L24.28,286.44L24.46,282.83L24.64,270.04L24.81,267.19L24.99,280.53L26.04,289.31L26.22,287.03L26.57,268.03L26.92,285.28L27.1,278.99L27.28,284.01L27.63,278.6L27.8,280.01L27.98,281.34L28.15,268.06L28.68,284.48L28.86,284.31L29.03,283.69L29.21,284.95L29.39,285.62L29.74,285.82L29.91,284.98L30.09,286.74L30.44,283.82L30.62,284.81L30.79,285.28L31.15,285.18L31.32,286.76L31.5,271.82L31.67,269.66L31.85,285.6L32.2,283.99L32.38,284.46L32.55,269.64L33.43,286.71L33.61,284.71L33.79,286.29L33.96,286.88L34.14,273.1L34.31,274.88L34.49,273.67L34.67,283.94L35.19,282.97L35.55,289.63L35.72,288.29L36.25,265.66L36.6,271.74L36.78,280.33L37.13,290.2L37.48,289.56L37.66,281L38.01,267.81L38.19,284.53L38.36,284.93L38.54,285.42L38.71,292.15L38.89,292.03L39.07,288.34L39.59,273.72L39.77,277.71L39.94,284.78L40.47,292.8L40.65,292.72L40.82,286.09L41,289.65L41.18,286.12L41.35,276.42L41.53,275.75L41.7,287.28L42.06,290.03L42.23,284.86L42.41,285.08L42.76,289.58L42.94,285.4L43.11,275.03L43.46,271.72L43.64,286.44L43.82,286.29L43.99,284.31L44.17,289.85L44.52,289.56L44.7,282.5L44.87,273.13L45.22,287.38L45.4,288.22L45.58,288.17L45.75,285.05L45.93,288.81L46.1,283.02L46.28,288.29L46.46,278.08L46.81,270.13L46.98,289.11L47.16,288.64L47.34,285.35L47.69,288.62L48.04,287.8L48.22,280.28L48.39,261.65L48.74,289.46L48.92,266.13L49.1,271.12L49.98,288.91L50.15,287.68L50.85,272.14L51.03,288.24L51.21,291.49L51.73,287.5L51.91,286.14L52.09,287.55L52.26,280.01L52.44,270.78L52.79,285.7L52.97,289.18L53.32,287.6L53.67,290.12L53.85,286.74L54.02,285.5L54.2,274.14L54.37,273.3L54.55,284.31L54.73,289.16L55.25,287.01L55.43,285.72L55.61,289.61L55.78,284.14L55.96,272.71L56.84,289.58L57.01,288.37L57.19,286.31L57.37,267.19L57.54,264.12L57.72,284.41L58.6,290.2L58.77,287.65L59.13,270.55L59.3,271.77L59.48,284.16L59.83,289.11L60.01,287.68L60.18,283.2L60.53,267.39L60.89,280.75L61.06,283.07L61.24,281.44L61.41,285.89L61.59,287.82L61.94,290.08L62.12,273.13L62.29,273.85L62.47,280.03L63.35,290.89L63.52,289.14L63.7,291.21L63.88,273.08L64.4,288.57L64.58,292.03L64.76,292.03L64.93,289.11L65.11,289.19L65.28,286.46L65.81,273.65L65.99,276.99L66.16,289.09L66.34,289.23L66.52,285.3L66.69,284.14L66.87,287.5L67.04,286.56L67.22,287.77L67.57,273.85L67.92,287.75L68.1,289.61L68.98,278.87L69.16,269.91L69.33,263.97L69.51,270.43L69.68,283.87L69.86,282.41L70.04,285L70.21,282.92L70.39,284.56L70.56,282.46L70.74,287.25L71.09,282.7L71.27,270.83L71.44,277.78L71.62,265.73L71.8,217.88L72.15,294.8L72.68,289.41L72.85,280.67L73.03,279.16L73.2,281.94L73.55,280.48L73.73,280.08L74.26,294.28L74.43,289.43L74.61,276.54L74.96,281.91L75.14,286.59L75.49,283.74L75.67,293.93L76.37,275.83L76.55,283.52L76.72,286.49L77.43,296.11L77.6,295.17L77.78,296.41L78.13,282.16L78.31,294.73L78.48,294.48L78.66,295.89L79.19,277.71L79.36,282.9L79.54,289.68L79.89,295.86L80.42,295.82L80.59,293.49L80.77,294.43L80.95,278.89L81.3,280.65L81.47,295.52L81.83,293.59L82,285.77L82.53,295.27L82.71,282.97L82.88,279.51L83.06,288.27L83.23,295.86L83.41,288.91L83.94,294.03L84.11,294.38L84.29,293.32L84.46,278.92L84.82,287.72L84.99,294.92L85.17,292.7L85.52,295.34L85.7,222.83L86.05,283.15L86.58,271.92L86.75,283.02L87.46,285.33L87.63,283.77L87.98,268.03L88.51,272.66L88.69,285.08L88.86,284.24L89.04,274.54L89.74,285.52L89.92,266.99L90.1,266L90.27,270.58L90.62,286.59L91.15,283.45L91.33,285.65L91.86,271.32L92.03,277.04L92.21,284.51L92.38,280.8L92.91,284.09L93.09,284.46L93.26,285.5L93.44,270.28L93.62,270.93L93.79,274.56L94.14,286.54L94.67,285.23L94.85,283.94L95.02,284.26L95.2,277.46L95.38,264.2L95.73,286.27L95.9,284.11L96.08,286.74L96.43,283.32L96.61,284.56L96.78,285.28L96.96,284.38L97.13,269.57L97.66,286.34L98.01,282.95L98.19,268.01L99.07,285.5L99.25,285.23L99.42,284.85L99.77,276.27L99.95,270.88L100.13,272.06L100.3,287.48L100.83,287.6L101.01,284.53L101.18,284.63L101.36,285.94L101.89,267.24L102.06,284.01L103.12,285.4L103.29,276.27L103.65,272.46L103.82,283.25L104,268.18L104.53,284.53L104.7,281.47L104.88,280.03L105.05,284.85L105.58,284.38L105.76,285.03L105.93,288.62L106.11,288.96L106.29,288.86L106.46,287.8L106.64,271.12L107.16,283.52L107.34,284.88L107.52,285.47L107.69,284.68L107.87,278.55L108.4,286.07L108.75,285.94L108.92,273.05L109.1,268.65L109.28,280.45L109.45,282.97L109.98,286.91L110.33,284.56L110.51,284.9L110.86,272.31L111.21,284.95L111.39,284.11L111.56,288.32L111.74,273.13L112.62,286.31L112.8,286.27L113.5,271.25L113.68,285.87L114.03,283.87L114.2,284.9L114.38,285.92L114.73,283.22L114.91,276.84L115.08,264.84L115.44,284.78L115.61,284.71L115.96,285.89L116.32,276.59L116.49,272.01L117.55,286.56L117.72,284.66L117.9,286.69L118.08,273.7L118.43,275.43L118.6,284.58L118.78,284.81L118.95,287.21L119.13,288.02L119.31,284.36L119.66,286.91L119.83,275.92L120.19,269.12L120.36,286.17L120.54,282.97L121.07,285.2L121.24,284.73L121.42,286.07L121.59,281.12L121.77,269.52L122.12,285.57L122.3,286.29L122.65,286.54L123,280.65L123.18,284.46L123.53,268.18L123.71,272.06L123.88,282.26L124.06,285.92L124.23,284.43L124.41,274.39L124.94,285.94L125.11,280.55L125.29,266.55L125.47,266.5L125.64,271.4L126.17,286.79L126.52,285.89L126.7,283.49L126.87,282.13L127.05,262.69L127.75,285.42L127.93,284.14L128.11,285.5L128.63,265.41L128.81,279.58L128.99,286.76L129.69,271.4L129.86,278.05L130.04,284.83L130.22,283.96L130.39,288.91L130.57,280.75L131.1,284.48L131.27,285.05L131.8,284.78L131.98,286.22L132.5,267.59L132.68,280.9L132.86,284.56L133.21,283.72L133.74,287.01L133.91,282.68L134.09,266.79L134.62,284.78L134.79,283.35L135.14,286.29L135.32,283.17L135.5,286.22L135.67,283.22L136.02,270.75L136.2,280.33L136.38,286.93L136.9,283.77L137.08,284.61L137.26,285.67L137.43,284.29L137.61,272.14L137.78,268.82L137.96,271.82L138.14,285.92L138.31,286.74L138.49,284.76L138.66,284.68L138.84,286.24L139.02,284.29L139.19,284.61L139.37,271.5L139.72,274.69L139.9,282.7L140.77,285.94L140.95,285.65L141.13,276.37L141.3,271.52L141.48,271.97L141.65,284.46L142.01,286.71L142.18,285.28L142.89,288.91L143.06,284.85L143.24,266.92L143.59,288.29L143.77,284.31L143.94,285.25L144.12,284.93L144.29,285.89L144.47,274.22L144.65,274.76L144.82,279.04L145,285.72L145.35,281L145.53,272.61L145.7,272.36L145.88,274.41L146.23,288.27L146.76,285.75L146.93,286.29L147.11,285.35L147.29,274.24L147.81,285.18L148.34,283.52L148.52,284.46L148.69,283.72L148.87,283.87L149.05,285.97L149.4,282.63L149.57,270.13L149.75,269.61L149.93,286.46L150.28,281.42L150.45,284.83L150.63,266.82L150.98,279.76L151.16,259.67L151.33,240.89L151.51,285L151.69,278.97L151.86,287.03L152.04,286.66L152.21,282.53L152.39,282.7L152.56,284.46L152.92,269.24L153.27,277.26L153.44,285.13L154.32,280.8L154.5,265.71L155.56,286.07L155.73,284.93L156.44,271.77L156.61,278.1L156.79,285.7L157.32,282.16L157.49,284.48L157.67,287.03L157.84,283.74L158.02,284.73L158.2,261.25L158.37,262.51L158.55,273.57L159.08,284.29L159.43,283.32L159.6,284.76L159.78,282.16L159.96,264.86L160.48,280.35L160.66,278.84L160.84,246.88L161.36,295.37L161.72,290.42L161.89,276.27L162.6,295.3L162.77,288.02L162.95,283.62L163.3,291.46L163.65,285.62L163.83,279.34L164.71,311.6L164.71,238.99L165.41,299.2L165.59,295.12L165.76,288.27L166.29,286.54L166.47,295.32L166.64,291.81L166.82,288.29L167.17,292.82L167.7,291.83L167.87,292.45L168.05,296.93L168.4,291.61L168.58,292.57L168.75,292.45L168.93,291.78L169.28,292.48L169.46,296.51L169.81,296.66L169.99,286.66L170.34,291.83L170.51,292.95L170.69,292.38L170.87,271.97L171.04,270.88L171.22,283.15L171.57,285.7L171.75,280.23L171.92,287.3L172.45,284.26L172.63,279.04L173.33,289.48L173.51,280.9L173.86,282.43L174.03,279.54L174.56,285.8L174.74,279.07L174.91,285.15L175.09,280.65L175.26,285.87L175.44,280.03L175.62,283.77L175.79,277.93L175.97,284.58L176.5,280.45L176.67,280.5L176.85,280.95L177.02,274.02L177.2,275.8L177.38,297.82L177.9,299.13L178.08,284.26L178.26,292.55L178.43,296.63L178.61,298.56L178.96,295.42L179.14,292.28L180.02,296.53L180.19,288.69L180.54,295.3L181.07,292.05L181.25,255.17L181.95,286.29L182.13,282.16L182.3,280.6L182.48,280.33L182.66,286.41L182.83,280.62L183.01,287.23L183.36,283.35L183.54,286.14L183.71,285.37L183.89,272.88L184.59,287.28L184.77,285.45L184.94,277.01L185.3,287.92L185.65,284.93L185.82,282.38L186,286.02L186.17,279.73L186.35,281.99L186.53,280.57L187.05,278.64L187.41,285.97L187.58,285.18L188.46,276.29L188.64,286.17L188.81,287.33L188.99,287.13L189.17,279.81L189.52,284.83L189.69,277.58L190.22,283.4L190.57,283.07L190.75,280.43L191.28,283.72L191.45,282.41L191.63,288.1L192.33,280.8L192.51,283.57L192.69,279.63L192.86,273.03L193.04,285.28L193.39,280.28L193.57,280.53L194.09,281.54L194.27,285.82L194.62,287.7L194.97,261.77L195.15,267.66L195.33,280.92L195.68,213.92L195.85,286.02L196.73,295.17L196.91,293.09L197.08,221.44L197.61,242.47L197.79,283.69L197.96,278.74L198.14,284.85L198.32,251.93L199.2,296.85L199.37,293.09L200.25,286.64L200.43,289.04L201.31,297.97L201.48,291.44L201.66,297.32L202.19,290.55L202.36,287.58L203.24,296.9L203.42,292.7L203.6,292.43L203.77,296.06L203.95,296.38L204.12,289.04L204.83,293.02L205,292.5L205.18,291.91L205.53,294.65L205.71,291.21L206.76,296.26L206.94,292.23L207.12,288.1L207.29,297.13L207.64,292.62L207.82,292.33L208.17,263.83L208.52,281.34L208.7,286.91L208.87,275.11L209.4,280.18L209.58,287.63L209.75,271.59L210.28,278.32L210.46,280.18L211.16,288L211.34,285.13L211.51,284.9L211.87,275.82L212.22,280.4L212.39,285.8L212.92,279.39L213.27,279.51L213.45,285.03L213.63,278.77L214.15,281.14L214.33,285.52L215.21,280.33L215.39,284.88L215.91,287.92L216.27,279.36L216.44,283.27L216.62,285.3L216.79,281.14L216.97,281.37L217.15,281.44L217.32,283.89L217.5,283.12L217.67,275.78L218.38,285.23L218.55,280.8L219.08,285.67L219.43,285.15L219.61,279.88L219.78,279.96L219.96,285.5L220.14,287.38L220.31,282.68L220.49,284.81L220.66,283.45L220.84,288.07L221.02,280.45L221.19,275.33L221.72,285.3L222.25,283.84L222.42,286.04L222.95,279.98L223.13,285.7L223.3,289.31L224.01,280.62L224.36,280.67L224.54,283.2L224.71,283.3L224.89,286.09L226.12,280.33L226.3,281.64L226.47,280.35L226.65,285.1L227,281L227.18,285.89L227.35,283.62L227.53,283.77L227.7,288.1L227.88,279.61L228.23,285.67L228.41,281.29L228.58,288.86L228.76,281.07L229.11,284.88L229.29,284.26L229.82,285.82L229.99,280.85L230.17,283.3L230.34,287.16L230.69,284.09L230.87,280.1L231.05,280.1L231.22,281.14L231.4,280.13L231.57,281.69L231.75,282.95L232.1,279.68L232.28,287.11L232.45,281.29L232.98,285.47L233.16,283.74L233.69,286.46L233.86,280.43L234.04,283.25L234.39,281.07L234.74,282.95L234.92,285.87L235.09,280.35L235.62,286.22L235.8,283.25L236.15,283.17L236.33,281L236.5,280.8L236.68,278.05L237.03,276.42L237.91,283.49L238.09,282.48L238.26,279.44L238.44,285L238.79,279.78L238.97,281L239.14,280.3L239.32,275.26L240.02,287.03L240.2,280.48L240.37,280.85L240.55,276.74L240.73,283.89L241.08,280.35L241.25,285.6L241.61,287.03L241.78,277.16L242.13,277.19L242.31,278L242.84,285.6L243.01,281.86L243.19,275.82L243.54,285.94L244.07,279.96L244.24,279.78L244.42,284.86L244.95,280.28L245.12,281.47L245.3,279.16L245.48,285.4L245.65,286.86L246,287.21L246.18,278.67L246.53,279.02L246.71,281.74L246.88,286.49L247.06,277.53L247.24,285.37L247.41,280.15L247.59,286.59L248.12,281.54L248.29,281.44L248.47,274.27L248.64,283.62L248.82,283.22L249,285.82L249.88,278.67L250.05,281.34L250.23,282.01L250.4,278.3L251.46,286.98L251.64,280.28L251.81,287.9L251.99,278.99L252.34,283.44L252.52,280.57L253.39,285.87L253.57,281.19L253.75,280.18L253.92,284.14L254.45,281.52L254.63,286.29L255.51,280.97L255.68,280.13L255.86,279.09L256.03,283.37L256.21,280.85L256.39,283.67L256.56,286.79L256.91,287.53L257.62,281.02L257.79,283.49L258.15,284.9L258.67,278.87L258.85,283.77L259.2,286.02L259.38,279.78L259.73,281.51L259.91,285.97L260.26,280.33L260.43,287.18L260.79,281.69L260.96,286.22L261.67,268.11L262.02,271.57L262.19,270.23L262.9,286.61L263.07,281.42L263.25,282.95L263.6,286.76L263.78,285.82L263.95,280.65L264.31,278.99L264.66,285.3L264.83,281L265.01,281.86L265.36,279.91L265.54,286.12L266.24,280.65L266.42,282.75L266.59,281.59L266.77,280.82L266.94,285.67L267.12,285.84L267.3,280.67L267.82,283.22L268,280.43L268.53,280.23L268.7,281.54L268.88,279.61L269.23,277.36L269.41,283.79L269.58,281.42L269.76,280.87L269.94,281.04L270.11,283.77L270.29,286.12L270.46,281.91L270.64,280.77L270.99,280.55L271.17,286.19L271.34,282.18L271.52,278.65L272.4,286.81L272.58,280.95L273.28,287.26L273.46,281.12L273.63,280.43L273.81,287.38L273.98,280.65L274.51,283.44L274.69,282.83L274.86,280.48L275.04,287.06L275.57,280.77L275.74,283.74L275.92,281L276.27,285.87L276.45,284.73L276.8,280.25L276.97,280.75L277.15,285.6L277.33,286.81L277.5,281.94L277.68,279.71L278.03,283.79L278.21,283.57L278.38,281.04L278.56,267.14L278.91,285.3L279.44,281.49L279.61,279.98L279.97,280.9L280.14,283.25L280.32,285.62L280.49,280.8L280.67,280.15L280.85,280.92L281.02,285.08L281.2,285.42L281.37,279.91L281.55,278.08L281.73,284.71L282.43,278.55L282.78,279.63L282.96,287.82L283.66,277.36L283.84,289.36L284.72,272.58L284.89,280.82L285.42,280.6L285.6,290.37L285.77,286.31L285.95,281.66L286.13,287.68L286.65,282.8L286.83,279.34L287,285.4L287.18,276.67L287.53,281.66L287.71,280.48L287.88,287.65L288.41,284.83L288.59,281.74L288.76,280.82L289.12,281.02L289.29,287.68L290.17,279.78L290.35,288.96L291.23,280.65L291.4,281.24L291.76,281L291.93,282.92L292.11,283.49L292.28,281.29L292.64,283.59L292.81,281.12L292.99,281.66L293.16,280.11L293.34,283.59L293.52,287.28L293.87,281.14L294.04,280.75L294.92,287.3L295.1,284.26L295.45,286.22L295.8,281.24L295.98,284.36L296.51,280.95L296.68,286.79L296.86,286.49L297.04,282.6L297.21,289.06L297.74,286.41L297.92,285.89L298.27,285.65L298.62,293.49L298.79,289.68L298.97,286.31L299.85,289.6L300.03,287.58L300.2,284.11L300.73,286.79L300.91,287.26L301.08,282.97L301.26,290.22L301.61,284.41L301.79,292.45L302.31,283.87L302.67,284.24L302.84,287.3L303.19,280.8L303.55,283.96L303.72,285.97L303.9,282.95L304.25,285.99L304.43,289.73L305.48,282.83L305.66,285.42L306.01,284.88L306.54,286.29L306.71,284.63L306.89,289.61L307.42,288.17L307.59,286.29L307.95,283.62L308.12,290.03L308.3,292.01L308.47,288.44L308.65,286.02L309,277.51L309.35,285.37L309.53,283.45L309.88,286.44L310.06,284.95L310.23,289.23L311.29,282.36L311.46,285.77L311.64,283.27L311.99,286.24L312.17,283.59L312.34,289.65L312.87,284.53L313.22,286.59L313.4,291.41L313.58,292.77L313.75,284.95L314.28,283.22L314.46,286.22L314.81,288.17L314.98,283.27L315.16,285.13L315.34,285.77L315.69,283.91L315.86,290.2L316.04,280.45L316.92,288.99L317.1,286.31L317.27,286.79L317.45,285.13L317.62,290.77L318.5,281.37L318.68,282.06L319.03,289.51L319.56,287.65L319.74,280.95L320.62,289.65L320.79,285.7L320.97,285.55L321.14,286.09L321.32,290.89L321.67,285.55L322.02,290.47L322.2,288.27L322.55,282.53L322.73,282.88L322.9,286.07L323.25,284.98L323.43,289.63L323.61,283.3L324.13,292.45L324.31,279.96L324.49,289.8L325.01,283.25L325.19,274.14L325.37,289.23L325.89,281.44L326.07,284.68L326.42,276.96L326.77,284.01L326.95,284.48L327.3,268.58L327.48,283.3L327.65,284.09L327.83,283.89L328.01,276.44L328.53,281.04L328.71,275.7L329.24,283.12L329.41,281.32L329.59,308.38L329.59,243.19L330.29,277.73L330.47,280.15L330.65,280.35L330.82,283.77L331.35,279.56L331.7,280.35L331.88,281.86L332.05,278.25L332.58,280.77L332.76,283.42L332.93,280.87L333.46,282.7L333.64,283.3L333.81,285.52L333.99,232.01L334.69,298.04L334.87,296.48L335.04,292.65L335.22,292.13L335.4,293.54L335.57,298.54L335.75,297.7L335.92,290.57L336.1,287.92L336.28,294.48L336.45,292.13L336.63,292.05L337.33,299.01L337.51,297.05L337.68,295.37L337.86,297.27L338.04,294.21L338.21,292.7L338.39,296.71L338.74,291.16L338.92,282.7L339.62,292.55L339.8,292.43L339.97,292.1L340.32,289.53L340.5,292.52L341.03,291.49L341.2,220.73L341.56,279.39L342.08,278.92L342.26,283.25L342.61,279.31L342.79,284.66L342.96,287.65L343.67,277.16L343.84,283.99L344.02,283.77L344.19,284.16L344.37,276.17L344.55,273.35L344.72,277.43L344.9,284.21L345.43,276.32L345.6,280.06L345.78,283.52L346.13,284.26L346.31,274.84L346.48,286.83L346.83,279.12L347.01,288.86L347.19,282.46L347.36,285.55L347.54,279.02L347.89,285.99L348.07,289.83L348.42,278.79L348.95,281.76L349.12,281.07L349.65,280.65L350,285.82L350.18,283.2L350.35,284.58L350.53,279.88L350.71,287.23L351.23,280.5L351.41,281.44L351.94,280.38L352.29,289.11L352.47,274.84L352.82,211.92L352.99,251.98L353.17,290.94L353.7,292.5L353.87,293.81L354.4,292.8L354.58,298.76L354.75,291.63L355.46,291.98L355.63,291.36L356.16,296.38L356.34,295.64L356.51,292.08L356.69,291.58L356.86,296.46L357.04,296.85L357.22,291.98L357.39,292.2L357.57,296.61L357.74,290.77L358.27,296.21L358.45,292.5L358.62,291.98L358.8,286.86L358.98,282.43L359.33,291.31L359.5,292.18L359.68,290.1L359.86,295.07L360.21,291.81L360.38,291.68L360.74,290.72L360.91,292.28L361.09,287.35L361.26,293.04L361.62,292.85L361.79,292.55L363.02,288.91L363.2,291.61L363.38,236.86L363.9,278.15L364.08,278.47L364.43,277.11L364.61,284.78L364.78,281.12L364.96,273.25L365.14,272.04L365.31,280.33L365.49,285.82L365.66,275.78L365.84,276.2L366.01,271.17L366.89,284.16L367.07,282.06L367.25,277.63L367.6,284.95L367.77,280.15L367.95,274.04L368.83,286.71L369.01,277.95L369.18,276.86L369.36,280.82L369.53,281.66L369.71,278.97L369.89,280.72L370.06,278.87L370.77,287.72L370.94,280.23L371.12,277.75L371.29,282.43L371.47,281.02L371.65,282.43L372,280.33L372.17,283.35L372.7,272.86L372.88,280.97L373.05,286.12L373.23,280.01L373.93,281.29L374.11,285L374.29,288.12L374.46,280.72L374.81,286.07L374.99,280.85L375.17,287.97L375.69,279.66L375.87,280.9L376.22,280.8L376.4,282.18L376.57,280.35L376.75,280.87L376.92,285.82L377.28,279.61L377.63,285.97L377.8,281.04L377.98,281.81L378.16,277.71L378.33,284.43L378.68,280.3L378.86,281.32L379.74,281.04L379.92,281.86L380.09,287.3L380.44,280.95L380.62,282.11L380.8,281.07L381.32,286.39L381.5,281.42L381.85,281.89L382.03,281.24L382.2,287.13L382.38,281.32L382.56,287.18L383.08,282.21L383.26,282.58L383.44,283.89L383.61,278.27L383.96,283.62L384.49,282.53L384.67,282.8L384.84,282.46L385.02,287.38L385.37,287.97L385.72,276.49L385.9,287.38L386.6,279.49L386.78,280.72L386.96,286.09L387.84,280.55L388.01,285.18L388.19,277.58L388.89,279.56L389.07,285.89L389.24,281.24L389.77,281.64L389.95,282.78L390.47,280.35L390.65,285.94L390.83,278.89L391.18,283.89L391.35,279.04L392.06,286.19L392.23,281.19L392.41,279.63L392.76,281.74L392.94,282.26L393.29,283.92L393.47,280.8L393.64,281.64L393.99,286.27L394.17,281.29L394.35,279.56L394.87,281.44L395.05,281L395.23,289.58L395.75,279.07L395.93,282.5L396.11,285.77L396.63,280.06L396.99,280.5L397.16,281.59L397.34,284.66L397.69,283.52L397.87,279.78L398.57,285.55L398.75,284.66L398.92,286.71L399.8,280.8L399.98,280.85L400.33,280.15L400.5,283.57L400.68,283.3L400.86,285.47L401.21,281.19L401.74,281.27L401.91,280.92L402.09,280.65L402.26,286.66L402.79,279.68L403.14,281.37L403.32,286.59L403.5,277.71L404.02,281.56L404.2,280.77L404.9,282.97L405.08,280.48L405.26,287.08L405.43,278.62L405.96,286.14L406.14,286.07L406.49,286.49L407.02,278.69L407.19,287.8L407.54,280.08L408.07,283.17L408.25,285.67L408.6,278.05L408.78,284.68L409.3,286.64L409.48,280.38L409.66,285.85L410.01,280.9L410.36,285.99L410.54,285.55L410.89,280.8L411.24,282.08L411.41,285.6L411.59,279.26L412.29,280.9L412.47,290.22L413.35,282.03L413.53,286.22L413.7,284.06L413.88,287.03L414.41,284.14L414.58,286.41L415.11,292.15L415.29,284.81L415.46,286.39L415.64,282.13L415.99,285.33L416.17,282.8L416.52,286.71L417.05,284.83L417.22,285.45L417.4,285.85L417.57,281.54L417.75,286.74L418.28,285.89L418.45,283.15L418.63,280.67L418.81,287.7L418.98,285.2L419.16,287.65L419.69,280.28L419.86,283.25L420.04,288.02L420.21,291.09L420.57,284.83L420.74,286.19L421.27,283.05L421.45,285.23L421.62,285.85L421.8,289.9L421.97,283L422.15,285.62L422.32,284.56L422.5,288.54L423.03,285.77L423.2,284.73L423.38,283.05L423.56,285.42L423.73,289.78L424.26,283.49L424.61,285.65L424.79,284.31L424.96,283.47L425.14,286.71L425.32,286.96L425.49,283.15L426.02,286.88L426.2,282.63L426.37,282.9L426.55,288.79L427.6,267.93L427.78,281.91L428.13,285.13L428.31,274.91L429.01,286.24L429.19,280.92L429.54,287.4L429.72,283.02L429.89,281.32L430.07,285.47L430.24,280.13L430.42,280.9L430.6,280.2L431.3,285.57L431.48,280.18L431.83,286.44L432.36,283.67L432.53,283.47L432.71,281.74L432.88,286.24L433.06,286.19L433.59,288.15L433.76,285.6L433.94,280.65L434.47,286.27L434.64,281.37L434.82,278.37L434.99,278.08L435.17,281.76L435.35,286.31L435.7,281.27L435.87,283.72L436.05,276.57L436.75,284.58L436.93,279.09L437.81,283.69L437.99,279.61L438.16,275.53L438.34,285.23L438.51,289.61L439.39,280.35L439.57,277.63L439.92,282.85L440.1,250.64L440.98,296.83L441.15,295.52L441.51,297.6L441.86,288.15L442.03,298.26L442.39,292.13L442.74,296.71L442.91,298.83L443.44,285.23L443.79,291.49L443.97,291.88L444.5,290.57L444.67,289.63L445.02,296.51L445.38,292.05L445.55,291.56L445.73,292.15L445.9,291.09L446.08,289.9L446.26,294.11L446.43,291.83L446.61,283.32L446.96,292.7L447.49,292.3L447.66,288.52L448.02,294.5L448.19,289.95L448.72,296.46L448.9,292.25L449.07,292.1L449.42,291.96L449.6,286.44L449.78,296.48L450.13,292.05L450.3,217.96L450.66,286.36L451.18,280.62L451.36,283.17L451.89,275.78L452.24,277.04L452.42,284.16L452.59,286.56L452.94,285.42L453.12,278.6L453.3,286.24L453.65,276.86L453.82,285.4L454,276.37L454.53,286.81L454.7,280.03L454.88,278.97L455.06,280.4L455.23,279.98L455.41,275.75L455.93,285.89L456.11,280.3L456.29,280.53L456.64,287.28L456.99,283.74L457.17,283.42L457.52,284.78L457.69,275.43L457.87,277.16L458.05,280.97L458.22,280.43L458.4,281.81L458.57,281.42L458.75,286.29L459.28,286.98L459.45,280.58L459.63,283.74L459.81,285.89L459.98,281.34L460.16,285.67L460.33,279.83L460.69,280.01L460.86,282.95L461.21,285.97L461.57,279.98L461.74,281.34L462.09,285.6L462.27,280.55L462.45,285.5L462.62,282.23L462.97,281.24L463.15,284.85L463.33,279.26L463.5,285.45L463.85,280.8L464.03,281.74L464.21,283.4L464.56,280.57L464.73,281.39L464.91,280.3L465.09,279.73L465.26,282.85L465.44,290.22L465.79,280.18L465.97,282.9L466.14,281.84L466.32,279.83L466.49,285.25L466.85,281.17L467.02,287.85L467.9,280.62L468.08,287.82L469.13,281.07L469.31,281.47L469.48,286.22L470.36,277.73L470.54,283.57L470.72,283.45L470.89,280.55L471.07,285.85L471.6,281.09L471.77,279.78L472.12,285.55L472.48,283.42L472.65,281.24L472.83,280.6L473,281.12L473.18,283.57L473.36,285.87L473.53,281.19L473.71,284.24L473.88,282.11L474.24,287.55L474.59,283.42L474.76,283.64L475.29,282.33L475.47,282.88L475.64,287.77L475.82,278.08L476.52,280.35L476.7,282.43L477.05,280.72L477.23,283.59L477.4,281.07L477.58,285.4L477.76,285.84L477.93,284.38L478.11,281.07L478.28,279.86L478.63,281.34L478.81,279.98L478.99,281.42L479.16,287.13L479.69,281.39L479.87,286.79L480.04,281.12L480.22,287.23L480.57,278.08L480.92,285.85L481.1,282.53L481.45,283.54L481.63,280.85L482.15,279.63L482.51,288.76L482.68,281.24L482.86,279.12L483.21,283.45L483.39,282.41L483.56,281.22L483.74,283.84L483.91,287.65L484.09,287.92L484.27,280.9L484.62,284.19L484.79,283.72L484.97,281.49L485.32,280.6L485.5,280.82L485.67,281.81L486.03,280.48L486.38,286.24L486.55,281.07L486.73,287.85L487.26,286.07L487.43,280.85L488.14,286.19L488.31,284.58L488.49,286.07L488.67,280.97L488.84,281.71L489.02,281.29L489.19,274.61L489.54,286.71L489.9,281.22L490.07,276.84L490.25,270.75L490.6,278.97L490.78,277.88L490.95,276L491.3,286.49L491.83,281L492.01,284.9L492.18,286.69L492.36,280.85L492.54,280.7L493.24,286.31L493.42,279.36L493.59,285.47L494.12,280.53L494.3,283.57L494.47,299.65" style="vector-effect: none; fill: none; stroke: rgb(99, 110, 250); stroke-opacity: 1; stroke-width: 2px; opacity: 1;"/></g><g class="points"/><g class="text"/></g><g class="trace scatter traceb10e74" style="stroke-miterlimit: 2; opacity: 1;"><g class="fills"/><g class="errorbars"/><g class="lines"><path class="js-line" d="M0.18,69.6L0.35,115.2L0.53,16.4L0.88,69.6L1.06,96.2L1.23,88.6L1.41,141.81L2.46,84.8L2.64,115.2L3.34,145.61L3.52,119L3.87,107.6L4.05,141.81L4.22,119L4.4,69.6L5.28,149.41L5.46,157.01L5.63,153.21L5.81,103.8L5.98,153.21L6.51,145.61L6.69,134.2L6.86,160.81L7.39,157.01L7.57,149.41L7.74,168.41L7.92,145.61L8.27,164.61L8.45,141.81L8.62,115.2L8.97,138L9.15,153.21L9.5,119L9.85,141.81L10.03,149.41L10.21,122.8L10.56,168.41L10.73,168.41L10.91,103.8L11.44,164.61L11.61,153.21L11.97,141.81L12.14,164.61L12.32,145.61L12.85,141.81L13.37,187.41L13.55,183.61L14.08,81L14.25,134.2L14.43,153.21L14.61,115.2L14.96,160.81L15.31,119L15.49,130.4L15.66,179.81L15.84,122.8L16.01,145.61L16.19,24L16.72,141.81L17.07,134.2L17.24,157.01L17.42,157.01L17.6,145.61L17.95,160.81L18.12,138L18.48,134.2L18.65,176.01L18.83,149.41L19,122.8L19.36,176.01L19.71,138L19.88,134.2L20.06,191.21L20.59,141.81L20.76,134.2L20.94,160.81L21.12,122.8L21.47,138L21.64,145.61L21.82,138L22,176.01L22.35,153.21L22.52,157.01L22.7,138L23.05,160.81L23.23,145.61L23.4,153.21L23.58,138L23.76,126.6L24.11,160.81L24.46,130.4L24.64,130.4L25.52,160.81L25.69,119L26.57,176.01L26.75,157.01L26.92,134.2L27.28,179.81L27.45,149.41L27.63,153.21L27.8,157.01L27.98,134.2L28.15,134.2L28.33,119L28.68,168.41L29.21,153.21L29.39,145.61L30.09,176.01L30.27,138L30.44,122.8L30.62,168.41L30.97,134.2L31.15,134.2L31.67,160.81L31.85,145.61L32.03,145.61L32.2,81L32.55,153.21L32.73,130.4L32.91,122.8L33.08,107.6L33.26,130.4L33.43,164.61L33.96,138L34.14,141.81L34.31,164.61L34.84,122.8L35.02,134.2L35.19,153.21L35.72,122.8L35.9,130.4L36.07,153.21L36.43,157.01L36.78,122.8L36.95,149.41L37.48,168.41L37.66,141.81L37.83,157.01L38.01,103.8L38.54,157.01L38.89,138L39.07,153.21L39.24,153.21L39.42,141.81L39.59,176.01L39.77,130.4L40.12,153.21L40.3,122.8L41,176.01L41.18,157.01L41.35,145.61L41.53,138L41.7,153.21L41.88,149.41L42.06,153.21L42.23,96.2L42.76,138L42.94,141.81L43.11,145.61L43.29,111.4L43.99,160.81L44.17,111.4L44.7,172.21L44.87,160.81L45.05,134.2L45.22,111.4L45.58,138L45.75,164.61L45.93,157.01L46.1,172.21L46.28,176.01L46.46,176.01L46.63,149.41L46.98,183.61L47.16,138L47.34,172.21L47.51,153.21L47.69,183.61L47.86,107.6L48.22,164.61L48.39,168.41L49.27,100L49.45,172.21L49.8,111.4L50.33,126.6L50.5,122.8L51.21,153.21L51.38,141.81L51.56,141.81L51.73,134.2L51.91,168.41L52.09,119L52.61,168.41L52.79,149.41L52.97,176.01L53.14,138L53.32,115.2L54.02,149.41L54.2,141.81L54.37,153.21L54.55,191.21L54.9,141.81L55.08,160.81L55.25,149.41L55.43,100L55.61,168.41L55.96,130.4L56.13,160.81L56.66,92.4L56.84,176.01L57.54,115.2L57.72,141.81L57.89,138L58.07,157.01L58.42,130.4L58.6,153.21L58.77,138L59.13,160.81L59.3,134.2L59.65,172.21L60.01,141.81L60.18,149.41L60.71,107.6L60.89,153.21L61.06,122.8L61.24,126.6L61.94,164.61L62.12,126.6L62.82,172.21L63,134.2L63.52,157.01L63.7,100L64.05,149.41L64.4,111.4L64.58,122.8L65.11,183.61L65.46,176.01L65.64,160.81L65.81,115.2L66.34,149.41L66.52,153.21L66.69,160.81L66.87,145.61L67.04,119L68.1,168.41L68.28,107.6L69.16,157.01L69.33,149.41L69.51,179.81L69.68,119L70.21,172.21L70.39,145.61L70.56,160.81L70.74,81L71.62,160.81L71.8,134.2L72.5,183.61L72.85,164.61L73.03,126.6L73.55,107.6L73.73,183.61L74.43,122.8L74.61,141.81L74.79,145.61L75.31,157.01L75.49,111.4L75.67,164.61L76.19,115.2L76.37,160.81L76.55,149.41L76.72,149.41L76.9,157.01L77.25,130.4L77.43,145.61L77.6,149.41L78.13,122.8L78.31,157.01L78.66,168.41L78.83,157.01L79.01,130.4L79.19,126.6L79.36,153.21L79.54,164.61L79.71,157.01L79.89,111.4L80.59,187.41L80.77,149.41L80.95,138L81.3,107.6L81.47,172.21L81.65,130.4L82,126.6L82.18,149.41L82.35,107.6L82.71,179.81L83.23,138L83.41,164.61L83.59,160.81L83.76,130.4L83.94,168.41L84.46,160.81L84.64,115.2L85.7,183.61L85.87,153.21L86.22,164.61L86.4,141.81L87.1,164.61L87.28,122.8L88.16,157.01L88.34,138L88.69,172.21L89.22,157.01L89.39,145.61L89.57,122.8L89.92,153.21L90.1,160.81L90.27,157.01L90.45,160.81L90.62,168.41L91.15,130.4L91.33,141.81L91.5,176.01L92.38,119L92.56,145.61L92.74,107.6L92.91,172.21L93.26,138L93.44,134.2L93.62,157.01L93.97,153.21L94.14,126.6L94.67,168.41L94.85,119L95.38,160.81L95.55,145.61L95.73,138L95.9,130.4L96.08,160.81L96.43,149.41L96.61,172.21L96.78,130.4L97.31,157.01L97.49,149.41L97.66,96.2L98.19,153.21L98.37,134.2L99.07,157.01L99.25,141.81L99.77,134.2L99.95,160.81L100.13,157.01L100.3,134.2L100.48,126.6L100.65,164.61L101.18,153.21L101.53,183.61L101.71,172.21L101.89,172.21L102.06,153.21L102.24,191.21L102.77,145.61L102.94,141.81L103.12,138L103.29,149.41L103.47,160.81L103.82,126.6L104.17,138L104.35,149.41L104.7,138L104.88,176.01L105.05,141.81L105.41,160.81L105.58,157.01L105.76,119L106.64,183.61L106.81,172.21L107.52,149.41L107.69,172.21L107.87,164.61L108.04,122.8L108.22,84.8L108.57,160.81L108.75,168.41L109.1,176.01L109.45,126.6L109.63,134.2L109.8,176.01L111.04,130.4L111.21,149.41L111.74,122.8L111.92,153.21L112.09,122.8L112.62,157.01L112.8,160.81L113.15,141.81L113.32,172.21L113.68,179.81L114.2,138L114.38,157.01L114.56,176.01L114.73,179.81L114.91,149.41L115.08,141.81L115.26,157.01L115.44,160.81L115.61,122.8L115.96,179.81L116.14,134.2L116.32,179.81L117.02,138L117.2,160.81L117.37,141.81L117.9,145.61L118.08,160.81L118.25,122.8L118.78,160.81L118.95,160.81L119.13,141.81L119.31,168.41L119.48,164.61L119.66,183.61L119.83,92.4L120.36,138L120.54,138L120.71,119L120.89,149.41L121.07,141.81L121.24,145.61L121.42,145.61L121.59,149.41L121.77,130.4L121.95,157.01L122.3,141.81L122.47,138L123.53,176.01L123.71,141.81L124.23,130.4L124.41,176.01L124.59,164.61L124.76,149.41L124.94,168.41L125.47,153.21L125.64,130.4L126.17,126.6L126.52,164.61L126.7,149.41L126.87,141.81L127.05,160.81L127.23,164.61L127.93,46.8L128.11,145.61L128.28,145.61L128.46,134.2L129.16,164.61L129.34,134.2L129.51,168.41L130.04,141.81L130.22,126.6L130.39,122.8L130.57,145.61L130.74,168.41L131.1,141.81L131.27,141.81L131.45,160.81L132.15,134.2L132.33,157.01L132.5,160.81L132.68,141.81L133.03,134.2L133.38,168.41L133.56,160.81L133.74,130.4L134.26,134.2L134.44,149.41L134.62,107.6L134.79,157.01L135.14,126.6L135.32,141.81L135.5,111.4L135.85,157.01L136.02,138L136.2,160.81L136.38,138L136.9,141.81L137.08,145.61L137.26,168.41L137.78,141.81L137.96,157.01L138.31,160.81L138.49,153.21L138.66,134.2L138.84,160.81L139.02,77.2L139.37,157.01L139.54,141.81L139.9,195.01L140.25,168.41L140.42,164.61L140.6,168.41L140.77,115.2L141.13,168.41L141.48,164.61L141.65,141.81L141.83,103.8L142.01,157.01L142.36,138L142.53,134.2L142.71,107.6L143.06,141.81L143.24,145.61L143.41,145.61L143.59,122.8L143.94,164.61L144.12,145.61L144.29,115.2L145,179.81L145.17,126.6L145.7,119L146.05,157.01L146.23,157.01L146.41,130.4L146.76,145.61L146.93,164.61L147.46,176.01L147.64,153.21L147.81,157.01L148.34,179.81L148.52,138L148.69,157.01L148.87,160.81L149.05,130.4L149.57,157.01L149.75,130.4L150.45,160.81L150.63,138L150.81,134.2L150.98,168.41L151.51,81L151.69,119L151.86,164.61L152.04,107.6L152.39,176.01L152.74,111.4L152.92,141.81L153.09,134.2L153.27,164.61L153.44,176.01L153.62,145.61L153.8,160.81L153.97,149.41L154.5,141.81L154.68,153.21L154.85,168.41L155.03,130.4L155.2,145.61L155.38,119L156.08,176.01L156.26,141.81L156.44,141.81L156.61,153.21L156.79,176.01L156.96,122.8L157.14,138L157.32,126.6L157.49,168.41L158.02,153.21L158.2,141.81L158.37,141.81L158.55,164.61L159.43,126.6L159.6,153.21L159.78,183.61L159.96,160.81L160.13,96.2L161.01,160.81L161.19,145.61L161.72,138L161.89,160.81L162.07,141.81L162.24,168.41L162.77,138L162.95,160.81L163.3,149.41L163.47,183.61L163.65,141.81L163.83,145.61L164,168.41L164.88,107.6L165.06,157.01L165.76,103.8L166.11,115.2L166.29,138L166.47,134.2L166.64,107.6L167.52,179.81L167.7,130.4L168.23,172.21L168.58,160.81L168.75,126.6L169.46,168.41L169.63,103.8L170.51,168.41L170.69,141.81L171.04,122.8L171.22,153.21L171.39,145.61L171.57,141.81L171.92,157.01L172.45,92.4L172.63,122.8L173.51,160.81L173.68,119L173.86,160.81L174.38,149.41L174.56,145.61L174.91,119L175.09,134.2L175.26,149.41L175.62,160.81L175.97,138L176.14,149.41L176.32,141.81L176.5,145.61L176.67,164.61L176.85,164.61L177.02,153.21L177.38,122.8L177.73,138L177.9,145.61L178.43,168.41L178.61,122.8L178.78,141.81L178.96,107.6L179.31,115.2L179.49,157.01L179.84,172.21L180.02,145.61L180.54,179.81L180.72,145.61L180.9,138L181.42,134.2L181.78,172.21L181.95,183.61L182.83,65.8L183.01,141.81L183.18,168.41L183.36,115.2L183.54,96.2L184.06,141.81L184.24,126.6L184.42,111.4L184.94,160.81L185.3,153.21L185.47,122.8L185.82,160.81L186.35,141.81L186.53,149.41L186.7,126.6L186.88,160.81L187.41,130.4L187.58,138L188.11,141.81L188.29,138L188.46,130.4L188.81,168.41L188.99,138L189.17,130.4L189.34,126.6L189.52,138L189.69,164.61L190.57,130.4L190.75,157.01L191.1,122.8L191.45,138L191.63,145.61L192.33,115.2L192.51,172.21L193.21,138L193.39,141.81L193.57,126.6L194.09,160.81L194.27,122.8L194.45,164.61L194.97,157.01L195.15,138L195.68,168.41L195.85,126.6L196.21,126.6L196.38,168.41L196.91,176.01L197.26,122.8L197.44,138L197.61,160.81L197.96,134.2L198.14,111.4L198.67,157.01L199.02,149.41L199.2,141.81L199.55,126.6L199.9,160.81L200.08,134.2L200.43,168.41L200.6,157.01L200.78,138L201.66,157.01L201.84,115.2L202.19,187.41L202.54,107.6L202.72,157.01L202.89,134.2L203.07,119L203.24,149.41L203.42,168.41L203.6,179.81L203.77,103.8L203.95,107.6L204.12,134.2L204.48,183.61L204.83,168.41L205,138L205.18,160.81L205.36,134.2L205.88,157.01L206.06,149.41L206.41,157.01L206.59,141.81L206.76,153.21L207.12,130.4L207.29,141.81L207.47,164.61L207.64,122.8L208.17,160.81L208.35,145.61L208.52,141.81L208.7,153.21L208.87,160.81L209.23,65.8L209.4,138L209.58,138L209.75,141.81L210.11,119L210.28,145.61L210.46,157.01L210.81,138L211.16,141.81L211.34,157.01L211.51,157.01L211.69,130.4L211.87,141.81L212.04,134.2L212.22,115.2L212.57,107.6L212.75,187.41L213.1,145.61L213.27,153.21L213.63,130.4L213.8,149.41L213.98,149.41L214.15,149.41L214.33,176.01L214.68,138L215.21,160.81L215.39,157.01L215.74,164.61L215.91,126.6L216.09,179.81L216.44,138L216.97,145.61L217.15,145.61L217.5,153.21L217.67,126.6L217.85,141.81L218.03,138L218.73,176.01L218.91,130.4L219.08,130.4L219.26,160.81L219.43,176.01L219.61,153.21L219.96,157.01L220.14,149.41L220.31,122.8L220.49,183.61L220.66,191.21L221.02,111.4L221.37,138L221.54,149.41L221.72,164.61L221.9,141.81L222.07,122.8L222.25,160.81L222.42,111.4L222.78,149.41L222.95,134.2L223.13,54.4L223.3,138L223.66,138L223.83,149.41L224.01,141.81L224.18,145.61L224.36,164.61L225.42,149.41L225.59,168.41L225.77,168.41L225.94,138L226.12,115.2L226.65,122.8L226.82,134.2L227.35,157.01L227.53,111.4L227.88,164.61L228.41,149.41L228.58,111.4L229.46,160.81L229.64,107.6L230.34,168.41L230.52,164.61L230.69,107.6L231.05,164.61L231.57,138L231.75,157.01L231.93,130.4L232.1,134.2L232.28,195.01L232.63,141.81L232.98,157.01L233.16,157.01L233.33,107.6L233.86,145.61L234.04,141.81L234.21,107.6L234.74,141.81L234.92,141.81L235.09,107.6L235.62,138L235.8,145.61L236.15,157.01L236.33,141.81L236.5,126.6L236.68,153.21L236.85,164.61L237.03,160.81L237.21,134.2L237.38,138L237.56,160.81L238.09,111.4L238.26,145.61L238.44,145.61L238.61,134.2L238.79,168.41L238.97,172.21L239.32,134.2L239.85,157.01L240.02,164.61L240.37,149.41L240.73,153.21L240.9,164.61L241.08,134.2L241.61,153.21L241.78,149.41L242.13,172.21L242.31,141.81L242.48,164.61L242.66,134.2L243.19,172.21L243.36,130.4L243.54,164.61L243.72,164.61L243.89,164.61L244.07,130.4L244.95,168.41L245.12,100L245.3,172.21L246,168.41L246.18,141.81L246.36,115.2L246.53,157.01L246.71,145.61L246.88,149.41L247.06,172.21L247.41,141.81L247.59,168.41L247.76,145.61L247.94,145.61L248.12,149.41L248.47,164.61L248.64,122.8L248.82,160.81L249.35,122.8L249.52,164.61L249.7,168.41L250.23,103.8L250.4,115.2L250.58,145.61L250.76,141.81L250.93,179.81L251.81,111.4L251.99,141.81L252.34,157.01L252.52,130.4L252.69,149.41L252.87,141.81L253.04,119L253.57,122.8L253.75,138L254.27,119L254.45,145.61L254.8,145.61L254.98,138L255.33,157.01L255.68,138L255.86,134.2L256.03,134.2L256.21,111.4L256.56,168.41L256.91,138L257.09,134.2L257.27,134.2L257.44,122.8L258.32,168.41L258.5,126.6L258.85,92.4L259.2,168.41L259.38,160.81L259.55,149.41L260.08,119L260.26,122.8L260.43,145.61L260.96,122.8L261.14,183.61L261.31,138L261.49,119L261.67,153.21L261.84,168.41L262.19,126.6L262.37,168.41L262.72,130.4L263.07,153.21L263.25,153.21L263.6,149.41L263.78,168.41L263.95,145.61L264.31,126.6L264.48,160.81L264.66,130.4L265.18,187.41L265.36,153.21L265.54,130.4L265.71,130.4L265.89,134.2L266.59,164.61L266.77,153.21L266.94,130.4L267.12,179.81L267.65,160.81L267.82,160.81L268.53,130.4L268.7,164.61L269.41,141.81L269.58,103.8L269.76,160.81L270.46,145.61L270.64,149.41L270.82,179.81L270.99,134.2L271.17,149.41L271.34,130.4L271.7,122.8L271.87,160.81L272.05,88.6L272.93,172.21L273.1,134.2L273.63,168.41L273.81,130.4L273.98,160.81L274.34,126.6L274.51,141.81L274.69,149.41L275.04,141.81L275.22,160.81L275.39,149.41L275.57,130.4L275.74,130.4L275.92,134.2L276.97,160.81L277.15,134.2L277.68,179.81L277.85,168.41L278.03,130.4L278.38,138L278.56,122.8L278.73,183.61L279.44,115.2L279.61,145.61L279.79,153.21L279.97,119L280.32,100L280.49,141.81L280.67,126.6L280.85,111.4L281.73,164.61L281.9,164.61L282.08,122.8L282.78,130.4L282.96,153.21L283.66,168.41L283.84,164.61L284.01,157.01L284.54,168.41L284.72,115.2L284.89,153.21L285.07,126.6L285.6,134.2L285.77,134.2L286.65,172.21L286.83,164.61L287,149.41L287.36,160.81L287.53,134.2L287.71,92.4L288.06,153.21L288.24,153.21L288.41,130.4L288.76,172.21L288.94,164.61L289.12,157.01L289.29,92.4L289.47,164.61L290.17,145.61L290.35,145.61L290.7,149.41L291.05,111.4L291.23,122.8L291.4,168.41L291.58,164.61L291.76,134.2L292.28,160.81L292.46,107.6L292.81,153.21L293.34,138L293.52,145.61L293.87,134.2L294.04,157.01L294.22,141.81L294.57,160.81L294.75,134.2L295.28,179.81L295.63,153.21L295.8,122.8L296.68,172.21L296.86,130.4L297.04,119L297.21,153.21L297.39,134.2L297.56,168.41L298.27,122.8L298.44,130.4L298.62,138L298.97,130.4L299.15,141.81L299.32,160.81L300.03,103.8L300.2,130.4L300.38,138L300.55,115.2L300.91,157.01L301.08,122.8L301.26,130.4L301.43,115.2L301.61,119L301.79,168.41L302.14,122.8L302.49,149.41L302.67,157.01L302.84,164.61L303.02,130.4L303.55,122.8L303.72,172.21L303.9,149.41L304.07,96.2L304.43,176.01L304.78,153.21L304.95,130.4L305.13,130.4L305.31,160.81L305.66,115.2L306.01,119L306.19,160.81L306.36,160.81L306.54,134.2L307.07,157.01L307.24,141.81L307.42,138L307.59,149.41L307.77,149.41L307.95,115.2L308.3,153.21L308.47,176.01L309.35,130.4L309.53,138L309.7,141.81L309.88,111.4L310.41,168.41L310.76,160.81L310.94,145.61L311.11,160.81L311.46,130.4L311.64,153.21L311.82,157.01L311.99,138L312.17,164.61L312.52,160.81L312.7,145.61L312.87,111.4L313.05,149.41L313.22,145.61L313.4,164.61L313.75,134.2L313.93,145.61L314.1,168.41L314.28,115.2L314.81,153.21L314.98,164.61L315.16,157.01L315.34,172.21L315.51,126.6L316.39,160.81L316.57,138L316.74,122.8L316.92,126.6L317.1,172.21L317.45,111.4L317.8,126.6L317.98,141.81L318.15,153.21L318.33,130.4L318.5,122.8L318.86,164.61L319.21,157.01L319.38,119L319.56,172.21L319.91,153.21L320.09,103.8L320.62,179.81L320.97,157.01L321.14,149.41L321.32,149.41L321.49,126.6L321.85,172.21L322.02,119L322.55,172.21L322.9,164.61L323.08,138L323.43,176.01L323.78,141.81L323.96,130.4L324.31,160.81L324.49,103.8L324.66,164.61L325.19,160.81L325.37,134.2L325.72,168.41L326.07,134.2L326.25,138L326.6,149.41L326.77,111.4L327.3,160.81L327.48,107.6L327.65,103.8L328.18,160.81L328.36,145.61L328.53,115.2L328.71,187.41L329.24,149.41L329.41,160.81L329.77,164.61L329.94,111.4L330.12,164.61L330.29,179.81L331.35,100L331.53,149.41L331.88,119L332.05,145.61L332.23,160.81L333.11,103.8L333.28,122.8L333.46,157.01L333.99,179.81L334.16,119L335.04,157.01L335.22,119L335.4,122.8L335.57,153.21L336.1,115.2L336.28,164.61L336.45,119L336.8,153.21L336.98,179.81L337.33,134.2L337.86,149.41L338.04,138L338.39,157.01L338.56,138L338.74,126.6L338.92,111.4L339.27,122.8L339.44,145.61L339.8,130.4L339.97,176.01L340.15,119L340.68,183.61L340.85,145.61L341.03,149.41L341.2,100L341.91,164.61L342.08,157.01L342.26,157.01L342.44,172.21L342.61,126.6L342.96,168.41L343.14,138L343.31,138L343.49,141.81L343.67,126.6L343.84,149.41L344.02,164.61L344.19,176.01L344.37,103.8L345.25,160.81L345.6,157.01L345.78,115.2L346.48,168.41L346.66,145.61L346.83,153.21L347.01,138L347.19,187.41L347.36,179.81L347.54,130.4L347.89,176.01L348.07,122.8L348.24,130.4L348.42,176.01L348.59,111.4L349.12,157.01L349.3,141.81L349.47,160.81L349.65,126.6L350.18,157.01L350.35,111.4L350.88,160.81L351.23,157.01L351.41,126.6L352.11,153.21L352.29,145.61L352.47,130.4L352.82,107.6L353.35,168.41L353.52,157.01L354.05,122.8L354.23,145.61L354.4,187.41L354.58,153.21L355.1,168.41L355.28,176.01L356.34,122.8L356.51,145.61L356.86,160.81L357.04,122.8L357.22,138L357.39,168.41L358.27,134.2L358.45,157.01L358.62,172.21L358.8,145.61L358.98,145.61L359.15,134.2L359.86,157.01L360.03,115.2L360.21,115.2L360.38,153.21L360.74,111.4L360.91,134.2L361.09,134.2L361.44,134.2L361.62,115.2L362.14,149.41L362.32,145.61L362.5,126.6L362.67,62L362.85,172.21L363.2,141.81L363.38,119L363.55,100L363.73,157.01L363.9,172.21L364.08,164.61L364.26,115.2L364.61,164.61L364.96,111.4L365.14,160.81L365.31,141.81L365.84,100L366.01,138L366.19,126.6L366.54,130.4L366.72,141.81L366.89,122.8L367.25,138L367.42,164.61L367.6,179.81L367.77,130.4L369.01,191.21L369.18,126.6L369.71,119L369.89,134.2L370.06,130.4L370.24,157.01L370.94,126.6L371.12,141.81L371.29,141.81L371.47,141.81L371.65,134.2L372.35,172.21L372.53,149.41L372.7,172.21L372.88,160.81L373.05,100L373.41,183.61L373.93,164.61L374.11,138L374.64,130.4L374.81,141.81L374.99,141.81L375.17,138L375.34,157.01L375.52,130.4L375.87,153.21L376.05,141.81L376.57,191.21L376.92,183.61L377.1,168.41L377.28,96.2L377.98,111.4L378.16,115.2L378.33,111.4L378.51,191.21L379.21,134.2L379.39,160.81L379.56,183.61L379.92,149.41L380.09,160.81L380.27,115.2L380.44,176.01L380.97,138L381.15,160.81L381.32,172.21L381.5,111.4L382.73,176.01L382.91,138L383.08,134.2L383.26,164.61L384.14,115.2L384.32,149.41L384.49,157.01L384.67,134.2L384.84,141.81L385.02,111.4L385.2,111.4L385.37,153.21L385.9,160.81L386.08,138L386.25,145.61L386.43,149.41L386.6,138L386.78,145.61L386.96,168.41L387.31,172.21L387.48,130.4L387.66,141.81L387.84,179.81L388.54,130.4L388.71,145.61L388.89,141.81L389.07,77.2L389.24,168.41L389.77,138L389.95,138L390.12,157.01L390.3,119L390.47,153.21L390.65,92.4L391.53,183.61L391.71,168.41L391.88,176.01L392.06,138L392.41,122.8L392.59,179.81L392.76,157.01L392.94,126.6L393.11,164.61L393.29,111.4L393.64,160.81L393.82,126.6L393.99,176.01L394.17,107.6L394.52,141.81L394.7,130.4L394.87,126.6L395.05,160.81L395.58,115.2L395.75,153.21L396.11,134.2L396.28,138L396.46,153.21L397.16,126.6L397.34,164.61L397.51,111.4L398.04,172.21L398.22,145.61L398.39,149.41L398.57,130.4L399.1,107.6L399.45,183.61L399.62,153.21L399.8,153.21L399.98,149.41L400.5,134.2L400.68,179.81L400.86,164.61L401.03,138L401.91,176.01L402.09,88.6L403.14,168.41L403.32,149.41L403.85,115.2L404.02,157.01L404.38,164.61L404.55,145.61L404.9,145.61L405.08,153.21L405.43,149.41L405.78,172.21L405.96,157.01L406.14,107.6L406.66,130.4L406.84,130.4L407.37,168.41L407.54,130.4L407.72,115.2L408.25,157.01L408.42,130.4L408.6,141.81L408.78,145.61L408.95,103.8L409.3,191.21L409.83,179.81L410.01,153.21L410.18,153.21L410.36,141.81L410.54,160.81L411.06,138L411.24,157.01L411.41,141.81L411.94,138L412.82,176.01L413,141.81L414.05,172.21L414.23,141.81L414.41,153.21L414.76,134.2L414.93,141.81L415.11,149.41L415.29,145.61L415.46,160.81L415.81,172.21L416.52,122.8L416.69,115.2L416.87,58.2L417.05,134.2L417.22,134.2L417.4,168.41L417.57,122.8L418.28,130.4L418.45,141.81L418.98,134.2L419.33,164.61L419.51,115.2L419.69,119L419.86,164.61L420.21,134.2L420.39,172.21L420.57,119L421.27,122.8L421.45,168.41L422.5,130.4L422.68,145.61L423.03,134.2L423.2,164.61L423.38,141.81L423.56,145.61L423.73,130.4L423.91,157.01L424.26,141.81L424.44,157.01L424.79,107.6L424.96,179.81L425.49,145.61L425.67,172.21L425.84,168.41L426.02,111.4L426.2,172.21L426.55,115.2L426.72,138L427.08,122.8L427.25,157.01L427.43,119L427.96,69.6L428.13,126.6L428.31,130.4L428.48,160.81L428.66,164.61L428.84,122.8L429.36,179.81L429.72,145.61L429.89,149.41L430.42,183.61L430.6,122.8L431.12,149.41L431.48,141.81L431.65,149.41L431.83,126.6L432.18,141.81L432.36,164.61L432.88,92.4L433.06,141.81L433.23,153.21L433.59,119L433.76,172.21L433.94,168.41L434.29,126.6L434.47,160.81L434.64,160.81L435.52,145.61L435.7,141.81L435.87,172.21L436.05,119L436.4,134.2L436.58,100L437.28,176.01L437.46,103.8L438.16,168.41L438.34,141.81L438.51,145.61L438.69,138L438.87,138L439.04,134.2L439.92,157.01L440.1,153.21L440.27,35.4L440.8,138L440.98,172.21L441.15,111.4L441.68,157.01L441.86,145.61L442.03,145.61L442.21,141.81L442.74,160.81L442.91,100L443.09,153.21L443.27,138L443.62,141.81L443.79,176.01L444.5,107.6L444.67,172.21L445.02,126.6L445.38,172.21L445.55,160.81L445.9,145.61L446.08,157.01L446.26,164.61L446.61,168.41L447.14,153.21L447.31,149.41L447.49,111.4L447.84,138L448.02,164.61L448.54,134.2L448.9,149.41L449.07,160.81L449.78,149.41L449.95,157.01L450.13,157.01L450.3,134.2L450.66,160.81L451.01,153.21L451.18,141.81L451.36,138L451.54,149.41L451.71,160.81L451.89,65.8L452.42,168.41L452.59,126.6L452.94,141.81L453.12,130.4L453.3,111.4L453.82,164.61L454,119L454.18,134.2L454.53,122.8L454.7,149.41L454.88,145.61L455.06,130.4L455.41,77.2L455.58,157.01L455.76,145.61L455.93,92.4L456.29,179.81L456.64,103.8L456.81,157.01L457.17,103.8L457.52,138L457.69,172.21L457.87,130.4L458.4,168.41L458.57,179.81L459.45,126.6L459.63,122.8L459.81,126.6L459.98,157.01L460.33,119L460.51,168.41L460.69,130.4L461.39,134.2L461.57,134.2L462.09,122.8L462.45,172.21L462.62,107.6L462.97,179.81L463.5,157.01L463.68,157.01L463.85,122.8L464.21,160.81L464.38,141.81L464.56,172.21L465.09,100L465.26,191.21L465.79,126.6L466.14,157.01L466.32,160.81L466.49,130.4L466.85,179.81L467.02,164.61L467.2,145.61L467.37,145.61L467.55,160.81L467.72,164.61L467.9,160.81L468.08,126.6L468.78,179.81L468.96,103.8L469.66,149.41L469.84,134.2L470.01,138L470.19,157.01L470.54,138L470.72,115.2L471.24,176.01L471.42,149.41L471.6,134.2L471.77,84.8L471.95,157.01L472.12,149.41L472.3,160.81L472.65,84.8L473,134.2L473.18,176.01L473.36,107.6L473.53,179.81L473.88,145.61L474.06,145.61L474.41,157.01L474.76,134.2L474.94,164.61L475.12,168.41L475.29,119L475.47,126.6L475.64,168.41L476,179.81L476.35,103.8L476.52,164.61L477.4,126.6L477.58,138L478.11,134.2L478.28,149.41L478.63,141.81L478.81,153.21L478.99,141.81L479.16,138L479.34,168.41L479.51,168.41L479.69,126.6L479.87,126.6L480.04,149.41L480.22,130.4L480.57,145.61L480.75,164.61L481.1,111.4L481.27,138L481.45,168.41L481.8,183.61L482.15,119L482.33,153.21L482.68,179.81L483.03,88.6L483.21,111.4L483.39,153.21L483.56,153.21L483.74,122.8L484.27,172.21L484.44,141.81L484.62,122.8L484.79,172.21L485.32,141.81L485.5,141.81L486.03,176.01L486.2,145.61L486.38,153.21L486.55,145.61L486.73,176.01L487.43,100L487.61,157.01L487.96,157.01L488.14,153.21L488.49,130.4L488.67,164.61L489.02,168.41L489.19,130.4L489.54,149.41L489.72,160.81L490.07,145.61L490.25,157.01L490.42,164.61L490.6,176.01L490.78,157.01L490.95,119L491.83,160.81L492.01,141.81L492.18,115.2L492.36,157.01L492.54,149.41L492.71,160.81L493.06,164.61L493.59,111.4L493.77,126.6L493.94,157.01L494.47,153.21L494.65,130.4L494.82,168.41L495,149.41" style="vector-effect: none; fill: none; stroke: rgb(239, 85, 59); stroke-opacity: 1; stroke-width: 2px; opacity: 1;"/></g><g class="points"/><g class="text"/></g></g></g></g><path class="xlines-above crisp" d="M0,0" style="fill: none;"/><path class="ylines-above crisp" d="M0,0" style="fill: none;"/><g class="overlines-above"/><g class="xaxislayer-above"><g class="xtick"><text text-anchor="middle" x="0" y="491" transform="translate(124.81,0)" style="font-family: 'Open Sans', verdana, arial, sans-serif; font-size: 12px; fill: rgb(42, 63, 95); fill-opacity: 1; white-space: pre; opacity: 1;">500</text></g><g class="xtick"><text text-anchor="middle" x="0" y="491" style="font-family: 'Open Sans', verdana, arial, sans-serif; font-size: 12px; fill: rgb(42, 63, 95); fill-opacity: 1; white-space: pre; opacity: 1;" transform="translate(212.79,0)">1000</text></g><g class="xtick"><text text-anchor="middle" x="0" y="491" style="font-family: 'Open Sans', verdana, arial, sans-serif; font-size: 12px; fill: rgb(42, 63, 95); fill-opacity: 1; white-space: pre; opacity: 1;" transform="translate(300.78,0)">1500</text></g><g class="xtick"><text text-anchor="middle" x="0" y="491" style="font-family: 'Open Sans', verdana, arial, sans-serif; font-size: 12px; fill: rgb(42, 63, 95); fill-opacity: 1; white-space: pre; opacity: 1;" transform="translate(388.76,0)">2000</text></g><g class="xtick"><text text-anchor="middle" x="0" y="491" style="font-family: 'Open Sans', verdana, arial, sans-serif; font-size: 12px; fill: rgb(42, 63, 95); fill-opacity: 1; white-space: pre; opacity: 1;" transform="translate(476.75,0)">2500</text></g></g><g class="yaxislayer-above"><g class="ytick"><text text-anchor="end" x="36" y="4.199999999999999" transform="translate(0,443.81)" style="font-family: 'Open Sans', verdana, arial, sans-serif; font-size: 12px; fill: rgb(42, 63, 95); fill-opacity: 1; white-space: pre; opacity: 1;">0.002</text></g><g class="ytick"><text text-anchor="end" x="36" y="4.199999999999999" style="font-family: 'Open Sans', verdana, arial, sans-serif; font-size: 12px; fill: rgb(42, 63, 95); fill-opacity: 1; white-space: pre; opacity: 1;" transform="translate(0,405.81)">0.003</text></g><g class="ytick"><text text-anchor="end" x="36" y="4.199999999999999" style="font-family: 'Open Sans', verdana, arial, sans-serif; font-size: 12px; fill: rgb(42, 63, 95); fill-opacity: 1; white-space: pre; opacity: 1;" transform="translate(0,367.81)">0.004</text></g><g class="ytick"><text text-anchor="end" x="36" y="4.199999999999999" style="font-family: 'Open Sans', verdana, arial, sans-serif; font-size: 12px; fill: rgb(42, 63, 95); fill-opacity: 1; white-space: pre; opacity: 1;" transform="translate(0,329.81)">0.005</text></g><g class="ytick"><text text-anchor="end" x="36" y="4.199999999999999" style="font-family: 'Open Sans', verdana, arial, sans-serif; font-size: 12px; fill: rgb(42, 63, 95); fill-opacity: 1; white-space: pre; opacity: 1;" transform="translate(0,291.81)">0.006</text></g><g class="ytick"><text text-anchor="end" x="36" y="4.199999999999999" style="font-family: 'Open Sans', verdana, arial, sans-serif; font-size: 12px; fill: rgb(42, 63, 95); fill-opacity: 1; white-space: pre; opacity: 1;" transform="translate(0,253.8)">0.007</text></g><g class="ytick"><text text-anchor="end" x="36" y="4.199999999999999" style="font-family: 'Open Sans', verdana, arial, sans-serif; font-size: 12px; fill: rgb(42, 63, 95); fill-opacity: 1; white-space: pre; opacity: 1;" transform="translate(0,215.8)">0.008</text></g><g class="ytick"><text text-anchor="end" x="36" y="4.199999999999999" style="font-family: 'Open Sans', verdana, arial, sans-serif; font-size: 12px; fill: rgb(42, 63, 95); fill-opacity: 1; white-space: pre; opacity: 1;" transform="translate(0,177.8)">0.009</text></g></g><g class="overaxes-above"/></g></g><g class="polarlayer"/><g class="smithlayer"/><g class="ternarylayer"/><g class="geolayer"/><g class="funnelarealayer"/><g class="pielayer"/><g class="iciclelayer"/><g class="treemaplayer"/><g class="sunburstlayer"/><g class="glimages"/><defs id="topdefs-edaeff"><g class="clips"/><clipPath id="legendedaeff"><rect width="153" height="48" x="0" y="0"/></clipPath></defs><g class="layer-above"><g class="imagelayer"/><g class="shapelayer"/></g><g class="infolayer"><g class="legend" pointer-events="all" transform="translate(541.9000000000001,150)"><rect class="bg" shape-rendering="crispEdges" width="153" height="48" x="0" y="0" style="stroke: rgb(68, 68, 68); stroke-opacity: 1; fill: rgb(255, 255, 255); fill-opacity: 1; stroke-width: 0px;"/><g class="scrollbox" transform="" clip-path="url(#legendedaeff)"><g class="groups"><g class="traces" transform="translate(0,14.5)" style="opacity: 1;"><text class="legendtext" text-anchor="start" x="40" y="4.680000000000001" style="font-family: 'Open Sans', verdana, arial, sans-serif; font-size: 12px; fill: rgb(42, 63, 95); fill-opacity: 1; white-space: pre;">zigrad ms/sample</text><g class="layers" style="opacity: 1;"><g class="legendfill"/><g class="legendlines"><path class="js-line" d="M5,0h30" style="fill: none; stroke: rgb(99, 110, 250); stroke-opacity: 1; stroke-width: 2px;"/></g><g class="legendsymbols"><g class="legendpoints"/></g></g><rect class="legendtoggle" x="0" y="-9.5" width="147.953125" height="19" style="fill: rgb(0, 0, 0); fill-opacity: 0;"/></g><g class="traces" transform="translate(0,33.5)" style="opacity: 1;"><text class="legendtext" text-anchor="start" x="40" y="4.680000000000001" style="font-family: 'Open Sans', verdana, arial, sans-serif; font-size: 12px; fill: rgb(42, 63, 95); fill-opacity: 1; white-space: pre;">pytorch ms/sample</text><g class="layers" style="opacity: 1;"><g class="legendfill"/><g class="legendlines"><path class="js-line" d="M5,0h30" style="fill: none; stroke: rgb(239, 85, 59); stroke-opacity: 1; stroke-width: 2px;"/></g><g class="legendsymbols"><g class="legendpoints"/></g></g><rect class="legendtoggle" x="0" y="-9.5" width="147.953125" height="19" style="fill: rgb(0, 0, 0); fill-opacity: 0;"/></g></g></g><rect class="scrollbar" rx="20" ry="3" width="0" height="0" x="0" y="0" style="fill: rgb(128, 139, 164); fill-opacity: 1;"/></g><g class="g-gtitle"><text class="gtitle" x="35" y="75" text-anchor="start" dy="0em" style="opacity: 1; font-family: 'Open Sans', verdana, arial, sans-serif; font-size: 17px; fill: rgb(42, 63, 95); fill-opacity: 1; white-space: pre;">Ms/Sample</text></g><g class="g-xtitle"/><g class="g-ytitle"/></g></svg>