<svg class="main-svg" xmlns="http://www.w3.org/2000/svg" xmlns:xlink="http://www.w3.org/1999/xlink" style="" viewBox="0 0 700 500"><rect x="0" y="0" width="700" height="500" style="fill: rgb(17, 17, 17); fill-opacity: 1;"/><defs id="defs-e5fef3"><g class="clips"><clipPath id="clipe5fef3xyplot" class="plotclip"><rect width="548" height="328"/></clipPath><clipPath class="axesclip" id="clipe5fef3x"><rect x="23" y="0" width="548" height="500"/></clipPath><clipPath class="axesclip" id="clipe5fef3y"><rect x="0" y="150" width="700" height="328"/></clipPath><clipPath class="axesclip" id="clipe5fef3xy"><rect x="23" y="150" width="548" height="328"/></clipPath></g><g class="gradients"/><g class="patterns"/></defs><g class="bglayer"/><g class="layer-below"><g class="imagelayer"/><g class="shapelayer"/></g><g class="cartesianlayer"><g class="subplot xy"><g class="layer-subplot"><g class="shapelayer"/><g class="imagelayer"/></g><g class="minor-gridlayer"><g class="x"/><g class="y"/></g><g class="gridlayer"><g class="x"><path class="xgrid crisp" transform="translate(120.37,0)" d="M0,150v328" style="stroke: rgb(40, 52, 66); stroke-opacity: 1; stroke-width: 1px;"/><path class="xgrid crisp" transform="translate(217.74,0)" d="M0,150v328" style="stroke: rgb(40, 52, 66); stroke-opacity: 1; stroke-width: 1px;"/><path class="xgrid crisp" transform="translate(315.11,0)" d="M0,150v328" style="stroke: rgb(40, 52, 66); stroke-opacity: 1; stroke-width: 1px;"/><path class="xgrid crisp" transform="translate(412.48,0)" d="M0,150v328" style="stroke: rgb(40, 52, 66); stroke-opacity: 1; stroke-width: 1px;"/><path class="xgrid crisp" transform="translate(509.85,0)" d="M0,150v328" style="stroke: rgb(40, 52, 66); stroke-opacity: 1; stroke-width: 1px;"/></g><g class="y"><path class="ygrid crisp" transform="translate(0,399.09000000000003)" d="M23,0h548" style="stroke: rgb(40, 52, 66); stroke-opacity: 1; stroke-width: 1px;"/><path class="ygrid crisp" transform="translate(0,336.22)" d="M23,0h548" style="stroke: rgb(40, 52, 66); stroke-opacity: 1; stroke-width: 1px;"/><path class="ygrid crisp" transform="translate(0,273.36)" d="M23,0h548" style="stroke: rgb(40, 52, 66); stroke-opacity: 1; stroke-width: 1px;"/><path class="ygrid crisp" transform="translate(0,210.49)" d="M23,0h548" style="stroke: rgb(40, 52, 66); stroke-opacity: 1; stroke-width: 1px;"/></g></g><g class="zerolinelayer"><path class="xzl zl crisp" transform="translate(23,0)" d="M0,150v328" style="stroke: rgb(40, 52, 66); stroke-opacity: 1; stroke-width: 2px;"/><path class="yzl zl crisp" transform="translate(0,461.96)" d="M23,0h548" style="stroke: rgb(40, 52, 66); stroke-opacity: 1; stroke-width: 2px;"/></g><g class="layer-between"><g class="shapelayer"/><g class="imagelayer"/></g><path class="xlines-below"/><path class="ylines-below"/><g class="overlines-below"/><g class="xaxislayer-below"/><g class="yaxislayer-below"/><g class="overaxes-below"/><g class="overplot"><g class="xy" transform="translate(23,150)" clip-path="url(#clipe5fef3xyplot)"><g class="scatterlayer mlayer"><g class="trace scatter tracec9efba" style="stroke-miterlimit: 2; opacity: 1;"><g class="fills"/><g class="errorbars"/><g class="lines"><path class="js-line" d="M0,16.4L2.92,160.17L3.12,133.61L3.31,124.34L3.51,175.25L3.89,176.02L4.28,157.93L4.48,175.81L5.06,220.02L5.26,202.55L5.45,200.32L6.43,237.36L6.62,227.22L6.82,229.21L7.01,237.07L7.21,208.58L7.4,212.53L7.59,233.17L7.79,235.34L7.98,218.11L8.57,249.73L8.76,239.92L8.96,236.63L9.15,220.62L9.35,248.35L9.54,246.61L9.74,246.07L10.13,248.34L10.32,230.45L10.71,229.02L10.91,259.68L11.1,240.29L11.29,233.13L11.88,261.36L12.07,249.99L12.27,243.37L12.46,242.52L12.66,249.81L13.05,259.86L13.24,253.53L13.83,280.81L14.02,241.75L14.22,241.23L14.41,231.82L15.19,264.43L15.38,255.86L15.58,219.25L15.77,273.04L16.36,268.84L16.55,275.18L16.75,242.28L17.33,259.1L17.53,272.3L17.72,243L18.11,273.58L18.31,275.9L18.89,256.9L19.08,269.29L19.28,268.76L19.47,269.33L19.67,247.22L19.86,279.34L20.45,275.35L20.64,242.74L20.84,241.11L21.03,227.8L21.23,206.74L21.42,269.02L22.01,229.74L22.2,248.87L22.4,268.42L22.78,265.27L22.98,276.11L23.17,251.94L23.56,269.01L23.76,240.14L24.73,287.93L24.93,231.58L25.32,276.05L25.51,248.75L25.71,230.48L25.9,280.35L26.29,217.33L26.48,206.39L27.46,284.22L27.65,249.5L27.85,270.75L28.04,249.09L28.24,256.27L28.43,248.66L28.63,251.49L28.82,270.52L29.02,262.96L29.21,279.27L29.41,288.15L29.6,243.86L30.18,267.04L30.38,250.89L31.35,286.4L31.55,283.52L31.94,296.55L32.52,260.79L32.72,267.3L33.11,285.05L33.5,280.53L33.69,276.82L33.88,287.29L34.08,265.3L34.27,286.62L34.47,277.62L34.66,276.87L34.86,280.23L35.05,229.43L35.64,264.32L35.83,276.16L36.03,262.99L36.42,278.16L36.61,272.24L36.81,288.42L37,258.47L37.58,263.94L37.78,266.6L37.97,261.69L38.17,236.29L38.36,199.78L38.75,253.16L38.95,277.73L39.14,279.16L39.34,248.4L39.73,238.67L39.92,256.31L40.12,271.35L40.51,268.21L40.9,285.17L41.09,266.49L41.29,290.81L41.67,246.14L41.87,277.02L42.06,264.58L42.45,235.4L42.65,253.57L42.84,272.15L43.62,230.89L43.82,267.46L44.01,267.21L44.21,263.86L44.99,232.81L45.18,275.88L45.37,284.94L45.76,281.06L45.96,247.04L46.54,283.09L46.93,280.39L47.13,274.88L47.32,272.69L47.52,282.82L48.69,232.1L48.88,274.2L49.07,292.58L49.66,287.43L49.85,284.86L50.63,262.76L50.83,269.42L51.02,263.14L51.22,277.2L51.61,264.72L51.8,270.87L52,271.17L52.19,266.19L52.39,267.26L52.58,285.67L52.97,289.22L53.36,236.28L53.55,280.32L54.14,250.56L54.33,270.61L54.53,278.06L54.92,279.61L55.11,292.54L56.09,272.51L56.28,280.43L56.86,261.08L57.06,291.45L57.84,269.72L58.03,277.2L58.23,280.7L58.42,270.7L58.81,279.36L59.01,275.1L59.2,270.99L59.4,266.22L59.59,286.64L59.79,298.81L59.98,298.79L60.17,261.52L60.37,284.03L60.76,247.53L60.95,259.33L61.34,238.56L61.93,290.81L62.12,287.96L62.32,290.99L62.51,261.62L62.71,284.1L63.29,267.29L63.49,255.28L63.68,239.36L63.87,265.75L64.07,271.54L64.26,270.77L64.46,283.72L64.65,290.78L64.85,279.35L65.04,273.6L65.24,297.86L65.63,256.72L65.82,281.6L66.02,283.58L66.21,303.41L66.6,281.31L66.8,279.06L66.99,293.94L67.19,262.16L67.38,254.08L67.96,299.48L68.16,284.48L68.35,247.93L68.55,214.99L68.74,248.98L68.94,280.8L69.13,282.91L69.33,271.66L69.72,295.83L69.91,283.9L70.11,268.41L70.69,300.96L71.08,285.44L71.28,281.67L71.47,288.04L71.66,287.93L71.86,270.83L72.05,258.14L72.25,284.76L72.44,273.19L72.64,275.35L72.83,259.02L73.22,284.92L73.42,286.62L73.81,261.57L74,287.34L74.2,282.59L74.59,262.64L74.98,276.77L75.17,272.01L75.36,258.65L75.56,284.91L75.75,269.79L75.95,282.11L76.14,295.88L76.53,276.21L76.73,290.36L76.92,265.47L77.31,300.74L77.51,280.86L77.7,269.67L77.9,289.68L78.29,276.11L78.48,267.66L78.68,290.17L79.26,288.66L79.45,290.4L79.65,292.9L79.84,276.77L80.04,283.41L80.23,250.81L80.43,273.58L80.82,264.43L81.01,249.48L81.21,243.49L81.4,273.85L81.6,273.52L81.79,265.23L82.18,297.72L82.38,289.37L82.57,233.58L83.15,289.99L83.35,278.85L83.54,272.5L83.74,289.12L84.32,284.8L84.52,274.19L85.3,294.7L85.49,276.53L86.08,297.97L86.27,233.56L86.46,290.38L86.85,277.35L87.05,239.75L87.83,300.41L88.02,280.54L88.22,289.58L88.41,272.13L88.61,264.83L88.8,264L89,277.33L89.19,276.86L89.39,274.07L89.78,291.86L90.16,281.79L90.36,265.41L90.55,290.89L90.94,251.83L91.14,264.97L92.31,297.2L92.5,280.45L93.09,266.7L93.28,279.69L93.48,280.17L93.67,286.91L94.64,263.17L94.84,260.07L95.23,239.61L95.81,296.47L96.01,275.2L96.4,248.24L96.59,271.66L96.79,282.67L96.98,285.83L97.18,275.32L97.37,275.62L97.57,280.45L98.54,270.2L98.73,270.42L99.12,301.68L99.32,266.9L99.51,287.47L99.71,259.21L100.29,296.32L100.68,293.64L100.88,298.22L101.46,273.89L101.65,282.9L101.85,281.64L102.43,295.32L102.63,270.29L103.02,301.74L103.41,289.04L103.6,282.01L104.19,296.27L104.38,294.4L104.58,273.43L104.77,275.63L104.97,267.93L105.16,281.12L105.74,275.96L105.94,261.37L106.72,297.69L106.91,280.1L107.11,276.47L107.3,291.35L107.5,295.79L107.69,288.03L107.89,262.47L108.08,300.68L108.67,294.28L108.86,292.56L109.83,271.69L110.03,284.48L110.42,304.46L110.61,286.5L110.81,273.08L111,297.05L111.2,290.81L111.39,299.78L112.17,280.79L112.37,293.77L112.75,269.73L112.95,277.43L113.14,295.76L113.53,248.04L113.92,270.66L114.12,264.21L114.31,294.49L114.9,282.68L115.09,277.69L115.87,296.01L116.07,295.38L116.26,282.77L116.65,270.98L116.84,291.23L117.04,275.92L117.23,286.25L117.43,272.83L117.62,287.5L117.82,285.88L118.01,297.9L118.21,303.45L118.4,286.95L118.6,285.86L118.79,304.36L119.57,240.59L119.77,270.87L119.96,271.1L120.15,289.94L120.74,286.3L120.93,276.29L121.13,294.04L121.52,264.98L121.71,290.35L121.91,281.21L122.1,292.63L122.69,284.51L122.88,283.2L123.08,280.19L123.27,282.03L123.47,287.89L123.86,276.04L124.05,293.81L124.24,292.62L124.44,298.73L124.63,269.7L125.22,290.46L125.41,283.95L126,255.92L126.19,276.76L126.39,270.22L126.78,297.94L127.36,292.2L127.56,286.32L127.75,263.95L128.14,288.76L128.33,286.49L128.53,300.27L128.72,257.62L129.11,249.71L129.5,298.25L129.7,286.86L129.89,287.46L130.09,277.65L130.48,260.5L130.67,269.09L130.87,284.83L131.06,284.84L131.26,291.43L131.45,274.14L131.64,301.61L131.84,294.15L132.03,294.98L132.23,301.68L132.42,280.14L132.81,276.87L133.01,304.7L133.2,283.38L133.4,280.06L133.59,272.41L133.79,289.07L133.98,290.22L134.18,272.83L134.37,295.51L134.76,273.86L134.96,289.73L135.15,262.68L135.54,298.63L135.73,294.08L135.93,297.79L136.12,291.42L136.32,278.11L136.51,276.39L136.71,282.82L137.1,277.47L137.29,283.2L137.49,289.08L137.68,287.11L137.88,303.84L138.27,261.21L138.66,270.54L138.85,287.79L139.04,295.74L139.24,262.03L139.82,279.62L140.02,278.33L140.21,273.63L140.41,288.88L140.6,264.97L140.8,249.54L141.58,298.91L141.77,288.89L141.97,297.84L142.16,277.1L142.36,300.59L142.74,292.9L142.94,283.81L143.13,303.32L143.52,281.43L143.72,264.1L144.5,301.79L144.69,259.56L145.47,300.29L145.67,270.29L146.64,303L146.83,288.17L147.03,266.73L147.42,296.02L147.61,289.8L148,285.71L148.39,299.29L148.59,298.33L148.78,247.22L148.98,247.32L149.17,275.28L149.56,274.69L150.14,305.37L150.34,285.32L150.53,241.69L150.92,269.07L151.12,288.91L151.31,296.82L151.51,285.67L151.7,258.13L152.09,296.69L152.48,294.54L152.68,254.21L152.87,288.94L153.07,271.63L153.26,220.06L153.46,295.61L154.04,285.12L154.23,276.98L155.01,304.01L155.21,295.62L155.4,302.69L155.6,289.41L155.79,288.04L155.99,278.52L156.18,296.21L156.38,291.53L156.57,298.53L157.35,282.64L157.55,305.94L158.52,267.03L158.71,281.45L158.91,284.68L159.49,291.59L159.69,305.15L160.27,269.54L160.86,269.68L161.05,218.67L161.44,298.73L162.02,294.24L162.22,306.55L163,276.08L163.19,285.07L163.39,297.32L163.58,295.4L163.78,276.03L164.17,256.92L164.36,294.2L164.56,293.36L164.75,284.08L165.14,295.31L165.53,291.48L165.72,288.96L165.92,276.61L166.11,298.82L166.31,301.54L166.89,264.99L167.09,276.55L167.28,286.83L167.67,298.78L167.87,273.24L168.45,304.38L168.65,292.54L168.84,278.5L169.23,304.06L169.42,272.29L170.2,304.39L170.4,290.92L170.79,300.21L170.98,283.2L171.18,284.79L171.37,294.55L171.57,289.33L171.76,261.87L171.96,301.89L172.54,299.62L172.73,299.96L172.93,278.99L173.51,282.77L173.71,307.32L174.29,286.09L174.49,295.07L174.68,302.52L175.46,276.06L175.66,281.7L175.85,297.18L176.43,302.89L176.63,283.47L177.02,307.42L177.41,300.31L177.6,300.08L177.99,303.58L178.19,302.6L178.38,295.49L178.58,305.75L178.77,289.66L178.97,281.01L179.75,309.6L179.94,308.31L180.14,304.68L180.33,267.64L180.52,262.9L180.72,293.03L180.91,309.53L181.3,306.61L181.5,279.34L181.69,217.69L182.08,311.02L182.28,260.35L182.47,304.02L182.86,272.85L183.06,286.76L183.25,293.36L183.45,303.9L183.64,290.05L183.84,269.87L184.03,300.43L184.61,283.27L184.81,286.44L185.2,286.82L185.78,264.19L185.98,302.76L186.56,260.49L186.76,299.87L187.15,284.57L187.34,294.95L187.54,298.61L188.12,302.47L188.31,290.22L188.51,297.12L188.7,286.17L188.9,304.92L189.09,295.58L189.29,300.91L189.48,303.12L189.68,284.63L190.07,306.76L190.26,299.61L190.46,274.99L191.24,298.07L191.43,293.47L191.62,279.71L192.01,307.02L192.6,299.41L192.79,298.35L192.99,298.09L193.18,289.53L193.38,302.26L193.57,273.51L193.77,288.38L193.96,289.04L194.35,304.49L194.55,297.75L194.74,287.54L194.94,282.42L195.13,295.86L195.32,293.71L195.52,294.61L195.91,292.99L196.1,289.3L196.3,305.14L196.49,287.05L196.69,303.57L196.88,290.42L197.27,300.98L197.47,276.16L197.86,299.34L198.25,296.06L198.44,290.64L198.64,290.61L198.83,294.63L199.02,301.39L199.22,293.27L199.41,300.05L199.61,292.27L200,297.74L200.19,281.66L200.39,286.1L200.58,302.22L200.78,302.56L200.97,282.13L201.17,304.75L201.75,301.48L201.95,290.41L202.14,286.57L202.34,302.44L203.11,285.21L203.31,258.82L204.09,292.49L204.28,280.68L204.48,272.67L204.67,285.79L204.87,297.99L205.06,298.78L205.26,291.46L205.45,289.05L205.65,297.92L206.04,293.48L206.23,266.14L207.2,302.3L207.4,263.57L208.37,301.68L208.57,291.69L208.96,256.38L209.35,260.31L209.54,279.12L209.93,296.42L210.13,277.73L210.32,288.61L210.51,288.37L210.9,289.73L211.1,297.18L211.49,290.86L211.68,301.4L211.88,306.92L212.07,284.82L212.27,306.52L212.66,293.54L212.85,280.3L213.24,300.64L213.44,261.4L214.41,308.54L214.6,304.76L214.99,277.4L215.38,295.32L215.58,302.82L215.77,289.21L216.16,300.12L216.36,304.13L216.55,291.79L217.14,296.06L217.33,295.83L217.53,264.35L217.91,270.9L218.11,292.22L218.3,301.44L218.69,290.64L218.89,297.77L219.08,291.48L219.28,303.58L219.47,290.23L219.86,297.17L220.06,287.66L220.25,296.98L220.45,284.41L220.64,258.19L220.84,227.01L221.03,262.63L221.23,287.68L221.42,298.1L221.81,290.19L222,281.05L222.2,273.58L222.39,286.44L222.59,296.54L222.98,299.01L223.17,289.1L223.37,300.62L223.76,306.66L224.15,274.03L224.34,300L224.93,269.04L225.12,284.83L225.31,295.37L225.51,295.23L225.7,283.52L225.9,284.63L226.09,269.91L226.48,298.3L226.87,287.46L227.07,286.52L227.26,275.88L227.46,279L227.65,298.33L227.85,299.05L228.04,297.56L228.24,297.93L228.43,273L229.4,299.32L229.6,290.87L229.99,303.77L230.18,287.43L230.38,287L230.57,284.16L230.77,297.93L230.96,270.52L231.16,267.54L232.13,304.22L232.33,298.03L232.71,282.12L233.1,289.38L233.3,291.44L233.49,287.39L233.69,296.42L234.08,290.74L234.27,287.27L235.05,301.79L235.25,292.98L235.44,299.4L235.64,287.05L235.83,274.91L236.03,302.16L236.61,288.07L236.8,291.16L237.19,289.89L237.58,298.28L237.78,306.42L238.56,287.18L238.75,298.92L239.14,299.48L239.34,282L239.53,303.73L240.5,285.77L240.7,296.82L240.89,279.79L241.09,300.04L241.28,286.47L241.48,299.31L241.87,288.87L242.06,297.56L242.26,304.77L242.45,307.08L242.65,275.48L243.62,303.98L243.82,265.25L244.59,304.82L244.79,300.95L244.98,291.54L245.18,297.53L245.37,268.41L245.76,293.52L245.96,276.98L247.13,303.78L247.32,291.23L247.71,302.97L247.9,297.29L248.1,267.79L248.68,308.86L248.88,307.38L249.07,294.78L249.46,303.26L249.85,279.91L250.05,286.99L250.24,285.57L250.44,307.62L250.83,270.67L251.02,258.24L251.6,297.41L251.99,296.72L252.19,308.63L252.58,284.15L252.97,288.15L253.16,306.48L253.55,292.64L253.75,295.05L253.94,302.21L254.14,299.64L254.33,278.85L254.53,276.41L254.72,299.83L255.3,278.95L255.5,297.57L255.69,297.4L255.89,301.38L256.08,295.84L256.28,280.89L256.47,306.52L257.06,285.43L257.25,287.83L257.64,299.35L257.84,277.89L258.62,307.72L258.81,296.67L259,288.55L259.2,301.05L259.39,297.76L259.59,306.59L259.78,307.44L259.98,290.15L260.17,280.2L260.37,303.04L260.56,295.2L260.76,291.31L260.95,274.05L261.15,301.38L261.34,300.45L261.54,298.52L261.73,294.6L261.93,301.72L262.12,304.6L262.51,295.33L262.71,270.9L262.9,292.55L263.29,283.17L263.48,269.52L263.68,262.21L263.87,294.74L264.26,278.82L264.46,307.08L264.85,299.03L265.04,259.95L265.43,301.89L265.82,296.56L266.02,281.98L266.79,299.81L266.99,290.96L267.77,303.8L267.96,286.64L268.55,304.01L268.74,255.08L268.94,297.06L269.52,278.05L269.72,289.77L270.3,307.84L270.49,293.8L270.69,299.62L271.27,283.82L271.47,292.41L271.66,290.65L272.25,300.94L272.64,298.8L272.83,290.74L273.03,303.17L273.42,281.39L273.61,291.91L273.81,286.97L274,293.29L274.19,288.92L274.39,295.02L274.78,306.88L274.97,296.98L275.17,295.15L275.36,298.48L275.56,289.51L275.75,292.96L275.95,293.7L276.14,300.89L276.34,287.05L276.73,295.53L276.92,295.3L277.7,264.02L277.89,290.54L278.09,290.77L278.28,304.52L278.87,262.27L279.06,293.66L279.26,293.75L279.45,301.88L279.84,288.76L280.04,295.97L280.23,286.48L280.62,295.54L280.82,292.13L281.01,285.56L281.59,307.3L281.79,277.62L282.76,305.53L282.96,298.14L283.35,307.88L283.54,297.01L283.74,285.75L284.52,304.5L284.71,302.43L284.91,300.9L285.1,273.41L285.49,306.88L285.68,304.28L286.07,291.04L286.27,306.84L287.05,274.76L287.24,297.44L287.83,284.58L288.02,288.33L288.22,290.47L288.41,276.13L288.61,286.63L288.8,303.66L289,284.32L289.58,288.69L289.77,303.35L290.16,298.07L290.36,272.04L290.55,308.15L291.14,302.04L291.33,302.45L291.92,297.47L292.11,281.19L292.31,280.87L292.5,292.36L292.89,308.69L293.08,297.24L293.28,283.13L293.47,302.91L294.06,300.59L294.25,293.37L294.45,290.39L294.64,294.39L294.84,299.27L295.23,280.22L295.42,290.62L295.62,306.36L296.01,262.5L296.4,276.57L296.59,280.97L296.78,305.29L297.37,290.84L297.56,286.72L298.34,306.87L298.54,304.19L298.73,296.52L299.12,287.1L299.32,300.99L299.51,289.46L299.71,296.55L299.9,290.95L300.29,297.17L300.48,306.21L300.68,308.84L300.87,293.72L301.07,292.78L301.26,309.3L302.04,268.89L302.24,278.95L302.43,290.52L302.82,301.13L303.02,287.4L303.21,297.95L303.41,290.24L303.8,300.42L303.99,277.36L304.57,303.76L304.77,303.75L304.96,294.01L305.35,293.96L305.55,300.6L305.74,292.43L305.94,300.64L306.13,297.55L306.33,281.99L306.91,306.02L307.11,285.41L307.3,296.84L307.5,297.58L307.69,296.35L307.88,289.36L308.47,271.51L308.66,293.75L308.86,286.16L309.05,298.19L309.25,303.62L310.22,277.76L310.42,298.95L310.61,300.39L310.81,295.18L311,305.85L311.2,281.85L311.39,295.03L311.58,267.82L311.97,301.29L312.56,292.26L312.75,281.55L313.14,287.84L313.34,292.59L313.73,300.06L313.92,289.51L314.12,307.74L314.7,307.39L314.9,291.22L315.29,286.37L315.48,309.54L315.67,301.95L315.87,289.84L316.06,289.2L316.26,295.36L316.45,295.6L316.65,291.26L316.84,302.39L317.23,287.02L317.43,296.59L317.62,274.89L318.01,304.67L318.6,301.81L318.79,286.95L319.37,298.44L319.57,296.33L319.76,291.04L320.35,307.55L320.54,297.17L320.74,281.11L321.13,280.39L321.52,304.83L321.71,276.26L322.3,295.08L322.49,291.51L322.69,284.4L322.88,301.72L323.07,274.26L323.27,268L324.05,304.77L324.24,301.96L324.44,302.99L324.63,280.82L324.83,304.18L325.22,299.28L325.41,292.75L325.61,305.04L326,291.33L326.19,276.31L326.97,304.16L327.16,273.37L327.94,303.57L328.14,278.35L329.11,308.26L329.31,292.62L329.5,282.65L329.7,299.61L329.89,301.83L330.28,302.55L330.47,289L330.67,305.7L331.06,305.77L331.25,265.64L331.45,262.4L331.64,281.98L332.62,308.93L332.81,296.72L333.01,266.21L333.4,288.94L333.59,296.75L333.79,300.54L333.98,298.03L334.17,261.19L334.56,305.11L334.95,301.9L335.15,274.16L335.34,299.06L335.73,255.8L335.93,296.4L336.12,285.85L336.51,295.4L336.71,293.61L336.9,305.86L337.29,297.08L337.49,303.73L337.68,304.8L337.87,305.72L338.07,300.6L338.46,286.22L338.65,302.53L338.85,303.28L339.04,299.78L339.82,289.46L340.02,307.04L340.6,286.99L340.99,287.55L341.19,288.94L342.16,308.38L342.35,305.44L342.55,299.37L343.52,235.13L343.72,292.86L344.11,287.5L344.5,307.35L344.69,308.36L345.47,285.68L345.66,290.06L345.86,304.4L346.64,281.2L346.83,299.69L347.22,296.17L347.42,305.38L347.61,300.53L347.81,300.53L348,302.5L348.2,295.78L348.39,288.83L348.59,307.37L348.78,305.97L348.98,301.94L349.17,303.82L349.36,280.3L350.14,304.24L350.34,281.69L350.92,307.44L351.12,297.15L351.31,290.44L351.7,306.43L351.9,286.51L352.09,303.46L352.29,299.15L352.48,291.55L352.68,306.42L352.87,298.5L353.06,300.84L353.26,304.14L353.45,288.08L353.84,298.62L354.04,297.64L354.23,284.2L354.43,307.35L355.01,299.46L355.21,303.07L355.4,282.49L355.6,304.37L355.99,292.74L356.18,310.12L356.76,292.38L356.96,300.72L357.15,304.79L357.54,307.59L357.74,287.38L358.13,287.72L358.32,303.43L358.52,301.97L358.71,306.89L358.91,306.14L359.1,292.58L359.49,309.1L359.88,305.8L360.08,305.48L360.46,308.3L360.66,307.6L360.85,302.86L361.05,310.05L361.24,296.27L361.44,291.6L362.22,310.89L362.41,310.72L362.61,308.34L362.8,286.15L363,280.71L363.19,304.6L363.39,310.45L363.78,309.28L363.97,290.57L364.16,236.75L364.55,311.5L364.75,266.2L364.94,309.06L365.33,283.34L365.53,295.04L365.72,303.32L365.92,308.47L366.11,295.56L366.31,279.93L366.5,305.11L367.09,288.87L367.28,293.86L367.67,295.71L368.06,277.82L368.25,280.17L368.45,307.3L368.64,273.91L369.03,275.92L369.23,305.76L369.62,297.1L370.2,298.63L370.4,302.98L370.59,305.09L370.79,293.52L371.37,308.8L371.76,305.92L371.95,307.12L372.54,309.13L372.93,285.82L373.12,295.39L373.51,305.13L373.9,302.15L374.1,289.42L374.49,309.74L374.88,300.69L375.07,305.79L375.65,300.49L375.85,303.53L376.04,282.95L376.82,307.9L377.02,303.63L377.21,299.95L377.41,291.99L377.6,305.06L377.8,299.72L377.99,298.95L378.38,294.78L378.77,307.18L378.97,294.88L379.16,307.71L379.74,305.21L379.94,285.73L380.72,302.65L380.91,298.04L381.11,294.52L381.3,301.59L381.5,306.52L382.28,291.9L382.47,297.64L382.67,293.93L382.86,289.62L383.05,307.53L383.44,290.63L383.64,305.6L384.22,307.03L384.61,295.9L384.81,307L385.2,297.56L385.39,307.42L385.78,263.32L386.17,285.22L386.37,296.8L386.56,297.26L386.75,295.51L386.95,283.63L387.14,292.15L387.34,305.25L387.53,304.44L387.73,296L387.92,295.72L388.12,302.38L388.31,299.31L388.51,300.64L388.7,278.33L389.68,306.15L389.87,270.84L390.84,307.93L391.04,301.58L391.82,267.59L392.01,293.11L392.4,299.95L392.6,289.92L392.79,291.73L393.77,302.73L393.96,302.87L394.15,303.83L394.35,310.22L395.32,287.09L395.52,298.82L395.71,304.22L395.91,266.72L396.88,310.22L397.08,308.35L397.47,289.97L397.66,297.75L397.86,302.58L398.05,307.21L398.24,293.51L398.44,294.99L398.63,305.5L398.83,305.51L399.02,297.48L399.41,306.98L399.61,302.88L399.8,297.78L400,283.68L400.39,284.93L400.58,298.37L400.78,306.33L401.17,294.93L401.36,300.99L401.56,298.73L401.75,306.15L402.33,302.6L402.53,296.88L402.72,302.89L402.92,298.18L403.11,274.84L403.31,247.03L403.5,273.95L403.7,297.6L403.89,302.94L404.28,300.28L404.48,294.89L404.67,291.06L404.87,293.64L405.06,305.52L405.45,306.7L405.64,294.89L405.84,304.65L406.23,308.96L406.62,280.62L406.81,304.68L407.4,277.38L407.59,296.77L407.79,301.29L407.98,304.5L408.18,292.9L408.57,286.13L408.96,305.05L409.15,295.08L409.34,299.18L409.54,297.89L409.73,290.32L409.93,290.31L410.12,304L410.71,301.37L410.9,285.07L411.88,303.4L412.07,295.76L412.46,307.61L412.66,293.16L413.24,303.27L413.43,278.24L414.02,305.9L414.21,302.76L414.41,299.76L414.6,306.41L414.99,297.4L415.19,288.04L415.38,304.92L415.97,297.43L416.16,301.61L416.74,290.41L416.94,292.98L417.13,301.79L417.52,305.58L418.3,283.32L418.5,306.05L418.69,287.65L419.28,297.95L419.47,299.67L419.67,296.23L419.86,304.99L420.06,300.04L420.25,309.05L420.83,291.45L421.03,294.92L421.22,303.46L421.42,295.66L421.61,306.01L421.81,296.22L422,307.26L422.39,307.95L422.59,301.2L422.78,304.49L422.98,285.44L423.56,302.79L423.76,289.59L423.95,303.18L424.14,294.21L424.53,300.22L424.73,307L424.92,309.52L425.12,290.13L426.09,307.2L426.29,275.53L427.07,307.56L427.26,303.85L427.46,299.03L427.65,304.02L427.85,280.88L428.04,277.65L428.23,301.39L428.43,285.89L429.01,294.73L429.21,297.91L429.6,307.3L429.99,300.17L430.18,300.7L430.38,302L430.57,272.64L431.16,310.41L431.35,309.49L431.55,296.78L431.74,294.15L431.93,304.12L432.32,286.81L432.71,289.31L432.91,309.26L433.49,275.24L433.69,290.36L433.88,302.8L434.08,302.98L434.27,301.5L434.47,298.89L434.66,310.52L435.05,289.39L435.44,295.18L435.63,308.44L436.02,299.09L436.22,303.12L436.41,306.58L436.8,288.65L437,289.72L437.19,305.74L437.78,286.77L437.97,302.83L438.17,302.74L438.36,305.46L438.56,298.6L438.75,288.98L438.95,310.03L439.53,295.28L439.72,297.89L440.11,305.08L440.31,288.45L441.09,309.33L441.28,302.03L441.48,294.12L441.67,305.55L441.87,302.68L442.06,307.62L442.26,309.46L442.45,295.41L442.65,281.69L442.84,306.65L443.03,298.44L443.23,296.87L443.42,284.04L443.62,305.16L443.81,303.71L444.01,303.12L444.2,299.02L444.4,305.87L444.59,308.47L444.79,307.1L444.98,298.25L445.57,276.86L445.76,288.28L445.96,282.97L446.15,276.4L446.35,303.62L446.73,283.02L446.93,308.92L447.12,308.33L447.32,302.16L447.51,272.07L447.9,308.68L448.1,303.77L448.29,304.16L448.49,286.17L449.27,305.22L449.46,297.88L449.66,294.9L449.85,305.48L450.24,305.86L450.43,295.47L450.82,307.49L451.02,305.81L451.21,265.63L451.41,303.37L451.99,287.64L452.19,296.38L452.77,309.65L452.97,296.91L453.16,303.48L453.55,297.94L453.75,291.25L454.72,305.75L454.91,302.31L455.11,301.78L455.3,297.87L455.5,307.14L456.08,299.55L456.28,293.68L457.25,308.69L457.45,302.5L457.84,305.6L458.22,296.93L458.42,300.4L458.81,293.63L459.2,307.46L459.39,301.27L460.17,278.68L460.37,295.25L460.76,306.44L460.95,288.53L461.15,287.34L461.34,275.84L461.92,306.35L462.12,299.64L462.31,294.56L462.51,302.76L463.09,301.08L463.29,298.53L463.48,292.95L463.68,300.6L463.87,299.8L464.07,309.57L464.26,288.25L464.85,293.82L465.04,302.27L465.82,308.8L466.01,302.37L466.21,291.7L466.79,296.02L466.99,308.36L467.38,302L467.57,280.77L467.96,309.66L468.35,304.82L468.55,293.95L469.32,308.49L469.52,277.36L469.71,304.28L470.3,287.67L470.49,290L470.88,284.43L471.27,306.37L471.47,290.62L471.66,307.63L472.25,306.52L472.44,303.14L472.64,301.61L472.83,275.72L473.02,309.48L473.61,305.29L473.8,306.69L474.78,286.65L474.97,294.12L475.36,309.21L475.56,302.44L475.75,290.95L476.14,305.28L476.53,303.13L476.72,299.84L477.31,301.54L477.7,286.31L477.89,296.64L478.09,310.06L478.28,293.03L478.48,275.32L479.26,307.45L479.45,298.43L479.65,291.12L480.04,289.45L480.81,308.83L481.01,307.41L481.2,300.59L481.79,302.37L481.98,294.9L482.18,300.61L482.37,298.99L482.76,299.83L482.96,309.68L483.15,309.76L483.35,299.87L483.54,295.77L483.74,310.13L484.51,281.24L484.71,286.25L484.9,302.28L485.29,304.86L485.49,291.67L486.27,303.41L486.46,287.71L487.24,307.74L487.44,298.48L487.83,296.2L488.02,306.05L488.21,295.91L488.41,304.25L488.6,303.22L488.8,285.24L489.38,307.63L489.58,293.66L489.77,301.88L489.97,302.12L490.16,299.46L490.55,280.21L490.94,283.77L491.14,299.99L491.33,290.21L491.72,305.05L491.91,300.76L492.11,305.39L492.3,294.9L492.5,301.79L492.69,285.65L493.47,307.17L493.67,289.42L494.06,283.48L494.45,300.68L494.64,300.43L494.84,303.31L495.03,298.89L495.23,287.77L496.59,309.79L496.78,308.51L496.98,297.84L497.17,309.01L497.37,296.58L497.56,304.09L497.76,290.98L497.95,310.18L498.54,294.98L498.73,299.14L498.93,297.72L499.12,301.1L499.31,305.7L500.09,279.83L500.29,298.18L500.48,307.18L501.07,307.03L501.26,293.17L502.04,304.85L502.24,293.07L502.82,307.83L503.01,299.43L503.21,290.65L503.4,292.44L503.6,286.27L503.99,307.86L504.18,284.44L504.38,292.82L504.57,302.36L505.16,289.37L505.35,306.43L505.55,274.34L506.13,295.49L506.33,306.74L506.91,306.61L507.1,289.09L507.49,306.52L507.88,295.77L508.08,305.76L508.66,281.18L508.86,296.74L509.05,294.98L509.25,290.12L509.44,303.81L509.64,282.39L510.22,287.38L510.42,305.78L510.61,282.64L511.19,299.15L511.39,309.65L511.58,309.03L511.78,297.1L511.97,291.28L512.17,304.26L512.36,305.56L512.75,306.15L512.95,294.37L513.14,308.11L513.34,307.58L513.53,308.79L513.73,278.5L513.92,274.22L514.12,287.09L515.09,310.13L515.28,302.17L515.48,278.18L515.87,294.45L516.06,301.34L516.45,303.54L516.65,261.57L517.04,307.36L517.43,304.07L517.62,284.66L517.82,304.07L518.2,282.8L518.4,300.78L518.59,289.71L519.37,306.9L519.57,306.2L519.76,299.74L520.15,308.38L520.54,305.2L520.74,298.22L520.93,289.46L521.32,305.61L521.52,299.55L521.9,301.05L522.29,294.16L522.49,309.51L523.66,291.71L523.85,298.19L524.05,298.5L524.24,304.33L524.44,300.73L524.63,309.41L524.83,306.64L525.02,303.96L525.99,253.5L526.19,303.83L526.38,306.47L526.58,294.05L526.97,309.55L527.36,306.46L527.55,294.85L527.94,292.4L528.33,306.64L528.53,302.61L528.72,297.65L528.92,299.53L529.11,291.28L529.89,307.61L530.08,302.35L530.28,305.59L530.47,305.54L530.67,297.35L530.86,294.71L531.06,308.59L531.45,306.36L531.64,307.03L531.84,285.87L532.62,306.6L532.81,287.41L533.39,309.08L533.59,300.93L533.78,293.15L534.17,308.16L534.56,306.41L534.76,303.25L534.95,295.3L535.15,308.64L535.34,305.23L535.54,303.83L535.73,305.76L535.93,293.61L536.51,302.33L536.71,293.29L536.9,309.17L537.48,301.77L537.68,305.63L537.87,293.18L538.07,306.22L538.46,296.18L538.65,310.79L539.24,293.58L539.43,304.98L539.63,305.66L540.02,309.04L540.6,292.21L540.79,306.96L540.99,304.4L541.18,308.66L541.38,308.26L541.57,295.24L541.77,309.85L542.35,307.18L542.55,307.27L542.94,309.76L543.13,309.42L543.33,305.88L543.52,311.04L543.72,300.2L543.91,297.35L544.69,310.99L544.88,311.33L545.08,310.35L545.27,293.07L545.47,294.89L545.66,307.93L546.05,311.28L546.25,309.66L546.44,296.03L546.64,247.23L547.03,311.6L547.22,268.02L547.42,310.14" style="vector-effect: none; fill: none; stroke: rgb(99, 110, 250); stroke-opacity: 1; stroke-width: 2px; opacity: 1;"/></g><g class="points"/><g class="text"/></g><g class="trace scatter trace3d9348" style="stroke-miterlimit: 2; opacity: 1;"><g class="fills"/><g class="errorbars"/><g class="lines"><path class="js-line" d="M0.39,31.14L0.58,30.51L0.78,44.89L1.75,75.53L1.95,81.56L3.12,128.99L3.31,111.67L4.28,172.58L4.48,167.75L4.67,170.94L5.65,209.69L5.84,198.3L6.62,223.37L6.82,221.87L7.01,195.82L7.98,247.17L8.18,228.95L8.37,206.51L8.57,232.11L8.76,226.19L8.96,226.43L9.15,216.81L9.35,239.48L9.54,237.16L10.13,199.11L10.32,240.49L10.52,224.3L10.91,224.52L11.1,245.51L11.88,203.31L12.07,229.02L12.46,253.91L12.85,249.22L13.05,241.14L13.44,248.72L13.63,226.97L13.83,258.12L14.61,228L14.8,232.67L15,270.79L15.38,218.09L15.58,248.87L15.77,264.06L16.36,231.39L16.55,269.12L16.94,261.74L17.14,269.43L17.33,244.89L17.92,254.6L18.11,251.14L18.31,223.33L18.5,271.77L18.7,244.91L18.89,253.47L19.28,245.31L19.47,281.73L19.86,273.94L20.06,273.71L20.25,270.17L20.45,277.22L20.64,251.15L21.03,245.72L21.42,250.23L21.62,225.95L22.01,275.52L22.4,257.27L22.59,266.55L23.17,289.85L23.37,273L23.56,253.18L23.95,242.35L24.34,265.95L24.54,260.02L24.93,234.98L25.32,244.21L25.51,272.44L25.9,244.31L26.29,265.93L26.48,268.34L26.87,257.25L27.26,288.05L27.46,257.4L27.65,235.92L27.85,263.2L28.04,254.52L28.24,264.66L28.43,263.06L28.63,276.16L28.82,261.69L29.21,274.88L29.41,274.58L29.99,253.6L30.18,265.49L30.38,282.26L30.77,270.68L30.96,271.8L31.16,293.23L31.35,272.05L31.94,281.61L32.13,282.13L32.33,252.25L32.52,289.57L32.91,260.15L33.11,252.91L33.3,254.94L33.5,235.73L33.88,285.43L34.27,265.57L34.47,276.94L34.86,279.17L35.64,242.17L35.83,266.37L36.03,223.75L36.22,276.01L36.61,255.74L36.81,276.47L37,248.47L37.39,267.67L37.58,277.32L37.78,277.03L37.97,260.08L38.56,256.35L38.75,288.51L39.53,255.19L39.73,259.52L39.92,276.37L40.31,257.52L40.51,234.13L40.7,288.48L41.29,272.57L41.48,259.88L41.67,284.83L41.87,247.97L42.06,236.65L42.45,283.89L42.84,270.16L43.04,254.33L43.43,250.67L43.62,278.01L43.82,268.98L44.01,256.67L44.21,292.38L44.79,288.44L44.99,266.68L45.57,276.74L45.76,271.41L45.96,270.1L46.15,271.69L46.35,269.95L46.54,284.53L47.32,250.6L47.71,252.74L47.91,278.14L48.1,290.08L48.3,277.36L48.49,277.73L48.69,264.76L48.88,262.35L49.07,266.31L49.27,288.4L49.66,292.84L50.24,269.71L50.44,277.49L50.63,285.05L50.83,256.52L51.22,253L51.41,296.48L51.8,284.23L52,275.52L52.19,255.83L52.58,275.66L52.77,278.42L52.97,269.75L53.16,284.34L53.36,228.41L54.14,293.73L54.33,266.29L54.92,284.94L55.11,266.21L55.31,265.78L55.5,254.67L56.09,288.39L56.47,282.33L56.67,273.27L57.06,287.76L57.25,277.89L57.45,256.64L58.23,283.72L58.42,272.12L58.62,279.19L58.81,269.91L59.01,248.84L59.59,292.49L59.79,254.83L59.98,282.17L60.76,288.42L60.95,236.62L61.15,229.82L61.34,259.99L61.93,279.13L62.12,288.52L62.71,290.67L63.1,265.67L63.29,285.33L63.68,256.5L63.87,288.56L64.07,280.39L64.26,279.37L64.65,287.78L65.04,269.65L65.24,276.81L65.82,260.69L66.02,281.99L66.21,260.47L66.8,271.56L66.99,282.32L67.19,265.95L67.77,274.24L67.96,294.98L68.35,249.59L68.74,283.09L68.94,283.9L69.91,259.37L70.11,284.6L70.5,288.41L70.89,271.16L71.08,286.11L71.28,268.63L71.86,277.16L72.05,267.23L72.44,290.42L72.83,288.77L73.03,283.36L73.42,272.87L73.61,268.92L73.81,265.43L74,280.14L74.2,279.77L74.39,287.57L74.59,292.12L74.78,267.92L75.17,288.84L75.36,283.75L75.56,262.08L75.95,292.39L76.14,261.92L76.34,289.23L76.53,273.91L76.73,274.88L76.92,281.91L77.12,260.08L77.7,278.17L77.9,286.18L78.09,285.72L78.29,293.48L78.48,250.56L79.06,264.83L79.26,261.23L79.65,294L80.04,279.64L80.23,270.53L81.01,295.09L81.21,271.13L81.6,298.93L81.79,282.9L81.99,263.26L82.18,256.01L82.38,271.82L82.57,280.58L82.96,262.47L83.15,293.48L83.74,267.54L83.93,271.33L84.13,283.86L84.32,281.97L84.52,264.26L84.91,278.59L85.3,273.26L85.49,273.68L86.08,300.75L86.27,282.5L86.66,272.21L86.85,295.41L87.05,265.8L87.63,288.15L87.83,289.19L89,260.54L89.19,293.68L89.39,298.75L89.58,256.02L90.16,271.79L90.36,289.48L90.55,286.24L90.75,294.03L90.94,286.88L91.14,292.49L91.33,249.37L91.92,265.28L92.11,295.37L92.31,262.27L92.5,297.82L92.89,279.16L93.09,268.11L93.28,297.89L93.67,247.1L93.86,279.7L94.06,289.64L94.25,285.39L94.45,297.5L94.64,272.49L95.23,268.02L95.42,284.26L95.62,277.86L95.81,286.31L96.01,274.51L96.2,283.24L96.4,265.98L97.18,303.54L97.37,287.04L97.57,257.07L98.15,290.27L98.34,288.42L98.54,272.45L98.93,292.64L99.32,286.79L99.51,283.09L100.49,291.46L100.68,291.25L100.88,289.64L101.07,289.14L101.27,280.28L101.46,265.28L101.65,283.83L102.04,267.11L102.24,271.01L102.43,263.96L102.63,285.54L103.21,291.69L103.41,272.13L103.6,291.09L103.8,270.76L104.38,274.51L104.58,278.34L104.77,290.1L105.16,268.17L105.35,258.15L105.94,300.35L106.13,283.14L106.33,258.14L107.3,294.18L107.5,299.14L108.47,257.85L108.67,286.13L109.05,296.1L109.25,288.29L109.44,285.8L109.64,286.98L109.83,273.01L110.42,290.55L110.81,290.35L111,282.44L111.2,297.71L111.39,272.31L111.59,285.18L111.78,278.01L112.17,299.13L112.37,273.96L113.34,300.38L113.53,301.14L114.31,264.87L114.7,272.77L114.9,293L115.48,278.49L115.68,287.07L115.87,292.95L116.07,293.49L116.26,249.16L117.23,283.6L117.43,270.72L118.01,282.47L118.21,277.1L118.4,276.83L118.6,274.07L118.79,292.44L118.99,282.9L119.38,295.4L119.57,287.53L119.77,298.65L119.96,283.18L120.54,285.91L120.74,296.15L121.13,286.21L121.32,251.27L121.52,247.6L121.71,264.82L122.1,299.98L122.49,284.56L122.69,290.04L123.08,260.15L123.27,291.25L123.47,285.7L123.66,283.88L123.86,296.32L124.24,290.32L124.44,265.98L125.61,285.86L125.8,276.02L126,278.45L126.19,297.92L126.39,299.7L126.58,275.67L126.78,287.43L126.97,266.11L127.36,278.71L127.56,259.03L128.14,297.16L128.33,281.33L128.53,287.9L128.92,301.47L129.11,298.23L129.31,280.91L129.5,282.22L129.7,247.8L130.09,295.27L130.48,267.39L130.67,284.96L131.45,273.36L131.64,275.49L131.84,302.18L133.01,264.45L133.2,279.13L133.59,275.47L133.98,296.19L134.18,289.98L134.37,272.79L134.57,271.51L134.76,300.14L135.15,254.23L135.54,288.14L135.73,272.77L136.12,290.04L136.32,287.59L136.51,279.17L136.71,265.43L137.1,280.89L137.29,291.23L137.68,265.84L137.88,299.19L138.07,269.48L138.66,279.78L138.85,276.44L139.43,296.15L139.63,287.99L139.82,285.31L140.02,263.23L140.41,298.01L140.6,291.02L140.8,287.81L140.99,291.64L141.19,276.14L141.38,295.22L141.58,267.63L141.97,285.26L142.16,284.52L142.36,273.07L142.74,290.22L142.94,287.62L143.13,278.91L143.33,298.24L143.52,284.12L143.72,294.51L143.91,295.1L144.11,263.21L144.69,289.15L144.89,262.67L145.67,304.56L145.86,297L146.06,263.3L146.64,281.33L146.83,288.06L147.03,267.07L147.42,296.92L147.61,289.81L148,293.06L148.2,282.79L148.39,289.86L148.59,300.95L148.78,281.74L148.98,279.13L149.37,255.67L149.56,290.15L149.76,286.36L149.95,289.94L150.14,254.99L151.12,303.13L151.31,284.74L151.9,298.08L152.09,287.27L152.29,289.86L152.48,254.39L152.87,285.19L153.07,291.31L153.26,296.91L153.46,286.28L153.65,279.97L154.23,289.58L154.43,260.27L155.01,298.82L155.21,294.43L155.4,290.37L155.79,272.93L155.99,290.89L156.18,283.03L156.38,284.15L156.57,297.91L156.77,267.81L157.16,293.85L157.35,278.02L157.55,293.76L158.13,292.23L158.32,294.9L158.52,257.98L159.1,273.68L159.3,297.79L159.49,263.16L159.88,296.98L160.08,304.41L160.66,288.97L160.86,297.76L161.05,279.65L161.63,285.92L161.83,288.03L162.02,272.74L162.41,290.17L162.61,284.13L162.8,296.14L163.39,271.22L163.58,290.24L163.78,298.2L163.97,283.47L164.36,295.5L164.56,297.85L165.33,285.34L165.53,290.36L165.72,290.75L165.92,280.38L166.11,298.32L166.7,296.32L166.89,271.85L167.09,275.52L167.28,293.32L167.48,276.91L167.67,297.13L168.06,287.37L168.26,298.18L168.65,266.78L168.84,293.6L169.03,262.64L169.23,298.45L169.62,278.34L169.81,297.83L170.79,277.09L170.98,299.63L171.37,302.87L171.76,282.78L171.96,289.46L172.15,292.12L172.35,302.73L172.54,289.67L172.93,294.14L173.12,288.2L173.32,271.09L173.9,281.64L174.1,283.21L174.49,282.95L174.68,287.83L174.88,305.01L175.07,279.07L175.66,288.19L175.85,299.55L176.43,283.05L176.82,283.53L177.02,295.92L177.21,298.45L177.41,290.44L177.6,294.63L177.8,268.67L178.58,308.4L178.77,295.12L178.97,274.48L179.75,295.8L179.94,288.9L180.14,283.13L180.52,297.5L180.91,292.01L181.11,293.87L181.3,308.05L181.5,277.14L181.69,275.62L182.08,298.48L182.28,289.73L182.47,269.01L182.86,304.41L183.25,297.83L183.45,298.12L183.84,296L184.03,300.75L184.22,275.62L184.81,288.64L185,301.38L185.59,275.03L185.78,278.94L185.98,287.41L186.37,297.09L186.56,294.94L186.76,271.88L186.95,296.9L187.54,292.29L187.73,295.95L188.12,305.09L188.31,303.6L188.51,274.45L189.48,302.82L189.68,292.22L189.87,270.82L190.07,293.16L190.26,277.32L190.46,300.18L190.65,266L191.04,300.54L191.24,292.78L191.43,286.94L192.01,299.42L192.21,298.01L192.4,295.62L192.6,294.17L192.79,295.46L192.99,296.91L193.38,300.56L193.57,299.67L193.77,281.9L193.96,307.25L194.16,270.47L194.55,295.36L194.74,269.43L194.94,273.65L195.13,294.97L195.32,274.22L195.71,298.14L195.91,304.61L196.1,273.49L196.69,285.37L196.88,289.36L197.08,282.83L197.27,284.38L197.47,300.54L197.66,299.77L197.86,292.15L198.05,293L198.25,277.88L198.44,281.93L198.64,262.85L199.41,301.72L199.61,283.82L200,268.47L200.19,297.31L200.39,287.04L200.58,285.74L200.78,301.94L200.97,258.05L201.36,293.07L201.56,278.14L201.75,274.92L201.95,298.59L202.14,271.66L202.72,290.29L202.92,284.74L203.5,304.98L203.7,261.57L204.48,302.26L204.67,301.94L204.87,299.63L205.06,307.26L205.26,287.59L205.45,294.26L205.65,288.8L205.84,285.96L206.04,303.41L206.62,276.97L206.81,290.06L207.4,289.83L207.59,305.54L207.79,277.43L208.37,299.24L208.57,271.56L209.15,303.32L209.35,282.69L209.54,296.5L209.93,302.76L210.13,276.68L210.51,306.72L210.71,301.74L210.9,278.34L211.29,300.89L211.49,296.94L211.68,269.64L212.66,302.57L212.85,270.97L213.63,304.51L213.83,278.85L214.02,279.87L214.21,293.9L214.41,285.23L214.8,290.35L214.99,296.5L215.38,288.7L215.58,303.83L215.77,270.38L216.36,291.01L216.55,274.1L216.75,288.07L216.94,302.95L217.14,286.9L217.53,302.82L217.72,291.42L217.91,302.94L218.11,294.99L218.3,280.05L218.89,305.66L219.08,294.17L219.28,291.02L219.47,301.37L219.67,265.92L220.45,300.29L220.64,281.39L220.84,277.71L221.03,300.97L221.23,274.17L221.42,304.3L221.81,293.9L222,294.38L222.98,303.75L223.17,300.33L223.76,261.24L223.95,288.43L224.34,286.8L224.73,303.48L224.93,299.96L225.31,301.7L225.51,301.11L225.7,276.43L225.9,303.19L226.48,285.24L226.68,294.63L226.87,296.63L227.07,287.22L227.85,299.66L228.04,283L228.24,262.69L228.43,296.86L228.63,303.14L229.4,263.96L229.6,288.6L229.79,274.49L230.18,298.44L230.38,284.94L230.57,300.61L230.96,273.68L231.16,295.11L231.35,302.97L231.94,267.59L232.13,298.23L232.33,295.23L232.91,276.71L233.1,287.34L233.3,297.14L233.49,297.72L233.69,287.89L234.08,293.57L234.27,271.62L235.05,295.92L235.25,294.45L235.44,289.75L235.64,290.46L235.83,304.3L236.03,303.81L236.22,292.22L237,305.88L237.19,280.45L237.58,307.2L237.97,300.27L238.17,299.06L238.36,300.91L238.56,279.56L238.95,291.01L239.14,270.06L239.92,302.15L240.12,296.26L240.31,301.83L240.89,301.32L241.09,288.68L241.28,275.26L241.67,297.29L241.87,278.41L242.06,289.91L242.26,288.85L242.45,283.19L242.65,303.88L243.04,280.1L243.23,288.98L243.43,296.1L243.62,304.81L244.2,302.57L244.4,298.95L244.59,290.41L245.18,293.47L245.37,306.35L245.57,276.88L246.15,277.12L246.35,288.18L246.74,280.9L247.32,301.24L247.52,294.89L247.71,296.85L247.9,283.42L248.68,302.87L248.88,283.43L249.27,301.2L249.46,292.86L249.66,286.3L250.05,277.66L250.24,281.47L250.44,305.2L250.83,296.03L251.02,306.57L251.6,270.99L251.8,300.77L251.99,290.74L252.58,299.86L252.77,306.93L253.55,284.57L253.75,296.55L254.14,283.31L254.33,300.35L254.53,292.73L254.72,300.43L255.11,293.49L255.3,301.29L255.69,277.33L255.89,303.97L256.28,301.11L256.47,283.05L256.67,286.11L256.86,273.67L258.23,300.63L258.42,288.6L258.81,283.2L259,305.82L259.2,292.64L259.39,285.93L259.98,285.67L260.17,300.23L260.37,279.23L260.95,300.15L261.34,299.97L261.54,300.52L262.51,275.31L262.71,294.04L263.09,287.41L263.29,294.07L263.48,302.23L264.07,273.08L264.26,298.17L264.46,289.46L264.85,305.62L265.04,271.47L265.24,297.18L265.63,299.31L266.21,288.79L266.41,305.63L266.99,290.95L267.18,299.41L267.38,298.22L267.77,284.16L267.96,299.29L268.16,290.89L268.35,291.65L268.55,293.31L268.74,303.81L268.94,307.72L269.13,272.31L269.33,304.02L269.91,302.13L270.11,299.79L270.3,285.46L270.69,306.13L270.88,299.92L271.08,298.93L271.27,299.16L271.47,267.32L272.25,303.3L272.44,281.05L273.03,297.64L273.22,293.89L273.42,278.02L273.81,274.87L274,298.16L274.19,296.43L274.39,282.99L275.17,302.38L275.36,281.66L275.56,281.2L275.75,290.31L276.14,284.06L276.34,307.6L276.53,281.24L276.92,304.76L277.51,304.04L277.7,306.69L277.89,292.01L278.48,299.2L278.67,293.6L278.87,267.22L279.06,301.99L279.26,291.13L279.45,303.13L279.84,292.61L280.23,294.64L280.43,302.37L281.21,292.03L281.4,299.87L281.79,298.7L281.98,303L282.18,268.79L282.37,304.44L282.96,293.84L283.15,302.94L283.74,290.46L283.93,304.63L284.71,272.39L284.91,285.57L285.1,288.92L286.07,302.63L286.27,295.35L286.85,281.49L287.05,289.85L287.24,288.35L287.44,283.96L287.63,305.37L287.83,303.96L288.02,294.13L288.22,269.74L288.61,296.85L288.8,303.27L289,303.78L289.19,294.42L289.38,293.58L289.58,283.65L289.77,302.36L290.36,298.96L290.55,292.74L290.75,296.19L290.94,284.09L291.33,299.62L291.92,299.36L292.11,286.58L292.5,275.86L292.7,299.6L292.89,294L293.08,285.82L293.28,285.52L293.47,290.08L293.86,290.97L294.06,286.82L294.25,295.21L295.03,305.54L295.23,297.02L295.42,283.81L295.81,291.88L296.01,306.58L296.4,286.77L296.59,303.28L296.78,275.29L297.37,297.17L297.56,303.81L297.76,272.32L298.15,306.54L298.34,297.25L298.54,300.49L299.12,274.97L299.32,301.48L299.71,299.15L300.1,303.61L300.29,299.22L300.48,297.48L300.68,284.06L300.87,305.79L301.46,292.93L301.65,296L301.85,293.36L302.04,297.34L302.24,295.21L302.43,304.71L302.63,305.58L302.82,285.76L303.02,308.73L303.41,304.22L303.6,275.38L304.38,303.34L304.57,297.84L304.96,292.63L305.16,272.29L305.74,298.76L305.94,270.27L306.91,306.42L307.11,294.45L307.3,276.84L307.5,306.02L307.69,294.33L307.88,297.08L308.27,286.11L308.47,301.43L308.66,299.96L308.86,305.95L309.05,283.23L309.64,305.56L309.83,297.86L310.03,289.06L310.42,284.92L310.61,289.97L310.81,297.19L311,287.69L311.2,297.12L311.39,282.65L311.58,296.25L311.78,256.04L312.36,304.8L312.56,303.54L312.75,303.04L313.34,304.6L313.53,292.41L313.73,297.88L314.51,264.79L314.7,290.48L314.9,283.79L315.09,298.83L315.29,292.08L315.48,299.35L315.67,300.04L315.87,281.8L316.65,303.05L316.84,280.12L317.23,301.58L317.62,300.69L317.82,285.73L318.79,301.7L318.99,296.01L319.57,305.76L319.76,303.48L319.96,299.9L320.35,303.42L320.54,293.09L320.74,279.61L320.93,277.95L321.13,300.65L321.32,302.92L321.52,289.73L322.1,303.7L322.3,300.63L322.49,279.92L322.88,302.1L323.27,299.73L323.46,286.02L323.66,287.41L323.85,302.34L324.05,302L324.24,305.36L324.44,304.26L324.63,307.81L325.41,284.81L325.61,298.91L326.39,283.2L326.58,307.24L326.77,306.74L326.97,292.92L327.16,287.6L327.36,299.62L327.55,301.41L327.94,271.45L328.33,295.28L328.53,295.1L328.72,303.47L328.92,293.49L329.11,294.59L329.31,294.45L329.89,296.8L330.09,286.93L330.86,310L331.06,299.28L331.45,282.65L331.64,300.18L331.84,306.99L332.03,283.45L332.62,283.74L332.81,303.94L333.01,290.07L333.4,296.33L333.59,303.55L333.98,304.31L334.56,292.09L334.76,302.49L335.15,283.94L335.34,295.28L335.54,301.69L335.93,259.88L336.12,304.78L336.9,277.02L337.1,302.89L337.68,276.64L337.87,300.89L338.07,284.25L338.65,284.67L338.85,303.47L339.04,307.71L339.24,287.23L339.43,268.9L339.82,300.14L340.02,292.59L340.21,286.06L340.41,303.42L340.6,298.38L340.8,297.06L341.19,289.93L341.38,293.35L341.57,305.39L341.77,303.03L341.96,303.48L342.16,288.74L342.35,301.92L342.94,295.44L343.13,301.56L343.33,299.69L343.52,301.02L343.72,282.24L344.11,281.14L344.5,299.94L344.69,292.57L344.89,288.21L345.28,292.04L345.47,308.81L345.86,271.91L346.25,297.43L346.44,295.8L346.64,296.7L346.83,301.97L347.03,308.07L347.22,291.17L347.42,270.62L348.2,298.81L348.39,294.44L348.59,297.05L348.98,299.3L349.17,282.19L349.36,295.22L349.56,296.05L349.95,304.12L350.14,272.59L350.53,270.08L350.73,303.98L350.92,292.63L351.12,298.63L351.31,297.71L351.51,292.62L351.9,284.43L352.09,293.73L352.29,306.47L352.48,303.35L352.68,272.77L353.26,302.33L353.45,289.72L353.65,287.88L353.84,287.48L354.04,299.79L354.23,286.02L354.82,293.09L355.01,302.81L355.99,284.64L356.18,301.56L356.38,282.41L356.96,295.8L357.15,289.25L357.35,303.29L357.54,279.04L357.93,300.92L358.13,297.18L358.32,296.4L358.52,284.37L359.49,301.9L359.69,294.65L360.08,307.52L360.27,306.39L360.46,294.43L360.66,294.61L360.85,301.84L361.05,304.4L361.24,299.96L361.44,295.33L361.63,295.41L361.83,261.46L362.02,300.97L362.61,299.31L362.8,284.6L363.19,306.95L363.39,302.3L363.58,279.87L364.16,300.87L364.36,295.17L364.55,248.74L364.94,301.69L365.33,298.3L365.53,299.97L366.11,304.11L366.31,296.91L366.5,305.74L366.7,301.86L366.89,288.71L367.28,305.49L367.48,297.5L367.67,289.9L368.06,304.39L368.25,292.3L368.45,275.78L369.03,307.3L369.42,303.53L369.62,292.44L370.01,284.04L370.4,305.85L370.59,300.66L370.79,306.35L370.98,296.48L371.18,295.15L371.37,307.39L371.57,292.29L371.76,306.33L371.95,295.6L372.15,296.56L372.34,295.13L372.54,302.66L373.12,305.86L373.32,295.74L373.71,284.7L373.9,292.11L374.1,297.04L374.29,300.87L374.49,293.58L374.68,298.06L374.88,291.38L375.07,292.18L375.27,304.97L375.65,274.13L375.85,303.04L376.43,285.5L376.63,300.56L377.21,296.06L377.41,297.58L377.6,308.09L378.38,294.16L378.58,304.89L378.77,300.11L378.97,304.98L379.16,302.71L379.35,309.29L380.13,278.63L380.33,288.95L381.11,305.17L381.3,302.91L381.5,297.27L381.89,298.3L382.08,281.72L382.28,299.15L382.47,289.39L382.86,304.98L383.05,306.32L383.25,283.54L383.64,305.64L383.83,303.85L384.22,284.67L384.42,307.36L385.2,278.18L385.39,295.51L385.78,306.79L385.98,296.64L386.17,284.47L386.37,306.92L386.56,286.17L386.75,298.55L386.95,306.8L387.14,288.19L387.53,306.24L387.73,306.52L387.92,307.31L388.12,304.44L388.31,303.73L388.51,290.2L388.7,290.71L388.9,273.02L389.29,307.86L389.68,280.08L389.87,283.43L390.07,306.86L390.65,299.39L390.84,302.11L391.23,290.34L391.43,267.47L392.01,305.98L392.4,297.96L392.6,294.89L393.18,303.62L393.38,291.8L393.57,309.11L394.15,294.42L394.35,298.04L394.54,292.14L394.93,302.14L395.13,304.94L395.71,294.45L395.91,296.06L396.1,295.5L396.49,287.84L396.69,301.99L397.08,290.94L397.27,297.53L397.47,299.19L397.86,293.88L398.05,303.86L398.24,297.33L398.63,291.39L399.22,308.61L399.41,291.65L399.8,304.26L400.19,299.78L400.39,296.05L400.58,292.46L400.78,296.16L400.97,303.77L401.17,305.32L401.36,292.67L401.75,272.33L401.94,302.83L402.14,293.8L402.33,304.41L402.53,289.82L402.92,303.36L403.11,275.02L403.31,308.27L403.89,288.51L404.09,303.07L404.48,305.69L404.87,281.7L405.06,296.54L405.45,273.82L405.64,297.81L405.84,293.43L406.03,290.23L406.23,306.65L406.81,301.51L407.01,297.65L407.4,308.21L407.79,301.25L407.98,296.54L408.18,296.07L408.37,299.24L408.57,305.62L408.76,293.43L409.15,301.61L409.34,293.52L409.54,309.22L410.12,305.32L410.32,305.46L410.71,284.95L411.1,290.76L411.29,297.11L411.49,295.97L411.68,281.93L412.07,299.99L412.46,288.17L412.66,296.92L412.85,295.54L413.04,302.47L413.24,306.96L413.43,304.33L413.63,285.2L414.02,305.65L414.41,297.54L414.6,302.21L414.8,261.21L414.99,302.8L415.19,288.41L415.38,305.5L415.58,304.7L415.77,309.99L416.55,282.14L416.74,296.99L416.94,305.69L417.13,285.19L417.52,302.21L417.72,293.69L417.91,283.08L418.3,299.19L418.5,285.6L418.69,307.45L419.28,297.87L419.47,304.72L419.67,286.86L420.06,304.94L420.25,301.52L420.44,304.4L420.64,305.07L420.83,302.39L421.03,307.57L421.42,298.83L421.61,302.78L422,306.52L422.2,290.11L422.39,304.54L422.78,304.86L423.17,273.32L423.37,308.44L423.76,277.32L423.95,305.71L424.14,307.93L424.34,296.2L424.53,310.24L424.92,300.62L425.12,295.02L425.31,299.14L425.51,285.38L425.7,300.35L426.09,292.39L426.29,284.59L427.26,307.57L427.46,309.5L427.85,283.66L428.23,293.93L428.43,302.99L428.62,291.18L428.82,306.04L429.01,303.65L429.21,305.94L429.4,305.28L429.6,307.35L430.57,279.42L430.77,298.17L431.16,295.34L431.55,302.2L431.74,301.91L431.93,299.94L432.32,294.01L432.52,299.73L432.71,301.28L432.91,293.6L433.3,296.35L433.49,300.85L433.88,307.88L434.08,291.03L434.27,287.42L434.47,303.81L434.86,301.82L435.05,305.49L436.02,285.2L436.22,302.54L436.41,304.97L436.61,294.18L436.8,286.02L437,294.71L437.19,304.06L437.39,304.43L437.58,299.58L437.97,303.07L438.17,283.74L438.56,307.17L439.14,306.72L439.33,300.52L439.53,305.05L439.72,290.32L439.92,308.19L440.31,286.97L440.5,301.27L440.7,307.46L441.28,291.28L441.48,306.84L442.06,284.7L442.26,303.46L442.45,292.61L442.65,309.55L443.03,294.2L443.23,294.84L443.62,291.88L443.81,309.59L444.01,287.21L444.59,309.36L444.98,304.48L445.18,303.58L445.37,298.05L445.57,304.11L445.76,302.22L445.96,306.85L446.93,288.1L447.12,303.87L447.51,305.56L447.71,286.55L447.9,300.75L448.1,286.4L448.49,296.86L448.68,299.03L448.88,307.49L449.27,306.73L449.46,298.68L449.66,298.8L449.85,293.19L450.43,288.91L451.02,306.35L451.21,299.05L451.41,310.19L451.8,304.64L451.99,285.89L452.19,303.32L452.77,300.15L452.97,304.4L453.55,305.33L453.75,289.59L453.94,303.64L454.52,293.16L454.72,305.72L454.91,277.3L455.3,284.29L455.5,304.35L455.69,296L455.89,308.61L456.08,303.9L456.28,303.18L456.47,303.9L456.67,303.18L456.86,300.14L457.25,308.27L457.45,288.91L457.64,306.16L458.22,302.18L458.42,303.62L458.61,307.44L458.81,294.89L459.39,292.8L459.59,309.14L459.78,296.11L460.17,275.69L460.37,300.5L460.76,296.3L461.15,307.64L461.34,291.25L461.54,290.67L461.73,308.06L462.51,296.99L462.7,301.4L462.9,280.55L463.09,308.5L463.29,291.25L463.48,305.7L463.68,288.4L463.87,308.05L464.07,295.75L464.26,304.51L465.24,283.68L465.43,302.06L465.82,282.7L466.01,305.23L466.21,309L466.99,289.03L467.18,302.67L467.38,288.39L467.77,306.35L467.96,296.77L468.16,291.6L468.35,272.16L468.74,307L468.94,299.81L469.32,294.01L469.52,274.45L470.49,309.14L470.69,294.25L471.27,305.78L471.47,305.09L471.66,304.35L471.86,305.76L472.05,292.65L472.25,306.84L472.64,301.93L472.83,289.84L473.02,305.35L473.22,279.66L473.61,303.83L473.8,297.52L474.19,293.38L474.78,307.51L474.97,300.01L475.17,306.43L475.36,298.94L475.56,281.7L475.75,285.42L475.95,305L476.14,302.25L476.34,279.47L476.72,302.92L477.11,302.74L477.31,294.71L477.7,309.06L478.09,304.95L478.28,298.58L478.48,305.49L478.67,301.82L478.87,291.94L479.26,288.49L479.65,306.67L479.84,294.52L480.23,285.95L480.81,305.3L481.01,283.82L481.98,305.17L482.18,291.46L482.76,290.66L483.35,306.94L483.54,304.12L484.32,295.44L484.51,299.44L484.71,295.67L484.9,302.46L485.1,304.32L485.29,304.79L485.49,296.9L485.68,290.53L485.88,298.7L486.07,295.01L486.27,300.36L486.46,299.42L486.66,293.86L486.85,306.77L487.44,297.1L487.63,304.74L487.83,303.02L488.02,275.75L488.21,309.23L488.8,308.55L488.99,301.66L489.19,293.35L489.58,301.7L489.77,300.53L490.16,299.58L490.75,310.03L490.94,297.11L491.33,306.34L491.53,291.42L491.91,286.32L492.3,307.86L492.5,307.29L492.69,288.57L493.28,309.96L493.67,304.45L493.86,304.81L494.06,305.73L494.25,292.13L494.45,272.25L494.64,302.88L494.84,285.21L495.03,304.21L495.61,308.56L495.81,273.11L496.2,300.19L496.59,296.93L496.78,286.37L497.56,309.24L497.76,305.18L498.73,279.39L498.93,302.01L499.12,300.79L499.31,294.13L500.09,302.24L500.29,287.4L501.26,307.96L501.46,304.31L502.43,293.76L502.63,303.29L502.82,304.33L503.01,303.19L503.21,303.76L503.4,299.29L503.6,302.99L503.79,301.25L503.99,295.77L504.38,307.56L504.57,302.57L504.77,298L505.16,301.77L505.35,286.77L505.74,303.9L506.33,303.02L506.52,304.6L506.91,308.53L507.1,294.26L507.3,308.1L507.49,298.47L507.88,305.42L508.08,308.31L508.86,294.96L509.05,301.68L509.25,308.69L509.44,287.87L509.64,282.43L509.83,301.88L510.03,307.18L510.22,299.66L510.42,306.02L510.61,286.08L510.8,305.88L511.39,300.73L511.58,303.65L511.78,298.6L512.17,306.31L512.36,275.12L513.34,303.84L513.53,300.03L513.73,285.82L514.12,306.04L514.31,300.46L514.89,308.75L515.09,298.26L515.28,309.39L515.87,300.64L516.06,274.97L517.23,305.18L517.43,299.5L517.62,305.52L517.82,298.92L518.01,299.24L518.2,280.41L518.98,307.35L519.18,305.29L519.37,305.99L519.57,292.83L520.15,308.3L520.35,294.33L520.54,294.19L520.93,305.84L521.13,278.17L521.52,306.23L522.1,305.49L522.29,296.75L522.49,298.04L522.68,281.73L522.88,304.72L523.46,296.35L523.66,300.32L524.24,310.89L524.44,302.62L524.63,301.07L524.83,283.48L525.02,306.88L525.6,300.95L525.8,296.19L525.99,295.86L526.19,285.61L526.58,306.29L527.16,304.51L527.36,301.43L527.75,307.25L527.94,300.34L528.14,280.89L528.33,307.07L528.53,306.76L528.72,300.46L528.92,302.2L529.11,299.8L529.3,290.38L529.5,307.43L529.89,290.24L530.08,296.86L530.28,295.08L530.47,306.7L531.06,297.18L531.25,303.88L531.84,279.25L532.03,303.64L532.23,304.81L532.42,291.64L533.2,307.56L533.39,298.38L533.59,294.72L533.78,295.7L533.98,305.82L534.76,277.85L534.95,301.75L535.15,308.73L535.34,291.65L535.54,294.04L535.73,302.1L536.32,301.07L536.51,292.73L536.71,288.08L536.9,300.51L537.09,300.54L537.48,260.97L537.68,309.22L538.65,284.41L538.85,304.29L539.04,276.59L539.43,300.13L539.63,304.26L539.82,302.07L540.02,287.06L540.21,303.78L540.41,282.34L540.79,295.37L540.99,300.31L541.18,259.96L541.38,305.38L541.57,298.63L541.77,307.42L542.35,289.96L542.74,296.51L542.94,303.79L543.13,291.74L543.52,300.91L543.72,308.25L544.3,296.05L544.49,308.65L545.47,275.96L545.66,295.97L545.86,294.86L546.05,299.07L546.25,294.94L546.44,303.37L546.64,297.35L546.83,310.41L547.22,286.04L547.61,303.73L547.81,300.04L548,300.4" style="vector-effect: none; fill: none; stroke: rgb(239, 85, 59); stroke-opacity: 1; stroke-width: 2px; opacity: 1;"/></g><g class="points"/><g class="text"/></g></g></g></g><path class="xlines-above crisp" d="M0,0" style="fill: none;"/><path class="ylines-above crisp" d="M0,0" style="fill: none;"/><g class="overlines-above"/><g class="xaxislayer-above"><g class="xtick"><text text-anchor="middle" x="0" y="491" transform="translate(23,0)" style="font-family: 'Open Sans', verdana, arial, sans-serif; font-size: 12px; fill: rgb(242, 245, 250); fill-opacity: 1; white-space: pre; opacity: 1;">0</text></g><g class="xtick"><text text-anchor="middle" x="0" y="491" style="font-family: 'Open Sans', verdana, arial, sans-serif; font-size: 12px; fill: rgb(242, 245, 250); fill-opacity: 1; white-space: pre; opacity: 1;" transform="translate(120.37,0)">500</text></g><g class="xtick"><text text-anchor="middle" x="0" y="491" style="font-family: 'Open Sans', verdana, arial, sans-serif; font-size: 12px; fill: rgb(242, 245, 250); fill-opacity: 1; white-space: pre; opacity: 1;" transform="translate(217.74,0)">1000</text></g><g class="xtick"><text text-anchor="middle" x="0" y="491" style="font-family: 'Open Sans', verdana, arial, sans-serif; font-size: 12px; fill: rgb(242, 245, 250); fill-opacity: 1; white-space: pre; opacity: 1;" transform="translate(315.11,0)">1500</text></g><g class="xtick"><text text-anchor="middle" x="0" y="491" style="font-family: 'Open Sans', verdana, arial, sans-serif; font-size: 12px; fill: rgb(242, 245, 250); fill-opacity: 1; white-space: pre; opacity: 1;" transform="translate(412.48,0)">2000</text></g><g class="xtick"><text text-anchor="middle" x="0" y="491" style="font-family: 'Open Sans', verdana, arial, sans-serif; font-size: 12px; fill: rgb(242, 245, 250); fill-opacity: 1; white-space: pre; opacity: 1;" transform="translate(509.85,0)">2500</text></g></g><g class="yaxislayer-above"><g class="ytick"><text text-anchor="end" x="22" y="4.199999999999999" transform="translate(0,461.96)" style="font-family: 'Open Sans', verdana, arial, sans-serif; font-size: 12px; fill: rgb(242, 245, 250); fill-opacity: 1; white-space: pre; opacity: 1;">0</text></g><g class="ytick"><text text-anchor="end" x="22" y="4.199999999999999" style="font-family: 'Open Sans', verdana, arial, sans-serif; font-size: 12px; fill: rgb(242, 245, 250); fill-opacity: 1; white-space: pre; opacity: 1;" transform="translate(0,399.09000000000003)">0.5</text></g><g class="ytick"><text text-anchor="end" x="22" y="4.199999999999999" style="font-family: 'Open Sans', verdana, arial, sans-serif; font-size: 12px; fill: rgb(242, 245, 250); fill-opacity: 1; white-space: pre; opacity: 1;" transform="translate(0,336.22)">1</text></g><g class="ytick"><text text-anchor="end" x="22" y="4.199999999999999" style="font-family: 'Open Sans', verdana, arial, sans-serif; font-size: 12px; fill: rgb(242, 245, 250); fill-opacity: 1; white-space: pre; opacity: 1;" transform="translate(0,273.36)">1.5</text></g><g class="ytick"><text text-anchor="end" x="22" y="4.199999999999999" style="font-family: 'Open Sans', verdana, arial, sans-serif; font-size: 12px; fill: rgb(242, 245, 250); fill-opacity: 1; white-space: pre; opacity: 1;" transform="translate(0,210.49)">2</text></g></g><g class="overaxes-above"/></g></g><g class="polarlayer"/><g class="smithlayer"/><g class="ternarylayer"/><g class="geolayer"/><g class="funnelarealayer"/><g class="pielayer"/><g class="iciclelayer"/><g class="treemaplayer"/><g class="sunburstlayer"/><g class="glimages"/><defs id="topdefs-e5fef3"><g class="clips"/><clipPath id="legende5fef3"><rect width="113" height="48" x="0" y="0"/></clipPath></defs><g class="layer-above"><g class="imagelayer"/><g class="shapelayer"/></g><g class="infolayer"><g class="legend" pointer-events="all" transform="translate(581.96,150)"><rect class="bg" shape-rendering="crispEdges" style="stroke: rgb(68, 68, 68); stroke-opacity: 1; fill: rgb(17, 17, 17); fill-opacity: 1; stroke-width: 0px;" width="113" height="48" x="0" y="0"/><g class="scrollbox" transform="" clip-path="url(#legende5fef3)"><g class="groups"><g class="traces" transform="translate(0,14.5)" style="opacity: 1;"><text class="legendtext" text-anchor="start" x="40" y="4.680000000000001" style="font-family: 'Open Sans', verdana, arial, sans-serif; font-size: 12px; fill: rgb(242, 245, 250); fill-opacity: 1; white-space: pre;">zigrad loss</text><g class="layers" style="opacity: 1;"><g class="legendfill"/><g class="legendlines"><path class="js-line" d="M5,0h30" style="fill: none; stroke: rgb(99, 110, 250); stroke-opacity: 1; stroke-width: 2px;"/></g><g class="legendsymbols"><g class="legendpoints"/></g></g><rect class="legendtoggle" x="0" y="-9.5" width="107.71875" height="19" style="fill: rgb(0, 0, 0); fill-opacity: 0;"/></g><g class="traces" transform="translate(0,33.5)" style="opacity: 1;"><text class="legendtext" text-anchor="start" x="40" y="4.680000000000001" style="font-family: 'Open Sans', verdana, arial, sans-serif; font-size: 12px; fill: rgb(242, 245, 250); fill-opacity: 1; white-space: pre;">pytorch loss</text><g class="layers" style="opacity: 1;"><g class="legendfill"/><g class="legendlines"><path class="js-line" d="M5,0h30" style="fill: none; stroke: rgb(239, 85, 59); stroke-opacity: 1; stroke-width: 2px;"/></g><g class="legendsymbols"><g class="legendpoints"/></g></g><rect class="legendtoggle" x="0" y="-9.5" width="107.71875" height="19" style="fill: rgb(0, 0, 0); fill-opacity: 0;"/></g></g></g><rect class="scrollbar" rx="20" ry="3" width="0" height="0" style="fill: rgb(128, 139, 164); fill-opacity: 1;" x="0" y="0"/></g><g class="g-gtitle"><text class="gtitle" x="35" y="75" text-anchor="start" dy="0em" style="opacity: 1; font-family: 'Open Sans', verdana, arial, sans-serif; font-size: 17px; fill: rgb(242, 245, 250); fill-opacity: 1; white-space: pre;">Loss per Batch</text></g><g class="g-xtitle"/><g class="g-ytitle"/></g></svg>