<svg class="main-svg" xmlns="http://www.w3.org/2000/svg" xmlns:xlink="http://www.w3.org/1999/xlink" style="" viewBox="0 0 700 500"><rect x="0" y="0" width="700" height="500" style="fill: rgb(255, 255, 255); fill-opacity: 1;"/><defs id="defs-606b1b"><g class="clips"><clipPath id="clip606b1bxyplot" class="plotclip"><rect width="672" height="328"/></clipPath><clipPath class="axesclip" id="clip606b1bx"><rect x="23" y="0" width="672" height="500"/></clipPath><clipPath class="axesclip" id="clip606b1by"><rect x="0" y="150" width="700" height="328"/></clipPath><clipPath class="axesclip" id="clip606b1bxy"><rect x="23" y="150" width="672" height="328"/></clipPath></g><g class="gradients"/><g class="patterns"/></defs><g class="bglayer"><rect class="bg" x="23" y="150" width="672" height="328" style="fill: rgb(229, 236, 246); fill-opacity: 1; stroke-width: 0;"/></g><g class="layer-below"><g class="imagelayer"/><g class="shapelayer"/></g><g class="cartesianlayer"><g class="subplot xy"><g class="layer-subplot"><g class="shapelayer"/><g class="imagelayer"/></g><g class="minor-gridlayer"><g class="x"/><g class="y"/></g><g class="gridlayer"><g class="x"><path class="xgrid crisp" transform="translate(142.49,0)" d="M0,150v328" style="stroke: rgb(255, 255, 255); stroke-opacity: 1; stroke-width: 1px;"/><path class="xgrid crisp" transform="translate(261.98,0)" d="M0,150v328" style="stroke: rgb(255, 255, 255); stroke-opacity: 1; stroke-width: 1px;"/><path class="xgrid crisp" transform="translate(381.46,0)" d="M0,150v328" style="stroke: rgb(255, 255, 255); stroke-opacity: 1; stroke-width: 1px;"/><path class="xgrid crisp" transform="translate(500.95,0)" d="M0,150v328" style="stroke: rgb(255, 255, 255); stroke-opacity: 1; stroke-width: 1px;"/><path class="xgrid crisp" transform="translate(620.44,0)" d="M0,150v328" style="stroke: rgb(255, 255, 255); stroke-opacity: 1; stroke-width: 1px;"/></g><g class="y"><path class="ygrid crisp" transform="translate(0,476.06)" d="M23,0h672" style="stroke: rgb(255, 255, 255); stroke-opacity: 1; stroke-width: 1px;"/><path class="ygrid crisp" transform="translate(0,433.25)" d="M23,0h672" style="stroke: rgb(255, 255, 255); stroke-opacity: 1; stroke-width: 1px;"/><path class="ygrid crisp" transform="translate(0,390.45)" d="M23,0h672" style="stroke: rgb(255, 255, 255); stroke-opacity: 1; stroke-width: 1px;"/><path class="ygrid crisp" transform="translate(0,347.64)" d="M23,0h672" style="stroke: rgb(255, 255, 255); stroke-opacity: 1; stroke-width: 1px;"/><path class="ygrid crisp" transform="translate(0,304.83000000000004)" d="M23,0h672" style="stroke: rgb(255, 255, 255); stroke-opacity: 1; stroke-width: 1px;"/><path class="ygrid crisp" transform="translate(0,262.02)" d="M23,0h672" style="stroke: rgb(255, 255, 255); stroke-opacity: 1; stroke-width: 1px;"/><path class="ygrid crisp" transform="translate(0,219.20999999999998)" d="M23,0h672" style="stroke: rgb(255, 255, 255); stroke-opacity: 1; stroke-width: 1px;"/><path class="ygrid crisp" transform="translate(0,176.41)" d="M23,0h672" style="stroke: rgb(255, 255, 255); stroke-opacity: 1; stroke-width: 1px;"/></g></g><g class="zerolinelayer"><path class="xzl zl crisp" transform="translate(23,0)" d="M0,150v328" style="stroke: rgb(255, 255, 255); stroke-opacity: 1; stroke-width: 2px;"/></g><g class="layer-between"><g class="shapelayer"/><g class="imagelayer"/></g><path class="xlines-below"/><path class="ylines-below"/><g class="overlines-below"/><g class="xaxislayer-below"/><g class="yaxislayer-below"/><g class="overaxes-below"/><g class="overplot"><g class="xy" transform="translate(23,150)" clip-path="url(#clip606b1bxyplot)"><g class="scatterlayer mlayer"><g class="trace scatter trace401139" style="stroke-miterlimit: 2; opacity: 1;"><g class="fills"/><g class="errorbars"/><g class="lines"><path class="js-line" d="M0,228.01L0.48,112.13L0.72,115.88L0.96,153.37L1.19,164.17L1.43,83.49L2.15,171.74L2.63,167.83L2.87,159.72L3.35,125.94L3.58,165.59L3.82,145.07L4.06,171.53L4.3,177.87L4.54,182.7L4.78,150.23L5.26,134.1L5.5,217.66L5.74,190.09L5.97,135.46L6.21,117.92L6.45,176.67L6.69,172.04L6.93,179.01L7.17,234.75L7.89,167.58L8.13,213.61L8.36,145.84L8.84,200.04L9.08,155.11L9.32,225.21L9.8,155.54L10.04,168.96L10.28,214L10.75,166.67L10.99,185.17L11.23,196.09L11.47,142.18L12.43,237.2L12.67,183.26L13.14,240.89L13.38,181.74L13.62,163.37L13.86,223.58L14.1,240.09L14.34,193.23L14.82,155.41L15.06,235.43L15.29,167.05L15.77,215.4L16.01,190.15L16.49,269.32L16.73,174.16L17.68,263.28L17.92,223.28L18.16,208.32L18.4,218.9L18.64,208.96L18.88,188.9L19.12,190.47L19.36,190.29L19.6,241.57L19.83,199.24L20.07,254.8L20.31,242.25L20.55,255.04L21.27,199.68L21.51,209.16L21.75,231.62L22.22,214.7L22.46,171.78L22.94,209.51L23.42,207.37L23.66,181.91L23.9,181.94L24.14,238.47L24.61,183.56L24.85,191.58L25.09,222.24L25.33,237.74L25.57,211.36L25.81,202.79L26.05,225.73L26.29,168.71L26.53,233.83L27,226.65L27.24,205.29L27.48,159.81L27.96,205.38L28.2,208.94L28.44,244.75L28.92,227.32L29.16,216.68L29.63,155.43L29.87,210.75L30.11,195.42L30.35,223.61L30.59,244.09L31.07,168.08L31.31,203.26L31.54,202.99L31.78,182.85L32.26,222.24L32.5,174.28L32.98,239.58L33.46,217.06L33.7,181.3L33.93,210.36L34.41,202.05L34.65,190.66L35.13,212.01L35.37,169.73L36.32,239.95L36.56,209.1L37.04,202.49L37.28,221.33L37.52,228.09L37.76,148.18L38.24,230.01L38.48,168.27L38.71,199.96L38.95,200.44L39.19,170.26L39.67,227.37L39.91,187.69L40.15,164.17L40.63,242.08L40.86,156.78L41.1,211.81L41.34,192.11L41.58,241.11L42.06,243.08L42.54,134.08L42.78,228.41L43.49,155.96L43.73,210.31L44.69,178.21L44.93,229.64L45.41,187.64L45.64,213.05L45.88,214L46.12,185.6L46.36,212.17L46.6,223.71L46.84,220.33L47.08,234.7L47.32,192.67L47.8,215.92L48.03,248.88L48.51,194.26L48.75,252.67L48.99,158.25L49.47,201.54L49.71,228.15L50.9,193.42L51.14,205.71L51.38,185.18L51.62,204L51.86,208.57L52.1,203.25L52.34,157.13L52.81,239.02L53.05,164.3L53.29,189.76L53.77,128.11L54.01,179.67L54.25,175.48L54.49,177.79L54.73,226.99L54.96,282.07L55.2,184.08L55.44,204.05L55.68,263.28L55.92,209.7L56.16,183.42L56.4,236.77L56.88,219.09L57.12,176.37L57.59,237.32L57.83,180.62L58.31,173.27L58.79,235.75L59.03,171.5L60.22,253.19L60.46,232.41L60.94,187.71L61.18,205.22L61.42,215.9L62.13,207.26L62.37,220.35L62.61,243.55L62.85,209.31L63.09,219.23L63.33,211.01L63.57,163.42L64.05,195.37L64.28,208.27L65,188.43L65.24,205.61L65.48,233.97L65.96,205.66L66.2,214.85L66.67,183.67L66.91,259.63L67.15,159.92L67.63,180.91L67.87,200.96L69.06,258.21L69.3,226.06L70.02,248.85L70.26,214.16L70.5,179.93L70.74,208.03L70.98,226.75L71.69,274.23L71.93,222.4L72.17,292.61L72.41,187.15L72.65,205.72L73.6,168.28L73.84,180.97L74.08,176.13L74.32,185.58L74.56,159.07L75.04,216.99L75.52,197.63L75.76,225.14L75.99,224.33L76.23,190.5L76.47,224.52L76.71,186.3L76.95,140.14L77.19,205L77.67,143.92L77.91,141.12L78.15,217.64L78.38,179.39L78.62,126.04L79.1,203.65L79.58,201.11L79.82,145.58L80.77,210.99L81.01,226.55L81.25,127.3L81.73,208.78L81.97,199.75L82.21,162.18L82.45,202.03L82.69,192.12L82.92,180.15L83.16,169.71L83.4,186.85L83.64,201.6L83.88,154.99L84.12,179.26L84.36,235.18L84.6,311.28L84.84,201.62L85.08,231.22L85.31,235.03L85.79,186L86.03,239.03L86.27,195.38L86.75,240.36L86.99,219.65L87.47,236.03L87.7,221.97L87.94,145.84L89.14,249.89L89.38,228.21L89.62,159.6L89.85,228.9L90.09,219.6L90.33,230.44L90.81,185.05L91.29,186.36L91.53,211.69L91.77,110.04L92.24,224.9L92.48,215.06L92.72,207.25L92.96,235.73L93.44,166.6L93.68,230.02L93.92,234.34L94.16,232.97L94.4,273.09L95.11,197.14L95.35,224.82L95.59,220.9L96.07,240.16L96.31,136.22L96.55,232.12L97.26,201.86L97.5,210.1L97.74,241.4L97.98,254.43L98.22,249.73L98.46,207.98L98.7,246.68L99.17,231.35L99.41,215.78L99.65,249.2L100.13,242.25L100.37,170.75L100.85,219.55L101.09,217.13L101.33,208.85L101.56,242.73L101.8,236.34L102.04,197.58L102.28,230.71L102.76,222.15L103,216.83L103.48,221.19L103.72,165.66L103.95,195.94L104.19,218.91L104.67,196.71L104.91,202.03L105.15,187.11L105.39,235.3L105.63,247.13L105.87,199.04L106.11,229.32L106.34,191L106.82,225L107.06,229.69L107.3,232.22L107.54,188.38L108.02,164.77L108.26,231.17L108.5,220.4L108.73,171.22L108.97,235.29L109.45,210.56L109.69,174.3L109.93,185.13L110.17,233.01L110.41,231.22L110.65,188.06L111.12,228.37L111.36,197.03L111.6,174.97L111.84,180.34L112.08,233.41L112.56,279.23L112.8,228.94L113.04,236.82L113.27,227.23L113.51,197.65L113.75,234.84L113.99,225.86L114.23,157.41L114.47,258.45L114.95,148.8L115.19,202.5L115.43,220.44L115.66,201.5L115.9,191.43L116.86,228.89L117.1,189.63L117.34,226.59L117.58,180.28L117.82,182.42L118.53,232.73L118.77,180.67L119.49,228.44L119.73,216.36L119.97,179.19L120.2,176.54L120.44,217.37L120.68,200.89L120.92,245.86L121.16,250.14L121.4,228.61L121.64,220.65L121.88,241.11L122.12,237.39L122.36,249.8L122.83,178.17L123.31,200.06L123.55,189.47L124.27,275.05L124.51,198.12L124.98,187.7L125.22,242.54L125.46,193.6L125.7,242.08L126.18,233.33L126.42,227.46L126.66,206.3L126.9,231.01L127.14,236.29L128.09,171.22L128.33,210.14L128.57,165.84L128.81,232.89L129.05,215.97L129.29,215.55L129.52,182.74L129.76,184.09L130,225.77L130.48,179.57L130.72,198.33L130.96,223.09L131.2,234.72L131.44,191.28L131.68,196.92L131.91,228.75L132.63,116.67L132.87,216.04L133.11,228.56L133.35,181.32L133.83,243.69L134.3,227.19L134.54,257.77L135.02,209.68L135.26,254.76L135.5,164.06L135.98,206.25L136.22,207.74L136.93,179.79L137.17,252.08L137.41,175.32L137.89,238.69L138.13,242.01L139.08,192.9L139.32,185.67L140.52,253.11L140.76,193.75L141,165.87L141.23,208.84L141.47,218.19L141.71,193L141.95,240.39L142.19,245.55L142.43,215.6L142.91,236.38L143.15,221.29L143.39,174.1L143.86,212.86L144.1,200.66L144.34,180.61L144.82,201.61L145.06,207.5L145.54,245.3L145.78,192.06L146.01,222.75L146.49,191.58L146.73,200.16L146.97,157.66L147.21,169.54L147.45,221.14L147.69,192.9L147.93,250.14L148.17,228.57L148.64,145.94L148.88,237.74L149.12,161.88L149.36,223.43L150.08,194.03L150.32,252.61L150.55,261.57L150.79,214.88L151.03,224.52L151.27,213.15L151.51,209.41L151.75,206.56L151.99,175.42L152.23,220.08L152.71,219.41L152.94,194.69L153.42,242.47L153.66,208.05L153.9,232.89L154.38,222.91L154.62,194.67L154.86,199.68L155.1,227.54L155.57,210.16L155.81,242.26L156.05,199.41L156.29,215.85L156.53,272.38L156.77,187.69L157.25,215.89L157.49,212.89L157.72,243.76L157.96,237.54L158.2,207.46L158.44,203.84L158.68,232.35L158.92,243.65L159.16,194.48L159.4,212.27L159.64,114.6L160.11,228.02L160.59,196.69L160.83,238.21L161.07,242.91L161.31,192.45L161.79,231.44L162.03,228.71L162.26,154.98L162.5,237.07L162.98,180.85L163.22,207.1L163.46,178.26L163.7,215.89L163.94,182.74L164.18,204.09L164.42,190.3L164.65,202.3L164.89,225.55L165.61,183.18L165.85,217.75L166.09,229.96L166.33,199.24L167.28,254.51L167.52,249.99L167.76,210.42L168.48,210.66L168.72,199.94L168.96,182.69L169.19,240.42L169.43,220.56L169.67,227.45L169.91,257.13L170.15,249.45L170.39,212.97L170.63,217.61L170.87,161.03L171.82,261.71L172.3,255.37L172.54,194.31L172.78,179.27L173.02,211.72L173.26,210.22L173.5,181.38L173.74,181.94L173.97,170.44L174.45,210.07L174.69,195.66L174.93,196.82L175.17,155.77L175.41,195.34L175.65,210.61L175.89,184.35L176.13,226.61L176.36,195.98L176.6,234.99L176.84,217.96L177.08,232.51L177.32,242.54L177.8,194.93L178.04,159.79L178.99,216.99L179.23,225.27L179.71,222.41L180.19,232.71L180.43,227.14L181.14,191.3L181.38,234.97L182.1,159.79L182.34,214.27L183.29,159.79L183.53,183.76L184.73,256.56L184.97,245.37L185.21,232.67L185.45,206.67L185.92,223.39L186.16,240.47L186.64,242.15L186.88,176.84L187.12,207.62L187.36,206.5L187.6,198.46L187.83,162.82L188.07,197.12L188.31,225.17L189.03,212.83L189.27,218.09L189.51,155.93L189.99,222.39L190.46,215.69L190.7,233.78L190.94,237.33L191.18,211.99L191.9,242.05L192.14,203.71L192.61,220.26L192.85,131L193.09,209.96L193.33,201.35L193.57,213.7L193.81,204.63L194.05,219.32L194.29,216.88L194.53,220.3L194.77,206.52L195,203.53L195.24,210.22L195.48,228.76L195.72,217.9L195.96,203.05L196.44,186.94L196.92,266.5L197.16,228.94L197.63,149.07L197.87,209.31L198.11,189.87L198.35,220.95L198.59,224.77L199.07,209.77L199.31,246.54L199.54,185.94L199.78,224.62L200.02,260L200.74,143.23L200.98,222.05L201.22,221.72L201.46,210.12L201.7,205.43L201.93,264.09L202.17,177.44L202.65,241.43L202.89,245.3L203.37,201.99L203.61,237.24L203.85,213.87L204.09,225.26L204.32,191.53L204.8,182.88L205.28,237.14L205.52,206.35L205.76,170.1L206,225.46L206.24,185.17L206.48,201.11L206.71,192.61L206.95,203.87L207.19,247.75L208.15,204.56L208.39,225.93L208.63,191.1L208.86,206.61L209.1,233.12L209.58,175.2L209.82,231.26L210.06,256.96L211.25,170.51L211.49,180.29L211.73,238.81L211.97,174.47L212.45,232.87L212.69,217.01L212.93,155.65L213.17,215.01L213.41,238.08L213.88,185.97L214.12,190.04L214.36,261.75L214.6,258.84L214.84,205.29L215.08,198.5L215.32,249.24L215.8,217.64L216.03,236.12L216.27,192.94L216.75,185.45L217.23,249.05L217.47,198.09L217.95,249.7L218.18,188.62L218.66,234.72L218.9,221.89L219.14,199.4L219.38,149.43L219.62,208.87L219.86,213.22L220.1,240.7L220.34,132.75L220.81,237.55L221.29,205.14L221.53,191.81L221.77,166.16L222.25,170.14L222.49,201.66L222.73,233.51L222.96,175.42L223.2,170.49L223.68,153.82L223.92,247.96L224.16,180.14L224.4,149.83L224.64,168.66L224.88,189.5L225.12,123.31L225.35,205.44L225.59,127.02L225.83,210.94L226.07,144.04L226.55,215.27L226.79,162.55L227.03,183.52L227.27,118.12L227.5,122.79L227.74,170.79L227.98,127.47L228.22,139.76L228.46,202.17L229.18,115.49L229.42,144.11L229.66,174.99L230.13,150.11L230.37,181.37L230.61,147.46L230.85,167.85L231.09,205.21L231.33,277.93L231.57,174.85L231.81,195.5L232.28,221.34L232.76,160.3L233,202.26L233.24,146.01L233.72,206.37L233.96,166.49L234.2,168.87L234.44,166.14L234.67,153.08L235.63,208.58L235.87,183.5L236.11,151.23L236.35,197.32L236.59,197.02L236.83,221.14L237.06,140.6L237.3,116.82L237.54,196.79L237.78,180.57L238.02,225.33L238.26,175.98L238.74,188.72L238.98,203.5L239.21,186.4L239.45,199.63L239.69,227.07L239.93,168.46L240.41,183.75L240.65,217.28L240.89,243.9L241.13,197.38L241.37,199.11L241.6,245.83L241.84,217.84L242.08,161.38L242.56,216.25L242.8,187.54L243.04,172.2L243.28,174L243.52,193.69L243.76,162.84L243.99,197.87L244.23,171.63L244.47,201.35L244.71,199.63L244.95,207.46L245.67,117.04L245.91,206.47L246.15,238.64L246.38,196.09L246.62,162.55L246.86,145.31L247.1,167.58L247.34,152.03L247.58,159.74L247.82,147.12L248.06,201.04L248.3,178.92L248.53,207L248.77,224.53L249.25,183.67L249.49,210L249.73,212.16L250.21,236L250.45,227.61L250.69,194.11L250.92,239.19L251.4,223.5L251.64,205.79L251.88,228.98L252.36,222.18L252.6,199.07L252.84,233.1L253.08,176.27L253.31,212.69L253.55,164.75L254.03,215.51L254.27,185.31L254.51,179.95L254.75,215.35L255.23,203.4L255.47,154.33L256.42,268.07L256.66,241.11L256.9,217.32L257.14,214.33L257.38,200.44L257.85,196.32L258.33,260.27L258.57,222.38L258.81,225.3L259.05,255.92L260.01,186.34L260.24,221.8L260.96,137.93L261.2,174.89L261.44,232.66L261.92,225.83L262.16,181.46L262.63,232.54L262.87,174.22L263.11,177.42L263.35,144.37L264.55,243.46L264.79,153.82L265.26,212.84L265.5,185.45L265.74,195.32L265.98,210.85L266.22,145.16L266.94,189.55L267.17,165.34L267.65,218.62L267.89,192.25L268.13,163.78L268.37,239.63L268.61,155.45L268.85,167.87L269.09,169.2L269.33,168.29L269.56,180.44L269.8,191.78L270.04,150.71L271,203L271.24,166.96L271.48,238.94L271.95,215.79L272.19,214.2L272.91,128.08L273.15,230.5L274.34,149.55L274.58,229.96L274.82,219.27L275.06,171.72L275.3,143.84L275.54,169.35L275.78,185.33L276.26,247.57L276.5,159.07L276.97,207.08L277.45,204.32L277.69,168.41L278.41,232.76L278.65,167.69L278.88,219.54L279.6,213.22L279.84,191.64L280.08,178.08L280.32,108.63L280.56,230.97L281.04,177.84L281.27,202.4L281.51,203L281.75,178.46L282.23,153.54L282.47,186.32L282.71,145.41L282.95,176.39L283.19,223.06L283.9,164.43L284.14,199.39L284.86,219.9L285.1,155.08L286.29,211.89L286.53,150.43L287.49,242.88L287.73,221.66L288.92,150.53L289.16,189.3L289.4,206.55L289.64,118.5L290.36,193.49L290.59,172.91L290.83,135.58L291.55,219.75L291.79,167.58L292.27,181.1L292.51,222L292.75,173.84L292.98,224.97L293.22,194.55L293.46,196.4L293.7,175.51L293.94,221.04L294.42,150.75L294.66,218.01L294.9,211.27L295.14,218.71L295.37,212.76L295.61,175.53L295.85,186.69L296.09,184.57L296.33,157.69L296.81,232.76L297.05,178.86L297.29,201.27L297.52,222.54L297.76,161.87L298,132.19L298.24,184.62L298.48,227.73L298.96,195.42L299.2,170.73L299.68,245.51L299.91,190.25L300.15,188.97L300.39,205.59L300.63,139.67L301.11,211.4L301.35,170.45L301.59,201.15L301.83,169.87L302.07,94.39L302.3,184.16L302.78,172.05L303.02,156.39L303.98,266.96L304.22,181.09L305.41,258.89L305.65,237.29L306.13,174.79L306.37,196.73L306.61,208.39L306.84,169.73L307.08,225.22L307.32,218.86L308.28,163.84L308.52,222.39L309,145.65L309.23,214.14L309.47,239.46L309.95,156.71L310.19,185.75L310.43,216.48L310.67,172.11L310.91,192.9L311.15,251.13L311.39,250.64L311.62,227.31L312.58,149.92L312.82,153.6L313.06,149.54L313.3,152.64L313.54,177.58L313.78,154.26L314.25,166.72L314.49,208.73L314.73,188.49L315.21,200.48L315.45,237.08L316.17,147.58L316.4,166.93L316.64,168.94L317.12,190.66L317.36,127.22L318.32,221.14L318.55,210.26L318.79,219.94L319.03,167.74L319.27,162.21L319.51,205.05L319.75,206.64L319.99,193.53L320.23,228.33L320.71,206.44L320.94,217.45L321.66,163.35L321.9,172.78L322.14,213.66L322.62,227.11L322.86,150.1L323.81,218.89L324.05,202.02L324.29,239.6L324.77,224.99L325.01,122.69L325.49,200.72L325.96,199.88L326.2,167.8L326.44,191.2L326.68,129.85L326.92,140.25L327.16,194.71L327.4,179.44L327.64,197.9L327.87,239.71L328.11,224.3L328.59,225.5L328.83,116.37L329.79,205.2L330.03,187.39L330.98,135.23L331.22,206.26L331.7,221.14L331.94,166.44L332.18,219.65L332.42,162.31L332.65,182.85L332.89,163.49L333.37,163.15L333.85,199.51L334.09,179.48L334.33,182.91L334.57,175.35L334.81,136.47L335.04,179.3L335.28,205.12L335.52,239.52L335.76,198.42L336,198.9L336.48,189.33L336.72,192.68L336.96,209.58L337.67,164.35L337.91,215.67L338.15,140.49L338.63,194.23L338.87,209.31L339.35,222.23L339.58,210.88L339.82,202.88L340.06,131.72L340.54,164.53L340.78,213.48L341.02,179.95L341.26,227.36L341.74,182.05L341.97,226.21L342.21,183.34L342.45,229.89L342.69,196.03L342.93,223.19L343.41,156.76L343.89,160.39L344.13,176.08L344.6,225.45L345.08,204.37L345.32,156.09L346.28,235.32L346.51,154.26L346.75,142.33L346.99,169.75L347.23,155.25L347.47,80.68L347.95,215.18L348.19,167.81L348.43,175.46L348.9,223.71L349.14,198.11L349.38,247.34L349.62,176.52L349.86,133.05L350.1,230.67L350.58,196.03L350.82,201.66L351.06,247.39L351.29,222.49L351.53,147L351.77,152.9L352.01,202.47L352.73,157.1L352.97,177.42L353.21,194.25L353.45,178.32L353.92,180.32L354.16,212.05L354.64,176.26L354.88,164.33L355.36,267.55L355.6,224.51L355.83,199.69L356.31,160.01L356.55,200.69L356.79,158.06L357.03,207.76L357.27,200.63L357.51,189.3L357.75,174.29L357.99,176.45L358.22,207.66L358.46,200.03L358.7,156.25L359.18,218.99L359.42,174.88L359.66,179.83L359.9,217.08L360.14,201.5L360.38,166.94L360.61,185.39L360.85,180.23L361.09,160.97L361.33,147.12L361.57,159.3L361.81,199.06L362.05,229.82L362.29,223.41L362.53,175.81L362.77,209.31L363,175.5L363.24,195.25L363.48,150.36L363.72,238.78L364.2,212.37L364.44,173.12L364.68,225.6L365.16,212.32L365.39,187.17L365.63,191.84L365.87,145.16L366.11,244.31L366.59,181.03L366.83,227.01L367.78,175.33L368.02,228.41L368.26,171.58L368.98,171.68L369.22,210.2L369.46,166.77L369.7,215.63L369.93,191.58L370.17,179.11L370.41,180.46L370.65,235.54L371.37,156.58L371.61,210.18L372.32,139.77L372.56,216.91L372.8,233.33L373.04,138.93L373.76,222.77L374,173.58L374.48,138.89L374.71,178.54L374.95,173.43L375.19,165.56L375.43,200.8L375.67,185.57L375.91,239.13L376.63,192.44L376.86,237.68L377.34,179.24L377.58,180.58L377.82,210.32L378.06,212.93L378.3,145.14L379.25,230.82L379.49,176.39L379.73,149.54L379.97,212.43L380.45,216.85L380.69,188.03L380.93,224.65L381.17,177.04L381.41,210.36L381.64,196.73L382.36,239.45L382.6,223.9L382.84,152.43L383.08,228.42L383.56,207.17L383.8,205.56L384.27,124.33L384.51,189.38L384.75,229.24L384.99,249.37L385.23,173.45L385.95,204.97L386.18,127.71L387.14,188.37L387.38,153.97L387.62,151.16L387.86,198.93L388.1,239.85L388.57,235.81L388.81,168.34L389.05,132.34L389.29,204.34L389.53,171.07L389.77,187.62L390.01,218.18L390.49,197.31L390.73,198.09L391.68,118.06L391.92,171.93L392.4,231.84L392.64,192.86L392.88,181.83L393.12,148.15L393.35,188.72L393.59,197.4L393.83,159.13L394.07,215.12L394.31,162.07L394.55,167.02L395.03,216.18L395.27,199.57L395.5,201.55L395.74,149.73L396.22,184.37L396.46,241.6L397.42,143.68L397.66,156.47L397.89,191.15L398.13,185.79L398.37,146.38L399.33,250.13L399.57,212.06L399.81,197.29L400.05,106.69L400.52,210.46L401,183.74L401.24,116.8L401.96,199.44L402.2,109.64L402.67,202.63L403.15,200.62L403.39,182.37L403.63,183.27L403.87,192.18L404.11,198.82L404.35,191.15L404.59,175.74L405.54,201.03L405.78,145.01L406.02,146.13L406.26,195.72L406.5,222.04L406.74,193.44L406.98,214.1L407.21,213.18L407.69,161.48L407.93,181.03L408.17,199.86L408.41,181.91L408.65,221.99L408.89,239.8L409.13,225.28L409.37,104.37L410.32,233.81L410.56,171.31L410.8,231.78L411.28,188.33L411.52,208.97L412.23,149.97L412.47,198.88L412.71,127.88L413.19,175.81L413.43,183.54L413.67,169.79L413.91,181.91L414.15,205.51L414.38,177.89L414.62,221.54L414.86,234.69L415.34,147.5L415.58,171.52L415.82,193.77L416.06,158.78L416.3,182.85L416.53,224.47L416.77,207.7L417.01,245.08L417.49,165.15L417.73,234.33L417.97,224.95L418.21,248.22L418.45,155.62L418.92,174.62L419.16,195.3L419.88,183.91L420.12,119.53L421.08,231.93L421.31,156.51L421.79,241.61L422.27,225.96L422.51,166.88L422.75,220.47L423.23,181.31L423.47,157.61L423.7,159.83L423.94,202.55L424.18,242.04L424.42,189.23L424.66,150.91L425.38,224.22L425.62,182.26L426.09,63.04L426.33,242.4L427.05,127.1L427.29,188.91L427.53,183.98L427.77,224.02L428.24,251.92L428.48,16.4L429.44,195.85L429.68,163.42L429.92,242.23L430.4,196.75L430.63,224.39L431.11,107.51L431.35,172.06L431.59,188.03L431.83,122.44L432.31,165.74L432.55,156.29L432.79,156.72L433.02,179.7L433.26,202.71L433.5,159.92L433.74,139.09L434.7,202.58L434.94,165.18L435.17,251.44L435.41,138.64L435.65,163.78L435.89,152.68L436.37,95.56L436.61,227.55L436.85,178.32L437.33,147.99L437.56,215.96L438.52,158.34L438.76,185.93L439,214.91L439.24,200.53L439.48,168.15L439.72,183.5L439.95,80.21L440.43,142.15L440.67,203.7L440.91,213.47L441.15,200.19L441.39,141.68L441.63,127.32L441.87,127.34L442.11,147.1L442.34,107.57L442.58,137.16L442.82,205.9L444.02,106.38L444.26,154.93L444.5,139.65L444.73,190.44L444.97,166.29L445.45,192.21L445.69,176.97L446.17,133.55L446.41,188.3L446.65,203.81L446.88,174.02L447.12,181.78L447.36,206.41L447.6,119.03L447.84,65.99L448.08,259.7L449.04,149.9L449.27,187.96L449.51,167.82L449.75,203.55L449.99,198.94L450.23,133.97L450.47,168.56L450.71,230.71L451.43,112.37L451.66,158.65L451.9,116.2L452.14,188.43L452.38,161.3L452.62,185.19L452.86,185.79L453.1,153.68L453.82,152.86L454.05,214.35L454.29,139.8L454.77,225.52L455.25,195.75L455.49,171.93L455.73,175.78L455.97,217.3L456.2,206.81L456.44,238.69L456.68,228.3L456.92,150.09L457.4,253.24L457.64,139.84L458.12,278.31L458.36,228.49L458.59,151.2L458.83,128.95L459.07,165.71L459.31,215.03L460.27,130.7L460.51,153.32L460.98,250.77L461.22,228.83L461.46,191.05L461.7,258.35L462.18,229.03L462.42,234.02L463.14,161.85L463.37,215.05L463.61,204.87L463.85,216.49L464.09,249.28L464.57,190.16L464.81,204.92L465.05,225.12L465.29,223.34L465.52,214.19L466,162.16L466.24,188.85L466.48,215.76L466.96,161.65L467.2,226.12L467.68,168.15L467.91,213.53L468.15,224.36L468.39,201.24L468.87,147.55L469.11,184.56L469.35,166L469.83,185.52L470.07,195.54L470.78,214.77L471.02,189.92L471.26,208.88L471.5,204.94L471.74,123.94L472.46,216.48L472.69,170.45L472.93,156.66L473.41,168.15L473.65,161.12L474.13,159.57L474.37,163.28L474.61,138.22L474.84,181.3L475.08,224.75L476.04,147.89L476.28,173.28L476.52,182.39L476.76,174.41L477,154.17L477.23,160.13L477.47,197.65L477.71,191.48L477.95,113.82L478.67,190.86L478.91,161.22L479.15,177.44L479.62,130.01L479.86,189.56L480.1,96.63L480.58,176.67L480.82,127.34L481.54,232.21L481.78,169.88L482.01,142.43L482.25,223.5L482.97,169.35L483.21,220.88L483.69,231.25L483.93,207.77L484.64,157.92L484.88,172.44L485.12,207.51L485.36,185.51L485.6,234.06L485.84,229.03L486.08,194.37L486.55,137.63L486.79,182.91L487.03,128.55L487.27,194.37L487.51,157.92L487.75,194.31L487.99,172.84L488.23,203.26L488.47,231.63L489.66,32.23L489.9,174.02L490.38,225.88L490.86,215.16L491.1,204.61L491.33,178.56L491.57,204.7L491.81,212.37L493.01,155.75L493.25,229.84L493.72,181.57L493.96,189.22L494.2,232.62L494.44,220.23L494.68,160.59L494.92,163.36L495.16,235.36L495.4,187.04L495.87,227.68L496.11,202L496.59,200.35L496.83,240.71L497.07,153.04L497.55,164.39L497.79,180.64L498.5,209.13L498.74,188.22L498.98,183.61L499.22,200.09L499.7,138.23L499.94,204.78L500.18,142.39L500.42,211.15L500.65,204.55L500.89,228.51L501.61,130.28L501.85,159.99L502.09,180.1L502.57,180.97L502.81,173.09L503.04,201.1L503.28,191.51L503.52,134.86L504.48,202.06L504.72,142.47L504.96,138.73L505.19,114.97L505.91,228.65L506.15,174.2L506.39,221.34L506.63,216.44L506.87,144.16L507.35,236.57L507.58,207.19L507.82,195.35L508.06,202.38L508.3,235.31L508.78,139.39L509.02,214.37L509.26,180.33L509.5,220.65L509.74,227.99L509.97,178.71L510.45,198.16L510.69,250.85L510.93,180.97L511.17,237.64L511.41,286.56L511.65,191.04L512.36,201.35L512.6,199.01L512.84,133.94L513.08,210.6L513.32,211.98L513.8,182.39L514.04,167.74L514.28,162.12L514.51,195.46L514.99,249.69L515.23,202.68L515.47,209.52L515.95,111.52L516.19,162.76L516.43,184.64L516.67,168.29L516.9,173.03L517.14,219.89L518.1,148.51L518.34,200.9L518.58,219.8L519.06,216.62L519.29,193.46L519.53,238.59L519.77,229.08L520.01,183.28L520.25,203.6L520.49,202.26L520.73,150.95L520.97,210.85L521.45,184.81L521.68,100.36L522.88,213.57L523.12,202.88L523.83,205.46L524.31,161.46L524.55,163.15L525.27,257.64L525.51,238.83L525.75,206.93L525.99,171.36L526.46,199.63L526.7,203.17L526.94,198.99L527.18,206.76L527.42,199.75L527.66,157.26L528.85,250.12L529.09,242.76L530.05,188.05L530.29,234.84L531.48,173.36L531.72,177.3L532.44,249.68L532.68,213.3L532.92,218.39L533.16,160.16L533.63,248.97L533.87,195.47L534.11,180.97L534.83,228.6L535.07,168.68L535.54,208.15L535.78,174.56L536.02,170.94L536.26,208.99L536.74,204.15L536.98,191.55L537.22,144.72L537.7,195.74L537.93,173.78L538.17,205.69L538.41,180.84L538.65,158.19L539.37,254.21L539.61,246.49L539.85,261.87L540.56,166.11L540.8,167.1L541.04,230.05L541.28,231.14L541.52,213.32L542,222.23L542.24,136.35L542.71,161.19L542.95,155.83L543.43,217.91L543.67,207.32L543.91,157.06L544.15,106.99L544.39,217.32L544.86,160.82L545.1,258.52L545.82,145.02L546.06,170.16L546.3,227.83L546.54,157.97L546.78,234.06L547.02,175.05L547.25,204.92L547.49,230.58L547.73,226.62L547.97,181.96L548.21,227.5L548.45,217.96L548.69,143.81L548.93,215.62L549.64,212.21L549.88,145.26L550.12,213.07L550.6,212.81L550.84,193.34L551.08,152.05L551.32,172.64L551.56,219.18L551.8,177.31L552.03,207.71L552.27,249.99L553.23,171.3L553.47,203.16L554.42,252.94L554.66,219.46L555.62,170.26L555.86,197.85L556.1,223L556.34,132.88L556.57,208.08L557.29,199.51L557.53,154.48L558.49,229.08L558.73,218.44L558.96,126.52L559.44,198.32L559.68,164.69L560.16,149.92L560.4,208.85L560.64,182.05L560.88,227.68L561.12,200.16L561.35,143.97L561.59,124.96L561.83,187.56L562.07,138.25L562.31,190.6L562.55,190.53L562.79,215.08L563.03,216.49L563.27,244.73L563.5,178.09L563.98,183.55L564.22,229.13L564.46,187.04L564.7,239.13L564.94,212.99L565.18,208.13L565.42,182.57L565.66,225.84L565.89,231.92L566.13,182.2L566.61,234.64L566.85,259.14L567.33,213.64L567.57,158.2L568.28,212.32L568.76,200.16L569,210.03L569.48,236.05L569.72,185.01L569.96,184.65L570.2,217.69L571.15,176.02L571.39,160.87L571.63,233.58L572.11,232.93L572.35,178.26L573.06,234.2L573.3,151.27L573.54,186.85L573.78,171.98L574.02,133.75L574.98,215.03L575.21,210.41L575.69,170.78L575.93,186.98L576.17,232.86L576.41,160.53L576.89,198.61L577.13,220.93L577.6,231.14L578.08,180.26L578.32,177.54L578.56,134.16L578.8,192.01L579.04,207.3L579.28,204.36L579.52,224.47L579.76,159.26L580.23,182.17L580.47,182.27L580.71,209.96L580.95,208.86L581.19,144.62L581.43,247.25L581.91,206.7L582.15,205.34L582.38,172.84L582.62,176.85L582.86,259.81L583.58,153.68L583.82,187.11L584.3,213.9L584.53,208.19L584.77,168.41L585.01,163.77L585.25,174.89L585.49,256.72L585.97,185.93L586.21,186.61L586.45,211.63L586.69,168.47L586.92,146.19L587.88,194.25L588.12,157.05L588.36,217.86L588.84,175.31L589.08,180.43L589.31,260.05L589.79,207.49L590.03,220.58L590.75,125.25L591.23,140.98L591.47,158.78L591.94,213.31L592.18,176.78L592.42,194.85L593.14,250.22L593.38,202.99L593.85,115.95L594.09,246.71L594.33,215.24L594.81,233.4L595.05,264.69L595.53,134.11L595.77,211.65L596.48,212.75L596.72,173.78L596.96,166.85L597.2,144.91L597.44,148.13L597.68,215.08L597.92,217.03L598.16,196.97L598.4,246.28L598.63,241.14L598.87,186.48L599.11,182.66L599.35,189.04L599.59,219.67L600.55,159.9L600.79,178.55L601.26,217.82L601.5,215.45L601.74,204.33L602.46,177.77L602.7,204.5L603.17,151.6L603.65,170.58L603.89,205.76L604.85,176.37L605.09,171.92L605.8,231.63L606.04,173.95L607,238.11L607.24,177.35L607.48,157.61L607.72,193.99L607.95,210.71L608.67,198.11L608.91,223.91L609.15,163.96L609.63,191.85L609.87,186.34L610.58,256.14L610.82,162.69L611.06,232.87L611.54,207.62L611.78,179.09L612.02,152.64L612.26,183.73L612.5,195.75L612.73,210.3L612.97,153.52L613.21,227.01L613.69,167.28L613.93,217.82L614.65,156.36L614.88,190.12L615.12,220.05L615.6,196.63L615.84,207.93L616.08,190.18L616.32,195.8L616.56,223.36L617.04,192.38L617.27,203.42L617.51,216.29L618.23,188.29L618.47,214.49L618.71,205.16L618.95,235.88L619.19,251.69L619.43,148.24L619.9,167.23L620.14,209.63L620.38,215.08L620.62,161.5L621.58,270.73L621.82,257.04L622.05,210.39L622.77,141.88L623.01,189.65L623.73,161.04L623.97,209.76L624.2,210.01L624.44,203.63L624.68,210.99L624.92,190.75L625.64,219.26L625.88,204.78L626.12,210.39L626.59,175.81L626.83,217.35L627.07,161.43L627.55,199.81L627.79,178.32L628.03,145.11L628.27,147.05L628.51,200.16L628.75,174.56L628.98,222.73L629.22,189.57L629.46,197.05L629.94,259.09L630.18,231.15L630.42,211.49L631.14,126.97L631.37,132.56L631.61,255.79L632.81,188.84L633.05,189.03L633.52,156.05L633.76,227.64L634,238.69L634.24,135.09L634.48,206.09L634.96,153.54L635.2,185.85L635.44,222.04L635.68,186.59L635.91,163.92L636.15,238.28L636.63,235.27L636.87,211.38L637.11,212.32L637.35,203.76L637.59,250.34L638.07,232.83L638.3,224.7L639.02,179.16L639.26,212.7L639.5,217.15L639.74,179.23L640.22,178.35L640.69,212.97L640.93,189.61L641.17,202.88L641.41,136.94L641.65,206.48L642.13,186.46L642.37,151.38L643.08,219.23L643.32,251.9L643.56,151.27L644.04,159.89L644.28,198.95L644.52,198.05L644.76,211.27L645.23,242.01L645.47,203.79L646.19,260.3L646.43,131.96L646.67,209.26L647.15,203.71L647.39,198.88L647.86,237.94L648.1,184.63L648.58,216.58L648.82,257L649.3,152.3L649.54,244.15L650.01,190.77L650.49,210.69L650.73,246.65L650.97,256.23L651.21,186.42L651.45,227.44L651.69,161.36L651.93,179.69L652.64,202.94L652.88,178.54L653.6,233.87L653.84,221.09L654.08,202.41L654.55,270.94L655.03,256.19L655.27,164.02L655.75,156.05L656.47,248.83L656.71,232.17L657.18,173.84L657.42,199.14L657.66,237.28L658.38,180.9L658.62,193.53L658.86,213.76L659.33,219.16L659.57,156.16L659.81,228.78L660.05,176.91L660.53,195.15L660.77,224.27L661.01,132.73L661.49,227.97L661.72,223.86L661.96,226.55L662.2,244.2L662.68,145.55L662.92,229.29L663.16,248.51L663.64,147.4L663.87,219.6L664.11,154.46L664.35,196.22L664.59,228.14L664.83,251.39L665.07,247.16L665.31,205.73L665.55,236.34L665.79,140.53L666.98,224.95L667.22,194.73L667.7,140.21L667.94,201.33L668.42,220.23L668.65,215.15L668.89,214.56L669.13,242.76L669.37,203.92L669.61,167.8L669.85,205.27L670.09,185.19L670.33,159.74L671.28,219.52L671.52,170.5L671.76,165.97L672,74.61" style="vector-effect: none; fill: none; stroke: rgb(99, 110, 250); stroke-opacity: 1; stroke-width: 2px; opacity: 1;"/></g><g class="points"/><g class="text"/></g></g></g></g><path class="xlines-above crisp" d="M0,0" style="fill: none;"/><path class="ylines-above crisp" d="M0,0" style="fill: none;"/><g class="overlines-above"/><g class="xaxislayer-above"><g class="xtick"><text text-anchor="middle" x="0" y="491" transform="translate(23,0)" style="font-family: 'Open Sans', verdana, arial, sans-serif; font-size: 12px; fill: rgb(42, 63, 95); fill-opacity: 1; white-space: pre; opacity: 1;">0</text></g><g class="xtick"><text text-anchor="middle" x="0" y="491" style="font-family: 'Open Sans', verdana, arial, sans-serif; font-size: 12px; fill: rgb(42, 63, 95); fill-opacity: 1; white-space: pre; opacity: 1;" transform="translate(142.49,0)">500</text></g><g class="xtick"><text text-anchor="middle" x="0" y="491" style="font-family: 'Open Sans', verdana, arial, sans-serif; font-size: 12px; fill: rgb(42, 63, 95); fill-opacity: 1; white-space: pre; opacity: 1;" transform="translate(261.98,0)">1000</text></g><g class="xtick"><text text-anchor="middle" x="0" y="491" style="font-family: 'Open Sans', verdana, arial, sans-serif; font-size: 12px; fill: rgb(42, 63, 95); fill-opacity: 1; white-space: pre; opacity: 1;" transform="translate(381.46,0)">1500</text></g><g class="xtick"><text text-anchor="middle" x="0" y="491" style="font-family: 'Open Sans', verdana, arial, sans-serif; font-size: 12px; fill: rgb(42, 63, 95); fill-opacity: 1; white-space: pre; opacity: 1;" transform="translate(500.95,0)">2000</text></g><g class="xtick"><text text-anchor="middle" x="0" y="491" style="font-family: 'Open Sans', verdana, arial, sans-serif; font-size: 12px; fill: rgb(42, 63, 95); fill-opacity: 1; white-space: pre; opacity: 1;" transform="translate(620.44,0)">2500</text></g></g><g class="yaxislayer-above"><g class="ytick"><text text-anchor="end" x="22" y="4.199999999999999" transform="translate(0,476.06)" style="font-family: 'Open Sans', verdana, arial, sans-serif; font-size: 12px; fill: rgb(42, 63, 95); fill-opacity: 1; white-space: pre; opacity: 1;">1</text></g><g class="ytick"><text text-anchor="end" x="22" y="4.199999999999999" style="font-family: 'Open Sans', verdana, arial, sans-serif; font-size: 12px; fill: rgb(42, 63, 95); fill-opacity: 1; white-space: pre; opacity: 1;" transform="translate(0,433.25)">1.5</text></g><g class="ytick"><text text-anchor="end" x="22" y="4.199999999999999" style="font-family: 'Open Sans', verdana, arial, sans-serif; font-size: 12px; fill: rgb(42, 63, 95); fill-opacity: 1; white-space: pre; opacity: 1;" transform="translate(0,390.45)">2</text></g><g class="ytick"><text text-anchor="end" x="22" y="4.199999999999999" style="font-family: 'Open Sans', verdana, arial, sans-serif; font-size: 12px; fill: rgb(42, 63, 95); fill-opacity: 1; white-space: pre; opacity: 1;" transform="translate(0,347.64)">2.5</text></g><g class="ytick"><text text-anchor="end" x="22" y="4.199999999999999" style="font-family: 'Open Sans', verdana, arial, sans-serif; font-size: 12px; fill: rgb(42, 63, 95); fill-opacity: 1; white-space: pre; opacity: 1;" transform="translate(0,304.83000000000004)">3</text></g><g class="ytick"><text text-anchor="end" x="22" y="4.199999999999999" style="font-family: 'Open Sans', verdana, arial, sans-serif; font-size: 12px; fill: rgb(42, 63, 95); fill-opacity: 1; white-space: pre; opacity: 1;" transform="translate(0,262.02)">3.5</text></g><g class="ytick"><text text-anchor="end" x="22" y="4.199999999999999" style="font-family: 'Open Sans', verdana, arial, sans-serif; font-size: 12px; fill: rgb(42, 63, 95); fill-opacity: 1; white-space: pre; opacity: 1;" transform="translate(0,219.20999999999998)">4</text></g><g class="ytick"><text text-anchor="end" x="22" y="4.199999999999999" style="font-family: 'Open Sans', verdana, arial, sans-serif; font-size: 12px; fill: rgb(42, 63, 95); fill-opacity: 1; white-space: pre; opacity: 1;" transform="translate(0,176.41)">4.5</text></g></g><g class="overaxes-above"/></g></g><g class="polarlayer"/><g class="smithlayer"/><g class="ternarylayer"/><g class="geolayer"/><g class="funnelarealayer"/><g class="pielayer"/><g class="iciclelayer"/><g class="treemaplayer"/><g class="sunburstlayer"/><g class="glimages"/><defs id="topdefs-606b1b"><g class="clips"/></defs><g class="layer-above"><g class="imagelayer"/><g class="shapelayer"><g class="shape-group" data-index="0" clip-path="url(#clip606b1by)"><path data-index="0" fill-rule="evenodd" d="M23,476.06L695,476.06" style="opacity: 0.8; stroke: rgb(128, 128, 128); stroke-opacity: 1; fill: rgb(0, 0, 0); fill-opacity: 0; stroke-dasharray: 3px, 3px; stroke-width: 2px;"/></g><g class="shape-group" data-index="1" clip-path="url(#clip606b1by)"><path data-index="1" fill-rule="evenodd" d="M23,390.45L695,390.45" style="opacity: 0.8; stroke: rgb(128, 128, 128); stroke-opacity: 1; fill: rgb(0, 0, 0); fill-opacity: 0; stroke-dasharray: 3px, 3px; stroke-width: 2px;"/></g><g class="shape-group" data-index="2" clip-path="url(#clip606b1by)"><path data-index="2" fill-rule="evenodd" d="M23,304.83000000000004L695,304.83000000000004" style="opacity: 0.8; stroke: rgb(128, 128, 128); stroke-opacity: 1; fill: rgb(0, 0, 0); fill-opacity: 0; stroke-dasharray: 3px, 3px; stroke-width: 2px;"/></g></g></g><g class="infolayer"><g class="g-gtitle"><text class="gtitle" x="35" y="75" text-anchor="start" dy="0em" style="opacity: 1; font-family: 'Open Sans', verdana, arial, sans-serif; font-size: 17px; fill: rgb(42, 63, 95); fill-opacity: 1; white-space: pre;">Speedup Zigrad/PyTorch</text></g><g class="g-xtitle"/><g class="g-ytitle"/><g class="annotation" data-index="0" style="opacity: 0.8;"><g class="annotation-text-g" transform="rotate(0,71,467.5)"><g class="cursor-pointer" transform="translate(23,457)"><rect class="bg" x="0.5" y="0.5" width="95" height="20" style="stroke-width: 1px; stroke: rgb(0, 0, 0); stroke-opacity: 0; fill: rgb(0, 0, 0); fill-opacity: 0;"/><text class="annotation-text" text-anchor="middle" x="48.140625" y="15" style="font-family: 'Open Sans', verdana, arial, sans-serif; font-size: 12px; fill: rgb(0, 0, 0); fill-opacity: 1; white-space: pre;">No Speedup (1x)</text></g></g></g><g class="annotation" data-index="1" style="opacity: 0.8;"><g class="annotation-text-g" transform="rotate(0,58,381.88)"><g class="cursor-pointer" transform="translate(23,371)"><rect class="bg" x="0.5" y="0.5" width="69" height="20" style="stroke-width: 1px; stroke: rgb(0, 0, 0); stroke-opacity: 0; fill: rgb(0, 0, 0); fill-opacity: 0;"/><text class="annotation-text" text-anchor="middle" x="34.875" y="15" style="font-family: 'Open Sans', verdana, arial, sans-serif; font-size: 12px; fill: rgb(0, 0, 0); fill-opacity: 1; white-space: pre;">2x Speedup</text></g></g></g><g class="annotation" data-index="2" style="opacity: 0.8;"><g class="annotation-text-g" transform="rotate(0,58,296.27)"><g class="cursor-pointer" transform="translate(23,286)"><rect class="bg" x="0.5" y="0.5" width="69" height="20" style="stroke-width: 1px; stroke: rgb(0, 0, 0); stroke-opacity: 0; fill: rgb(0, 0, 0); fill-opacity: 0;"/><text class="annotation-text" text-anchor="middle" x="34.875" y="15" style="font-family: 'Open Sans', verdana, arial, sans-serif; font-size: 12px; fill: rgb(0, 0, 0); fill-opacity: 1; white-space: pre;">3x Speedup</text></g></g></g></g></svg>