<svg class="main-svg" xmlns="http://www.w3.org/2000/svg" xmlns:xlink="http://www.w3.org/1999/xlink" style="" viewBox="0 0 700 500"><rect x="0" y="0" width="700" height="500" style="fill: rgb(17, 17, 17); fill-opacity: 1;"/><defs id="defs-8c8526"><g class="clips"><clipPath id="clip8c8526xyplot" class="plotclip"><rect width="672" height="328"/></clipPath><clipPath class="axesclip" id="clip8c8526x"><rect x="23" y="0" width="672" height="500"/></clipPath><clipPath class="axesclip" id="clip8c8526y"><rect x="0" y="150" width="700" height="328"/></clipPath><clipPath class="axesclip" id="clip8c8526xy"><rect x="23" y="150" width="672" height="328"/></clipPath></g><g class="gradients"/><g class="patterns"/></defs><g class="bglayer"/><g class="layer-below"><g class="imagelayer"/><g class="shapelayer"/></g><g class="cartesianlayer"><g class="subplot xy"><g class="layer-subplot"><g class="shapelayer"/><g class="imagelayer"/></g><g class="minor-gridlayer"><g class="x"/><g class="y"/></g><g class="gridlayer"><g class="x"><path class="xgrid crisp" transform="translate(142.49,0)" d="M0,150v328" style="stroke: rgb(40, 52, 66); stroke-opacity: 1; stroke-width: 1px;"/><path class="xgrid crisp" transform="translate(261.98,0)" d="M0,150v328" style="stroke: rgb(40, 52, 66); stroke-opacity: 1; stroke-width: 1px;"/><path class="xgrid crisp" transform="translate(381.46,0)" d="M0,150v328" style="stroke: rgb(40, 52, 66); stroke-opacity: 1; stroke-width: 1px;"/><path class="xgrid crisp" transform="translate(500.95,0)" d="M0,150v328" style="stroke: rgb(40, 52, 66); stroke-opacity: 1; stroke-width: 1px;"/><path class="xgrid crisp" transform="translate(620.44,0)" d="M0,150v328" style="stroke: rgb(40, 52, 66); stroke-opacity: 1; stroke-width: 1px;"/></g><g class="y"><path class="ygrid crisp" transform="translate(0,476.34)" d="M23,0h672" style="stroke: rgb(40, 52, 66); stroke-opacity: 1; stroke-width: 1px;"/><path class="ygrid crisp" transform="translate(0,432.12)" d="M23,0h672" style="stroke: rgb(40, 52, 66); stroke-opacity: 1; stroke-width: 1px;"/><path class="ygrid crisp" transform="translate(0,387.9)" d="M23,0h672" style="stroke: rgb(40, 52, 66); stroke-opacity: 1; stroke-width: 1px;"/><path class="ygrid crisp" transform="translate(0,343.66999999999996)" d="M23,0h672" style="stroke: rgb(40, 52, 66); stroke-opacity: 1; stroke-width: 1px;"/><path class="ygrid crisp" transform="translate(0,299.45)" d="M23,0h672" style="stroke: rgb(40, 52, 66); stroke-opacity: 1; stroke-width: 1px;"/><path class="ygrid crisp" transform="translate(0,255.22)" d="M23,0h672" style="stroke: rgb(40, 52, 66); stroke-opacity: 1; stroke-width: 1px;"/><path class="ygrid crisp" transform="translate(0,211)" d="M23,0h672" style="stroke: rgb(40, 52, 66); stroke-opacity: 1; stroke-width: 1px;"/><path class="ygrid crisp" transform="translate(0,166.77)" d="M23,0h672" style="stroke: rgb(40, 52, 66); stroke-opacity: 1; stroke-width: 1px;"/></g></g><g class="zerolinelayer"><path class="xzl zl crisp" transform="translate(23,0)" d="M0,150v328" style="stroke: rgb(40, 52, 66); stroke-opacity: 1; stroke-width: 2px;"/></g><g class="layer-between"><g class="shapelayer"/><g class="imagelayer"/></g><path class="xlines-below"/><path class="ylines-below"/><g class="overlines-below"/><g class="xaxislayer-below"/><g class="yaxislayer-below"/><g class="overaxes-below"/><g class="overplot"><g class="xy" transform="translate(23,150)" clip-path="url(#clip8c8526xyplot)"><g class="scatterlayer mlayer"><g class="trace scatter trace43f132" style="stroke-miterlimit: 2; opacity: 1;"><g class="fills"/><g class="errorbars"/><g class="lines"><path class="js-line" d="M0,185.22L0.24,193.65L0.48,25.32L1.67,214.22L1.91,190.18L2.15,187.44L3.11,123.09L3.35,156.2L3.58,164.37L3.82,153.3L4.06,194.78L4.3,225.75L4.54,191.02L4.78,173.39L5.02,174.86L5.26,182.03L5.5,192.46L5.74,136.02L5.97,213.78L6.45,182.17L6.69,158.99L7.17,193.95L7.41,190.98L7.65,169.69L7.89,226.7L8.13,193.35L8.36,141.42L9.32,233.65L9.56,213.93L9.8,218.76L10.04,179.16L10.51,184.13L10.75,217.41L10.99,231.57L11.23,197.77L11.47,142.43L11.95,168.07L12.19,188.7L12.67,147.93L12.9,198.68L13.14,202.3L13.38,223.21L13.62,196.75L14.1,201.7L14.34,244.97L14.58,265.52L14.82,188.63L15.77,226.1L16.01,175.82L16.73,234.15L16.97,224.5L17.21,208.53L18.16,254.69L18.4,229.2L18.64,218.53L18.88,152.33L19.36,223.16L19.6,184.99L19.83,183.13L20.07,203.06L20.31,181.03L20.55,151.3L21.03,246.86L21.27,202.87L21.51,181.58L21.75,37.41L22.22,156.76L22.46,188.37L22.7,165.48L23.18,184.74L23.42,231.07L23.9,272.02L24.38,175.07L24.61,198.43L24.85,180.3L25.09,242.95L25.57,144.49L25.81,208.09L26.05,226.87L26.29,241.73L26.53,210.62L26.77,181.98L27,225.38L27.48,189.75L27.72,177.28L27.96,168L28.2,201.3L28.44,172.59L28.68,203.86L28.92,209.61L29.39,175.83L29.63,214.83L30.11,187.57L30.35,203.87L30.59,171.41L30.83,189.55L31.07,229.43L32.02,190.35L32.26,213.7L32.5,214.31L32.74,206.21L32.98,160.82L33.46,209.31L33.7,234.66L34.65,148.49L34.89,193.76L35.13,154.97L35.61,179.3L35.85,241.27L36.56,200.09L36.8,229.75L37.76,182.75L38,179.25L38.48,232.48L38.71,224.61L38.95,182.39L39.19,198.59L39.67,181.1L39.91,187.23L40.39,186.7L40.63,212.73L40.86,168L41.1,159.2L41.34,207.65L42.06,165.59L42.3,184.46L42.54,184.12L42.78,226.15L43.25,179.32L43.49,113.5L44.21,203.41L44.45,190.09L44.69,141.97L45.17,199.46L45.64,177.83L45.88,169.32L46.12,171.61L46.36,227.12L47.32,158.69L47.56,185.68L48.27,142.33L48.51,155.04L48.75,203.79L48.99,186.55L49.23,234.08L49.47,184.92L49.95,196.94L50.18,199.58L50.9,163.52L51.14,202.87L51.38,168.74L51.62,210.5L51.86,182.26L52.1,193.05L52.57,150.78L52.81,168.49L53.05,179.63L53.29,175.82L53.53,226.87L54.49,138.75L54.73,163.44L54.96,179.13L55.2,174.99L55.44,210.04L55.92,177.86L56.16,195.26L56.4,211.12L57.12,111.48L57.35,161.59L57.59,164.9L57.83,161.36L58.07,163.44L58.31,179.87L58.55,173.65L58.79,214.74L59.03,216.06L59.27,180.97L59.5,193.46L59.74,147.48L60.7,203.06L60.94,199.26L61.18,156.45L61.66,163.51L61.89,192.48L62.13,192.73L62.37,199.02L63.57,249.57L63.81,160.74L64.52,216.61L64.76,129.17L65.72,231.46L65.96,202.68L66.2,159.64L66.44,233.26L66.67,172.98L66.91,206.46L67.39,135.1L67.63,185.08L67.87,186.29L68.11,152.9L68.59,177.2L68.83,192.93L69.06,194.56L69.3,179.92L70.02,155.62L70.26,198.37L70.5,149.67L70.74,161.47L70.98,205.21L71.21,234.92L71.69,211.01L71.93,160.51L72.17,132.29L72.41,165.4L72.65,162.12L72.89,144.85L73.84,251.11L74.08,206.45L75.04,126.6L75.28,202.95L75.52,167.55L75.76,167.64L75.99,224.42L76.71,112.34L76.95,210.04L77.43,138.29L77.67,173.27L77.91,195.35L78.15,223.98L78.38,174.72L78.62,180.63L78.86,179.79L79.1,154.25L80.06,205.02L80.3,204.85L80.53,233.1L81.01,201.26L81.25,164.9L81.97,205.07L82.45,197.76L82.69,169.5L82.92,166.79L83.16,201.8L84.12,145.02L84.36,223.59L84.6,222.16L84.84,186.43L85.08,209.25L85.31,158.77L85.55,187.62L86.03,176.3L86.27,119L86.51,132.56L86.75,213.27L87.47,145.89L87.7,146.88L87.94,168.49L88.9,214.68L89.14,179.04L89.38,215.57L89.85,173.31L90.09,177.03L90.33,196.06L90.57,183.33L90.81,145.28L91.29,160.78L91.53,224.44L92.24,197.72L92.48,125.65L93.44,180.49L93.68,207.83L94.16,256.01L94.4,191.58L94.63,184.06L94.87,187.92L95.11,208.71L95.83,122.38L96.07,174.59L97.26,214.58L97.5,286.48L97.98,159.39L98.22,199.84L98.46,185.57L98.7,189.06L98.94,173.47L99.17,173.78L99.41,154.71L99.65,156.2L99.89,230.44L100.85,125.55L101.09,163.9L101.33,202.18L101.8,158.6L102.04,188.63L102.52,203.92L102.76,122.44L103,140.85L103.24,153.23L103.48,207.75L103.95,188.88L104.19,188.9L104.67,127.87L105.15,150.28L105.39,122.1L105.63,117.16L105.87,126.21L106.11,200.06L107.06,138.7L107.3,149.14L107.54,206.79L107.78,205.96L108.02,179.91L108.26,118.6L108.5,142.08L108.73,192.51L108.97,188.29L109.21,196.77L109.45,159.37L109.69,142.81L109.93,207.77L110.41,218.77L110.65,129.78L110.88,141.29L111.12,132.58L111.6,132.53L112.08,189.34L112.32,209.65L112.56,221.24L112.8,163.36L113.27,186.29L113.51,132.41L113.75,190.62L114.23,160.81L114.47,173.13L114.71,167.04L114.95,187.74L115.19,185.5L115.43,163.46L116.14,193.63L116.38,284.45L116.86,205.36L117.1,213.77L117.34,242.59L118.29,156.44L118.53,197.11L118.77,168.14L119.01,184.33L119.25,206.28L120.2,234.9L120.44,184.73L120.68,175.21L120.92,217.24L121.4,161.91L121.88,187.5L122.12,235L122.59,228.5L122.83,205.78L123.55,169.41L123.79,181.29L124.27,171.12L124.75,216.86L124.98,175.69L125.46,192.02L125.7,144.02L125.94,211.85L126.66,167.64L126.9,225.68L127.61,158.31L127.85,164.55L128.09,183.02L128.33,204.81L128.57,152.54L129.52,227.03L129.76,177.74L130,161.34L130.24,199.08L130.48,184.19L130.72,185.8L130.96,212.72L131.2,166.42L131.68,198.4L131.91,227.03L132.39,129.94L132.87,159.5L133.11,194.23L133.35,210.1L133.83,192.52L134.07,188.7L134.3,192.79L134.54,175.61L135.02,189.29L135.26,174.95L135.5,217.17L135.74,224.55L135.98,201.6L136.22,153.53L136.69,209.44L136.93,198.11L137.17,190.14L137.41,213.55L137.89,221.77L138.13,244.03L139.8,173.74L140.04,183.85L140.28,217.17L140.76,193.83L141,170.18L141.23,213.06L141.71,196.92L141.95,174.37L142.19,220.77L142.67,197.2L142.91,198.65L143.15,194.14L143.39,155.12L144.34,203.04L144.58,213.98L144.82,237.69L145.3,212.3L145.54,192.78L145.78,185.26L146.01,207.56L146.25,201.59L146.49,175.41L146.73,120.39L146.97,182.93L147.21,194.05L147.45,205.54L147.69,174.34L147.93,237.63L148.4,174.07L148.64,174.82L148.88,212.38L149.36,191.81L149.6,198.13L149.84,174.3L150.08,197.07L150.32,206.58L150.79,210.13L151.03,173.18L151.27,179.47L151.51,146.71L151.75,216.64L152.23,167.92L152.47,177.3L152.71,197.73L153.18,189.5L153.42,179.95L154.14,244.29L154.38,210.59L154.86,176.24L155.1,193.12L155.33,210.47L155.57,216.75L155.81,189.66L156.05,197.88L156.29,235.49L156.53,230.98L156.77,157.86L157.25,221.54L157.72,221.26L157.96,209.28L158.2,229.21L158.44,225.86L158.68,172.26L158.92,197.83L159.4,190.59L159.64,184.66L159.87,181.92L160.11,192.41L160.35,187.49L160.59,201.91L160.83,215.37L161.07,197.89L161.31,197.33L161.55,170.67L161.79,196.99L162.03,202.39L162.26,220.99L162.5,118.84L163.22,211.18L163.46,169.68L163.7,159.34L163.94,185.86L164.65,181.71L164.89,182.01L165.13,176.05L165.37,227.13L166.09,169.32L166.33,199.88L166.57,196.84L166.81,175.47L167.52,221.09L167.76,216.36L168,229.11L168.48,162.39L168.72,214.02L168.96,224.59L169.19,188.04L169.67,190.37L169.91,200.16L170.15,229.27L170.63,226.96L170.87,212.86L171.11,159.51L171.58,201.9L171.82,182.49L172.06,181.16L172.3,203.95L172.54,245.36L172.78,145.53L173.02,175.62L173.26,169.69L173.5,76.25L174.45,218.38L174.69,218.41L175.41,171.84L175.65,205.54L176.13,209.88L176.36,195.02L176.6,161.67L176.84,160.31L177.08,169.67L177.32,214.78L177.8,171.83L178.04,178.45L178.99,197.39L179.23,165.51L179.71,225.96L180.19,214.45L180.43,170.36L180.67,177.37L180.9,207.88L181.38,167.35L181.62,187.49L181.86,191.07L182.1,212.51L182.34,212.44L182.58,156.34L182.82,193.44L183.29,158.38L183.53,173.34L183.77,150.99L184.01,185.62L184.25,197.42L184.49,198.75L184.73,228.18L185.45,177.72L185.68,178.73L185.92,184.33L187.12,228.42L187.36,219.29L188.55,105.11L188.79,167.21L189.75,252.26L189.99,187.14L190.22,208L190.7,203.39L190.94,147.47L191.9,230.14L192.14,208.69L192.38,139.14L192.61,193.31L193.09,172.26L193.33,165.29L193.57,140.3L193.81,169.9L194.05,165.51L194.29,181.38L194.53,222.07L194.77,164.91L195,163.28L195.24,202.52L195.48,180.28L195.72,149.49L196.68,229.65L196.92,158.99L198.11,217.49L198.35,191.36L198.59,155.12L199.07,183.53L199.31,198.89L199.54,185.41L199.78,195.93L200.02,235.43L200.74,172.55L200.98,200.63L201.22,221.37L202.17,168.42L202.41,170.26L203.37,213.52L203.61,164.77L203.85,168.21L204.09,205.67L204.32,173.53L204.56,212.46L204.8,237.75L205.28,246.96L205.76,153.22L206,215L206.24,134.63L206.71,218.4L206.95,210.29L207.19,147.02L207.67,207.58L207.91,209.53L208.15,229.58L208.39,180.63L208.63,200.45L209.1,181.23L209.34,185.4L209.58,188.24L209.82,230.77L210.06,234.65L210.3,174.24L210.54,199.67L210.78,157.95L211.02,191.43L211.25,194.05L211.49,189.09L211.73,221.25L211.97,186.59L212.45,219.39L212.69,227.88L212.93,155.07L213.41,163.21L213.64,211.56L213.88,162.7L214.36,192.21L214.6,177.77L215.08,245.64L215.32,201.75L215.56,183.53L216.03,202.58L216.27,167.71L216.75,221.16L216.99,203.89L217.23,184.2L217.71,214.9L218.18,204.19L218.42,264.42L219.38,163.13L219.62,181.94L220.1,215.06L220.34,202.23L220.57,164.04L220.81,139.65L221.05,188.78L221.29,219.82L222.01,166.65L222.25,179.25L222.49,217.9L222.73,151.99L222.96,182.41L223.2,141.49L223.44,158.46L223.68,16.4L223.92,270.92L224.4,120.24L224.64,183.12L224.88,81.58L225.35,138.63L225.59,148.66L225.83,154.18L226.07,136.3L226.79,155.04L227.03,147.05L227.27,196.51L227.5,144.2L227.98,173.42L228.22,188.87L228.94,139.73L229.18,179.81L229.42,171.49L229.66,173.57L229.89,185.11L230.13,110.57L230.61,136.65L230.85,139.13L231.09,188.43L231.57,156.18L231.81,134.95L232.05,132.66L232.28,218.99L232.52,214.35L232.76,182.09L233,136.8L233.24,191.03L233.48,197.18L233.96,126.07L234.2,167.23L234.44,179.07L234.67,207.43L234.91,191.61L235.15,171.1L235.39,198.21L235.63,138.64L235.87,206.89L236.59,198.85L236.83,181.44L237.06,176.52L237.3,150.76L238.26,194.57L238.5,201.4L238.74,176.52L238.98,202.63L239.21,178.18L239.45,195.13L239.69,212.8L240.17,200.28L240.41,180.3L240.89,196.71L241.13,130.01L241.37,158.95L241.6,116.86L241.84,119.97L242.08,206.57L242.56,139.22L242.8,89.3L243.99,186.83L244.23,158.38L244.47,170.95L244.71,144.18L244.95,207.63L245.43,139.65L245.67,181.18L246.15,146.8L246.38,262.34L247.34,165.29L247.58,192.39L247.82,181.21L248.06,114.31L248.53,215.06L248.77,142.1L249.01,125.56L249.97,192.87L250.21,152.34L250.92,190.81L251.16,171.76L251.4,208.35L251.64,151.5L251.88,168.53L252.12,190.07L252.36,173.25L252.6,199.51L252.84,174.13L253.08,198.38L253.31,169.87L253.55,207.64L253.79,196.25L254.03,177.42L254.27,182.53L254.51,171.76L254.75,174.27L254.99,176.52L255.23,190.42L255.7,177.77L255.94,187.53L256.18,224.31L256.9,154.62L257.14,187L257.38,211.01L257.62,185.4L257.85,199.78L258.09,185.43L258.33,190.96L258.57,169.76L258.81,202.46L259.29,170.38L259.53,195.18L260.48,147.44L260.96,157.59L261.2,215.96L261.68,184.86L261.92,209.8L262.16,202.95L262.63,175.79L262.87,182.05L263.11,196.46L263.35,207.46L263.59,168.4L263.83,209.18L264.31,197.06L264.55,185.57L265.02,234.36L265.5,214.39L265.74,210.45L265.98,276.8L266.22,158.08L266.46,186.06L266.94,129.75L267.17,205.91L267.65,130.02L267.89,276.6L268.85,149.4L269.09,182.28L269.33,181.38L269.56,255.13L269.8,133.56L270.04,160.77L270.76,119.95L271,147.55L271.48,145.17L271.95,195.33L272.19,188.5L272.67,146.23L272.91,157.55L273.15,168.74L273.39,170.66L273.63,152.81L273.87,127.47L274.11,155.13L274.34,203.28L274.58,190.2L274.82,122.22L275.06,185.91L275.54,127.5L275.78,164.41L276.26,184.29L276.5,109.69L276.97,132.23L277.21,167.61L277.45,210.9L277.93,186.14L278.17,152.21L278.41,174.07L278.65,145.25L278.88,160.25L279.12,153.61L280.08,170.4L280.32,155.44L280.56,165.88L280.8,146.2L281.04,126.9L281.51,192.68L281.75,114.22L282.71,193.12L282.95,224.52L283.9,130.87L284.14,184.78L284.38,184.4L284.62,189.8L284.86,157.15L285.1,188.94L285.34,203.8L286.05,186.05L286.29,186.78L286.53,182.09L286.77,191.75L287.01,184.74L287.25,164.75L288.2,184.78L288.44,155.41L288.68,222.77L289.16,187.66L289.4,202.92L289.88,180.3L290.12,184.86L290.36,200.67L290.59,194.63L290.83,219.62L291.31,171.55L291.55,190.81L291.79,193L292.03,205.14L292.51,196.94L292.75,201.1L292.98,173.2L293.22,227.77L293.46,180.84L293.7,179.09L293.94,221.56L294.42,180.15L294.66,191.15L295.14,198L295.37,164.44L295.61,182.16L295.85,196.76L296.33,196.24L296.57,172.83L296.81,212.14L297.05,176.91L297.29,166.85L297.76,211.07L298.24,196.44L298.48,205.5L298.72,197.84L298.96,155.68L299.44,233.5L299.68,161.74L299.91,150.16L300.15,139.3L300.39,185.36L300.87,212.86L301.11,187.99L301.35,156.28L301.59,205.2L302.07,195.86L302.3,182.08L302.54,181.98L302.78,91.42L303.02,186.56L303.74,176.38L303.98,183.09L304.22,179.04L304.46,211.29L305.89,183.85L306.13,207.53L306.37,214.06L306.61,177.34L306.84,160.89L307.08,168.61L307.32,181.92L307.56,167.02L307.8,181.85L308.04,184.66L308.28,187.14L308.52,202.87L308.76,142.44L309.23,203.86L309.47,184.46L309.95,195.3L310.19,143.16L310.43,205.96L310.91,179.97L311.15,194.31L311.39,197.14L311.62,143.71L312.58,214.56L312.82,205.01L313.06,134.22L313.54,203.07L313.78,178.75L314.01,208.72L314.49,204.92L314.73,174.51L314.97,174.89L315.21,239.79L315.69,170.96L316.17,191.29L316.4,190.83L316.64,139.81L316.88,196.11L317.12,192.69L317.36,188.11L317.84,155.34L318.08,170.18L318.32,178.98L318.55,187.54L318.79,181.76L319.03,147.8L320.47,197.36L320.71,181.9L320.94,166.51L321.18,199.09L321.42,210.9L321.66,213.33L321.9,183.26L322.38,201.97L322.62,183.16L322.86,186.17L323.1,153.46L323.57,187.72L323.81,184.21L324.29,219.96L324.53,201.99L324.77,180.17L325.01,219.53L325.49,202.58L325.72,196.13L325.96,204.39L326.2,179.3L326.92,219.78L327.16,172.26L328.59,226.15L328.83,193.71L329.07,218.85L329.31,187.82L329.55,198.97L329.79,213.08L330.03,207.26L330.26,174.03L330.5,221.68L330.98,198.38L331.22,177.83L331.7,216.54L331.94,187.06L332.18,197.2L332.42,209.13L332.65,142.54L332.89,219.58L333.37,214.57L333.61,183.85L333.85,200.05L334.09,183.55L334.33,142.18L335.28,216.35L335.52,188.9L336,203.82L336.24,193.61L336.48,176.52L336.96,170.74L337.19,209.18L337.43,167.57L337.67,221.32L337.91,161.33L338.15,201.3L338.39,154.69L338.87,218.81L339.11,190.7L339.35,187.25L339.58,156.65L340.06,188.94L340.3,194.43L340.54,223.12L340.78,185.55L341.02,183.45L341.26,182.88L341.5,163.72L341.74,138.86L341.97,189.55L342.21,185.01L342.45,207.55L342.69,163.13L342.93,189.08L343.17,188.81L343.41,162.21L343.89,162.42L344.13,167.85L344.84,182.3L345.08,155.87L345.8,190.2L346.04,169.32L346.51,196.74L346.75,185.58L346.99,183.11L347.23,180.23L347.47,182.43L347.71,162.86L348.19,214.56L348.43,196.3L348.67,167.85L348.9,171.98L349.14,161.54L349.62,191.03L349.86,187.84L350.1,168.74L350.34,173.37L350.58,215.17L351.29,138.46L351.53,174.57L351.77,207.76L352.25,182.15L352.49,168.39L352.73,181.02L352.97,163.56L353.21,154.22L353.68,230.75L353.92,191.08L354.16,151.27L354.4,227.9L354.88,168.32L355.12,206.18L355.36,207.23L355.6,229.73L356.07,233.47L356.55,184.65L356.79,210.25L357.27,184.53L357.51,205.67L358.22,176.02L358.46,194.7L358.7,173.54L358.94,200.94L359.18,181.64L359.42,190.11L359.66,188.1L359.9,233.15L360.85,165.81L361.09,193.27L361.33,190.08L361.57,202.58L361.81,211.23L362.05,194.74L362.29,174.78L362.53,225.95L362.77,163.13L363,190.63L363.24,207.41L363.72,197.86L363.96,178.01L364.2,181.66L364.44,176.18L364.68,210.38L364.92,204.69L365.39,209.85L365.63,186.14L365.87,160.31L366.11,199.89L366.35,186.65L366.59,184.27L366.83,187.61L367.07,184.33L367.31,181.87L367.54,223.61L367.78,180.75L368.02,182.28L368.26,177.57L368.74,165.48L368.98,212.02L369.22,125.32L369.46,200.63L369.93,198L370.17,171.83L370.41,218.12L370.65,169.93L370.89,180.83L371.13,191.43L371.37,199.02L371.61,176.05L371.85,207.98L372.32,173.54L372.56,188.49L372.8,194.32L373.04,192.97L373.28,182.96L373.52,207.87L373.76,179.23L374,163.28L374.95,187.73L375.19,183.17L375.43,170.55L375.67,185.67L375.91,201.85L376.15,182.11L376.39,222.33L376.63,195.28L376.86,212.32L377.1,212.08L377.34,179.79L377.58,180.82L377.82,176.45L378.06,161.47L378.3,229.26L379.25,160.32L379.49,181.04L379.73,197.88L379.97,167.85L380.21,182.24L380.45,146.41L381.41,197.36L381.64,195.49L381.88,156.96L382.12,171.84L382.36,212.91L382.6,216.94L382.84,158.09L383.56,202.34L383.8,182.78L384.03,198.42L384.27,213.52L384.51,181.12L385.47,211.21L385.71,164.13L386.18,216L386.42,157.44L386.66,211.76L387.14,184.4L387.38,185.55L387.62,157.84L388.1,165.17L388.34,173.27L389.05,206.03L389.29,204.89L389.53,190.75L389.77,206.75L390.25,191.07L390.49,129.72L390.96,200.34L391.2,181.62L391.44,168.99L391.92,209.13L392.4,203.28L392.64,138.38L392.88,210.38L393.35,190.05L393.59,150.99L393.83,191.02L394.31,179.59L394.55,173.68L394.79,174.58L395.03,141.55L395.74,211.23L395.98,179.51L396.7,202.03L396.94,146.12L397.42,197.51L397.89,183.63L398.13,182.2L398.61,196.49L398.85,162.3L399.09,202.22L399.57,195.91L399.81,195.86L400.05,180.43L400.52,191.94L400.76,211.11L401.48,153.45L401.72,183.61L401.96,171.92L402.67,213.01L402.91,176.51L403.15,147.61L403.39,184.87L403.63,175.84L403.87,194.19L404.59,152.83L404.83,154.45L405.06,156.53L405.54,172.55L405.78,137.36L406.26,193.4L406.74,169.22L406.98,183.84L407.21,130.74L407.69,165.48L407.93,152.02L408.17,147.21L408.41,192.73L409.37,136.07L409.6,208.12L410.08,132.39L410.32,198.59L410.56,183.45L410.8,195.8L411.04,201.22L411.28,167.35L411.99,169.36L412.23,205.91L412.71,126.16L412.95,217.45L413.19,210.47L413.43,174.2L413.67,175.56L413.91,159.07L414.15,165.12L414.38,194.83L415.34,151.92L415.58,193.4L415.82,197.14L416.06,168.14L416.3,170.62L416.53,189.44L416.77,193.82L417.01,163.36L417.25,162.82L417.49,184.66L417.97,145.17L418.21,188.56L418.69,199.95L418.92,168.56L419.16,166.96L419.4,194.18L420.6,150.16L420.84,206.87L421.08,156.78L421.55,160.35L421.79,196.05L422.75,165.41L422.99,195.73L423.47,177.88L423.7,200.97L424.66,143.08L424.9,175.8L425.38,197.81L425.62,180.56L425.85,149L426.09,157.39L426.33,204.87L426.57,150.34L427.05,201.3L427.29,185.62L427.77,184.25L428.01,212.83L428.24,160.78L428.72,144.6L428.96,199.58L429.2,174.15L429.44,207.92L429.68,168L429.92,148.89L430.4,216.18L430.63,186.08L430.87,141.07L431.83,193.1L432.07,161.72L432.31,141.14L432.55,172.89L432.79,209.58L433.5,138.56L433.74,198.42L433.98,197.16L434.22,181.62L434.46,150.04L434.7,192.65L434.94,164.75L435.17,215.24L436.61,155L436.85,205.84L437.09,151.54L437.56,164.85L437.8,200.46L438.28,206.85L438.52,178.96L438.76,190.04L439,206.35L439.24,196.88L439.48,163.28L440.19,192.74L440.43,110.67L440.67,212.8L441.15,186.71L441.39,196.18L441.63,174.06L441.87,211.03L442.11,193.72L442.34,185.28L442.58,173.1L443.06,181.85L443.3,195.43L443.54,168.64L444.02,183.66L444.26,198.15L444.5,152.65L444.97,181.7L445.21,183.46L445.69,202.4L445.93,171.48L446.17,233.9L446.65,214.79L446.88,198.26L447.12,207.35L447.36,155.02L447.6,209.7L447.84,42.73L448.08,271.45L448.56,206.29L448.8,173.52L449.27,159.87L449.51,196.88L449.75,137.46L449.99,197.48L450.71,193.18L450.95,208.15L452.14,150.55L452.38,161.91L453.34,221.87L453.58,158.39L453.82,167.56L454.05,270.89L455.01,105.71L455.25,116.86L455.49,166.51L455.97,154.8L456.2,98.85L456.92,176.74L457.16,160.48L457.4,198.46L457.88,128.39L458.36,158.54L458.59,139.47L458.83,133.01L459.07,161.95L459.79,135.84L460.03,102.16L460.75,187.14L460.98,149.41L461.22,141.78L461.7,127.68L462.18,198.53L462.42,204.13L463.14,107.5L463.37,151.96L463.61,174.49L463.85,279.52L464.33,206.64L464.57,208.95L464.81,223.91L465.05,178.13L465.52,216.82L465.76,188.24L466,174.02L466.48,159.36L466.72,182.08L467.2,229.78L467.44,140.65L468.63,214.68L468.87,190.98L469.11,209.45L469.35,153.45L470.3,218.22L470.54,183L471.02,167.71L471.26,231.31L471.5,229.5L471.74,153.21L472.22,211.37L472.93,210.29L473.17,129.04L473.41,221.15L473.89,190.96L474.13,170.01L474.37,204.84L474.84,175.36L475.08,195.61L475.32,203.7L475.56,154.56L475.8,158.69L476.04,185.84L476.28,197.9L476.52,175.6L476.76,186.87L477,172.12L477.71,194.2L477.95,186.76L478.19,186.82L478.43,178.03L478.67,209.35L478.91,127.42L479.15,216.62L479.39,239.83L479.62,301.97L479.86,255.06L480.1,163.36L480.58,131.85L480.82,158.3L481.06,202.52L482.01,164.08L482.25,195.53L482.97,123.37L483.21,168.64L483.45,170.58L483.69,129.38L484.4,165.56L484.64,133.74L485.12,171.94L485.6,168.65L485.84,159.28L486.32,151.16L486.55,171.26L486.79,190.09L487.03,145.36L487.99,195.55L488.23,173.34L488.47,175.02L488.71,124.72L489.18,158.46L489.42,159.52L489.66,121.79L490.14,149.08L490.38,151.32L490.86,141.69L491.1,143.34L491.33,161.06L491.57,161.51L491.81,158.13L492.29,65L492.53,190.38L493.49,119.81L493.72,174.11L493.96,283.34L494.2,196.9L494.44,135.58L494.92,216.09L495.16,182.59L495.4,168.24L496.35,201.66L496.59,148.11L497.55,200.12L497.79,196.9L498.03,186.31L498.5,177.61L498.74,202.88L498.98,223.28L499.46,182.49L499.7,200.91L499.94,201.11L500.42,196.3L500.65,230.08L500.89,226.71L501.13,170.56L501.37,147.85L501.61,173.3L501.85,176.13L502.09,180.62L502.33,174.57L502.57,207.6L503.52,162.26L503.76,190.61L504,169.12L504.48,188.43L504.72,203.24L504.96,202.81L505.19,191.7L505.43,216.46L505.91,212.66L506.15,211.41L506.39,148.41L506.63,234.53L506.87,229.41L507.35,182.75L507.82,183.63L508.06,170.53L508.3,183.18L508.54,165.11L508.78,167.93L509.5,190.04L509.74,176.78L509.97,172.48L510.21,200.76L510.45,187.55L510.69,239.57L511.41,210.9L511.65,226.85L511.89,215.67L512.13,142.7L512.84,191.22L513.08,151.3L513.32,146.21L513.56,157.32L513.8,235.28L514.51,223.93L514.75,181.98L515.23,229L515.47,217.24L515.71,194.38L515.95,207L516.19,161.1L516.43,219.89L516.9,172.84L517.14,184.08L517.62,217.84L517.86,154.85L518.82,201.09L519.06,185.43L519.53,207.47L519.77,183.11L520.01,162.6L520.25,208.89L520.49,188.94L520.97,195.17L521.21,199.65L521.45,168.78L521.92,196.42L522.16,179.11L522.4,187.23L522.64,152.94L522.88,152.12L523.12,195.48L523.36,174.23L523.83,188.91L524.07,183.63L524.31,202.29L524.55,178.31L524.79,184.85L525.03,190.08L525.51,180.36L525.75,218.61L525.99,161.87L526.46,215.06L526.7,176.38L526.94,186.62L527.18,192.63L527.42,164.6L527.66,199.78L527.9,184.33L528.14,125.82L528.38,221.02L528.85,138.43L529.09,183.31L529.33,181.87L529.57,201.33L530.29,125.48L530.53,201.47L530.77,196.88L531,214.41L531.24,233.65L531.48,231.61L531.72,207.47L531.96,225.95L532.2,169.9L532.92,213.82L533.16,202.4L533.63,212.02L533.87,155.29L534.11,195.98L534.35,200.26L534.59,164.36L534.83,222.22L535.07,151.77L535.31,153.53L536.26,207.46L536.5,198.79L536.74,194.2L536.98,161.25L537.46,189.7L537.7,177.32L538.17,195.36L538.41,170.84L539.37,208.08L539.61,158.89L540.32,211.15L540.56,184.99L540.8,198.26L541.52,201L541.76,139.57L542,209.55L542.24,216.61L542.48,193.6L542.95,184.86L543.19,202.33L543.43,218.45L543.67,180.56L543.91,226.1L544.39,177.06L544.63,189.47L544.86,183.65L545.1,215.96L545.34,194.81L545.58,215.58L545.82,123.81L546.54,215L546.78,135.89L547.25,213.21L547.49,198.5L547.73,186.05L548.21,144.21L548.45,210.44L548.93,211.12L549.17,190.08L550.12,201.15L550.36,190.3L550.6,215.39L551.08,208.39L551.32,154.83L551.56,191.39L552.03,161.94L552.27,175.71L552.75,203.56L552.99,201.95L553.23,182.4L553.47,140.21L553.71,193.92L553.95,201.29L555.14,141.44L555.38,191.36L555.62,229.23L556.1,221.85L556.34,212.75L557.05,180.96L557.29,206.89L558.01,171.48L558.25,195.67L558.96,196.41L559.2,171.34L559.44,195.79L560.4,222.01L560.64,161.41L560.88,194.23L561.59,193.79L561.83,211.85L562.07,205.72L562.31,179.61L562.55,183.36L562.79,171.62L563.03,167.64L563.27,179.41L563.5,181.04L563.74,167.17L564.22,155.11L564.46,209.19L564.7,201.26L564.94,192.45L565.66,155.98L565.89,88.96L566.61,202.64L566.85,157.71L567.09,183.72L567.81,159.91L568.05,176.38L568.52,186.5L568.76,174.34L569.24,193.76L569.48,148.64L569.72,144.8L569.96,205.6L570.44,182.04L570.67,212.89L570.91,143.57L571.39,188.77L571.63,201.22L571.87,153.53L572.11,208L572.35,190.1L572.59,193.98L572.83,192.27L573.06,162.61L573.3,158.22L573.54,170.88L574.02,201.9L574.26,158.38L574.5,195.21L574.98,178.83L575.21,165.91L575.45,197.86L575.93,162.82L576.17,193.25L576.65,146.12L576.89,210.25L577.6,185.12L577.84,204.48L578.08,199.79L578.32,151.07L578.56,208.53L578.8,157.06L579.04,143.24L579.52,198.23L579.99,197.36L580.23,153.53L580.71,154.71L580.95,142.46L581.19,203.65L581.43,173.9L581.91,200.47L582.15,184.59L582.38,176.8L582.62,182.49L582.86,216.06L583.82,190.47L584.06,194.04L584.3,228.69L584.53,155.75L584.77,189.93L585.01,180.43L585.25,197.24L585.73,186.59L585.97,189.79L586.21,159.44L586.45,189.8L586.69,181.56L586.92,197.1L587.64,129.97L587.88,181.23L588.12,197.27L588.36,157.4L588.6,149.51L588.84,203.41L589.31,184.32L589.55,159.36L589.79,207.46L590.27,183.93L590.51,185.48L590.99,212.63L591.23,198.62L591.47,185.76L591.7,205.47L591.94,163.35L592.18,171.85L592.42,172.75L592.66,158.87L593.38,222.65L593.62,213.67L593.85,155.45L594.09,213.36L594.81,209.77L595.05,180.62L595.53,197.34L595.77,172.4L596.01,154.98L596.24,193.33L596.48,185.5L596.96,186.36L597.2,204.4L597.44,206.96L597.68,75.15L598.16,237.11L598.63,179.54L598.87,103.11L599.59,161.45L599.83,158.46L600.07,140.19L600.55,134.93L600.79,90.65L601.02,170.13L601.5,167.62L601.74,134.34L601.98,135.41L602.22,149.02L602.46,205.28L602.7,148.56L602.94,170.79L603.17,183.07L603.41,117.2L603.65,191.02L603.89,155.57L604.13,143.33L604.37,184.24L604.85,162.61L605.09,170.82L605.33,159.76L605.56,174.26L605.8,181.08L606.28,191.87L606.52,161.73L606.76,177.73L607,193.29L607.24,170.23L607.48,118.41L608.19,180.63L608.43,170.86L608.67,159.09L608.91,138.08L609.15,170.69L609.39,149.12L609.63,177.96L609.87,158.2L610.34,172.58L610.58,164.09L611.06,189.04L611.3,130.61L612.02,277.56L612.26,214.8L612.5,173.13L612.73,171.98L612.97,185.27L613.21,207.52L613.45,104.44L614.17,225.36L614.41,178.07L614.65,186.55L614.88,179.34L615.12,160.44L615.36,147.71L615.6,179.8L616.08,197.62L616.32,149.82L616.56,190.59L617.27,190.55L617.51,182.73L618.23,129.91L618.47,204.28L618.95,153.94L619.19,175.21L619.43,231.89L620.38,142.52L620.62,129.72L621.34,212.49L621.82,201.34L622.05,204.69L622.53,225.63L622.77,189.18L623.01,208.55L623.25,190.46L623.49,181.39L624.2,155.09L624.44,203.87L624.92,150.45L625.16,213.44L625.4,163.13L625.88,209.01L626.12,208.95L626.36,174.89L626.83,206.34L627.07,212.99L628.03,139.41L628.27,196.4L628.51,215.47L628.75,176.85L628.98,194.32L629.22,202.28L629.94,167.78L630.18,207.41L630.66,216.35L630.9,158.09L631.14,193.45L631.37,147.37L631.61,236.13L631.85,197L632.09,179.72L632.33,167.43L632.57,174.08L632.81,203.64L633.05,208.55L633.29,171.16L633.76,228.02L634,200.16L634.24,185.84L634.96,210.72L635.2,193.2L635.44,173.2L635.68,202.64L635.91,196.22L636.15,181.12L636.39,213.7L636.63,141.91L637.59,195.12L637.83,178.92L638.07,169.54L638.3,203.23L639.02,161.88L639.26,224.99L640.46,128.74L640.69,198.35L640.93,195.06L641.17,209.46L641.65,115.64L641.89,160.71L642.13,173.58L642.61,154.83L642.84,225.31L643.08,157.58L644.04,200.18L644.28,171.63L644.52,161.47L644.76,196.71L645,208.6L645.23,157.36L645.47,166.51L645.71,210.82L645.95,149.69L646.19,221.49L646.43,205.84L646.67,158.32L646.91,208.54L647.39,205.38L647.62,196.88L647.86,203.24L648.1,171.99L648.34,184.66L648.82,183.76L649.06,167.93L650.01,201.82L650.25,190.11L650.49,183.05L650.73,216.49L650.97,213.27L651.21,154.62L652.4,191.21L652.64,195.01L652.88,194.69L653.12,165.65L654.08,223.99L654.32,188.82L654.55,165.44L655.03,173.14L655.27,228.43L655.75,107.91L655.99,156.74L656.23,203.56L656.71,161.84L656.94,207.14L657.42,211.5L657.9,148.01L658.14,218.23L658.62,171.42L658.86,180.56L659.1,186.46L659.81,222.17L660.05,189.45L660.29,189.94L660.53,192.82L660.77,222.11L661.01,177.51L661.25,168.61L661.72,144.75L661.96,200.24L662.2,190.04L662.44,203.22L663.16,176.45L663.4,197.74L663.87,202.08L664.11,176.45L664.35,178.25L664.59,194.57L664.83,220.61L665.07,192.27L665.31,176.16L666.03,230.42L666.26,224.78L666.5,177.46L667.22,217.74L667.46,192.45L667.94,194.6L668.18,164.86L668.42,202.87L669.13,199.45L669.37,211.12L670.09,151.45L670.33,157.17L670.57,206.7L671.52,177.64L671.76,208.24L672,136.95" style="vector-effect: none; fill: none; stroke: rgb(99, 110, 250); stroke-opacity: 1; stroke-width: 2px; opacity: 1;"/></g><g class="points"/><g class="text"/></g></g></g></g><path class="xlines-above crisp" d="M0,0" style="fill: none;"/><path class="ylines-above crisp" d="M0,0" style="fill: none;"/><g class="overlines-above"/><g class="xaxislayer-above"><g class="xtick"><text text-anchor="middle" x="0" y="491" transform="translate(23,0)" style="font-family: 'Open Sans', verdana, arial, sans-serif; font-size: 12px; fill: rgb(242, 245, 250); fill-opacity: 1; white-space: pre; opacity: 1;">0</text></g><g class="xtick"><text text-anchor="middle" x="0" y="491" style="font-family: 'Open Sans', verdana, arial, sans-serif; font-size: 12px; fill: rgb(242, 245, 250); fill-opacity: 1; white-space: pre; opacity: 1;" transform="translate(142.49,0)">500</text></g><g class="xtick"><text text-anchor="middle" x="0" y="491" style="font-family: 'Open Sans', verdana, arial, sans-serif; font-size: 12px; fill: rgb(242, 245, 250); fill-opacity: 1; white-space: pre; opacity: 1;" transform="translate(261.98,0)">1000</text></g><g class="xtick"><text text-anchor="middle" x="0" y="491" style="font-family: 'Open Sans', verdana, arial, sans-serif; font-size: 12px; fill: rgb(242, 245, 250); fill-opacity: 1; white-space: pre; opacity: 1;" transform="translate(381.46,0)">1500</text></g><g class="xtick"><text text-anchor="middle" x="0" y="491" style="font-family: 'Open Sans', verdana, arial, sans-serif; font-size: 12px; fill: rgb(242, 245, 250); fill-opacity: 1; white-space: pre; opacity: 1;" transform="translate(500.95,0)">2000</text></g><g class="xtick"><text text-anchor="middle" x="0" y="491" style="font-family: 'Open Sans', verdana, arial, sans-serif; font-size: 12px; fill: rgb(242, 245, 250); fill-opacity: 1; white-space: pre; opacity: 1;" transform="translate(620.44,0)">2500</text></g></g><g class="yaxislayer-above"><g class="ytick"><text text-anchor="end" x="22" y="4.199999999999999" transform="translate(0,476.34)" style="font-family: 'Open Sans', verdana, arial, sans-serif; font-size: 12px; fill: rgb(242, 245, 250); fill-opacity: 1; white-space: pre; opacity: 1;">1</text></g><g class="ytick"><text text-anchor="end" x="22" y="4.199999999999999" style="font-family: 'Open Sans', verdana, arial, sans-serif; font-size: 12px; fill: rgb(242, 245, 250); fill-opacity: 1; white-space: pre; opacity: 1;" transform="translate(0,432.12)">1.5</text></g><g class="ytick"><text text-anchor="end" x="22" y="4.199999999999999" style="font-family: 'Open Sans', verdana, arial, sans-serif; font-size: 12px; fill: rgb(242, 245, 250); fill-opacity: 1; white-space: pre; opacity: 1;" transform="translate(0,387.9)">2</text></g><g class="ytick"><text text-anchor="end" x="22" y="4.199999999999999" style="font-family: 'Open Sans', verdana, arial, sans-serif; font-size: 12px; fill: rgb(242, 245, 250); fill-opacity: 1; white-space: pre; opacity: 1;" transform="translate(0,343.66999999999996)">2.5</text></g><g class="ytick"><text text-anchor="end" x="22" y="4.199999999999999" style="font-family: 'Open Sans', verdana, arial, sans-serif; font-size: 12px; fill: rgb(242, 245, 250); fill-opacity: 1; white-space: pre; opacity: 1;" transform="translate(0,299.45)">3</text></g><g class="ytick"><text text-anchor="end" x="22" y="4.199999999999999" style="font-family: 'Open Sans', verdana, arial, sans-serif; font-size: 12px; fill: rgb(242, 245, 250); fill-opacity: 1; white-space: pre; opacity: 1;" transform="translate(0,255.22)">3.5</text></g><g class="ytick"><text text-anchor="end" x="22" y="4.199999999999999" style="font-family: 'Open Sans', verdana, arial, sans-serif; font-size: 12px; fill: rgb(242, 245, 250); fill-opacity: 1; white-space: pre; opacity: 1;" transform="translate(0,211)">4</text></g><g class="ytick"><text text-anchor="end" x="22" y="4.199999999999999" style="font-family: 'Open Sans', verdana, arial, sans-serif; font-size: 12px; fill: rgb(242, 245, 250); fill-opacity: 1; white-space: pre; opacity: 1;" transform="translate(0,166.77)">4.5</text></g></g><g class="overaxes-above"/></g></g><g class="polarlayer"/><g class="smithlayer"/><g class="ternarylayer"/><g class="geolayer"/><g class="funnelarealayer"/><g class="pielayer"/><g class="iciclelayer"/><g class="treemaplayer"/><g class="sunburstlayer"/><g class="glimages"/><defs id="topdefs-8c8526"><g class="clips"/></defs><g class="layer-above"><g class="imagelayer"/><g class="shapelayer"><g class="shape-group" data-index="0" clip-path="url(#clip8c8526y)"><path data-index="0" fill-rule="evenodd" d="M23,476.34L695,476.34" style="opacity: 0.8; stroke: rgb(128, 128, 128); stroke-opacity: 1; fill: rgb(0, 0, 0); fill-opacity: 0; stroke-dasharray: 3px, 3px; stroke-width: 2px;"/></g><g class="shape-group" data-index="1" clip-path="url(#clip8c8526y)"><path data-index="1" fill-rule="evenodd" d="M23,387.9L695,387.9" style="opacity: 0.8; stroke: rgb(128, 128, 128); stroke-opacity: 1; fill: rgb(0, 0, 0); fill-opacity: 0; stroke-dasharray: 3px, 3px; stroke-width: 2px;"/></g><g class="shape-group" data-index="2" clip-path="url(#clip8c8526y)"><path data-index="2" fill-rule="evenodd" d="M23,299.45L695,299.45" style="opacity: 0.8; stroke: rgb(128, 128, 128); stroke-opacity: 1; fill: rgb(0, 0, 0); fill-opacity: 0; stroke-dasharray: 3px, 3px; stroke-width: 2px;"/></g></g></g><g class="infolayer"><g class="g-gtitle"><text class="gtitle" x="35" y="75" text-anchor="start" dy="0em" style="opacity: 1; font-family: 'Open Sans', verdana, arial, sans-serif; font-size: 17px; fill: rgb(242, 245, 250); fill-opacity: 1; white-space: pre;">Speedup Zigrad/PyTorch</text></g><g class="g-xtitle"/><g class="g-ytitle"/><g class="annotation" data-index="0" style="opacity: 0.8;"><g class="annotation-text-g" transform="rotate(0,71,467.5)"><g class="cursor-pointer" transform="translate(23,457)"><rect class="bg" x="0.5" y="0.5" width="95" height="20" style="stroke-width: 1px; stroke: rgb(0, 0, 0); stroke-opacity: 0; fill: rgb(0, 0, 0); fill-opacity: 0;"/><text class="annotation-text" text-anchor="middle" x="48.140625" y="15" style="font-family: 'Open Sans', verdana, arial, sans-serif; font-size: 12px; fill: rgb(0, 0, 0); fill-opacity: 1; white-space: pre;">No Speedup (1x)</text></g></g></g><g class="annotation" data-index="1" style="opacity: 0.8;"><g class="annotation-text-g" transform="rotate(0,58,379.05)"><g class="cursor-pointer" transform="translate(23,369)"><rect class="bg" x="0.5" y="0.5" width="69" height="20" style="stroke-width: 1px; stroke: rgb(0, 0, 0); stroke-opacity: 0; fill: rgb(0, 0, 0); fill-opacity: 0;"/><text class="annotation-text" text-anchor="middle" x="34.875" y="15" style="font-family: 'Open Sans', verdana, arial, sans-serif; font-size: 12px; fill: rgb(0, 0, 0); fill-opacity: 1; white-space: pre;">2x Speedup</text></g></g></g><g class="annotation" data-index="2" style="opacity: 0.8;"><g class="annotation-text-g" transform="rotate(0,58,290.6)"><g class="cursor-pointer" transform="translate(23,280)"><rect class="bg" x="0.5" y="0.5" width="69" height="20" style="stroke-width: 1px; stroke: rgb(0, 0, 0); stroke-opacity: 0; fill: rgb(0, 0, 0); fill-opacity: 0;"/><text class="annotation-text" text-anchor="middle" x="34.875" y="15" style="font-family: 'Open Sans', verdana, arial, sans-serif; font-size: 12px; fill: rgb(0, 0, 0); fill-opacity: 1; white-space: pre;">3x Speedup</text></g></g></g></g></svg>