<svg class="main-svg" xmlns="http://www.w3.org/2000/svg" xmlns:xlink="http://www.w3.org/1999/xlink" style="" viewBox="0 0 700 500"><rect x="0" y="0" width="700" height="500" style="fill: rgb(255, 255, 255); fill-opacity: 1;"/><defs id="defs-c18f70"><g class="clips"><clipPath id="clipc18f70xyplot" class="plotclip"><rect width="495" height="328"/></clipPath><clipPath class="axesclip" id="clipc18f70x"><rect x="37" y="0" width="495" height="500"/></clipPath><clipPath class="axesclip" id="clipc18f70y"><rect x="0" y="150" width="700" height="328"/></clipPath><clipPath class="axesclip" id="clipc18f70xy"><rect x="37" y="150" width="495" height="328"/></clipPath></g><g class="gradients"/><g class="patterns"/></defs><g class="bglayer"><rect class="bg" x="37" y="150" width="495" height="328" style="fill: rgb(229, 236, 246); fill-opacity: 1; stroke-width: 0;"/></g><g class="layer-below"><g class="imagelayer"/><g class="shapelayer"/></g><g class="cartesianlayer"><g class="subplot xy"><g class="layer-subplot"><g class="shapelayer"/><g class="imagelayer"/></g><g class="minor-gridlayer"><g class="x"/><g class="y"/></g><g class="gridlayer"><g class="x"><path class="xgrid crisp" transform="translate(124.95,0)" d="M0,150v328" style="stroke: rgb(255, 255, 255); stroke-opacity: 1; stroke-width: 1px;"/><path class="xgrid crisp" transform="translate(212.91,0)" d="M0,150v328" style="stroke: rgb(255, 255, 255); stroke-opacity: 1; stroke-width: 1px;"/><path class="xgrid crisp" transform="translate(300.86,0)" d="M0,150v328" style="stroke: rgb(255, 255, 255); stroke-opacity: 1; stroke-width: 1px;"/><path class="xgrid crisp" transform="translate(388.81,0)" d="M0,150v328" style="stroke: rgb(255, 255, 255); stroke-opacity: 1; stroke-width: 1px;"/><path class="xgrid crisp" transform="translate(476.77,0)" d="M0,150v328" style="stroke: rgb(255, 255, 255); stroke-opacity: 1; stroke-width: 1px;"/></g><g class="y"><path class="ygrid crisp" transform="translate(0,453.22)" d="M37,0h495" style="stroke: rgb(255, 255, 255); stroke-opacity: 1; stroke-width: 1px;"/><path class="ygrid crisp" transform="translate(0,398.59000000000003)" d="M37,0h495" style="stroke: rgb(255, 255, 255); stroke-opacity: 1; stroke-width: 1px;"/><path class="ygrid crisp" transform="translate(0,343.96000000000004)" d="M37,0h495" style="stroke: rgb(255, 255, 255); stroke-opacity: 1; stroke-width: 1px;"/><path class="ygrid crisp" transform="translate(0,289.32)" d="M37,0h495" style="stroke: rgb(255, 255, 255); stroke-opacity: 1; stroke-width: 1px;"/><path class="ygrid crisp" transform="translate(0,234.69)" d="M37,0h495" style="stroke: rgb(255, 255, 255); stroke-opacity: 1; stroke-width: 1px;"/><path class="ygrid crisp" transform="translate(0,180.06)" d="M37,0h495" style="stroke: rgb(255, 255, 255); stroke-opacity: 1; stroke-width: 1px;"/></g></g><g class="zerolinelayer"><path class="xzl zl crisp" transform="translate(37,0)" d="M0,150v328" style="stroke: rgb(255, 255, 255); stroke-opacity: 1; stroke-width: 2px;"/></g><g class="layer-between"><g class="shapelayer"/><g class="imagelayer"/></g><path class="xlines-below"/><path class="ylines-below"/><g class="overlines-below"/><g class="xaxislayer-below"/><g class="yaxislayer-below"/><g class="overaxes-below"/><g class="overplot"><g class="xy" transform="translate(37,150)" clip-path="url(#clipc18f70xyplot)"><g class="scatterlayer mlayer"><g class="trace scatter trace7be420" style="stroke-miterlimit: 2; opacity: 1;"><g class="fills"/><g class="errorbars"/><g class="lines"><path class="js-line" d="M0,198.69L0.88,287.24L1.06,286.04L1.23,286.6L1.58,286.51L2.11,288.8L2.29,286.38L3.17,288.71L3.34,288.84L3.87,289.96L4.05,286.24L4.4,288.2L4.57,284.19L5.45,289.12L5.63,285.69L5.8,284.23L5.98,288.87L6.16,285.83L6.33,288.36L7.04,283.86L7.21,285.37L7.39,285.72L7.56,288.48L7.92,284.48L8.09,284.35L8.62,289.3L8.8,286.65L8.97,283.09L10.03,288.69L10.2,287.22L10.55,285.62L10.73,288.27L11.08,285.76L11.26,288.85L11.61,286.99L11.79,289.94L11.96,288.18L12.14,288.05L12.31,283.93L12.84,287.91L13.02,288.48L13.19,283.79L13.72,285.07L13.9,285.17L14.25,284.91L14.95,289.28L15.13,288.84L15.3,289.17L15.48,289.9L15.66,288.85L15.83,287.25L16.01,286.26L16.18,287.72L16.36,289.46L17.24,284.83L17.41,289.17L18.29,285.07L18.47,285.6L18.65,287.48L19,287.8L19.17,283.96L19.35,284.91L19.53,288.55L20.05,290.86L20.23,289.87L20.41,288.21L20.58,288.05L20.76,290.97L21.11,287.8L21.46,289.35L21.64,289.49L21.99,289.41L22.52,290.7L22.69,286.68L23.04,291.61L23.57,290.4L23.75,290.42L24.1,287.91L24.28,290.35L24.8,290.56L24.98,284.76L25.15,289.32L25.51,290.92L25.86,290.01L26.03,289.92L26.56,287.96L26.74,290.15L26.91,289.76L27.27,289.51L27.44,290.77L28.14,288L28.32,288.34L28.5,289.64L28.85,288.11L29.02,290.05L29.2,290.7L29.38,285.53L29.9,290.05L30.26,288.12L30.43,288.82L30.78,287.93L30.96,291.2L31.14,287.11L31.66,290.22L31.84,288.57L32.01,290.47L32.54,289.51L32.72,289.37L33.07,290.74L33.25,288.48L33.42,289.85L33.6,288.96L33.95,288.05L34.65,290.63L34.83,289.14L35.36,290.95L35.53,286.03L36.24,290.49L36.41,287.08L36.76,291.59L36.94,285.65L37.82,290.86L38,289.71L38.17,281.28L38.35,289.92L38.7,289.87L38.88,286.08L39.05,284.71L39.23,292.62L39.4,288.3L39.93,291.33L40.11,290.53L40.28,291.86L40.46,278.08L40.63,253.2L40.99,288.02L41.16,279.05L41.34,282.59L42.04,289.85L42.22,287.29L42.39,288.53L42.75,287L42.92,289.51L43.27,291.52L43.45,283.41L44.5,289.97L44.68,288.71L45.03,287.89L45.21,291.02L45.38,287.38L45.56,291.1L45.91,289.21L46.09,289.41L46.26,288.3L46.44,289.67L46.62,288.59L46.79,290.26L47.32,288.66L47.49,288.87L47.67,289.69L47.85,289.48L48.02,290.81L48.9,287.75L49.08,288.69L49.25,291.18L49.43,285.56L49.96,288.94L50.13,290.15L50.49,290.58L50.66,292.22L51.36,287.88L51.54,289.03L51.72,290.35L52.42,290.83L52.6,289.62L53.3,240L53.48,292.23L53.65,296.54L53.83,290.72L54.18,294.22L54.36,292.52L55.23,295.02L55.41,296.59L55.94,292.66L56.11,292.94L56.29,295.47L56.99,296.75L57.17,295.54L57.35,296.71L57.52,296.48L57.7,293.98L58.75,296.77L58.93,297.21L59.63,293.76L59.81,288.37L59.98,297L60.69,296.93L60.86,296.5L61.04,296.07L61.22,297.25L61.57,296.48L61.74,296.63L61.92,294.99L62.09,295.47L62.27,284.98L62.45,225.08L62.8,285.28L62.97,283.71L63.15,285.51L63.33,285.32L63.5,286.06L63.68,287.57L63.85,280.83L64.38,288.41L64.56,285.96L64.73,285.12L64.91,288.36L65.26,288.75L65.96,286.47L66.14,286.42L66.49,287.24L66.67,284.3L66.84,289.44L67.2,284.96L67.72,286.52L67.9,290.24L68.78,282.4L68.96,282.47L69.13,285.76L69.48,284.57L69.66,280.23L69.83,287.04L70.54,285.53L70.71,288.77L71.07,289.09L71.42,286.76L71.59,288.87L71.77,288.75L71.95,284.76L72.65,290.12L72.83,281.31L73,288.98L73.7,288.16L73.88,281.94L74.06,287.96L74.76,287.52L74.94,288.64L75.11,288.5L75.29,285.76L75.46,284.19L75.82,287.52L75.99,284.64L76.17,289.14L76.7,280.89L76.87,286.28L77.22,289.32L77.4,292.04L77.57,287.04L78.1,287.47L78.28,289.89L79.16,287.48L79.33,288.73L79.51,287.32L79.86,287.89L80.04,289.39L80.74,285.76L80.92,288.89L81.09,292.82L81.44,285.28L81.62,286.74L81.97,288.96L82.32,288.69L82.5,292.14L83.03,285.46L83.38,286.97L83.56,289.39L83.91,289.09L84.08,286.11L84.61,285.99L84.96,290.77L85.14,284.48L85.49,288.84L85.67,286.42L85.84,284.64L86.02,287.93L86.55,285.83L86.72,286.1L87.07,289.6L87.25,285.24L87.43,285.97L87.6,288L87.78,285.19L87.95,282.4L88.66,290.22L88.83,286.84L89.01,283.52L89.89,289.3L90.06,286.74L90.24,285.62L90.42,286.67L90.59,288.75L90.94,288.23L91.12,288.39L91.3,286.79L91.47,287.86L91.65,282.54L91.82,287.77L92.53,287.08L92.7,286.15L92.88,288.98L93.23,285.49L93.41,286.11L93.58,284.07L94.46,288.8L94.64,288.23L95.17,284.96L95.52,286.35L95.69,286.95L95.87,286.15L96.04,287.84L96.22,287.32L96.4,287.7L96.57,288.41L96.75,286.49L96.92,284.64L97.63,290.15L97.8,286.51L98.16,288.89L98.33,287.8L98.51,286.58L98.68,284.07L98.86,288.04L99.21,286.44L99.39,288.84L99.56,289.55L99.74,287.8L99.91,287.96L100.09,288L100.79,290.31L100.97,288.27L101.15,284.59L101.32,289.58L101.67,288.91L101.85,290.31L102.38,285.35L102.73,285.42L102.91,285.9L103.78,289.17L103.96,287.45L104.14,288.68L104.31,284.12L104.84,287.47L105.19,287.41L105.37,287.15L105.54,289.07L105.9,287.29L106.07,284.92L106.25,281.38L106.42,289.03L106.6,287.89L106.78,287.72L106.95,290.28L107.3,284.76L107.48,286.51L108.01,289.85L108.36,289.73L108.53,286.38L108.71,286.67L108.89,289.44L109.41,285.58L109.77,286.6L109.94,286.7L110.29,287.63L110.47,284.39L110.64,289.09L111.17,284.18L111.35,286.63L111.52,289.53L111.7,286.17L112.05,287.57L112.23,287.06L112.4,289.81L112.76,286.72L112.93,288.25L113.11,288.75L113.64,284.83L113.81,287.24L113.99,287.8L114.51,290.12L114.69,285.9L114.87,284.69L115.04,288.44L115.22,288.59L115.57,288.94L115.75,285.67L115.92,286.19L116.1,288.44L116.27,286.83L116.8,288.09L116.98,287.43L117.15,289.65L117.33,286.79L117.68,287L117.86,288.05L118.03,290.37L118.21,285.03L118.38,287.15L118.56,286.4L119.62,290.44L119.79,285.53L120.5,289.73L120.67,286.19L121.02,290.26L121.38,287.48L121.55,284.98L122.08,289.28L122.61,288.5L122.78,288.57L122.96,290.05L123.31,289.41L123.49,284.09L123.66,283.48L123.84,287.38L124.01,287.4L124.19,285.72L125.25,289.76L125.42,288.66L125.6,286.06L126.12,289.25L126.3,289.51L126.65,256.49L126.83,290.63L127,290.53L127.18,291.15L127.36,292.45L127.53,287.68L127.71,287.04L127.88,288.8L128.06,290.67L128.76,286.4L128.94,289.28L129.82,293.41L129.99,291.72L130.35,293.87L130.7,291.49L130.87,290.37L131.05,292.04L131.75,291.89L131.93,291.79L132.11,291.36L132.28,292.57L132.46,293.6L132.63,289.6L133.16,291.33L133.34,292.29L133.51,289.94L133.86,291.49L134.04,295.06L134.57,296.43L134.92,296.11L135.1,295.65L135.45,295.13L135.62,296.54L135.8,269.91L136.86,287.73L137.03,287.06L137.38,288.66L137.56,283.36L137.73,288.14L138.44,285.49L138.61,287L138.79,288.89L139.14,285.4L139.32,287.29L139.49,287.79L139.67,288.36L139.85,285.31L140.2,284.39L140.55,289.49L140.72,282.74L142.13,289.53L142.31,285.97L142.48,290.03L143.01,284.91L143.19,289.42L143.36,289.42L143.72,289.32L143.89,287.04L144.07,284.98L144.42,289.48L144.59,286.86L144.77,287.09L145.47,289.97L145.65,288.39L145.83,289.67L146,288.27L146.18,285.51L146.53,289.67L146.88,288.46L147.06,285.33L147.23,287.84L147.41,280.76L147.59,286.88L147.76,283.61L147.94,289.03L148.29,282.75L148.46,287.08L148.64,281.88L148.82,281.79L148.99,287.96L149.34,285.05L149.52,286.17L149.7,288L150.58,285.62L150.75,287.72L150.93,289.37L151.1,287.25L151.28,288.18L151.46,287.24L151.63,289.12L151.98,285.58L152.16,289L152.33,286.33L152.51,285.83L152.69,286.52L152.86,283L154.62,287.86L154.8,286.81L155.33,284L155.68,289.97L155.85,285.08L156.03,284.8L156.2,285.88L156.38,287.52L156.56,288.53L156.73,282.17L156.91,290.26L157.44,289.01L157.61,287.4L157.96,287.66L158.14,284.41L158.32,285.33L158.49,287.64L158.67,287.31L158.84,289.64L159.02,283.13L159.55,285.99L159.72,286.52L159.9,286.47L160.07,283.07L160.25,286.68L160.43,286.28L160.6,258.23L160.95,291.38L161.48,290.65L161.66,290.97L162.01,290.69L162.89,297.21L163.07,295.58L163.24,296.16L163.42,288.32L163.77,296.86L164.3,296.48L164.47,296.77L164.65,294.12L164.82,311.6L164.82,269.29L165.53,302.07L165.7,302.71L166.06,299.52L166.58,300.15L166.76,303.08L167.11,295.33L167.46,300.38L167.64,300.57L167.99,298.51L168.17,299.81L168.69,302.58L168.87,299.29L169.05,301.53L169.4,299.74L169.57,296.93L170.1,302.35L170.28,256.43L171.16,294.05L171.33,295.52L171.68,296.23L172.21,287.27L172.39,292.36L172.74,296.36L172.92,293.05L173.09,284.62L173.44,293.37L173.62,288.16L173.8,292.3L173.97,289.12L174.5,292.29L174.67,294.4L175.2,296.36L175.38,290.38L175.55,291.27L175.73,293.87L176.43,288.18L176.61,288.62L176.79,290.38L176.96,290.13L177.14,292.89L177.67,291.84L177.84,285.94L178.72,294.21L179.07,291.93L179.25,289.19L180.66,297.12L180.83,295.15L181.01,289.48L182.06,296.61L182.24,296.59L182.41,294.21L182.59,293.46L182.77,293.55L182.94,289.3L183.29,286.13L183.65,296.39L183.82,292.22L184,287.8L184.17,293.96L184.7,290.06L184.88,291.77L185.23,295.38L185.41,287.45L185.76,292.45L186.28,292.29L186.46,289.69L186.64,295.35L187.16,291.73L187.34,293.26L187.69,293.48L187.87,284.87L188.04,295.15L188.57,290.22L188.75,281.31L189.45,296.96L189.63,295.77L189.8,290.53L190.51,295.11L190.68,291.79L190.86,290.67L191.03,292.8L191.21,292.5L191.39,294.55L191.56,296.27L191.91,293.6L192.09,291.22L192.44,292.54L192.62,295.72L193.32,291.27L193.5,295.81L193.85,291.36L194.02,298.17L194.2,297.62L194.73,286.95L194.9,298.9L195.08,293.85L195.78,294.97L195.96,293.8L196.84,298.83L197.01,296.07L197.19,296.04L197.37,299.36L198.07,292.27L198.25,298.28L198.6,298.3L198.95,294.88L199.13,297.39L200.01,292.39L200.18,295.77L200.71,293.44L200.88,297.66L201.94,294.51L202.12,294.79L202.47,298.4L202.64,295.86L202.82,293.19L203.17,294.95L203.52,294.9L203.7,292.93L203.88,291.56L204.05,296.27L204.93,289.89L205.11,291.72L205.46,295.75L205.63,292.38L205.81,290.69L205.99,289.83L206.16,296.79L207.22,292.86L207.39,295.68L207.92,293.51L208.27,294.24L208.45,295.86L208.62,291.31L209.15,296.16L209.33,294.65L209.5,295.04L209.68,298.1L210.03,294.74L210.56,296.36L210.74,298.16L210.91,291.61L211.44,296.86L211.62,298.28L211.79,286.47L212.32,294.83L212.49,295.1L212.85,295.81L213.02,295.15L213.2,297.23L213.73,294.62L213.9,295.17L214.08,296.02L214.25,295.35L214.43,298.76L214.61,289.62L215.13,294.97L215.31,294.97L215.66,291.47L215.84,293.23L216.01,294.85L216.19,295.47L216.36,286.7L216.89,296.27L217.42,294.37L217.6,294.47L217.95,292.98L218.12,296.16L218.3,295.4L218.48,292.5L218.83,295.61L219.18,292.32L219.36,295.1L219.53,296.06L219.71,293.02L219.88,298.9L220.23,295.74L220.41,295.81L220.94,294.85L221.11,297.71L221.29,295.95L221.64,292.46L221.99,293.42L222.17,294.99L222.52,296.18L222.7,295.75L222.87,292.46L223.05,290.06L223.22,292.89L223.4,290.6L223.58,294.37L223.75,283.52L224.28,292.45L224.46,292.27L224.81,295.1L224.98,292.14L225.16,294.12L225.34,290.72L225.69,294.58L225.86,292.13L226.04,288.87L226.92,296.52L227.09,287.43L227.8,294.03L227.97,290.4L228.15,286.31L228.5,293.16L228.68,294.4L229.21,285.24L229.38,291.89L229.56,294.58L229.91,287.25L230.09,294.42L230.26,295.33L231.49,284.11L231.67,289.74L232.55,296.91L232.72,293.21L232.9,293.83L233.08,292.34L233.25,291.79L233.6,293.73L233.78,287.48L234.48,293.99L234.66,293.21L234.83,293.62L235.19,294.47L235.36,291.7L235.54,293.53L235.71,292.8L235.89,292.77L236.07,296.32L236.24,291.63L236.77,293.82L236.95,294.22L237.12,291.72L237.65,292.59L237.83,299.04L238.35,289.92L238.53,293.16L238.7,296.7L238.88,288.61L239.41,292.06L239.58,292.45L239.76,292.16L239.94,297.12L240.46,291.47L240.64,296.68L241.17,285.65L241.34,288.5L241.52,296.7L241.87,288.77L242.05,296.87L242.22,293.78L242.4,293.71L242.75,292.16L243.1,296.82L243.28,295.68L243.45,294.3L243.63,291.02L243.81,295.24L244.16,291.57L244.33,292.06L244.51,292.09L244.69,290.33L245.39,292.93L245.57,291.38L246.09,292.43L246.27,296.5L246.44,290.72L247.15,292.06L247.32,296.31L248.03,291.89L248.2,293.76L248.38,294.4L248.56,291.66L248.73,292.23L248.91,296.63L249.08,297.02L249.26,290.1L249.96,293.8L250.14,289.53L250.67,294.46L251.02,293.26L251.19,291.88L252.25,294.95L252.43,293.34L252.78,295.47L252.95,292.27L253.13,293.64L253.3,292.34L253.48,287.61L253.83,294.14L254.01,287.91L254.18,291.06L254.36,295.88L254.89,290.22L255.06,294.26L255.59,290.37L255.77,294.97L255.94,296.22L256.12,293.58L256.3,293.6L256.47,291.52L256.65,296.84L257.17,293.82L257.35,294.21L257.53,294.06L257.7,290.67L258.23,296.61L258.58,294.81L258.76,296L259.11,294.14L259.29,298.6L259.46,291.36L259.64,296.31L259.99,291.17L260.34,296.25L260.52,294.17L260.87,290.15L261.04,294.28L261.22,295.45L261.4,295.08L261.57,291.33L262.1,296.71L262.28,295.59L262.45,293.57L263.16,288.44L263.33,295.79L263.51,295.22L263.68,290.22L264.04,295.59L264.21,287.29L264.74,296.32L265.09,293.32L265.27,296.7L265.97,294.21L266.15,296.7L266.32,298.46L266.5,292.27L266.67,292.02L266.85,293.41L267.03,291.98L267.38,294.1L267.55,294.31L267.73,290.22L268.26,295.11L268.43,292.5L268.78,292.16L268.96,296.39L269.84,291.95L270.02,292L270.19,296.96L270.72,294.53L270.9,290.22L271.07,289.67L271.25,291.59L271.42,293.3L271.6,291.59L271.78,297.5L272.3,289.85L272.83,291.47L273.01,294.85L273.36,296.43L273.53,291.7L273.89,292.32L274.06,294.21L274.24,290.61L274.59,294.4L274.77,295.24L274.94,288.66L275.47,291.7L275.64,291.84L276.17,294.19L276.52,293.73L276.7,294.15L277.23,294.92L277.58,288.68L277.76,298.49L277.93,293.09L278.64,293.78L278.81,294.42L278.99,290.38L279.51,293.62L279.69,299.17L280.39,290.33L280.57,293.07L280.75,292.8L280.92,298.01L281.1,292.52L281.45,292.68L281.63,283.13L282.51,295.45L282.68,295.45L283.21,296.32L283.38,288.69L283.56,295.03L283.74,293.3L284.09,295.63L284.26,296.91L284.79,289.99L284.97,291.88L285.14,295.24L285.32,292.32L285.67,296.61L286.02,292.7L286.2,291.54L286.55,296.95L286.9,293.14L287.08,291.38L287.96,295.42L288.13,292.06L288.49,291.52L288.84,295.43L289.01,292.66L289.19,291.72L289.37,293.96L289.54,295.97L290.25,292.27L290.42,292.86L290.6,293.12L291.12,285.51L291.3,291.79L291.48,293.69L291.83,293.23L292,294.24L292.18,296.48L292.36,297.75L292.53,295.03L292.71,293.71L293.06,291.59L293.59,299.54L293.76,296.61L294.12,299.28L294.29,296.77L294.47,299.58L294.64,290.05L294.82,289.28L294.99,292.94L295.52,300.17L296.05,299.01L296.23,296.07L297.11,297.44L297.28,297.12L297.81,297.39L297.99,292.14L298.16,292.64L298.34,292.09L298.51,295.68L298.86,297.09L299.04,296.13L299.22,293.73L299.92,299.76L300.1,296.16L300.27,296L300.45,292.71L300.8,297.44L300.98,296.63L301.15,296.38L301.33,299.26L301.5,293.51L301.86,296.8L302.03,297.37L302.21,297.53L302.38,292.86L302.56,288.77L302.73,297.12L303.09,293.5L303.26,299.63L303.79,296.87L304.14,297.37L304.32,297.37L304.49,299.84L304.67,296.79L304.85,288.66L305.02,297.84L305.72,297.66L305.9,297.48L306.43,292.45L306.6,296.64L306.78,299.38L306.96,293.28L307.31,297.14L307.48,297.19L307.84,294.9L308.19,298.97L308.36,297.67L308.54,295.17L309.24,295.42L309.42,296.71L309.59,298.64L309.77,294.47L309.95,294.1L310.12,296.45L310.65,295.86L310.83,292.38L311,292.89L311.18,297.92L311.53,297.96L311.88,293.78L312.06,299.7L312.59,293.28L312.94,295.17L313.11,292.98L313.64,295.47L313.82,291.54L314.17,299.1L314.52,294.87L314.7,295.2L315.05,295.45L315.22,293.44L315.4,296.32L315.75,297.75L316.28,292.86L316.46,294.37L316.81,293.66L317.51,300.27L317.69,295.11L317.86,297.21L318.21,293.19L318.39,294.67L318.57,294.56L318.92,291.82L319.27,297.8L319.45,295.22L319.8,291.75L319.97,295.22L320.33,295.1L320.68,298.42L320.85,293.74L321.2,294.97L321.38,294.35L321.56,292.71L321.73,296.18L322.26,295.51L322.44,295.15L322.61,294.54L322.79,296L322.96,296.73L323.49,297.35L323.67,288.16L323.84,292.94L324.02,296.45L324.37,294.88L324.55,296.5L324.72,297.03L324.9,298.96L325.07,294.53L325.25,295.35L325.43,295.1L325.6,294.79L325.78,295.67L325.95,297.62L326.48,298.94L326.66,291.22L326.83,295.81L327.01,295.91L327.19,297.67L327.36,278.57L327.89,289.65L328.07,292.09L328.24,291.45L328.59,292.94L328.77,293.73L329.3,289.49L329.47,293.92L329.65,309.82L329.65,256.29L330.18,292.59L330.35,293.53L330.53,290.95L331.23,291.33L331.41,294.37L331.58,291.95L331.93,295.08L332.11,295.35L332.29,291.31L332.99,291.77L333.17,291.59L333.34,295.31L333.87,290.99L334.05,291.49L334.4,295.29L334.57,291.27L334.75,291.63L334.93,291.79L335.8,291.61L335.98,291.54L336.16,295.27L336.51,289.96L336.86,295.13L337.04,291.22L337.21,291.47L337.39,295.01L337.56,294.99L337.74,290.35L338.97,295.24L339.15,293.9L339.32,292.62L339.5,293.19L339.67,292.27L339.85,291.15L340.03,291.27L340.2,294.67L340.55,285.4L340.91,288.87L341.08,294.53L341.43,290.17L341.79,291.34L341.96,292.25L342.31,294.53L342.49,291.54L342.67,292.55L342.84,291.31L343.02,291.73L343.19,289.81L343.9,292.98L344.07,292.55L344.25,290.58L344.42,290.44L344.6,292.29L344.78,292.52L344.95,294.99L345.3,289.32L345.48,293.64L345.83,295.1L346.18,294.69L346.36,291.34L346.89,291.11L347.06,292.02L347.77,295.81L347.94,289.99L348.12,295.74L348.29,289.67L348.82,294.78L349,291.95L349.17,291.15L349.35,283.75L349.53,282.79L349.7,291.01L349.88,288.2L350.23,291.36L350.41,291.15L350.58,294.62L351.46,288.82L351.64,295.04L352.16,289.01L352.34,295.29L352.52,294.95L352.69,290.99L353.22,294.76L353.4,294.08L353.75,285.48L354.1,293.98L354.28,291.4L354.8,294.47L354.98,288L355.15,287.11L355.33,293.19L356.03,290.19L356.21,291.27L356.39,291.88L356.56,295.18L357.09,293.74L357.27,293.34L357.62,291.13L357.79,292.18L357.97,294.7L358.5,288.98L358.67,295.19L358.85,295.45L359.2,289.41L359.38,291.61L359.55,293.25L360.08,295.29L360.43,289.96L360.61,293.44L360.78,283.59L361.31,293.48L361.49,294.65L361.66,294.58L361.84,293.32L362.01,294.28L362.37,293.02L362.54,293.96L362.72,291.15L363.07,289.58L363.25,289.76L363.42,293.73L363.6,289.94L363.77,294.33L364.13,290.99L364.3,294.19L364.65,294.56L364.83,290.49L365.01,290.93L365.18,294.53L365.36,294.78L365.53,290.83L366.24,295.1L366.41,294.63L366.59,294.06L366.94,295.06L367.12,294.28L367.29,292.64L367.47,290.19L367.82,293.42L368,294.46L368.17,291.38L368.35,295.75L368.7,291.58L368.88,294.83L369.05,295.52L369.23,294.67L369.4,291.2L369.58,291.4L369.75,288.93L370.11,291.22L370.63,290.85L370.81,291.15L370.99,295.08L371.51,291.02L371.69,294.01L371.87,285.6L373.1,294.12L373.27,291.08L373.45,291.52L373.62,290.83L373.8,290.81L373.98,294.21L374.33,294.3L374.86,288.07L375.03,289.1L375.21,288.59L375.38,294.31L375.74,289.51L376.09,293.35L376.26,270L376.62,295.17L377.14,290.77L377.32,290.49L377.67,294.62L378.2,294.58L378.37,293.19L378.73,287.15L378.9,278.45L379.96,291.93L380.13,295.4L380.66,291.45L380.84,295.7L381.01,292.14L381.19,295.65L381.89,291.91L382.07,292.48L382.24,295.7L382.6,292.32L382.77,296.04L382.95,291.97L383.48,292.71L383.65,296L384.53,292.14L384.71,292.93L384.88,290.65L385.06,295.86L385.23,296.2L386.11,292.3L386.29,293L386.99,291.68L387.17,296.13L388.05,292.75L388.22,292.59L388.4,287.16L388.58,292.62L388.93,292.59L389.1,292.71L389.28,292.78L389.46,292.22L389.63,295.47L389.81,296.15L389.98,293.02L390.16,293.05L390.34,296.18L390.69,291.2L390.86,296.63L391.22,293L391.39,292.77L391.92,293.02L392.09,288.89L392.8,296.2L392.97,292.98L393.15,292.8L393.33,293.32L393.5,290.15L393.85,294.4L394.38,292.77L394.56,289.78L395.44,294.05L395.61,292.87L395.96,293.14L396.32,289.58L396.49,291.59L396.67,291.79L396.84,291.02L397.02,292.73L397.2,292.29L397.37,292.39L397.55,293.85L397.72,294.05L397.9,291.88L398.08,290.9L398.25,291.79L398.43,294.19L398.78,292.43L398.96,296.7L399.13,291.91L399.66,293.48L399.83,293.89L400.01,296.06L400.19,292.64L400.54,294.08L400.71,293.14L401.07,290.67L401.59,291.2L401.77,291.04L401.95,292.98L402.47,292.62L402.65,292.25L402.83,290.7L403,295.93L403.18,291.68L403.7,292.38L403.88,293.44L404.23,293.78L404.41,291.02L404.58,292.02L404.76,291.91L405.11,293.18L405.29,292.52L405.46,277.69L405.64,295.24L406.17,292.5L406.34,288.43L407.05,294.62L407.22,289.44L407.57,296.59L407.75,289.85L408.63,296.59L408.81,290.05L409.16,295.88L409.51,295.83L409.69,292.94L409.86,295.54L410.04,291.72L410.21,295.11L410.39,288.07L410.57,294.53L411.09,288.87L411.27,288.14L412.15,294.42L412.32,294.44L412.68,293.03L413.03,294.08L413.2,296.68L413.56,295.42L413.73,290.15L413.91,296.52L414.43,290.61L414.61,290.77L414.79,294.42L415.49,294.15L415.67,295.47L416.37,291.5L416.55,291.61L416.72,292.68L417.07,293.46L417.6,288.66L417.78,292.06L417.95,291.29L418.13,293.34L418.3,291.4L418.48,293.73L419.36,289.87L419.54,293.96L419.71,295.08L420.06,292.59L420.24,292.36L420.42,288.85L420.77,293.09L420.94,293.74L421.3,289.55L421.65,290.65L421.82,291.4L422,296.48L422.35,291.38L422.53,296.31L422.7,292.62L422.88,296.59L423.05,292.45L423.41,293.74L423.58,293.78L423.93,295.08L424.11,293.6L424.29,289.89L425.34,294.19L425.52,291.93L426.04,294.92L426.22,292.43L426.4,291.65L426.75,292.2L426.92,296.71L427.8,291.01L427.98,293.48L428.33,289.85L428.51,293.23L428.68,294.12L428.86,290.1L429.56,296.41L429.74,292.13L429.91,290.45L430.09,293.5L430.27,292.48L430.44,296.54L430.79,289.94L430.97,291.81L431.15,296.73L431.5,291.22L431.85,291.79L432.03,294.63L432.38,291.75L432.55,293.32L432.73,295.4L433.26,292.55L433.43,296.16L433.61,289.99L434.14,291.77L434.31,296.47L434.49,292.04L435.02,293.92L435.19,296.82L435.54,289.48L436.07,291.66L436.25,292.14L436.42,286.88L436.78,293.41L436.95,293.8L437.48,292.11L437.65,296.2L437.83,289.44L438.36,293.55L438.53,294.72L439.24,290.99L439.41,295.61L439.59,296.63L439.77,291.24L440.12,292.5L440.47,283.8L440.64,292.43L440.82,292.5L441,294.83L441.7,291.63L441.88,293.76L442.23,290.49L442.76,291.31L442.93,291.63L443.11,296.18L443.46,293.51L443.64,288.61L444.51,294.6L444.69,295.15L445.04,296.23L445.22,292.5L445.39,295.06L445.57,296.23L445.92,289.97L446.27,294.26L446.45,293.46L446.63,282.4L447.15,292.32L447.33,293.85L447.86,285.58L448.03,288.11L448.21,292.71L448.74,291.43L448.91,285.69L449.26,284.18L449.79,295.93L449.97,295.97L450.14,296.52L450.32,291.95L450.5,291.17L450.67,291.79L450.85,296.31L451.02,296.25L451.2,292L451.38,294.06L451.55,292.78L451.73,284.27L451.9,294.44L452.43,292.41L452.61,289.51L452.78,289.81L452.96,293.69L453.66,290.79L453.84,293.89L454.01,293.87L454.19,296.09L454.72,290.24L454.89,293.99L455.07,292.62L455.25,291.04L455.42,296.66L456.3,291.88L456.48,292.43L456.83,290.51L457,294.94L457.18,289.83L457.36,281.53L457.71,291.63L457.88,291.57L458.06,292.71L458.59,292.3L458.94,296.27L459.12,294.15L460.17,288.85L460.35,291.01L460.7,288.14L461.05,293.41L461.23,291.66L461.75,293.83L461.93,289.71L462.28,294.22L462.46,293.73L462.63,284.87L463.16,293.57L463.51,291.95L463.69,282.72L464.39,297.07L464.57,292.5L464.74,287.34L465.27,295.1L465.45,294.14L465.62,283.34L465.8,293.78L466.33,285.42L466.5,284.85L467.38,295.72L467.56,293.73L468.09,282.33L468.44,287.59L468.61,293.64L468.79,292.16L468.97,294.87L469.14,286.83L469.49,293.78L469.67,282.81L470.02,291.82L470.2,296.5L470.72,291.45L470.9,293.76L471.08,296.71L471.25,292.27L471.78,294.01L471.96,294.01L472.48,291.4L472.66,292.27L472.84,296.18L473.01,295.93L473.19,292.23L473.36,290.53L473.54,296.79L474.07,290.79L474.24,291.08L474.42,293.67L474.59,292.78L474.77,284.8L475.47,283.7L475.65,294.31L475.83,282.75L476.53,294.08L476.71,291.9L476.88,293.99L477.41,286.79L477.59,294.67L477.76,294.74L477.94,288.05L478.46,293.89L478.64,290.37L478.82,294.08L478.99,290.15L479.52,293.39L479.7,293.34L480.05,289.58L480.22,291.75L480.4,293.66L480.75,289.73L480.93,293.41L481.1,296.5L481.28,287.45L481.81,295.08L481.98,290.17L482.69,293.66L483.04,293.23L483.21,292.71L483.57,293.94L483.74,288.53L484.27,286.88L484.62,293.53L484.8,291.68L484.97,295.31L485.33,291.04L485.5,292.64L485.68,291.11L485.85,290.74L486.03,293.05L486.2,292.96L486.38,293.3L486.56,287.43L486.91,283.15L487.61,296.34L487.79,296.31L487.96,290.49L488.32,295.03L488.67,286.03L488.84,294.9L489.02,295.42L489.2,293.66L489.37,292.46L489.55,295.4L489.72,288.5L490.07,293.76L490.25,288.61L491.13,294.65L491.31,289.8L491.48,293.37L491.83,287L492.01,287.64L492.71,294.56L492.89,291.01L493.07,291.77L493.42,291.97L493.59,293.62L494.12,288.04L494.3,290.28L494.47,311.37" style="vector-effect: none; fill: none; stroke: rgb(99, 110, 250); stroke-opacity: 1; stroke-width: 2px; opacity: 1;"/></g><g class="points"/><g class="text"/></g><g class="trace scatter traceb2869d" style="stroke-miterlimit: 2; opacity: 1;"><g class="fills"/><g class="errorbars"/><g class="lines"><path class="js-line" d="M0.35,16.4L1.23,150.25L1.41,84.69L2.29,161.18L2.46,147.52L2.81,120.2L2.99,158.45L3.17,139.32L3.34,163.91L3.69,174.84L3.87,147.52L4.22,125.67L4.4,196.69L4.57,177.57L4.75,120.2L4.93,112.01L5.1,163.91L5.45,158.45L5.63,215.81L6.51,142.06L6.68,180.3L6.86,177.57L7.04,144.79L7.56,142.06L7.92,196.69L8.09,185.76L8.8,142.06L8.97,163.91L9.15,142.06L9.32,210.35L9.5,210.35L10.03,213.08L10.38,152.98L10.55,199.42L10.73,213.08L10.91,180.3L11.08,166.64L11.26,142.06L11.43,215.81L11.61,155.71L11.79,199.42L11.96,202.15L12.14,177.57L12.49,234.93L12.67,163.91L12.84,177.57L13.02,199.42L13.37,229.47L13.54,204.88L13.72,185.76L13.9,193.96L14.07,185.76L14.25,172.1L14.42,169.37L14.6,180.3L15.48,232.2L15.66,215.81L16.01,183.03L16.36,210.35L16.54,210.35L16.89,163.91L17.41,166.64L17.59,193.96L17.94,166.64L18.12,215.81L18.29,202.15L18.47,163.91L18.82,202.15L19,213.08L19.7,161.18L19.88,215.81L20.58,152.98L20.76,183.03L20.93,196.69L21.11,193.96L21.28,221.27L22.16,152.98L22.34,199.42L22.52,185.76L22.69,210.35L22.87,218.54L23.04,213.08L23.22,169.37L24.1,207.62L24.28,163.91L24.63,218.54L24.98,204.88L25.15,161.18L26.03,199.42L26.21,199.42L26.39,163.91L26.74,213.08L26.91,210.35L27.09,221.27L27.27,196.69L27.44,191.23L27.97,210.35L28.14,150.25L28.5,210.35L28.85,188.49L29.02,185.76L29.55,202.15L29.9,150.25L30.08,207.62L30.26,221.27L30.43,150.25L31.31,218.54L31.49,199.42L31.66,131.13L31.84,213.08L32.19,177.57L32.37,152.98L32.89,196.69L33.07,183.03L33.25,174.84L33.42,210.35L33.95,199.42L34.13,196.69L34.3,180.3L34.65,207.62L34.83,207.62L35.01,215.81L35.18,185.76L35.71,221.27L35.88,210.35L36.06,177.57L36.24,229.47L36.41,158.45L36.94,215.81L37.12,191.23L37.47,185.76L37.64,202.15L37.82,185.76L38,196.69L38.17,177.57L38.35,172.1L38.88,155.71L39.23,210.35L39.4,169.37L39.58,177.57L39.75,166.64L39.93,139.32L40.81,199.42L40.99,172.1L41.34,221.27L41.51,180.3L41.69,166.64L41.87,210.35L42.39,163.91L42.57,185.76L42.75,215.81L42.92,166.64L43.1,193.96L43.27,169.37L43.8,158.45L44.15,215.81L44.33,202.15L44.68,232.2L44.86,213.08L45.03,199.42L45.21,174.84L45.74,202.15L45.91,199.42L46.09,193.96L46.26,204.88L46.44,221.27L47.14,161.18L47.32,169.37L47.49,183.03L47.85,180.3L48.55,215.81L48.73,202.15L49.43,180.3L49.61,229.47L49.78,161.18L50.31,191.23L50.49,204.88L51.19,234.93L51.36,213.08L51.54,215.81L51.72,213.08L51.89,229.47L52.24,174.84L52.6,213.08L52.77,232.2L53.3,163.91L53.65,185.76L53.83,210.35L54.53,172.1L54.71,188.49L55.06,191.23L55.23,172.1L55.41,199.42L55.59,218.54L56.29,215.81L56.47,196.69L56.64,224.01L56.99,161.18L57.17,210.35L57.35,202.15L57.87,213.08L58.22,152.98L58.4,196.69L58.93,207.62L59.1,169.37L59.98,207.62L60.16,155.71L60.51,210.35L61.04,207.62L61.22,199.42L61.57,185.76L61.74,196.69L61.92,207.62L62.09,169.37L62.8,177.57L62.97,204.88L63.15,204.88L63.33,191.23L63.5,166.64L63.68,213.08L64.03,172.1L64.21,207.62L64.73,210.35L64.91,196.69L65.09,142.06L65.96,224.01L66.14,204.88L66.32,147.52L66.84,202.15L67.02,193.96L67.2,166.64L67.37,166.64L67.55,177.57L67.72,188.49L67.9,106.54L68.78,210.35L68.96,166.64L69.13,142.06L69.31,204.88L69.48,202.15L69.66,204.88L69.83,232.2L70.89,169.37L71.07,215.81L71.24,136.59L71.77,213.08L71.95,188.49L72.12,185.76L72.3,215.81L72.47,232.2L72.83,196.69L73,210.35L73.35,210.35L73.53,191.23L73.7,224.01L74.06,207.62L74.23,161.18L75.11,221.27L75.29,215.81L75.46,177.57L75.82,204.88L76.17,191.23L76.34,166.64L76.52,202.15L76.7,147.52L77.05,196.69L77.22,185.76L77.4,185.76L77.57,196.69L77.75,172.1L78.1,224.01L78.28,183.03L78.45,213.08L78.63,177.57L79.16,210.35L79.33,210.35L79.86,158.45L80.04,210.35L80.21,204.88L80.39,163.91L80.57,210.35L81.09,166.64L81.27,185.76L81.44,213.08L81.8,172.1L82.15,210.35L82.32,183.03L82.5,166.64L82.68,180.3L82.85,215.81L83.2,245.86L83.38,207.62L83.56,213.08L83.73,210.35L83.91,185.76L84.43,152.98L84.61,232.2L84.79,210.35L84.96,147.52L85.31,193.96L85.84,191.23L86.02,188.49L86.19,183.03L86.37,207.62L86.9,163.91L87.07,169.37L87.25,199.42L87.6,207.62L87.78,169.37L88.13,163.91L88.3,204.88L88.48,191.23L88.66,169.37L88.83,172.1L89.01,196.69L89.18,174.84L89.36,224.01L89.54,224.01L89.71,210.35L89.89,202.15L90.06,221.27L90.24,213.08L90.42,221.27L90.77,169.37L91.3,177.57L91.47,213.08L91.82,237.66L92,183.03L92.35,166.64L92.88,215.81L93.05,193.96L93.58,185.76L93.93,213.08L94.11,188.49L94.81,193.96L94.99,152.98L95.17,210.35L95.69,166.64L95.87,169.37L96.04,202.15L96.4,166.64L96.75,204.88L96.92,210.35L97.98,112.01L98.16,196.69L98.51,169.37L99.04,218.54L99.21,202.15L99.74,196.69L99.91,229.47L100.09,155.71L100.27,213.08L100.79,188.49L100.97,183.03L101.15,169.37L101.32,221.27L101.5,169.37L102.03,224.01L102.2,183.03L102.38,202.15L102.91,166.64L103.08,183.03L103.26,204.88L103.61,199.42L103.78,229.47L103.96,183.03L104.14,155.71L104.31,193.96L104.66,177.57L104.84,213.08L105.02,221.27L105.19,193.96L105.37,196.69L105.54,213.08L105.9,163.91L106.07,188.49L106.25,188.49L106.42,169.37L106.95,185.76L107.13,196.69L107.3,218.54L107.65,174.84L107.83,204.88L108.01,193.96L108.71,155.71L108.89,199.42L109.24,224.01L109.77,139.32L109.94,213.08L110.12,150.25L110.64,174.84L110.82,183.03L111.17,232.2L111.52,202.15L111.7,199.42L112.23,163.91L112.4,199.42L112.58,204.88L112.76,199.42L112.93,177.57L113.28,221.27L113.64,210.35L113.81,196.69L113.99,202.15L114.16,180.3L114.51,207.62L114.69,202.15L114.87,188.49L115.22,185.76L115.57,243.13L115.75,177.57L115.92,177.57L116.1,193.96L116.27,196.69L116.45,218.54L116.63,215.81L116.8,191.23L116.98,188.49L117.15,210.35L117.33,224.01L117.51,177.57L117.68,193.96L117.86,112.01L118.74,213.08L118.91,218.54L119.79,155.71L119.97,210.35L120.32,169.37L120.67,172.1L120.85,193.96L121.02,172.1L121.55,185.76L121.73,199.42L122.25,174.84L122.43,199.42L122.61,210.35L122.78,185.76L123.13,232.2L123.31,229.47L123.49,232.2L123.66,218.54L124.54,183.03L124.72,166.64L125.42,234.93L125.6,226.74L125.77,191.23L125.95,196.69L126.12,152.98L127.18,234.93L127.36,188.49L127.71,193.96L128.41,161.18L128.59,191.23L128.76,191.23L128.94,177.57L129.29,161.18L129.64,202.15L129.82,177.57L130.35,224.01L130.7,221.27L130.87,226.74L131.4,161.18L131.58,199.42L131.93,183.03L132.11,207.62L132.99,221.27L133.16,213.08L133.69,183.03L133.86,221.27L134.39,174.84L134.74,191.23L134.92,196.69L135.1,193.96L135.27,174.84L135.62,204.88L135.8,196.69L135.98,169.37L136.33,224.01L136.68,210.35L136.86,188.49L137.38,213.08L137.73,210.35L137.91,166.64L138.26,185.76L138.44,180.3L138.61,147.52L138.97,207.62L139.49,193.96L139.67,199.42L139.85,150.25L140.2,202.15L140.37,172.1L140.55,191.23L140.72,215.81L141.08,185.76L141.25,207.62L141.43,199.42L141.6,213.08L141.78,183.03L141.96,166.64L142.13,202.15L142.31,133.86L142.66,191.23L142.84,191.23L143.01,188.49L143.19,193.96L143.36,202.15L143.54,204.88L143.72,193.96L144.07,191.23L144.24,202.15L144.59,191.23L144.77,202.15L144.95,172.1L145.3,240.4L145.65,196.69L145.83,144.79L146.53,204.88L146.71,202.15L146.88,193.96L147.06,224.01L147.23,166.64L147.59,221.27L147.76,191.23L148.11,142.06L148.29,193.96L148.46,191.23L148.64,191.23L148.82,174.84L148.99,226.74L149.17,166.64L149.7,218.54L149.87,191.23L150.05,185.76L150.22,210.35L150.75,172.1L151.1,174.84L151.28,213.08L151.46,215.81L151.63,188.49L151.81,163.91L151.98,207.62L152.33,188.49L152.51,174.84L152.86,221.27L153.04,185.76L153.21,210.35L153.57,180.3L153.74,196.69L153.92,172.1L154.27,210.35L154.45,185.76L154.62,161.18L154.97,229.47L155.33,202.15L155.5,188.49L156.03,161.18L156.2,210.35L156.73,213.08L157.08,155.71L157.26,193.96L157.44,213.08L157.79,172.1L157.96,169.37L158.14,234.93L158.84,224.01L159.02,221.27L159.9,169.37L160.07,210.35L160.25,215.81L160.43,180.3L160.78,169.37L161.31,218.54L161.48,207.62L161.83,152.98L162.01,202.15L162.19,202.15L162.54,152.98L162.89,232.2L163.07,169.37L163.24,207.62L163.59,158.45L163.77,191.23L163.94,185.76L164.3,229.47L164.82,202.15L165,218.54L165.53,185.76L165.7,191.23L165.88,213.08L166.41,163.91L166.58,224.01L166.76,177.57L166.93,202.15L167.11,232.2L167.29,191.23L167.46,191.23L167.64,155.71L167.99,196.69L168.17,166.64L168.34,169.37L168.52,215.81L169.05,166.64L169.22,174.84L169.4,202.15L170.1,177.57L170.28,191.23L170.45,224.01L170.8,166.64L171.16,169.37L171.33,210.35L172.04,166.64L172.21,188.49L172.39,204.88L172.56,155.71L173.09,172.1L173.27,202.15L173.8,204.88L174.15,158.45L174.32,185.76L174.67,207.62L174.85,150.25L175.03,139.32L175.2,191.23L175.38,188.49L175.55,224.01L175.73,172.1L176.43,183.03L176.61,191.23L176.79,207.62L176.96,161.18L177.14,199.42L177.31,177.57L177.67,229.47L178.19,218.54L178.37,199.42L178.54,155.71L178.9,207.62L179.07,191.23L179.25,169.37L179.6,183.03L179.78,161.18L180.66,199.42L180.83,191.23L181.01,188.49L181.18,142.06L181.54,224.01L181.89,166.64L182.06,158.45L182.94,199.42L183.12,183.03L183.47,215.81L183.65,183.03L183.82,188.49L184.53,226.74L184.7,210.35L184.88,185.76L185.05,221.27L185.58,207.62L185.76,207.62L186.11,213.08L186.28,191.23L186.46,221.27L186.64,177.57L186.81,199.42L186.99,177.57L187.87,210.35L188.04,185.76L188.4,169.37L188.57,174.84L188.75,210.35L188.92,202.15L189.1,229.47L189.28,221.27L189.63,199.42L189.8,207.62L189.98,229.47L190.15,188.49L190.51,245.86L190.68,218.54L190.86,221.27L191.03,237.66L191.21,188.49L191.39,193.96L191.56,196.69L191.74,191.23L191.91,221.27L192.44,144.79L192.62,174.84L192.79,221.27L193.14,221.27L193.32,180.3L193.67,218.54L193.85,185.76L194.02,177.57L194.2,150.25L194.38,207.62L194.55,185.76L194.73,196.69L194.9,199.42L195.08,218.54L195.26,180.3L195.78,191.23L195.96,207.62L196.14,210.35L196.31,158.45L197.37,218.54L197.54,199.42L197.72,188.49L197.89,232.2L198.42,172.1L198.77,188.49L198.95,204.88L199.13,169.37L199.65,193.96L199.83,207.62L200.01,180.3L200.18,232.2L200.36,185.76L200.53,215.81L200.88,199.42L201.06,172.1L201.24,158.45L201.41,226.74L202.29,163.91L202.47,224.01L202.64,224.01L202.82,191.23L203,163.91L203.35,191.23L203.52,234.93L203.7,234.93L203.88,172.1L204.58,202.15L204.75,169.37L205.28,215.81L205.46,169.37L205.63,215.81L206.16,202.15L206.34,183.03L206.51,191.23L206.69,136.59L206.87,226.74L207.39,204.88L207.57,199.42L208.45,161.18L208.62,183.03L208.8,221.27L209.15,215.81L209.33,169.37L210.03,224.01L210.21,172.1L211.09,218.54L211.26,155.71L211.97,240.4L212.14,199.42L212.32,193.96L213.02,166.64L213.2,196.69L213.37,207.62L213.55,150.25L214.08,196.69L214.25,183.03L214.43,158.45L214.96,204.88L215.31,183.03L215.49,188.49L215.66,218.54L215.84,180.3L216.19,193.96L216.36,199.42L217.07,166.64L217.24,218.54L218.48,174.84L218.65,226.74L218.83,221.27L219,188.49L219.36,218.54L219.53,166.64L219.71,152.98L219.88,193.96L220.06,218.54L220.23,226.74L220.41,199.42L220.59,183.03L220.94,240.4L221.11,196.69L221.29,193.96L221.47,213.08L221.64,161.18L221.99,204.88L222.17,183.03L222.35,199.42L222.52,180.3L222.7,125.67L222.87,193.96L223.58,185.76L223.75,226.74L224.1,232.2L224.28,177.57L224.63,193.96L224.81,207.62L225.16,245.86L225.34,224.01L225.51,199.42L226.04,207.62L226.22,172.1L226.39,207.62L226.57,210.35L226.74,199.42L227.45,202.15L227.8,155.71L227.97,204.88L228.15,229.47L228.33,185.76L228.5,144.79L229.38,232.2L229.56,221.27L229.73,215.81L230.44,163.91L230.61,169.37L230.79,161.18L230.96,158.45L231.14,185.76L231.67,166.64L231.84,183.03L232.02,180.3L232.55,229.47L232.72,202.15L232.9,185.76L233.08,158.45L233.6,177.57L233.78,188.49L233.96,144.79L234.31,213.08L234.48,166.64L234.66,210.35L234.83,207.62L235.01,213.08L235.19,174.84L235.36,166.64L235.54,204.88L235.89,193.96L236.07,218.54L237.12,172.1L237.3,180.3L237.47,204.88L237.65,218.54L237.83,215.81L238,158.45L239.06,234.93L239.23,218.54L239.41,215.81L239.58,136.59L240.29,207.62L240.46,180.3L240.64,188.49L240.82,139.32L241.17,196.69L241.34,183.03L241.52,177.57L241.87,224.01L242.22,207.62L242.4,147.52L243.1,199.42L243.28,193.96L243.45,188.49L243.81,188.49L243.98,142.06L244.86,210.35L245.04,161.18L245.92,185.76L246.09,193.96L246.8,142.06L246.97,177.57L247.15,202.15L247.32,224.01L247.5,193.96L247.68,204.88L247.85,191.23L248.03,188.49L248.2,191.23L248.38,202.15L248.91,166.64L249.08,207.62L249.26,163.91L249.43,213.08L249.79,199.42L249.96,210.35L250.14,213.08L250.31,207.62L250.49,191.23L250.67,150.25L251.02,174.84L251.19,210.35L251.37,183.03L251.55,215.81L251.9,185.76L252.07,215.81L252.43,221.27L252.95,172.1L253.13,172.1L253.48,169.37L254.01,215.81L254.18,210.35L254.36,188.49L254.54,158.45L254.71,204.88L254.89,191.23L255.06,199.42L255.24,218.54L255.42,166.64L255.59,155.71L255.77,174.84L255.94,155.71L256.12,114.74L256.47,210.35L257,196.69L257.17,213.08L257.53,234.93L257.88,150.25L258.05,215.81L258.41,196.69L258.58,207.62L258.76,234.93L259.11,166.64L259.46,202.15L259.64,196.69L259.99,174.84L260.34,188.49L260.52,188.49L260.69,191.23L260.87,185.76L261.04,204.88L261.57,177.57L261.75,229.47L261.92,245.86L262.1,221.27L262.28,204.88L262.98,155.71L263.16,202.15L263.33,199.42L263.51,177.57L264.04,196.69L264.21,193.96L264.39,172.1L264.74,215.81L264.91,169.37L265.27,202.15L265.44,199.42L266.32,161.18L266.5,177.57L266.85,218.54L267.2,180.3L267.38,202.15L267.91,163.91L268.08,221.27L268.26,177.57L268.78,215.81L268.96,199.42L269.14,204.88L269.31,196.69L269.49,191.23L269.66,158.45L269.84,229.47L270.19,180.3L270.37,215.81L270.72,191.23L270.9,221.27L271.42,166.64L271.6,193.96L271.78,207.62L271.95,172.1L272.13,215.81L272.3,177.57L272.48,218.54L272.83,177.57L273.18,221.27L273.36,193.96L273.53,224.01L273.71,174.84L274.06,185.76L274.24,161.18L274.41,155.71L274.59,204.88L274.77,224.01L274.94,155.71L275.47,215.81L275.64,180.3L275.82,150.25L276,147.52L276.17,183.03L276.52,174.84L276.7,199.42L276.88,188.49L277.05,229.47L277.93,183.03L278.11,196.69L278.64,210.35L278.81,163.91L278.99,185.76L279.16,191.23L279.51,215.81L279.69,183.03L279.87,161.18L280.04,221.27L280.75,210.35L280.92,180.3L281.8,226.74L281.98,193.96L282.15,158.45L282.33,221.27L282.51,174.84L282.68,204.88L282.86,207.62L283.03,174.84L283.21,136.59L283.38,185.76L283.56,226.74L283.74,226.74L283.91,183.03L284.44,207.62L284.62,155.71L284.79,188.49L284.97,142.06L285.32,185.76L285.5,169.37L285.67,158.45L285.85,196.69L286.02,234.93L286.38,224.01L286.55,169.37L286.73,147.52L286.9,210.35L287.08,174.84L287.25,188.49L287.61,210.35L287.96,199.42L288.13,183.03L288.31,177.57L288.49,183.03L288.66,139.32L289.19,226.74L289.54,180.3L289.72,161.18L290.42,215.81L290.6,166.64L290.77,172.1L290.95,204.88L291.65,155.71L291.83,185.76L292,188.49L292.18,229.47L292.71,196.69L292.88,161.18L293.06,166.64L293.24,202.15L293.59,161.18L293.76,229.47L293.94,193.96L294.29,243.13L294.47,221.27L294.64,204.88L294.99,136.59L295.35,193.96L295.52,188.49L295.7,147.52L295.87,210.35L296.05,193.96L296.23,213.08L296.4,150.25L296.93,180.3L297.11,207.62L297.28,193.96L297.81,207.62L297.99,202.15L298.51,185.76L298.69,191.23L298.86,204.88L299.04,166.64L299.39,202.15L299.57,215.81L300.45,177.57L300.62,191.23L300.8,196.69L300.98,193.96L301.15,224.01L301.33,234.93L301.5,224.01L301.68,147.52L302.38,232.2L302.56,188.49L302.73,221.27L303.79,172.1L303.97,207.62L304.14,155.71L304.67,196.69L304.85,193.96L305.02,193.96L305.2,191.23L305.37,193.96L305.55,224.01L305.72,232.2L305.9,183.03L306.08,172.1L306.25,188.49L306.43,202.15L306.6,166.64L306.96,224.01L307.13,218.54L307.31,232.2L307.48,218.54L307.66,183.03L308.19,237.66L308.36,174.84L308.54,204.88L309.59,144.79L309.77,191.23L310.3,224.01L310.47,174.84L310.83,232.2L311.18,215.81L311.35,172.1L311.53,224.01L312.06,174.84L312.23,169.37L312.59,232.2L312.94,161.18L313.11,177.57L313.46,215.81L313.64,188.49L313.82,163.91L313.99,103.81L314.17,226.74L314.34,180.3L314.52,204.88L314.7,150.25L315.22,218.54L315.4,229.47L315.58,237.66L315.75,73.76L316.46,199.42L316.63,169.37L316.81,232.2L317.69,136.59L317.86,196.69L318.04,193.96L318.21,152.98L319.27,196.69L319.45,172.1L319.62,166.64L319.8,199.42L320.15,183.03L320.33,204.88L320.68,240.4L320.85,158.45L321.2,163.91L321.38,215.81L321.56,125.67L321.73,221.27L322.08,180.3L322.26,166.64L322.44,215.81L322.96,196.69L323.14,174.84L323.49,210.35L323.84,185.76L324.02,172.1L324.2,106.54L324.55,161.18L324.72,204.88L324.9,215.81L325.07,207.62L325.25,172.1L325.95,133.86L326.13,158.45L326.31,213.08L326.66,150.25L326.83,152.98L327.01,155.71L327.19,136.59L327.36,172.1L327.71,152.98L327.89,163.91L328.24,183.03L328.59,163.91L328.77,144.79L329.12,202.15L329.65,193.96L329.82,139.32L330.35,213.08L330.7,174.84L330.88,161.18L331.41,196.69L331.58,193.96L331.76,142.06L332.11,218.54L332.46,158.45L332.64,139.32L332.99,131.13L333.17,185.76L333.69,183.03L333.87,169.37L334.4,155.71L334.57,204.88L334.75,158.45L335.1,213.08L335.45,191.23L335.63,172.1L335.8,174.84L335.98,207.62L336.16,199.42L336.33,224.01L336.51,215.81L336.68,166.64L337.21,147.52L337.56,254.05L337.74,215.81L338.62,147.52L338.8,183.03L338.97,193.96L339.15,150.25L339.67,237.66L339.85,218.54L340.03,191.23L340.2,240.4L340.73,226.74L340.91,193.96L341.26,169.37L341.43,199.42L341.61,204.88L341.79,204.88L341.96,229.47L342.31,185.76L342.67,218.54L342.84,218.54L343.37,163.91L343.54,185.76L343.72,202.15L344.07,161.18L344.25,210.35L344.42,204.88L344.6,172.1L344.95,210.35L345.3,185.76L345.48,163.91L345.83,161.18L346.54,207.62L346.71,207.62L346.89,204.88L347.06,185.76L347.24,199.42L347.41,196.69L347.59,136.59L348.12,210.35L348.29,183.03L348.47,155.71L348.65,174.84L349.35,172.1L349.53,166.64L349.7,144.79L350.05,193.96L350.23,166.64L350.41,183.03L350.76,152.98L351.11,188.49L351.28,172.1L351.46,161.18L351.64,172.1L351.81,191.23L352.16,139.32L352.52,147.52L352.69,180.3L352.87,174.84L353.04,185.76L353.22,144.79L353.4,147.52L353.57,185.76L353.92,191.23L354.28,117.47L354.45,142.06L354.63,193.96L354.8,218.54L354.98,174.84L355.15,150.25L355.33,218.54L356.03,210.35L356.21,213.08L356.39,215.81L356.56,196.69L357.09,172.1L357.27,177.57L357.44,204.88L357.79,224.01L358.5,155.71L358.67,183.03L358.85,150.25L359.2,172.1L359.38,199.42L359.9,218.54L360.26,169.37L360.43,204.88L360.61,196.69L360.78,71.03L361.14,204.88L361.66,193.96L361.84,202.15L362.01,185.76L362.37,207.62L362.54,191.23L362.72,207.62L363.25,158.45L363.42,213.08L363.77,174.84L363.95,191.23L364.13,215.81L364.3,215.81L364.48,161.18L364.65,163.91L364.83,226.74L365.01,191.23L365.53,193.96L365.71,202.15L365.88,202.15L366.06,224.01L366.24,163.91L366.76,188.49L366.94,207.62L368.17,150.25L368.35,202.15L368.52,158.45L368.88,207.62L369.05,224.01L369.58,152.98L369.93,177.57L370.11,174.84L370.46,172.1L370.63,193.96L370.81,185.76L370.99,142.06L371.69,202.15L371.87,158.45L372.22,136.59L372.39,166.64L372.57,202.15L372.75,213.08L372.92,169.37L373.45,150.25L373.8,221.27L373.98,199.42L374.15,188.49L374.33,193.96L374.5,226.74L374.86,155.71L375.21,183.03L375.38,202.15L375.56,210.35L375.74,169.37L376.79,229.47L376.97,185.76L377.32,232.2L377.67,191.23L377.85,139.32L378.2,210.35L378.55,180.3L378.73,177.57L378.9,169.37L379.08,191.23L379.25,215.81L379.96,158.45L380.13,125.67L381.01,218.54L381.19,185.76L381.72,166.64L382.07,210.35L382.24,207.62L382.42,207.62L382.6,191.23L382.77,232.2L383.12,183.03L383.3,207.62L383.48,196.69L383.83,204.88L384.36,120.2L384.53,169.37L384.71,213.08L385.06,161.18L385.23,207.62L385.41,193.96L385.76,183.03L385.94,202.15L386.29,166.64L386.64,183.03L386.82,213.08L386.99,240.4L387.35,202.15L387.52,172.1L388.4,202.15L388.58,196.69L388.75,163.91L389.63,234.93L389.81,229.47L389.98,191.23L390.51,188.49L390.69,224.01L390.86,215.81L391.04,218.54L391.57,177.57L391.74,180.3L391.92,215.81L392.09,218.54L392.27,234.93L392.8,166.64L392.97,196.69L393.15,234.93L393.5,183.03L393.85,204.88L394.03,213.08L394.21,172.1L394.91,174.84L395.09,196.69L395.79,158.45L395.96,174.84L396.14,193.96L396.49,202.15L396.84,155.71L397.02,213.08L397.2,207.62L397.37,234.93L397.55,232.2L397.72,243.13L398.43,169.37L398.6,215.81L398.78,218.54L399.13,188.49L399.31,213.08L399.48,161.18L399.83,177.57L400.01,166.64L400.36,213.08L400.71,163.91L400.89,136.59L401.59,237.66L401.77,169.37L402.12,150.25L402.47,218.54L402.65,161.18L403.53,224.01L403.7,180.3L403.88,221.27L404.23,152.98L404.41,210.35L404.58,163.91L405.11,152.98L405.64,207.62L405.82,191.23L405.99,114.74L406.34,210.35L406.52,185.76L406.7,202.15L407.05,226.74L407.4,204.88L407.57,180.3L408.45,234.93L408.63,213.08L408.81,180.3L409.16,193.96L409.33,166.64L409.69,221.27L409.86,147.52L410.04,210.35L410.21,180.3L410.74,169.37L411.09,218.54L411.27,185.76L411.44,210.35L411.62,202.15L411.8,125.67L411.97,199.42L412.5,188.49L412.68,163.91L413.2,218.54L413.38,199.42L413.56,158.45L413.73,152.98L413.91,196.69L414.08,158.45L414.61,207.62L414.79,204.88L414.96,226.74L415.14,174.84L415.31,185.76L415.49,188.49L416.02,229.47L416.19,213.08L416.37,204.88L416.72,218.54L417.07,180.3L417.25,213.08L417.6,243.13L417.78,232.2L417.95,202.15L418.13,152.98L418.66,207.62L418.83,199.42L419.01,199.42L419.18,204.88L419.54,224.01L419.71,185.76L419.89,177.57L420.06,213.08L420.59,193.96L420.77,177.57L420.94,155.71L421.12,221.27L421.3,202.15L421.47,224.01L422.35,155.71L422.53,196.69L422.88,142.06L423.05,199.42L423.23,161.18L423.41,174.84L423.58,207.62L424.11,177.57L424.29,191.23L424.46,226.74L424.64,169.37L424.99,191.23L425.17,213.08L425.52,221.27L426.22,152.98L426.4,193.96L426.92,213.08L427.1,163.91L427.98,204.88L428.16,155.71L428.33,229.47L428.86,193.96L429.04,177.57L429.21,183.03L429.39,237.66L429.91,161.18L430.09,196.69L430.27,199.42L430.62,204.88L430.79,172.1L431.15,180.3L431.32,234.93L432.38,152.98L432.55,185.76L432.73,185.76L432.91,169.37L433.43,213.08L433.61,193.96L433.78,177.57L434.14,237.66L434.31,234.93L434.49,202.15L434.66,210.35L434.84,193.96L435.02,183.03L435.19,139.32L435.72,177.57L435.9,196.69L436.07,199.42L436.25,185.76L436.95,224.01L437.13,196.69L437.48,136.59L437.65,232.2L437.83,210.35L438.18,229.47L438.36,240.4L438.71,155.71L439.06,188.49L439.24,196.69L439.41,207.62L439.59,172.1L439.77,166.64L439.94,163.91L440.12,169.37L440.29,204.88L440.64,193.96L440.82,229.47L441.35,183.03L441.52,193.96L441.7,213.08L442.4,169.37L442.58,177.57L442.76,204.88L443.11,210.35L443.28,196.69L443.46,180.3L443.64,202.15L443.81,185.76L443.99,202.15L444.34,163.91L444.69,172.1L444.87,199.42L445.75,174.84L445.92,199.42L446.27,218.54L446.45,169.37L446.8,191.23L446.98,204.88L447.15,204.88L447.33,177.57L447.51,152.98L447.86,207.62L448.03,196.69L448.38,177.57L448.56,204.88L448.74,169.37L449.26,183.03L449.44,210.35L449.62,226.74L449.79,224.01L449.97,163.91L450.32,224.01L450.67,191.23L450.85,158.45L451.73,215.81L451.9,202.15L452.08,172.1L452.25,191.23L452.61,180.3L452.78,158.45L453.13,204.88L453.66,202.15L453.84,188.49L454.19,210.35L454.37,199.42L454.54,193.96L454.72,207.62L455.07,193.96L455.25,183.03L456.12,234.93L456.3,155.71L457,207.62L457.18,169.37L457.88,232.2L458.06,221.27L458.24,202.15L458.76,155.71L459.29,172.1L459.47,177.57L460.17,207.62L460.35,185.76L460.87,207.62L461.05,202.15L461.23,193.96L461.58,180.3L461.75,207.62L462.63,152.98L462.81,161.18L463.16,155.71L463.34,207.62L463.69,196.69L463.86,218.54L464.04,240.4L464.22,199.42L464.39,207.62L464.57,180.3L464.74,177.57L464.92,155.71L465.1,144.79L465.27,229.47L466.68,161.18L466.86,202.15L467.03,210.35L467.21,152.98L468.09,215.81L468.26,177.57L468.44,147.52L468.61,204.88L468.79,218.54L469.49,204.88L469.67,224.01L470.55,183.03L470.72,191.23L470.9,210.35L471.08,213.08L471.25,177.57L471.96,207.62L472.13,196.69L472.31,202.15L472.48,152.98L473.19,158.45L473.36,180.3L473.89,232.2L474.07,172.1L474.24,224.01L474.42,166.64L474.77,191.23L474.95,207.62L475.47,199.42L476,226.74L476.18,150.25L477.23,224.01L477.41,188.49L477.59,188.49L477.76,202.15L477.94,229.47L478.11,213.08L478.29,166.64L478.99,224.01L479.17,199.42L479.52,234.93L479.7,185.76L479.87,213.08L480.05,169.37L480.75,196.69L480.93,183.03L481.1,191.23L481.46,224.01L481.63,221.27L481.81,185.76L482.16,245.86L482.51,234.93L482.69,166.64L483.04,161.18L483.57,234.93L483.74,221.27L483.92,188.49L484.09,180.3L484.27,185.76L484.45,224.01L484.97,183.03L485.15,193.96L485.33,204.88L485.68,215.81L485.85,158.45L486.03,218.54L486.91,147.52L487.08,188.49L487.79,221.27L487.96,172.1L488.14,166.64L488.32,226.74L488.49,229.47L488.67,202.15L489.2,142.06L489.37,199.42L489.55,224.01L489.72,237.66L490.07,207.62L490.25,215.81L490.43,155.71L490.95,177.57L491.13,202.15L491.31,210.35L491.48,193.96L491.66,174.84L491.83,142.06L492.01,199.42L492.19,199.42L492.36,199.42L492.54,196.69L492.71,204.88L492.89,229.47L493.77,163.91L493.94,191.23L494.47,207.62L494.65,161.18L494.82,163.91L495,174.84" style="vector-effect: none; fill: none; stroke: rgb(239, 85, 59); stroke-opacity: 1; stroke-width: 2px; opacity: 1;"/></g><g class="points"/><g class="text"/></g></g></g></g><path class="xlines-above crisp" d="M0,0" style="fill: none;"/><path class="ylines-above crisp" d="M0,0" style="fill: none;"/><g class="overlines-above"/><g class="xaxislayer-above"><g class="xtick"><text text-anchor="middle" x="0" y="491" transform="translate(37,0)" style="font-family: 'Open Sans', verdana, arial, sans-serif; font-size: 12px; fill: rgb(42, 63, 95); fill-opacity: 1; white-space: pre; opacity: 1;">0</text></g><g class="xtick"><text text-anchor="middle" x="0" y="491" style="font-family: 'Open Sans', verdana, arial, sans-serif; font-size: 12px; fill: rgb(42, 63, 95); fill-opacity: 1; white-space: pre; opacity: 1;" transform="translate(124.95,0)">500</text></g><g class="xtick"><text text-anchor="middle" x="0" y="491" style="font-family: 'Open Sans', verdana, arial, sans-serif; font-size: 12px; fill: rgb(42, 63, 95); fill-opacity: 1; white-space: pre; opacity: 1;" transform="translate(212.91,0)">1000</text></g><g class="xtick"><text text-anchor="middle" x="0" y="491" style="font-family: 'Open Sans', verdana, arial, sans-serif; font-size: 12px; fill: rgb(42, 63, 95); fill-opacity: 1; white-space: pre; opacity: 1;" transform="translate(300.86,0)">1500</text></g><g class="xtick"><text text-anchor="middle" x="0" y="491" style="font-family: 'Open Sans', verdana, arial, sans-serif; font-size: 12px; fill: rgb(42, 63, 95); fill-opacity: 1; white-space: pre; opacity: 1;" transform="translate(388.81,0)">2000</text></g><g class="xtick"><text text-anchor="middle" x="0" y="491" style="font-family: 'Open Sans', verdana, arial, sans-serif; font-size: 12px; fill: rgb(42, 63, 95); fill-opacity: 1; white-space: pre; opacity: 1;" transform="translate(476.77,0)">2500</text></g></g><g class="yaxislayer-above"><g class="ytick"><text text-anchor="end" x="36" y="4.199999999999999" transform="translate(0,453.22)" style="font-family: 'Open Sans', verdana, arial, sans-serif; font-size: 12px; fill: rgb(42, 63, 95); fill-opacity: 1; white-space: pre; opacity: 1;">0.002</text></g><g class="ytick"><text text-anchor="end" x="36" y="4.199999999999999" style="font-family: 'Open Sans', verdana, arial, sans-serif; font-size: 12px; fill: rgb(42, 63, 95); fill-opacity: 1; white-space: pre; opacity: 1;" transform="translate(0,398.59000000000003)">0.004</text></g><g class="ytick"><text text-anchor="end" x="36" y="4.199999999999999" style="font-family: 'Open Sans', verdana, arial, sans-serif; font-size: 12px; fill: rgb(42, 63, 95); fill-opacity: 1; white-space: pre; opacity: 1;" transform="translate(0,343.96000000000004)">0.006</text></g><g class="ytick"><text text-anchor="end" x="36" y="4.199999999999999" style="font-family: 'Open Sans', verdana, arial, sans-serif; font-size: 12px; fill: rgb(42, 63, 95); fill-opacity: 1; white-space: pre; opacity: 1;" transform="translate(0,289.32)">0.008</text></g><g class="ytick"><text text-anchor="end" x="36" y="4.199999999999999" style="font-family: 'Open Sans', verdana, arial, sans-serif; font-size: 12px; fill: rgb(42, 63, 95); fill-opacity: 1; white-space: pre; opacity: 1;" transform="translate(0,234.69)">0.01</text></g><g class="ytick"><text text-anchor="end" x="36" y="4.199999999999999" style="font-family: 'Open Sans', verdana, arial, sans-serif; font-size: 12px; fill: rgb(42, 63, 95); fill-opacity: 1; white-space: pre; opacity: 1;" transform="translate(0,180.06)">0.012</text></g></g><g class="overaxes-above"/></g></g><g class="polarlayer"/><g class="smithlayer"/><g class="ternarylayer"/><g class="geolayer"/><g class="funnelarealayer"/><g class="pielayer"/><g class="iciclelayer"/><g class="treemaplayer"/><g class="sunburstlayer"/><g class="glimages"/><defs id="topdefs-c18f70"><g class="clips"/><clipPath id="legendc18f70"><rect width="153" height="48" x="0" y="0"/></clipPath></defs><g class="layer-above"><g class="imagelayer"/><g class="shapelayer"/></g><g class="infolayer"><g class="legend" pointer-events="all" transform="translate(541.9000000000001,150)"><rect class="bg" shape-rendering="crispEdges" width="153" height="48" x="0" y="0" style="stroke: rgb(68, 68, 68); stroke-opacity: 1; fill: rgb(255, 255, 255); fill-opacity: 1; stroke-width: 0px;"/><g class="scrollbox" transform="" clip-path="url(#legendc18f70)"><g class="groups"><g class="traces" transform="translate(0,14.5)" style="opacity: 1;"><text class="legendtext" text-anchor="start" x="40" y="4.680000000000001" style="font-family: 'Open Sans', verdana, arial, sans-serif; font-size: 12px; fill: rgb(42, 63, 95); fill-opacity: 1; white-space: pre;">zigrad ms/sample</text><g class="layers" style="opacity: 1;"><g class="legendfill"/><g class="legendlines"><path class="js-line" d="M5,0h30" style="fill: none; stroke: rgb(99, 110, 250); stroke-opacity: 1; stroke-width: 2px;"/></g><g class="legendsymbols"><g class="legendpoints"/></g></g><rect class="legendtoggle" x="0" y="-9.5" width="147.953125" height="19" style="fill: rgb(0, 0, 0); fill-opacity: 0;"/></g><g class="traces" transform="translate(0,33.5)" style="opacity: 1;"><text class="legendtext" text-anchor="start" x="40" y="4.680000000000001" style="font-family: 'Open Sans', verdana, arial, sans-serif; font-size: 12px; fill: rgb(42, 63, 95); fill-opacity: 1; white-space: pre;">pytorch ms/sample</text><g class="layers" style="opacity: 1;"><g class="legendfill"/><g class="legendlines"><path class="js-line" d="M5,0h30" style="fill: none; stroke: rgb(239, 85, 59); stroke-opacity: 1; stroke-width: 2px;"/></g><g class="legendsymbols"><g class="legendpoints"/></g></g><rect class="legendtoggle" x="0" y="-9.5" width="147.953125" height="19" style="fill: rgb(0, 0, 0); fill-opacity: 0;"/></g></g></g><rect class="scrollbar" rx="20" ry="3" width="0" height="0" x="0" y="0" style="fill: rgb(128, 139, 164); fill-opacity: 1;"/></g><g class="g-gtitle"><text class="gtitle" x="35" y="75" text-anchor="start" dy="0em" style="opacity: 1; font-family: 'Open Sans', verdana, arial, sans-serif; font-size: 17px; fill: rgb(42, 63, 95); fill-opacity: 1; white-space: pre;">Ms/Sample</text></g><g class="g-xtitle"/><g class="g-ytitle"/></g></svg>